<?xml version="1.0" encoding="utf-8"?>
<!-- Generator: Adobe Illustrator 22.0.0, SVG Export Plug-In . SVG Version: 6.00 Build 0)  -->
<svg version="1.1" id="Layer_1" xmlns="http://www.w3.org/2000/svg" xmlns:xlink="http://www.w3.org/1999/xlink" x="0px" y="0px"
	 viewBox="0 0 157 105.2" style="enable-background:new 0 0 157 105.2;" xml:space="preserve">
<style type="text/css">
	.st0{fill:#ED2F48;}
	.st1{fill:#31BBAC;}
</style>
<g>
	<path class="st0" d="M22.9,52.2c0-0.6-0.5-1.2-1.2-1.2H4.4c-1,0-1.9-0.8-1.9-1.9V36.5v0c0-0.7-0.6-1.2-1.2-1.2
		c-0.7,0-1.2,0.6-1.2,1.2v0v15.6v15.6c0,0.7,0.6,1.2,1.2,1.2c0.7,0,1.2-0.6,1.2-1.2V55.2c0-1.1,0.9-1.9,1.9-1.9h17.3
		C22.4,53.4,22.9,52.8,22.9,52.2"/>
	<path class="st0" d="M27.9,36.5c0-0.7-0.5-1.2-1.2-1.2c-0.7,0-1.2,0.5-1.2,1.2v15.6v15.6c0,0.7,0.5,1.2,1.2,1.2
		c0.7,0,1.2-0.5,1.2-1.2V52.2V36.5z"/>
	<path class="st0" d="M130.3,52.2c0-0.7-0.5-1.2-1.2-1.2h-3.9h-3h-2.3c-0.7,0-1.2,0.5-1.2,1.2c0,0.7,0.5,1.2,1.2,1.2h2.3h3h3.9
		C129.7,53.4,130.3,52.8,130.3,52.2"/>
	<path class="st0" d="M101.6,41.5L101.6,41.5c0-0.7-0.5-1.2-1.2-1.2c-0.7,0-1.2,0.5-1.2,1.2v10.8v4.9v10.8c0,0.7,0.5,1.2,1.2,1.2
		c0.7,0,1.2-0.5,1.2-1.2V52.2V41.5z"/>
	<path class="st0" d="M57,36.5c0-0.7-0.5-1.2-1.2-1.2c-0.7,0-1.2,0.5-1.2,1.2h0v24.9c0,0.5-0.2,1.1-0.5,1.7
		c-0.3,0.6-0.8,1.2-1.3,1.7c-0.5,0.5-1.1,1-1.8,1.3c-0.6,0.3-1.3,0.5-1.9,0.5H38.2c-0.6,0-1.2-0.2-1.8-0.5c-0.7-0.3-1.3-0.8-1.8-1.3
		c-0.6-0.6-1-1.1-1.3-1.8c-0.3-0.6-0.5-1.2-0.5-1.7V36.5v0c0-0.7-0.5-1.2-1.2-1.2c-0.7,0-1.2,0.5-1.2,1.2v0v25.7
		c0,0.1,0,0.2,0.1,0.3c0.1,0.7,0.4,1.4,0.8,2.1c0.4,0.7,1,1.4,1.6,1.9c0.7,0.7,1.4,1.3,2.3,1.7c0.9,0.5,1.7,0.7,2.6,0.7h12
		c0.9,0,1.7-0.2,2.6-0.7c0.9-0.5,1.6-1,2.3-1.7c0.7-0.7,1.3-1.4,1.7-2.2c0.4-0.8,0.7-1.6,0.7-2.3L57,36.5L57,36.5z"/>
	<path class="st0" d="M133.3,66.7C133.3,66.7,133.2,66.7,133.3,66.7l-13.4,0c-0.5,0-1.1-0.2-1.8-0.5c-0.7-0.3-1.3-0.7-1.8-1.2
		c-0.6-0.5-1-1.1-1.4-1.7c-0.3-0.6-0.5-1.2-0.5-1.8V42.9c0-0.5,0.2-1.1,0.5-1.7c0.3-0.6,0.8-1.2,1.3-1.8c0.5-0.5,1.1-1,1.8-1.3
		c0.7-0.3,1.3-0.5,1.9-0.5h13.4c0.6,0,1.2-0.5,1.2-1.2c0-0.6-0.5-1.2-1.2-1.2h-14c-0.9,0-1.7,0.2-2.6,0.7c-0.8,0.5-1.6,1-2.3,1.7
		c-0.7,0.7-1.3,1.4-1.7,2.3c-0.5,0.8-0.7,1.6-0.7,2.3V62c0,0.8,0.3,1.7,0.8,2.5c0.5,0.8,1.1,1.6,1.8,2.2c0.7,0.7,1.5,1.2,2.3,1.6
		c0.9,0.4,1.7,0.7,2.4,0.7h14c0.6,0,1.2-0.5,1.2-1.2C134.4,67.2,133.9,66.7,133.3,66.7"/>
	<path class="st0" d="M156.3,39.9c-0.5-0.8-1.1-1.6-1.8-2.3c-0.7-0.7-1.5-1.2-2.3-1.6c-0.9-0.4-1.7-0.6-2.4-0.6H138
		c-0.6,0-1.2,0.5-1.2,1.2c0,0.6,0.5,1.2,1.2,1.2h11.2c0.5,0,1.1,0.2,1.8,0.5c0.7,0.3,1.3,0.7,1.8,1.2c0.5,0.5,1,1.1,1.4,1.7
		c0.3,0.6,0.5,1.2,0.5,1.8v1.6c0,0.5-0.2,1.1-0.5,1.7c-0.3,0.6-0.8,1.2-1.3,1.7c-0.5,0.5-1.1,1-1.8,1.3c-0.6,0.3-1.3,0.5-1.9,0.5
		h-8.8v0c-2,0-3.6,1.6-3.6,3.6v14.5c0,0.7,0.5,1.2,1.2,1.2c0.7,0,1.2-0.5,1.2-1.2V53.4h0c0-0.7,0.5-1.2,1.2-1.2v0h9.3
		c0.9,0,1.7-0.2,2.6-0.7c0.8-0.5,1.6-1.1,2.3-1.7c0.7-0.7,1.3-1.5,1.7-2.3c0.4-0.8,0.7-1.6,0.7-2.4v-2.6
		C157,41.6,156.8,40.7,156.3,39.9"/>
	<path class="st0" d="M110.2,35.3L110.2,35.3h-4H94.6h-3.2c-0.7,0-1.2,0.5-1.2,1.2c0,0.7,0.5,1.2,1.2,1.2h3.2h11.7h4
		c0.7,0,1.2-0.5,1.2-1.2C111.4,35.8,110.9,35.3,110.2,35.3"/>
	<path class="st0" d="M156.2,67L156.2,67l-7.9-8.9v0l-3.6-4c-0.4-0.5-1.2-0.5-1.7-0.1c-0.5,0.4-0.5,1.2-0.1,1.7l1.5,1.7l9.9,11.2
		c0.4,0.5,1.2,0.5,1.7,0.1C156.6,68.3,156.7,67.5,156.2,67"/>
	<path class="st0" d="M71.5,46c-2.1-3.6-4-6.8-5.3-8.9c-0.6-1.1-1.8-1.8-3.1-1.8c-2,0-3.7,1.6-3.7,3.7h0v0v28.8
		c0,0.7,0.5,1.2,1.2,1.2c0.7,0,1.2-0.5,1.2-1.2v-25V39l0,0h0c0-0.7,0.5-1.2,1.2-1.2c0.5,0,0.9,0.3,1.1,0.6c1.7,2.9,5.4,8.9,8.8,14.8
		L71.5,46z"/>
	<path class="st1" d="M85.6,2.3c-0.7-0.7-1.5-1.2-2.3-1.7C82.4,0.2,81.5,0,80.8,0H69.2c-0.9,0-1.7,0.2-2.6,0.7
		c-0.9,0.5-1.6,1.1-2.3,1.7c-0.7,0.7-1.3,1.5-1.7,2.3c-0.4,0.8-0.7,1.6-0.7,2.4v19.6c0,0.8,0.3,1.7,0.8,2.5c0.5,0.8,1.1,1.6,1.8,2.3
		c0.7,0.7,1.5,1.2,2.3,1.6c0.9,0.4,1.7,0.6,2.4,0.6h11.6c0.9,0,1.7-0.2,2.6-0.7c0.9-0.5,1.6-1.1,2.3-1.7c0.7-0.7,1.3-1.5,1.7-2.3
		c0.5-0.8,0.7-1.6,0.7-2.4V7.1c0-0.8-0.3-1.7-0.8-2.5C86.9,3.8,86.3,3,85.6,2.3 M85.7,26.2c0,0.5-0.2,1.1-0.5,1.7
		c-0.3,0.6-0.8,1.2-1.3,1.7c-0.5,0.5-1.1,1-1.8,1.3c-0.6,0.3-1.3,0.5-1.9,0.5H69.8c-0.6,0-1.2-0.2-1.8-0.5c-0.7-0.3-1.3-0.7-1.8-1.2
		c-0.5-0.5-1-1.1-1.4-1.7c-0.4-0.6-0.5-1.2-0.5-1.8V7.7c0-0.5,0.2-1.1,0.5-1.7c0.3-0.6,0.8-1.2,1.3-1.7c0.5-0.5,1.1-1,1.8-1.3
		c0.7-0.3,1.3-0.5,1.9-0.5h10.4c0.5,0,1.1,0.2,1.8,0.5c0.7,0.3,1.3,0.7,1.8,1.3c0.5,0.5,1,1.1,1.4,1.7c0.4,0.6,0.5,1.2,0.5,1.8V26.2
		z"/>
	<path class="st1" d="M86.5,102.9L86.5,102.9H70.2c-0.5,0-1.1-0.2-1.8-0.5c-0.7-0.3-1.3-0.7-1.8-1.2c-0.6-0.5-1-1.1-1.4-1.7
		c-0.4-0.6-0.5-1.2-0.5-1.8V79.1c0-0.5,0.2-1.1,0.5-1.7c0.3-0.6,0.8-1.2,1.3-1.8c0.5-0.5,1.1-1,1.8-1.3c0.7-0.3,1.3-0.5,1.9-0.5
		h16.3h0c0.6,0,1.2-0.5,1.2-1.2c0-0.6-0.5-1.2-1.2-1.2H69.6c-0.9,0-1.7,0.2-2.6,0.7c-0.8,0.5-1.6,1-2.3,1.7
		c-0.7,0.7-1.3,1.4-1.7,2.3c-0.5,0.8-0.7,1.6-0.7,2.3v19.7c0,0.8,0.3,1.7,0.8,2.5c0.5,0.8,1.1,1.6,1.8,2.2c0.7,0.7,1.5,1.2,2.3,1.6
		c0.9,0.4,1.7,0.7,2.4,0.7h16.9c0.6,0,1.2-0.5,1.2-1.2C87.6,103.4,87.1,102.9,86.5,102.9"/>
	<path class="st1" d="M82.3,87.2L82.3,87.2h-4.9h-2.7h-4.5c-0.7,0-1.2,0.5-1.2,1.2c0,0.7,0.5,1.2,1.2,1.2h4.5h2.7h4.9
		c0.7,0,1.2-0.5,1.2-1.2C83.5,87.7,82.9,87.2,82.3,87.2"/>
	<path class="st1" d="M88.1,65.4L88.1,65.4V36.5c0-0.7-0.5-1.2-1.2-1.2c-0.7,0-1.2,0.5-1.2,1.2v25v3.8c0,0,0,0,0,0h0
		c0,0.7-0.5,1.2-1.2,1.2c-0.5,0-0.9-0.3-1.1-0.6c-0.2-0.3-4.4-7.5-8.8-14.9l1.4,7.2c3,5.1,5.3,9,5.3,9c0.6,1.1,1.8,1.8,3.1,1.8
		C86.5,69,88.1,67.4,88.1,65.4L88.1,65.4z"/>
</g>
</svg>
