<?xml version="1.0" encoding="iso-8859-1"?>
<!-- Generator: Adobe Illustrator 21.0.0, SVG Export Plug-In . SVG Version: 6.00 Build 0)  -->
<svg version="1.1" xmlns="http://www.w3.org/2000/svg" xmlns:xlink="http://www.w3.org/1999/xlink" x="0px" y="0px"
	 viewBox="0 0 29.368 29.368" style="enable-background:new 0 0 29.368 29.368;" xml:space="preserve">
<g id="Layer_4">
	<path style="fill:#31BBAC;" d="M14.659,0c8.185-0.002,14.706,6.497,14.709,14.659c0.003,8.18-6.503,14.706-14.663,14.708
		C6.472,29.37-0.008,22.857,0,14.59C0.008,6.503,6.54,0.002,14.659,0z M11.018,11.954c0,0.962,0,1.814,0,2.675
		c0.564,0.05,1.041,0.093,1.617,0.144c0,2.695,0,5.315,0,7.952c1.119,0,2.128,0,3.254,0c0-2.695,0-5.314,0-7.978
		c0.819-0.044,1.522-0.083,2.284-0.124c0.08-0.935,0.152-1.784,0.232-2.714c-0.557,0-0.935,0.008-1.312-0.002
		c-0.369-0.01-0.738-0.037-1.087-0.055c-0.343-2.251-0.306-2.293,2.313-2.68c0-0.844,0-1.693,0-2.883
		c-1.616,0.315-3.248,0.289-4.508,0.961c-1.731,0.923-1.069,2.977-1.266,4.608C12.001,11.892,11.552,11.92,11.018,11.954z"/>
</g>
<g id="Layer_1">
</g>
</svg>
