<?xml version="1.0" encoding="iso-8859-1"?>
<!-- Generator: Adobe Illustrator 21.0.0, SVG Export Plug-In . SVG Version: 6.00 Build 0)  -->
<svg version="1.1" xmlns="http://www.w3.org/2000/svg" xmlns:xlink="http://www.w3.org/1999/xlink" x="0px" y="0px"
	 viewBox="0 0 29.629 29.654" style="enable-background:new 0 0 29.629 29.654;" xml:space="preserve">
<g id="Layer_2">
	<path style="fill:#31BBAC;" d="M10.886,29.023c0.775-2.363,1.549-4.723,2.338-7.13c1.086,1.233,2.5,1.799,4.172,1.635
		c1.947-0.192,3.589-1.022,4.828-2.541c2.143-2.63,2.797-5.711,2.26-8.97c-0.486-2.953-2.374-4.948-5.103-6.112
		C15.161,4.106,9.715,5.375,6.942,8.833C4.96,11.305,4.38,14.09,5.418,17.13c0.39,1.142,1.126,2.025,2.226,2.589
		c0.537,0.275,0.817,0.108,0.971-0.428c0.221-0.77,0.32-1.439-0.26-2.202C7.45,15.898,7.5,14.443,7.825,13.05
		c1.298-5.57,7.356-6.649,10.811-4.63c1.461,0.854,2.291,2.192,2.465,3.836c0.254,2.403-0.133,4.72-1.429,6.811
		c-0.652,1.053-1.539,1.821-2.83,2.009c-1.767,0.258-3.138-1.103-2.761-2.848c0.295-1.364,0.739-2.695,1.093-4.046
		c0.095-0.362,0.13-0.746,0.146-1.121c0.039-0.909-0.212-1.68-1.129-2.072c-0.811-0.346-1.789-0.123-2.464,0.629
		c-1.214,1.352-1.225,2.942-0.876,4.614c0.108,0.516,0.139,1.09,0.033,1.602c-0.606,2.937-1.274,5.86-1.892,8.794
		c-0.111,0.527-0.081,1.083-0.117,1.643c-5.918-2.25-10.71-9.748-8.191-17.853C3.191,2.358,11.831-1.94,19.731,0.852
		c7.871,2.782,11.932,11.582,8.881,19.319C25.41,28.289,16.801,31.03,10.886,29.023z"/>
</g>
<g id="Layer_1">
</g>
</svg>
