<?xml version="1.0" encoding="iso-8859-1"?>
<!-- Generator: Adobe Illustrator 21.0.0, SVG Export Plug-In . SVG Version: 6.00 Build 0)  -->
<svg version="1.1" xmlns="http://www.w3.org/2000/svg" xmlns:xlink="http://www.w3.org/1999/xlink" x="0px" y="0px"
	 viewBox="0 0 208.127 97.98" style="enable-background:new 0 0 208.127 97.98;" xml:space="preserve">
<g id="Layer_2">
	<g>
		<g>
			<polygon style="fill:#010101;" points="192.494,97.98 0,97.98 0,19.597 15.633,0.001 190.737,19.597 208.126,78.383 			"/>
			<rect x="20.228" y="5.761" style="fill:#FFFFFF;" width="183.302" height="66.861"/>
			<path style="fill:#010101;" d="M208.127,0H15.633v78.383h192.494V0z M198.934,66.861H24.826v-55.34h174.109V66.861z"/>
		</g>
		<g>
			<g>
				<path style="fill:#010101;" d="M45.313,23.225c0-0.43,0.387-0.816,0.816-0.816h5.156c0.43,0,0.816,0.387,0.816,0.816V51.67
					c0,0.43-0.387,0.816-0.816,0.816H46.13c-0.43,0-0.816-0.387-0.816-0.816V23.225z"/>
				<path style="fill:#010101;" d="M57.601,44.065v-3.91c0-0.473,0.344-0.816,0.816-0.816h9.84c0.473,0,0.816,0.344,0.816,0.816
					v3.91c0,0.43-0.344,0.773-0.816,0.773h-9.84C57.944,44.838,57.601,44.495,57.601,44.065z"/>
				<path style="fill:#010101;" d="M74.572,23.225c0-0.43,0.344-0.816,0.773-0.816H85.83c8.293,0,15.082,6.746,15.082,14.996
					c0,8.336-6.789,15.082-15.082,15.082H75.345c-0.43,0-0.773-0.387-0.773-0.816V23.225z M85.4,46.127
					c4.855,0,8.379-3.824,8.379-8.723c0-4.855-3.523-8.68-8.379-8.68h-4.125v17.402H85.4z"/>
				<path style="fill:#010101;" d="M105.979,23.225c0-0.43,0.344-0.816,0.816-0.816h17.789c0.473,0,0.816,0.387,0.816,0.816v4.684
					c0,0.43-0.344,0.816-0.816,0.816h-11.902v5.328h9.797c0.43,0,0.816,0.387,0.816,0.816v4.684c0,0.473-0.387,0.816-0.816,0.816
					h-9.797v5.801h11.902c0.473,0,0.816,0.387,0.816,0.816v4.684c0,0.43-0.344,0.816-0.816,0.816h-17.789
					c-0.473,0-0.816-0.387-0.816-0.816V23.225z"/>
				<path style="fill:#010101;" d="M130.985,23.225c0-0.43,0.344-0.816,0.816-0.816h17.789c0.473,0,0.816,0.387,0.816,0.816v4.684
					c0,0.43-0.344,0.816-0.816,0.816h-11.902v5.328h9.797c0.43,0,0.816,0.387,0.816,0.816v4.684c0,0.473-0.387,0.816-0.816,0.816
					h-9.797v5.801h11.902c0.473,0,0.816,0.387,0.816,0.816v4.684c0,0.43-0.344,0.816-0.816,0.816h-17.789
					c-0.473,0-0.816-0.387-0.816-0.816V23.225z"/>
				<path style="fill:#010101;" d="M155.991,23.225c0-0.43,0.344-0.816,0.816-0.816h12.848c5.156,0,9.367,4.168,9.367,9.281
					c0,3.953-2.621,7.133-6.359,8.637l5.887,10.914c0.301,0.559,0,1.246-0.73,1.246h-5.715c-0.344,0-0.602-0.215-0.688-0.387
					l-5.715-11.387h-2.965V51.67c0,0.43-0.387,0.816-0.816,0.816h-5.113c-0.473,0-0.816-0.387-0.816-0.816V23.225z M169.096,35.256
					c1.762,0,3.266-1.633,3.266-3.437c0-1.805-1.504-3.266-3.266-3.266h-6.359v6.703H169.096z"/>
			</g>
		</g>
	</g>
</g>
<g id="Layer_1">
</g>
</svg>
