<?xml version="1.0" encoding="utf-8"?>
<!-- Generator: Adobe Illustrator 22.0.0, SVG Export Plug-In . SVG Version: 6.00 Build 0)  -->
<svg version="1.1" id="Layer_1" xmlns="http://www.w3.org/2000/svg" xmlns:xlink="http://www.w3.org/1999/xlink" x="0px" y="0px"
	 viewBox="0 0 844.6 86.2" style="enable-background:new 0 0 844.6 86.2;" xml:space="preserve">
<style type="text/css">
	.st0{fill:#ED2F48;}
	.st1{fill:#FFFFFF;}
</style>
<g>
	<g>
		<path class="st0" d="M0,3.5c0-1.2,1-2.3,2.3-2.3h14.3c1.2,0,2.3,1.1,2.3,2.3v63.9h28.5c1.3,0,2.3,1.1,2.3,2.3v13.1
			c0,1.2-1,2.3-2.3,2.3h-45C1,85,0,83.9,0,82.7V3.5z"/>
		<path class="st0" d="M85.2,3.5c0-1.2,1-2.3,2.3-2.3H137c1.3,0,2.3,1.1,2.3,2.3v13.1c0,1.2-1,2.3-2.3,2.3h-33.2v14.8h27.3
			c1.2,0,2.3,1.1,2.3,2.3V49c0,1.3-1.1,2.3-2.3,2.3h-27.3v16.2H137c1.3,0,2.3,1.1,2.3,2.3v13.1c0,1.2-1,2.3-2.3,2.3H87.4
			c-1.3,0-2.3-1.1-2.3-2.3V3.5z"/>
		<path class="st0" d="M190.1,18.8h-17.1c-1.3,0-2.3-1.1-2.3-2.3V3.5c0-1.2,1-2.3,2.3-2.3h53.2c1.3,0,2.3,1.1,2.3,2.3v13.1
			c0,1.2-1,2.3-2.3,2.3H209v63.9c0,1.2-1.1,2.3-2.3,2.3h-14.4c-1.2,0-2.3-1.1-2.3-2.3V18.8z"/>
		<path class="st0" d="M260.4,33.3c-0.8-1-0.6-2,0.1-2.6c1.3-1,8.4-6.2,8.5-14.4c0,0-2,0.8-4.8,0.8c-4.7,0-8.6-3.7-8.6-8.5
			c0-4.7,4-8.6,9.5-8.6c4.6,0,10.9,3.5,10.9,13.9c0,12.6-8.4,19.2-11.1,21.4c-0.8,0.6-1.7,0.8-2.6-0.2L260.4,33.3z"/>
		<path class="st0" d="M307.4,73.6l5.6-9.9c1-1.6,3.2-1.3,4.1-0.7c0.5,0.2,9.1,6.6,17,6.6c4.8,0,8.3-3,8.3-7.2
			c0-5-4.2-8.9-12.3-12.1c-10.3-4.1-23.2-12.1-23.2-26.5C306.8,12,316.1,0,334.5,0c12.5,0,22,6.3,25.6,9c1.4,0.8,1.2,3,0.7,3.8
			l-6.1,9.2c-0.8,1.3-3,2.4-4.1,1.6c-1.1-0.6-9.8-7.2-17.1-7.2c-4.3,0-7.5,2.9-7.5,6.1c0,4.4,3.6,7.8,13.1,11.6
			c9.3,3.7,24.2,11,24.2,27.3c0,12.3-10.7,24.8-28.3,24.8c-15.6,0-24.2-6.5-26.9-9.2C306.8,75.8,306.5,75.3,307.4,73.6z"/>
		<path class="st1" d="M452.2,3.5c0-1.2,1.1-2.3,2.3-2.3h14.3c1.3,0,2.3,1.1,2.3,2.3v30.2h34.3V3.5c0-1.2,1-2.3,2.3-2.3h14.3
			c1.2,0,2.3,1.1,2.3,2.3v79.3c0,1.2-1.1,2.3-2.3,2.3h-14.3c-1.3,0-2.3-1.1-2.3-2.3V51.3H471v31.5c0,1.2-1,2.3-2.3,2.3h-14.3
			c-1.2,0-2.3-1.1-2.3-2.3V3.5z"/>
		<path class="st1" d="M567.5,3.5c0-1.2,1.1-2.3,2.3-2.3h14.7c1.3,0,2.3,1.1,2.3,2.3V52c0,8.4,6.2,15.1,14.7,15.1
			c8.6,0,15-6.7,15-15.1V3.5c0-1.2,1-2.3,2.3-2.3h14.7c1.2,0,2.3,1.1,2.3,2.3v49.5c0,18.2-15.3,33.3-34.3,33.3
			c-18.8,0-34-15.1-34-33.3V3.5z"/>
		<path class="st1" d="M678.8,2.2c0-1.2,1.1-2.2,2.3-2.2h3l47.8,46h0.1V3.5c0-1.2,1-2.3,2.3-2.3h14.4c1.2,0,2.3,1.1,2.3,2.3v80.6
			c0,1.2-1.1,2.2-2.3,2.2h-1.9c-0.4,0-1.3-0.4-1.6-0.6l-47.3-47.5h-0.1v44.7c0,1.2-1,2.3-2.3,2.3h-14.3c-1.2,0-2.3-1.1-2.3-2.3
			L678.8,2.2z"/>
		<path class="st1" d="M806.3,18.8h-17.1c-1.3,0-2.3-1.1-2.3-2.3V3.5c0-1.2,1-2.3,2.3-2.3h53.2c1.3,0,2.3,1.1,2.3,2.3v13.1
			c0,1.2-1,2.3-2.3,2.3h-17.1v63.9c0,1.2-1.1,2.3-2.3,2.3h-14.4c-1.2,0-2.3-1.1-2.3-2.3V18.8z"/>
	</g>
</g>
</svg>
