<?xml version="1.0" encoding="iso-8859-1"?>
<!-- Generator: Adobe Illustrator 21.0.0, SVG Export Plug-In . SVG Version: 6.00 Build 0)  -->
<svg version="1.1" xmlns="http://www.w3.org/2000/svg" xmlns:xlink="http://www.w3.org/1999/xlink" x="0px" y="0px"
	 viewBox="0 0 192.352 34.55" style="enable-background:new 0 0 192.352 34.55;" xml:space="preserve">
<g id="arrow_x5F_cir">
	<g>
		<g>
			<path style="fill-rule:evenodd;clip-rule:evenodd;fill:none;stroke:#151529;stroke-width:0.7638;stroke-miterlimit:10;" d="
				M175.077,34.168c9.304,0,16.893-7.589,16.893-16.893c0-9.304-7.589-16.893-16.893-16.893c-9.304,0-16.893,7.589-16.893,16.893
				C158.184,26.579,165.773,34.168,175.077,34.168z"/>
			
				<path style="opacity:0.5;fill-rule:evenodd;clip-rule:evenodd;fill:none;stroke:#ED2F48;stroke-width:0.7638;stroke-miterlimit:10;" d="
				M175.077,33.371c8.866,0,16.096-7.231,16.096-16.096c0-8.866-7.231-16.096-16.096-16.096c-8.866,0-16.096,7.231-16.096,16.096
				C158.981,26.141,166.212,33.371,175.077,33.371z"/>
			<path style="fill-rule:evenodd;clip-rule:evenodd;fill:none;stroke:#151529;stroke-width:0.7638;stroke-miterlimit:10;" d="
				M175.077,30.184c7.11,0,12.909-5.799,12.909-12.909c0-7.11-5.799-12.909-12.909-12.909s-12.909,5.799-12.909,12.909
				C162.168,24.385,167.967,30.184,175.077,30.184z"/>
			
				<path style="opacity:0.5;fill-rule:evenodd;clip-rule:evenodd;fill:none;stroke:#ED2F48;stroke-width:0.7638;stroke-miterlimit:10;" d="
				M175.077,27.721c5.754,0,10.446-4.693,10.446-10.446c0-5.754-4.693-10.446-10.446-10.446c-5.754,0-10.446,4.693-10.446,10.446
				C164.631,23.029,169.324,27.721,175.077,27.721z"/>
			<path style="fill-rule:evenodd;clip-rule:evenodd;fill:none;stroke:#151529;stroke-width:0.7638;stroke-miterlimit:10;" d="
				M175.077,25.722c4.652,0,8.447-3.794,8.447-8.447c0-4.652-3.794-8.447-8.447-8.447c-4.652,0-8.447,3.794-8.447,8.447
				C166.631,21.927,170.425,25.722,175.077,25.722z"/>
			<circle style="fill-rule:evenodd;clip-rule:evenodd;fill:#ED2F48;" cx="175.077" cy="17.275" r="4.548"/>
		</g>
		
			<line style="fill:none;stroke:#FFFFFF;stroke-width:3.0551;stroke-miterlimit:10;" x1="25.045" y1="17.31" x2="160.254" y2="17.31"/>
		<polygon style="fill:#FFFFFF;" points="154.533,9.51 175.622,17.308 154.533,25.106 159.313,17.308 		"/>
		<g>
			<g>
				<polygon style="fill:#FFFFFF;" points="13.493,21.784 17.528,16.975 13.493,12.832 24.664,12.832 28.7,17.308 24.664,21.784 
									"/>
				<polygon style="fill:#FFFFFF;" points="0,21.784 4.035,16.975 0,12.832 11.172,12.832 15.207,17.308 11.172,21.784 				"/>
			</g>
		</g>
	</g>
</g>
<g id="Layer_1">
</g>
</svg>
