<?xml version="1.0" encoding="iso-8859-1"?>
<!-- Generator: Adobe Illustrator 21.0.0, SVG Export Plug-In . SVG Version: 6.00 Build 0)  -->
<svg version="1.1" xmlns="http://www.w3.org/2000/svg" xmlns:xlink="http://www.w3.org/1999/xlink" x="0px" y="0px"
	 viewBox="0 0 189.451 91.98" style="enable-background:new 0 0 189.451 91.98;" xml:space="preserve">
<g id="Layer_1_1_">
	<g>
		<polygon style="fill:#010101;" points="171.058,91.98 0,91.98 0,18.397 18.393,0 168.99,18.397 189.451,73.583 		"/>
		<rect x="23.802" y="5.408" style="fill:#FFFFFF;" width="160.242" height="62.767"/>
		<path style="fill:#010101;" d="M189.451,0H18.393v73.583h171.058V0z M178.635,62.767H29.21V10.816h149.425V62.767z"/>
		<g>
			<path style="fill:#010101;" d="M46.909,22.09c0-0.448,0.403-0.852,0.852-0.852h5.335c0.493,0,0.852,0.404,0.852,0.852v11.297
				h12.821V22.09c0-0.448,0.359-0.852,0.853-0.852h5.334c0.449,0,0.853,0.404,0.853,0.852v29.677c0,0.449-0.403,0.852-0.853,0.852
				h-5.334c-0.493,0-0.853-0.402-0.853-0.852v-11.79H53.947v11.79c0,0.449-0.358,0.852-0.852,0.852h-5.335
				c-0.448,0-0.852-0.402-0.852-0.852V22.09z"/>
			<path style="fill:#010101;" d="M80.887,22.09c0-0.448,0.403-0.852,0.852-0.852h5.515c0.493,0,0.852,0.404,0.852,0.852v18.156
				c0,3.138,2.331,5.648,5.514,5.648c3.228,0,5.604-2.51,5.604-5.648V22.09c0-0.448,0.358-0.852,0.852-0.852h5.514
				c0.448,0,0.852,0.404,0.852,0.852v18.515c0,6.815-5.738,12.463-12.821,12.463c-7.038,0-12.731-5.648-12.731-12.463V22.09z"/>
			<path style="fill:#010101;" d="M113.43,21.597c0-0.448,0.403-0.807,0.852-0.807h1.121l17.887,17.215h0.045V22.09
				c0-0.448,0.359-0.852,0.853-0.852h5.379c0.448,0,0.853,0.404,0.853,0.852v30.171c0,0.447-0.404,0.807-0.853,0.807h-0.717
				c-0.135,0-0.493-0.135-0.583-0.225l-17.708-17.797h-0.045v16.721c0,0.449-0.358,0.852-0.852,0.852h-5.335
				c-0.448,0-0.852-0.402-0.852-0.852L113.43,21.597z"/>
			<path style="fill:#010101;" d="M151.981,27.828h-6.411c-0.493,0-0.852-0.404-0.852-0.852V22.09c0-0.448,0.358-0.852,0.852-0.852
				h19.904c0.493,0,0.853,0.404,0.853,0.852v4.886c0,0.448-0.359,0.852-0.853,0.852h-6.41v23.939c0,0.449-0.403,0.852-0.853,0.852
				h-5.379c-0.448,0-0.852-0.402-0.852-0.852V27.828z"/>
		</g>
	</g>
</g>
<g id="Layer_1">
</g>
</svg>
