<?xml version="1.0" encoding="iso-8859-1"?>
<!-- Generator: Adobe Illustrator 21.0.0, SVG Export Plug-In . SVG Version: 6.00 Build 0)  -->
<svg version="1.1" xmlns="http://www.w3.org/2000/svg" xmlns:xlink="http://www.w3.org/1999/xlink" x="0px" y="0px"
	 viewBox="0 0 29.368 29.368" style="enable-background:new 0 0 29.368 29.368;" xml:space="preserve">
<g id="Layer_3">
	<path style="fill:#31BBAC;" d="M29.368,14.715c-0.003,8.154-6.535,14.656-14.719,14.653C6.492,29.364-0.003,22.838,0,14.649
		C0.003,6.44,6.537-0.014,14.829,0C22.885,0.013,29.371,6.578,29.368,14.715z M8.28,16.394c0.512,0.539,0.872,1.026,1.335,1.378
		c0.457,0.348,1.018,0.559,1.653,0.894c-0.548,0.28-0.932,0.556-1.36,0.68c-0.943,0.273-1.908,0.47-2.927,0.712
		c0.162,0.113,0.299,0.236,0.458,0.315c5.238,2.616,11.553-0.16,13.251-5.77c0.483-1.597,0.068-3.524,1.656-4.766
		c-0.31,0.038-0.62,0.076-1.051,0.129c0.353-0.534,0.63-0.954,0.906-1.373c-1.211,0.564-2.17,0.241-3.26-0.329
		c-1.59-0.832-3.648,0.183-4.253,1.945c-0.205,0.596-0.244,1.249-0.359,1.875c-2.167-0.101-3.081-0.551-6.746-3.33
		c-0.727,1.575-0.31,2.938,0.869,4.331c-0.565-0.108-0.908-0.173-1.283-0.244c0.29,1.686,0.459,1.934,2.129,3.172
		C9.011,16.122,8.747,16.22,8.28,16.394z"/>
</g>
<g id="Layer_1">
</g>
</svg>
