<?xml version="1.0" encoding="iso-8859-1"?>
<!-- Generator: Adobe Illustrator 21.0.0, SVG Export Plug-In . SVG Version: 6.00 Build 0)  -->
<svg version="1.1" xmlns="http://www.w3.org/2000/svg" xmlns:xlink="http://www.w3.org/1999/xlink" x="0px" y="0px"
	 viewBox="0 0 197.897 219.882" style="enable-background:new 0 0 197.897 219.882;" xml:space="preserve">
<g id="s">
	<g>
		<path style="fill:#ED2F48;" d="M81.512,176.47c28.571,11.345,43.277,24.79,43.277,42.437c0,0.328-0.013,0.652-0.025,0.976h73.006
			c0.083-1.445,0.128-2.891,0.128-4.337c0-57.143-52.1-82.772-84.873-95.798c-33.193-13.445-45.798-25.21-45.798-40.756
			c0-11.345,11.345-21.429,26.47-21.429c25.631,0,56.303,23.109,60.084,25.21c3.781,2.941,11.345-0.84,14.286-5.462l21.429-32.353
			c1.68-2.941,2.521-10.504-2.521-13.445C174.368,22.269,140.755,0,97.058,0C32.353,0,0,42.017,0,83.613
			C0,134.033,45.378,162.185,81.512,176.47z"/>
		<path style="fill:#ED2F48;" d="M26.739,219.882h6.879C31.612,219.313,29.071,219.183,26.739,219.882z"/>
	</g>
</g>
<g id="Layer_1">
</g>
</svg>
