<?xml version="1.0" encoding="iso-8859-1"?>
<!-- Generator: Adobe Illustrator 21.0.0, SVG Export Plug-In . SVG Version: 6.00 Build 0)  -->
<svg version="1.1" xmlns="http://www.w3.org/2000/svg" xmlns:xlink="http://www.w3.org/1999/xlink" x="0px" y="0px"
	 viewBox="0 0 159.252 159.252" style="enable-background:new 0 0 159.252 159.252;" xml:space="preserve">
<g id="jetstar">
	<g>
		<circle style="fill:#FFFFFF;" cx="79.626" cy="79.626" r="79.626"/>
		<g>
			<path id="path25_1_" style="fill:#0E0E0E;" d="M55.784,79.265h-3.352v7.213c0,1.308,0.767,1.595,1.947,1.595
				c0.449,0,0.927-0.063,1.405-0.063v3.992c-0.99,0.032-1.98,0.158-2.968,0.158c-4.63,0-5.812-1.34-5.812-5.842v-7.053h-2.745
				v-3.644h2.745v-5.204h5.429v5.204h3.352V79.265z M83.11,79.265h-3.354v7.213c0,1.308,0.767,1.595,1.949,1.595
				c0.447,0,0.927-0.063,1.405-0.063v3.992c-0.99,0.032-1.98,0.158-2.97,0.158c-4.63,0-5.81-1.34-5.81-5.842v-7.053h-2.747v-3.644
				h2.747v-5.204h5.427v5.204h3.354V79.265z M26.87,85.108c0,4.844-2.485,7.295-7.571,7.295c-5.723,0-7.569-3.3-7.569-8.114v-0.938
				h5.298v1.999c0,1.424,0.787,2.211,2.179,2.211c1.303,0,2.029-0.728,2.029-2.818V70.331h5.633V85.108z M39.519,82.023
				c-0.095-1.835-1.392-3.356-3.197-3.356c-1.9,0-3.166,1.362-3.482,3.356H39.519z M32.84,85.029
				c0.095,2.248,1.392,3.735,3.672,3.735c1.297,0,2.565-0.599,3.073-1.803h5.03c-0.981,3.798-4.494,5.444-8.166,5.444
				c-5.349,0-8.991-3.227-8.991-8.736c0-5.032,4.022-8.641,8.864-8.641c5.888,0,8.831,4.433,8.579,10.001H32.84z M61.076,86.533
				c0,0.821,0.346,1.422,0.884,1.831c0.504,0.38,1.232,0.568,1.989,0.568c1.042,0,2.525-0.441,2.525-1.736
				c0-1.264-1.673-1.515-2.62-1.734c-3.38-0.854-7.61-0.947-7.61-5.369c0-3.945,4.266-5.019,7.483-5.019
				c3.599,0,7.357,1.042,7.547,5.304h-4.956c0-0.694-0.255-1.137-0.696-1.422c-0.441-0.283-1.04-0.409-1.705-0.409
				c-0.884,0-2.304,0.095-2.304,1.232c0,1.547,3.597,1.829,6.061,2.367c3.316,0.663,4.167,3.061,4.167,4.42
				c0,4.388-4.167,5.84-7.861,5.84c-3.884,0-7.863-1.293-8.019-5.872H61.076z M91.021,89.098c2.551,0,3.4-1.448,3.274-4.816
				c-0.756,0.471-2.142,0.566-3.307,0.88c-1.197,0.285-2.204,0.787-2.204,2.079C88.784,88.564,89.824,89.098,91.021,89.098
				 M84.092,80.628c0.095-2.142,1.102-3.529,2.55-4.377c1.45-0.821,3.337-1.135,5.196-1.135c3.875,0,7.619,0.851,7.619,5.481v7.15
				c0,1.383,0,2.896,0.633,4.187h-5.386c-0.188-0.504-0.253-1.009-0.315-1.543c-1.387,1.448-3.434,2.012-5.386,2.012
				c-3.117,0-5.572-1.573-5.572-4.941c0-5.324,5.793-4.913,9.51-5.669c0.912-0.19,1.416-0.504,1.416-1.511
				c0-1.23-1.48-1.703-2.583-1.703c-1.48,0-2.423,0.663-2.676,2.049H84.092z M107.706,76.099c-0.819,0.536-1.455,1.319-1.842,2.339
				h-0.061v-2.873h-5.211v16.387h5.367v-8.114c0-2.051,1.387-3.884,4.04-3.884c0.616,0,1.167,0.095,1.742,0.238L107.706,76.099z"/>
			<path id="path53_1_" style="fill:#828282;" d="M131.303,60.98l0.7,11.235h15.519l-14.864,9.836l3.279,16.221l-12.635-10.973
				l-17.008,8.831l10.143-13.902l-9.618-10.013h15.566L131.303,60.98z"/>
		</g>
	</g>
</g>
<g id="Layer_1">
</g>
</svg>
