<?xml version="1.0" encoding="utf-8"?>
<!-- Generator: Adobe Illustrator 19.0.0, SVG Export Plug-In . SVG Version: 6.00 Build 0)  -->
<svg version="1.1" id="Layer_1" xmlns="http://www.w3.org/2000/svg" xmlns:xlink="http://www.w3.org/1999/xlink" x="0px" y="0px"
	 viewBox="1093 258.2 52.1 44.8" style="enable-background:new 1093 258.2 52.1 44.8;" xml:space="preserve">
<style type="text/css">
	.st0{fill:#A6CE39;}
	.st1{fill:#005BAA;}
</style>
<g>
	<path class="st0" d="M1105,264.8c0.5,0.2,3.1,2.6,3.8,3.2c0.4,0.4,3.4,3.2,3.5,3.6c0.2,0.2,1.6,1.6,1.8,1.9l1.1,1.4
		c0.8,1,1.1,1.5,1.9,2.5c0.1,0.1,0.2,0.3,0.2,0.4s-0.2,0.8-0.2,1c-0.2,0.6-0.3,1.4-0.4,2.1c0,0.4-0.1,0.7-0.2,1.1
		c-0.1,0.7-0.3,2.8-0.3,3.5c0.1-0.1,0.1-0.3,0.2-0.5c0.5-1.3,1.4-3,2.1-4.2c0.8-1.3,1.1-1.8,1.9-3c0.6-0.8,1.2-1.6,1.8-2.4
		c0.1-0.1,0.2-0.3,0.3-0.4l1.9-2.3c0.2-0.2,0.5-0.7,0.7-0.7c0.1-0.2,0.3-0.3,0.4-0.5c0.1-0.2,0.3-0.3,0.4-0.5
		c0.5-0.6,2.7-2.8,3.1-3.2c0.5-0.5,3-2.8,3.4-2.9c0.1-0.1,0.2-0.1,0.3-0.2l0.8-0.7c1-0.9,2.9-2.2,4-3c0.2-0.2,0.4-0.3,0.6-0.4
		c0.2-0.1,0.4-0.3,0.6-0.4l3-1.9c0.1-0.1,0,0,0.1-0.1c-0.3,0-0.4-0.1-0.6,0c-1.1,0.1-1.9,0.1-3.2,0.3c-0.4,0.1-0.8,0.1-1.2,0.2
		c-0.5,0.1-1.1,0.2-1.6,0.4c-0.2,0.1-0.4,0.1-0.6,0.2c-0.7,0.2-1.4,0.4-2.1,0.7c-1.8,0.7-3.8,1.7-5.4,2.9c-0.1,0.1-0.2,0.2-0.4,0.3
		c-0.4,0.3-0.8,0.6-1.2,0.9c-0.5,0.4-1.3,1.2-1.8,1.6l-1,1.1c-1.2,1.5-1.8,2.3-2.8,4.1c-0.2,0.3-0.3,0.6-0.5,0.9
		c-0.1,0.3-0.3,0.6-0.5,0.9c-0.7,1.7-0.9,2.1-1.5,4l-0.3,1l0,0c0-0.4-0.2-1.3-0.3-1.7c-0.1-0.5-0.3-1.1-0.4-1.6
		c-0.8-2.3-1.5-4.2-3-6.2c-0.3-0.5-0.7-1-1.1-1.4l-0.7-0.8c-0.5-0.5-1.1-1-1.7-1.4c-1.6-1.2-3.6-2.1-5.7-2.5c-1-0.2-1.7-0.3-2.7-0.3
		c-0.4,0-0.6,0-1,0c0,0.2,0.9,0.7,1,0.9c0.4,0.3,0.7,0.5,1.1,0.8L1105,264.8L1105,264.8z"/>
	<path class="st1" d="M1112.3,271.6c-0.1-0.3-3.1-3.2-3.5-3.6c-0.7-0.6-3.4-3-3.8-3.2v20.1c0,0.5-0.1,0.6,0.3,0.6c2.3,0,4.7,0,7,0
		V271.6L1112.3,271.6z"/>
	<path class="st1" d="M1125.1,271.9V285c0,0.2-0.1,0.5,0.1,0.5h7.2v-20.7c-0.4,0.2-2.9,2.5-3.4,2.9c-0.4,0.4-2.6,2.6-3.1,3.2
		c-0.1,0.2-0.3,0.3-0.4,0.5C1125.4,271.5,1125.2,271.6,1125.1,271.9L1125.1,271.9z"/>
	<path class="st1" d="M1093.8,295.7V294h-0.8v8.7h0.8v-4c0-1.2,0.1-2.2,0.7-3l0.3-0.4c0.1-0.1,0.1-0.1,0.2-0.2c0.9-0.7,2.3-0.8,3,0
		c0.4,0.5,0.6,1.5,0.6,2.4v5.2h0.8V298c0-1,0.2-1.7,0.7-2.2c0.4-0.6,0.9-1.1,1.8-1.2c2.3-0.2,2.2,1.9,2.2,3.5v4.6h0.8v-5.1
		c0-2-0.4-3.8-2.7-3.8c-1,0-1.7,0.5-2.3,1.1c-0.2,0.2-0.5,0.7-0.6,1h-0.1c0-0.2-0.2-0.7-0.3-0.8c-0.1-0.3-0.3-0.5-0.5-0.7
		c-0.8-0.8-2.7-0.8-3.6,0C1094.1,295,1094,295.5,1093.8,295.7L1093.8,295.7z"/>
	<path class="st1" d="M1110.5,302.2c-1.4,0-2.1-0.7-2.1-2s0.9-1.7,1.9-2c0.3-0.1,0.9-0.1,1.3-0.2c0.2,0,0.2-0.1,0.4-0.1
		c0.3-0.1,0.5-0.1,0.8-0.2c0.2-0.1,0.5-0.3,0.7-0.3c0,0.8,0.1,2.6-0.2,3.2c-0.1,0.1-0.1,0.2-0.2,0.3c-0.2,0.3-0.7,0.8-1,0.9
		C1111.8,302,1111,302.2,1110.5,302.2L1110.5,302.2z M1107.9,295.8c0.2,0,0.4,0.3,0.6,0.4c0.1-0.4,0.7-1,1-1.2
		c0.9-0.6,2.2-0.7,3.2-0.2c0.4,0.2,0.7,0.5,0.8,1c0.2,0.7,0.1,0.8-0.6,1c-0.7,0.3-0.5,0.2-1.3,0.4c-0.5,0.1-0.9,0.2-1.4,0.4
		c-0.9,0.2-0.5,0.1-1.3,0.5c-0.3,0.2-0.3,0.1-0.5,0.4c-0.3,0.4-0.5,0.5-0.6,1.1c-0.2,0.7-0.2,1.1,0.1,1.8c0.3,1,1.4,1.6,2.3,1.6
		c1.5,0,1.7-0.2,2.7-0.9c0.2-0.2,0.4-0.4,0.6-0.5c0.1,0.7,0.4,1.4,1.2,1.4c0.7,0,0.6,0,0.6-0.6c0-0.3-0.8,0.1-0.9-0.7
		c-0.2-1.3,0.1-5-0.2-6.1c-0.1-0.2-0.1-0.4-0.2-0.6c-0.8-1.7-3.8-1.6-4.9-0.7C1108.7,294.7,1108,295.4,1107.9,295.8L1107.9,295.8z"
		/>
	<path class="st1" d="M1138.3,298.6c0-1.2,0.1-2,0.8-3c1-1.4,3.2-1.4,4.1-0.3c1,1.2,1,2,1,3.6c0,0.8-0.4,1.9-0.8,2.3
		c-0.2,0.2-0.4,0.5-0.8,0.7c-0.7,0.4-1.9,0.4-2.6,0c-0.6-0.3-1.2-1.2-1.5-1.9C1138.4,299.7,1138.3,299.1,1138.3,298.6L1138.3,298.6z
		 M1137.4,298c0,0.8,0,1.4,0.3,2.2c0.3,0.9,0.9,1.8,1.7,2.2c0.9,0.4,1.2,0.4,2.2,0.4c0.5,0,1.2-0.3,1.5-0.5c0.1-0.1,0.2-0.1,0.3-0.2
		s0.2-0.1,0.3-0.2c0.4-0.4,1-1.4,1.1-1.9c0.5-1.7,0.3-3.5-0.7-4.9c-0.1-0.1-0.1-0.2-0.2-0.3c-0.2-0.3-0.5-0.5-0.8-0.7
		c-1.3-0.8-3.4-0.6-4.6,0.9C1137.9,295.7,1137.4,296.8,1137.4,298L1137.4,298z"/>
	<path class="st1" d="M1128.1,298.3c0,1.1,0.3,2.3,0.7,2.9c0.4,0.6,0.7,1,1.3,1.4c0.4,0.2,1,0.4,1.4,0.4c1.1,0,1.7,0,2.7-0.8
		c0.5-0.4,0.4-0.5,0.8-1c0.1-0.1,0.3-0.5,0.3-0.7c-0.4-0.1-0.5-0.3-0.8-0.3c-0.1,0.6-1,1.6-1.6,1.8c-0.7,0.2-1.7,0.2-2.4-0.1
		c-0.2-0.1-0.5-0.4-0.7-0.6c-0.3-0.4-0.5-0.7-0.7-1.4c-0.3-1.3-0.3-3.3,0.7-4.4c0.2-0.3,0.3-0.4,0.7-0.6c0.8-0.5,1.9-0.5,2.7,0
		c0.2,0.1,0.2,0.2,0.4,0.3c0.5,0.4,0.7,0.9,1,1.4l0.7-0.4c-0.2-0.7-0.9-1.6-1.6-2c-0.9-0.6-2.6-0.6-3.6,0c-0.2,0.2-0.4,0.3-0.6,0.4
		l-0.5,0.5C1128.4,296,1128.1,297.1,1128.1,298.3L1128.1,298.3z"/>
	<path class="st1" d="M1118.7,296.2V294h-0.8v8.7h0.8v-3.1c0-1.5,0.2-3.2,1.3-4.3c0.7-0.7,1.4-0.6,2.2-0.4V294
		c-0.8-0.4-1.9,0-2.5,0.8c-0.2,0.3-0.3,0.5-0.5,0.8l-0.3,0.6C1118.9,296.2,1118.9,296.1,1118.7,296.2L1118.7,296.2z"/>
	<polygon class="st1" points="1124.4,302.6 1125.3,302.6 1125.3,294 1124.4,294 	"/>
</g>
</svg>
