<?xml version="1.0" encoding="utf-8"?>
<!-- Generator: Adobe Illustrator 19.0.0, SVG Export Plug-In . SVG Version: 6.00 Build 0)  -->
<svg version="1.1" id="Layer_1" xmlns="http://www.w3.org/2000/svg" xmlns:xlink="http://www.w3.org/1999/xlink" x="0px" y="0px"
	 viewBox="-272.3 184 379.3 196.2" style="enable-background:new -272.3 184 379.3 196.2;" xml:space="preserve">
<style type="text/css">
	.st0{fill:#FFFFFF;}
</style>
<g>
	<path class="st0" d="M-140,184c0,34.8,0,69.4,0,104c-6.4,0-12.6,0-19,0c0-21.2,0-63.6,0-63.6s-2.7,3.1-3.7,4.6
		c-1.1,1.6-2,3.3-3,4.9c-1,1.6-1.9,3.1-2.9,4.7c-1,1.6-2,3.3-3,4.9c-1,1.6-1.9,3.1-2.9,4.7c-1,1.6-2,3.3-3,4.9
		c-1,1.6-1.9,3.1-2.9,4.7c-1,1.6-1.9,3.1-2.9,4.7s-2,3.3-3,4.9s-1.9,3.1-2.9,4.7c-1,1.6-2,3.3-3,4.9s-1.9,3.1-2.9,4.7
		c-1,1.6-2,3.3-3,4.9c-1,1.6-1.9,3.1-3,4.5h73.1V184.5c0.9-0.1,1.7-0.1,2.5-0.1c15.2,0,30.4-0.2,45.6,0
		c25.3,0.4,44.7,11.4,56.5,33.8c12.1,23,9.8,45.7-5,67c-1.1,1.5-2.3,2.1-4.2,2.1c-6.1-0.1-18.2-0.3-18.2-0.3s-3.1,0-4.1,0
		c0.3-0.5,0.4-0.7,0.5-0.9c9.1-7.8,14-18.1,16.2-29.8c2.4-13,0.1-25-7.9-35.6c-8.4-11.2-19.6-17-33.5-17.3c-9.1-0.2-18.3,0-27.4,0
		c-0.6,0-1.2,0.1-2,0.1c0,29.2,0,58.3,0,87.7c3.9,0.1,7.9,0,12,0c0-28.2,0-83.9,0-83.9s13.1-0.1,19.6-0.1c0.2,5.7,0.1,11.3,0.1,16.8
		c0,5.6,0,11.2,0.3,16.8v16.6v16.8v16.9c0.7,0.1,1.4,0.2,2.1,0.2c15.2,0,30.4,0,45.6,0c10.8,0,20.6-3.2,28.7-10.3
		c13.6-12,18.7-27.1,14.1-44.6c-4.6-17.6-16.6-28.1-34.4-32c-1.9-0.4-3.8-0.4-5.7-0.7c-0.7-0.1-1.6-0.4-2.1-0.9
		c-7.2-7.6-15.5-13.6-25.1-17.7c-0.2-0.1-0.3-0.3-0.7-0.6c0.6-0.1,1-0.2,1.3-0.2c9.3,0,18.6-0.2,27.8,0.2
		c26.5,1.2,49.4,19.3,57,44.7c10.9,36.3-12.2,73.9-49.5,80.5c-3.8,0.7-7.8,0.9-11.7,1c-14.9,0.1-44.6-0.7-44.6-0.7H-77v63.7
		c-0.9,0.1-1.3,0.2-1.6,0.2c-5.4,0-10.9,0-16.3,0c-1.1,0-1.9-0.4-2.7-1.2c-2.8-2.8-5.7-5.6-8.7-8.5c-0.4,0.6-0.8,1.1-1.1,1.6
		c-1.1,1.5-2.1,3-3.4,4.3c-4.2,4.2-10.7,5-15.9,2c-5.4-3.1-8.1-9-6.6-14.9c0.8-3.4,2.9-5.8,5.7-7.7c1.2-0.8,2.4-1.5,3.8-2.3
		c-0.7-0.9-1.5-1.7-2.1-2.5c-3.1-3.9-3.4-8.4-0.9-12c2.7-3.8,7.9-5.5,12.4-3.9c4.4,1.5,7.3,5.7,7,10.3c-0.1,2.8-1.4,4.9-3.5,6.6
		c-1.4,1.1-3,2-4.4,2.9c2.4,2.4,4.9,4.8,7.4,7.3c0.2-0.3,0.5-0.8,0.8-1.4c3.3-6.1,6.6-12.3,9.8-18.4c0.5-0.9,0.8-1.9,0.8-2.9
		c0.1-7,0-13.9,0-20.9c0-0.4-0.1-0.8-0.1-1.2H-109c0,0,0,10.4,0,16.2c-3.2-2.1-6.3-3.1-9.7-3s-6.3,1.4-9.3,3.5
		c-0.3-5.8,0.1-11.2-0.2-16.8c-4,0-7.8,0-11.9,0c0,21.3,0,42.6,0,64c-6.4,0-12.4,0-19,0c0-3.5,0-7.1,0-10.7c0-3.5,0-7.1,0-10.6
		c0-3.6,0-7.2,0-10.8c0-3.5,0-7.1,0-10.6c0-3.6,0-7.2,0-10.8c0-3.5,0-7,0-10.7c-0.7-0.1-1.2-0.3-1.7-0.3c-16.8,0-33.5,0-50.3-0.1
		c-1.6,0-2.2,0.9-2.9,2c-12.3,20-24.7,40.1-37,60.1c-0.3,0.5-0.6,1.2-1,1.6c-0.4,0.4-1,0.9-1.5,0.9c-6.1,0.1-12.3,0-18.8,0
		c0.6-1.1,1-1.8,1.4-2.5c23.1-38.8,46.2-77.7,69.2-116.5c13.8-23.2,27.5-46.4,41.2-69.6c1-1.7,2.1-2.5,4.1-2.4
		c4.5,0.2,9.1,0.1,13.7,0.1C-141.8,184-141,184-140,184z M-120.4,352.5c-2.1,0.5-3.9,1.8-5.3,3.4c-2.5,2.9-2.3,6.9,0.4,9.6
		s6.8,2.9,9.8,0.4c1.6-1.4,2.8-3.2,3.3-4.8C-115.1,358.1-117.7,355.4-120.4,352.5z M-118,333.5c-1.9,0-3.7,1-4.5,2.6
		c-0.9,1.7-0.5,3.4,0.5,4.9c2.2,3.4,4.2,3.7,7.3,1c1.7-1.4,2.3-3.5,1.6-5.4C-113.9,334.8-115.8,333.5-118,333.5z M-97,365.5v-18.1
		c-0.2,0-0.2,0-0.4-0.1c-2.1,4-4.2,8-6.3,12.1C-101.5,361.5-99.4,363.4-97,365.5z"/>
	<path class="st0" d="M30,339c0,3.5,0,6.6,0,9.8c-2,0.5-3.9,0.3-6,0.2c0-8.6,0-17,0-25.4c0.2-0.1,0.3-0.3,0.4-0.3c5,0,10-0.2,14.9,0
		c5.7,0.3,9,4.9,7.1,9.8c-0.6,1.5-2,2.6-3.1,4c2.5,1.3,3.1,3.8,3.2,6.6c0.1,1.7,0.4,3.5,0.6,5.3c-1.8,0-3.7,0-5.7,0
		c-0.2-1.2-0.4-2.3-0.6-3.3c-0.1-0.8-0.1-1.6-0.2-2.4c-0.5-3.3-1.7-4.2-5.3-4.2C33.7,339,32,339,30,339z M30,334.9
		c2.8-0.1,5.3-0.1,7.7-0.4c1.7-0.2,2.5-1.7,2.4-3.6c-0.1-1.8-0.9-3-2.6-3.2c-2.4-0.3-4.9-0.3-7.5,0c0,1.6,0,3.1,0,4.6
		C30,333.1,30,333.8,30,334.9z"/>
	<path class="st0" d="M12.4,323c3.2,8.6,6.4,17.2,9.7,26c-2.1,0-4.3,0-6.1,0c-0.6-1.6-1.2-3.3-1.8-5c-2.8,0-6.5,0-9.6,0
		c-0.6,1.5-1.2,3.2-1.9,5c-1.6,0-3.8,0-5.9,0c3.3-8.8,6.6-17.4,9.9-26C8.7,323,10.4,323,12.4,323z M12.4,339
		c-0.7-3.6-2.2-7.3-3.3-8.6c-1,2.8-2,5.6-3,8.6C8.4,339,10.3,339,12.4,339z"/>
	<path class="st0" d="M-21.7,351.8c0.1,0.5,0.1,0.9,0.1,1.2c0,0.5-0.1,1.1-0.1,1.6c-1,0.3-2,0.5-2.9,1c-0.3,0.2-0.4,2.3-0.4,2.3
		s4.1,0,6,0c0-1.5,0-2.9,0-4.6c1.4-0.1,2.6-0.1,4-0.2c0.1,1.6,0.2,3.1,0.3,4.7c0.9,0.1,1.8,0.3,2.7,0.4c0,0.9,0,2.2,0,2.2
		s-1.1,0.2-2.3,0.3c0,2.7,0,5.4,0,8.1c0,0.9,0.6,1.4,1.5,1.5c0.5,0,0.9,0.1,1.7,0.1v3.3c-0.9,0.1-1.7,0.2-2.4,0.2
		c-4.1-0.1-5.6-1.1-5.4-5.4c0.1-2.5,0-5.1,0-7.7H-25c-0.2,4-0.1,13-0.1,13h-4v-13.1c-1.3-0.1-2-0.2-3-0.3v-2.6
		c0.9-0.1,1.6-0.3,2.5-0.5c0.2-1.9,0.2-3.9,2.1-5.1C-25.6,351.3-23.8,351.5-21.7,351.8z"/>
	<path class="st0" d="M1.4,359.1c4-2.6,6.5-2.5,9.4,0.5c1.6-1.5,3.4-2.6,5.7-2.3c3.1,0.3,4.9,2,5,5.1c0.1,3.7,0,10.6,0,10.6h-4.2
		c0,0-0.1-0.7-0.1-1.4c0-2.6,0-5.3-0.1-7.9c-0.1-2.1-1-3-2.7-2.9c-1.6,0-2.7,1-2.8,2.9c-0.1,2.1-0.1,4.2-0.1,6.2c0,1.2,0,4.1,0,4.1
		H7c0,0,0-3,0-4.4c0-2.2,0-4.3-0.1-6.5c-0.1-1.2-0.6-2.1-2-2.3c-1.2-0.2-2.5,0.3-3,1.4c-0.3,0.8-0.5,1.7-0.5,2.5
		c-0.1,2.8-0.1,5.6-0.1,8.4c0,0.1-0.2,0.8-0.2,0.8h-3.8c0,0-0.6-13-0.2-15.9C0,357.4,0.5,357.5,1.4,359.1z"/>
	<path class="st0" d="M-57.2,374.8c1.1,0,2.1-0.1,3.2,0c0.4,0,1,0.2,1.2,0.5c1.2,1.7,2.8,2.1,4.6,1.4c1.9-0.7,2.1-2.4,2.1-4.2
		c0-0.2-0.1-0.5-0.1-0.9c-0.6,0.4-1.1,0.7-1.6,1c-3.9,2.2-8.5,0.2-9.7-4.1c-0.6-2.2-0.6-4.4,0.2-6.6c1.6-4.5,6.4-5.9,10.3-3.2
		c0.2,0.1,0.4,0.2,0.6,0.4c0.9-2.3,2.7-1.1,4.1-1.2c0.2,0.2,0.3,0.4,0.3,0.5c0,5,0.2,9.9,0,14.9c-0.1,3.8-2,5.8-5.8,6.6
		c-2.3,0.5-4.6,0.4-6.8-0.7C-56.1,378.2-57.4,377.1-57.2,374.8z M-53.6,365c0.1,0.9,0.1,1.5,0.2,2c0.4,1.9,1.5,2.9,3.2,3
		s3-0.8,3.6-2.5c0.6-1.7,0.4-3.3-0.3-4.9c-0.6-1.3-1.7-1.9-3.1-1.9c-1.4,0-2.5,0.6-3.1,1.9C-53.3,363.4-53.4,364.4-53.6,365z"/>
	<path class="st0" d="M98.6,359c0.9-2.2,2.7-1,4.4-1.2c0.1,0.7,0.2,1.3,0.2,1.9c0,3.9,0,7.8,0,11.8c0,6.8-4.6,10.1-11.2,8.1
		c-1.6-0.5-2.9-1.3-3.7-2.8c-0.3-0.5-0.3-1.2-0.5-1.8c0.5-0.1,0.9-0.2,1.2-0.2c1,0,1.9,0,2.8,0c1.8,2.2,3.4,2.7,5.2,1.9
		c1.6-0.7,2.1-2.1,1.9-4.7c-1.6,0.4-3.2,1.2-4.9,1.3c-3.1,0.2-5.3-1.5-6.3-4.5c-0.7-2.2-0.7-4.4,0-6.6c1.6-4.8,6.4-6.3,10.5-3.3
		C98.2,358.9,98.4,358.9,98.6,359z M91.4,365.2c0.2,1,0.4,2,0.8,3c0.6,1.4,1.8,2,3.3,1.8c1.9-0.2,3.2-1.7,3.4-4
		c0.2-2.8-0.8-4.8-2.8-5.2c-0.2,0-0.3-0.1-0.5-0.1C93.1,360.4,91.6,362.1,91.4,365.2z"/>
	<path class="st0" d="M56,328c-2.8,0-5.5,0-8,0c0-1.8,0-3.3,0-5c7,0,13.9,0,21,0c0,1.5,0,3.3,0,5c-2.3,0-4.7,0-7.4,0
		c-0.4,7.2,0.1,14-0.2,21c-1.9,0-3.4,0-5.4,0C56,342.1,56,335.2,56,328z"/>
	<path class="st0" d="M-46,327c1.3,0,2.5,0,4,0c0,2.5,0,7.5,0,7.5s1.2-1,1.7-1.3c3.9-2.5,8.5-0.5,8.9,4.1c0.3,3.7,0.1,7.5,0.1,10.6
		h-4.4c0-1.6,0-3.8,0-6c0-1.3,0-2.6-0.2-3.8c-0.2-1.6-1-2.3-2.5-2.3c-1.6-0.1-2.8,0.6-3.2,2c-0.3,1.1-0.4,2.4-0.4,3.6
		c-0.1,2.4,0,7.6,0,7.6s-2.5,0-3.9,0C-46,341.7-46,334.5-46,327z"/>
	<path class="st0" d="M57.9,358.4c-2,2-3.6,3.7-5.4,5.5c1.1,1.8,2.1,3.4,3.1,5.1c1,1.6,1.9,3.2,3.1,5c-1.8,0-3.3,0-5,0
		c-1.3-2.1-2.6-4.4-4-6.7c-1.4,0.6-1.8,1.5-1.7,2.8c0.1,1.3,0,2.5,0,3.9c-1.5,0-2.7,0-4.1,0c0-7.3,0-14.6,0-22
		c0.7-0.1,1.4-0.1,2-0.1s1.2,0.1,2,0.1c0,3.7,0,7.4,0,11.5c1.5-1.2,2.4-2.4,3.3-3.4C53.6,357.7,54.1,357.6,57.9,358.4z"/>
	<path class="st0" d="M29.1,363c-1.5,0-2.7,0-4,0c0-2.4,1.3-3.7,3.1-4.5c2.8-1.1,5.6-1.1,8.5-0.2c2.1,0.6,3,2.2,3,4.4
		c0,3.7,0,7.5,0,11.2c-2.6,0.6-3.2,0.5-4.5-0.7c-1.9,1.1-4,1.7-6.3,1.4c-2.9-0.4-4.5-2.2-4.3-5.1c0.1-2.1,1-3.4,3.1-4
		c1.6-0.5,3.3-0.7,4.9-0.9c2-0.3,2.7-0.9,2.6-2.1c-0.1-1.3-1.3-1.9-3.2-1.8C30.5,360.9,30.3,361.1,29.1,363z M35.1,366.2
		c-1.8,0.4-3.3,0.5-4.7,1c-1.7,0.6-2.1,2.6-0.8,3.6c1.8,1.4,4.9,0.3,5.4-1.9C35.1,368.1,35,367.3,35.1,366.2z"/>
	<path class="st0" d="M-12.8,342c-3.7,0-7.4,0-11.2,0c-0.3,1.8,0.3,2.9,1.6,3.6c1.4,0.7,2.9,0.7,4.3-0.2c2.2-1.5,2.2-1.5,4.8-1.2
		c-0.9,3.9-4.5,5.9-9.1,5.1c-4.4-0.8-7.1-5.1-6.3-9.8c0.8-4.8,4.6-7.6,9.5-6.9C-15,333.1-12.2,337.1-12.8,342z M-24,339
		c1.1,0,2.2,0,3.3,0c1.1,0,2.2,0,3.3,0c-0.4-2.6-1.2-3.4-3.3-3.4S-23.8,336.6-24,339z"/>
	<path class="st0" d="M86.6,332.4c5.1,0,8.3,3.3,8.4,8.4c0,5.2-3.3,8.6-8.5,8.6c-5,0-8.3-3.4-8.3-8.5
		C78.3,335.7,81.5,332.4,86.6,332.4z M90.7,340.8c-0.3-1-0.4-2.1-0.8-3c-0.6-1.5-1.8-2.1-3.4-2.1c-1.5,0-2.6,0.7-3.2,2.1
		c-0.8,2-0.8,4.1,0,6.1c0.6,1.4,1.7,2.1,3.2,2.1c1.6,0,2.8-0.6,3.4-2.1C90.3,342.9,90.5,341.9,90.7,340.8z"/>
	<path class="st0" d="M84,373h-4.1c-0.1,0.1-0.2-0.5-0.2-1.1c0-2.6,0-5.3-0.1-7.9c-0.1-2.1-0.9-3-2.5-3.2c-1.9-0.2-3.1,0.7-3.5,2.8
		c-0.2,1.2-0.2,2.4-0.2,3.6c0,2.1,0,4.3,0,6.8H69v-15.9c3.2-0.8,3.8-0.7,4.6,1.1c1.7-1.4,3.5-2.2,5.7-1.9c2.8,0.3,4.6,1.6,4.7,4.4
		C84.2,365.7,84,369.6,84,373z"/>
	<path class="st0" d="M103,349c0,0-4.1,0-4,0v-13c-1-0.1-3-0.4-3-0.4s0-1.7,0-2.6c0.8-0.2,1.6-0.3,2.3-0.4c0.7-5.1,2.4-6.4,7.7-5.6
		c0,0.9,0,2.9,0,2.9s-2.5,0.5-2.6,2.7c0.9,0.1,3.6,0.4,3.6,0.4v2.7c0,0-2.6,0.2-4,0.3V349z"/>
	<path class="st0" d="M-52,328c0,1.6,0,2.9,0,4.4c1,0.2,2,0.3,3,0.5c0,0.9,0,2.7,0,2.7s-1.7,0.2-2.9,0.4c0,2.7,0,5.3,0,7.9
		c0,1.1,0.6,1.6,1.6,1.6c0.5,0,2.2,0.1,2.2,0.1s0,1.9,0,3c-2.1,0.8-4.2,0.5-6.2-0.2c-1.4-0.5-2-1.7-2-3c0-1.1,0-2.2,0-3.4
		c0-2.4,0-4,0-6.1c-1-0.1-1.8-0.3-2.8-0.4v-2.6c0.9-0.1,1.7-0.3,2.7-0.4c0.1-1.5,0.2-2.9,0.2-4.5C-54.6,328-53.5,328-52,328z"/>
	<path class="st0" d="M-34,374c-1.5,0-2.7,0-4,0c0-5.4,0-10.6,0-16c1.4,0,2.6,0,4,0C-34,363.4-34,368.7-34,374z"/>
	<path class="st0" d="M65,358c0,5.3,0,10.6,0,16c-1.4,0-2.7,0-4,0c-0.5-1.7-0.6-13.3-0.1-16C62.2,358,63.5,358,65,358z"/>
	<path class="st0" d="M61,355c0-1.1,0-1.9,0-3c1.3,0,2.6,0,4,0c0,1,0,1.9,0,3C63.7,355,62.5,355,61,355z"/>
	<path class="st0" d="M-38,355c0-1.1,0-1.9,0-3c1.3,0,2.6,0,4,0c0,1,0,1.9,0,3C-35.3,355-36.5,355-38,355z"/>
</g>
</svg>
