<?xml version="1.0" encoding="utf-8"?>
<!-- Generator: Adobe Illustrator 19.0.0, SVG Export Plug-In . SVG Version: 6.00 Build 0)  -->
<svg version="1.1" id="Layer_1" xmlns="http://www.w3.org/2000/svg" xmlns:xlink="http://www.w3.org/1999/xlink" x="0px" y="0px"
	 viewBox="85.5 83.1 512.4 397.6" style="enable-background:new 85.5 83.1 512.4 397.6;" xml:space="preserve">
<style type="text/css">
	.st0{fill:#FDFDFD;}
	.st1{fill:#321457;}
	.st2{fill:#4E6199;}
	.st3{fill:#6975AC;}
	.st4{fill:#0D3974;}
	.st5{fill:#915A92;}
	.st6{fill:#B50F6E;}
	.st7{fill:#3F78B1;}
	.st8{fill:#194A83;}
	.st9{fill:#508FCA;}
	.st10{fill:#D4555E;}
	.st11{fill:#34508B;}
	.st12{fill:#F09130;}
	.st13{fill:#25A699;}
	.st14{fill:#0FAE78;}
	.st15{fill:#6CBD62;}
</style>
<g>
	<path class="st0" d="M341.7,480.7c-84.4,0-168.8,0-253.1,0.1c-2.6,0-3.1-0.5-3.1-3.1c0.1-130.5,0.1-261,0-391.5
		c0-2.6,0.5-3.1,3.1-3.1c168.7,0.1,337.5,0.1,506.2,0c2.6,0,3.1,0.5,3.1,3.1c-0.1,130.5-0.1,261,0,391.5c0,2.6-0.5,3.1-3.1,3.1
		C510.5,480.7,426.1,480.7,341.7,480.7z M436.8,277.6c0.6-0.4,0.7-1,0.6-1.6c0.4-3.1-0.7-5.7-3.7-6.6c-2.8-1-5.4,0.2-6.8,3
		c-1.3,2.7-0.9,5.2,1.9,6.8C432.1,281.5,434.1,281.1,436.8,277.6L436.8,277.6z M467.9,271.4c0.1-0.2,0.2-0.5,0.3-0.7
		c0.8-0.6,0.7-1.4,0.6-2.2c0.4-4.7-1.5-8.2-5.3-9.7c-3.9-1.5-8.3-0.4-10.8,2.9c-2.7,3.5-2.6,7.3,0.3,11.2
		C457.8,278.2,464.5,277.5,467.9,271.4z M484.2,260.4l0.1,0.2c1.1,5.2,4.6,8.2,9.6,9.2c5.5,1.1,10-1.1,13.1-5.9
		c2.5-3.9,2.2-9-0.5-12.9c-3.1-5-8.6-7.2-13.8-5.5c-6.2,2-9.2,6.8-8.7,13.9c0,0.1-0.1,0.2-0.1,0.3C484,260,484.1,260.2,484.2,260.4z
		 M454.2,206.3c0.3,2.3,1.9,3.7,3.6,5c3.3,2.7,8.5,2.9,12.2,0.7c3.8-2.3,5.7-6.5,4.9-11.2c-0.7-4.3-3.6-7.4-7.9-8.2
		C458.6,190,452,197,454.2,206.3z M525.7,252c0.2,1.7,1.1,3,2.1,4.3c5.5,6.8,14.3,8.9,21.8,5.8c7.7-3.3,12.9-12.9,10.4-21.5
		c-0.4-0.8-0.8-1.5-1.1-2.3c-3-9.9-14.1-13.8-23.4-10.3C525.2,232.1,521.5,244.1,525.7,252z M483.9,165c-3.5,9.9,5.2,19.7,16.5,18.8
		c7.8-0.7,14-9,12.7-17.3c-1.3-8.5-9.6-14.1-17.4-12.1c-0.2,0-0.4,0.1-0.6,0.1c-0.3-0.1-0.5-0.1-0.7,0.1
		C488.8,155.9,485.2,159.3,483.9,165z M235,305.1c0,13.1,0.1,26.2,0,39.4c0,3.2,1.1,4.6,4.4,4.3c2.5-0.2,5-0.2,7.5,0
		c3.2,0.3,4.1-1.2,4.1-4.2c-0.1-8,0-16-0.1-24c0-2.1,0.2-2.7,2.7-2.1c6.8,1.8,13.7,2.6,20.7,0.4c15-4.8,23.5-23.3,17.9-39.1
		c-6.8-19.2-27.1-26-42.2-14.1c-3,2.3-3.7,1.8-4.7-1.5c-1.3-4.4-5.1-2.5-7.9-2.5c-2.6,0-2.3,2.5-2.3,4.3
		C235,279.1,235,292.1,235,305.1z M134.3,290.8c-2.2-7-4.1-13-6-19c-3.4-10.5-3.4-10.5-14.4-10.2c-0.1,0-0.2,0-0.4,0
		c-2.4-0.1-3.4,0.6-2.5,3.3c5.6,17.1,11.1,34.3,16.6,51.4c0.6,1.7,0.8,3.7,3.3,3.9c2.7,0.2,3.7-1.5,4.7-3.5
		c5.2-10.1,10.5-20.1,15.7-30.1c0.4-0.7,0.4-1.8,1.7-1.7c0.3,0.4,0.6,0.7,0.8,1.2c5.4,10.4,10.8,20.7,16.2,31.1c1,1.9,2.2,3.2,4.6,3
		c2.4-0.2,2.6-2.1,3.1-3.7c3-9.1,6-18.2,8.9-27.3c2.5-7.8,5-15.6,7.5-23.4c1-2.9,0.5-4.3-3.1-4.3c-10.7,0.1-10.7-0.1-13.7,10.1
		c-0.1,0.2-0.1,0.5-0.2,0.7c-2.2,5.7-3.4,11.8-6.3,18c-5-9.6-9.7-18.7-14.4-27.7c-0.8-1.5-1.6-2.7-3.6-2.6c-2,0-2.8,1.1-3.6,2.6
		c-3.1,6-6.2,11.9-9.4,17.9C138.1,283.6,136.4,286.7,134.3,290.8z M377.3,320.2c16.4,0.1,29.7-13.3,29.8-30.1
		c0.1-16.5-12.8-29.8-28.8-30.2c-15.3-0.4-30,11.5-30,30.2C348.3,308.1,362.1,320.1,377.3,320.2z M548,309.1
		c11.3,0.2,20.3-8.6,20.4-19.9c0-10.4-9.1-19.8-19.4-20c-11.3-0.2-20.8,9-20.8,20.1C528.1,300.1,537,309,548,309.1z M305.7,289.7
		C305.7,289.7,305.7,289.7,305.7,289.7c0,7.9,0,15.7,0,23.6c0,5.2,0.2,5.4,5.2,5.4c1.7,0,3.5,0,5.2,0c5.4,0,5.6-0.2,5.5-5.4
		c0-9.9,0-19.7,0-29.6c0-4.9,1.3-6.8,5.9-8.6c2.2-0.9,4.4-0.8,6.6-0.7c6.6,0.4,6.6,0.4,9.2-5.6c0.2-0.6,0.5-1.1,0.8-1.7
		c1.6-3.7,1.1-5.2-3-6.3c-8.3-2.2-15.8-0.7-22,5.6c-1.4,1.4-2.1,1.6-2.7-0.4c-0.2-0.7-0.5-1.4-0.8-2.1c-1.7-4-5.2-2-7.9-2.1
		c-2.5-0.1-2.2,2.3-2.2,4C305.7,273.7,305.7,281.7,305.7,289.7z M560.7,333.3c-0.3-10.1-8.4-18.2-18.2-18.1
		c-10.1,0.1-18.4,8.8-18.2,18.9c0.3,9.8,8.7,17.8,18.6,17.7C552.7,351.6,560.9,343.1,560.7,333.3z M220.7,290.3
		c0-8.4-0.1-16.7,0-25.1c0-2.5-0.7-3.7-3.4-3.6c-3,0.1-6,0.1-9,0c-2.4-0.1-3.5,0.9-3.5,3.3c0,16.7,0,33.5,0,50.2
		c0,2.4,1,3.7,3.6,3.6c2.7-0.1,5.5,0,8.2,0c2.7,0,4-1,4-4C220.6,306.6,220.7,298.5,220.7,290.3z M525.2,220.7
		c9.2,0.1,16.9-7.2,17.1-16.2c0.2-9.2-7.4-17-16.7-17c-9.4-0.1-17,7.3-17,16.7C508.6,213.5,515.7,220.6,525.2,220.7z M525.6,358.3
		c-9.2-0.1-16.8,7.1-17,16.2c-0.2,8.7,7.8,16.8,16.6,16.9c8.9,0.1,16.8-7.7,16.9-16.7C542.1,366.1,534.5,358.4,525.6,358.3z
		 M498.1,395.2c-7.5-0.8-15.1,7.1-15.1,14.6c0.1,8.1,7.1,15.4,15.2,15.4c8.1,0,14.9-7,14.9-15.2
		C513.1,401.6,506.6,395.2,498.1,395.2z M514.7,289.4c0-7.9-6.2-14.3-14.1-14.3c-7.9-0.1-14.4,6.2-14.5,14.1
		c-0.1,7.7,6.6,14.4,14.2,14.4C508.2,303.6,514.6,297.2,514.7,289.4z M462.9,422.9c-8,0-14.4,6.3-14.3,14.2c0.1,7.7,6.4,14,14.1,14
		c7.9,0.1,14.2-6.3,14.3-14.3C477.2,429.1,470.7,422.9,462.9,422.9z M462.8,127.6c-7.5,0-14.1,6.6-14.1,14.1
		c0,7.7,6.5,14.2,14.3,14.2c7.8,0,14.2-6.6,14.1-14.4C477,133.9,470.4,127.5,462.8,127.6z M408.7,124.8c-0.6,8,7.1,13.1,12.4,13.2
		c7.6,0,13.9-5.8,14-13.1c0.1-7.3-5.9-13.2-13.3-13.3C414.1,111.6,408.7,117,408.7,124.8z M421.6,467.2c7.1,0.1,13.4-6.1,13.5-13.2
		c0.1-6.9-6-12.8-13.1-13.2c-7-0.4-13.5,6.4-13.4,13C408.8,461.3,414.2,467.1,421.6,467.2z M377.4,131.3c7.1,0,12.6-5.4,12.7-12.4
		c0-6.4-5.7-12.2-12.5-12.4c-6.5-0.2-12.6,5.8-12.7,12.2C364.9,125.7,370.4,131.2,377.4,131.3z M377.5,447.6
		c-6.8,0-12.2,5.2-12.2,11.9c-0.1,6.8,5.4,12.6,12,12.8c6.7,0.2,12.7-5.8,12.7-12.6C389.9,452.9,384.4,447.6,377.5,447.6z
		 M496.3,333.4c6.5,0,12.3-5.8,12.3-12.1c-0.1-6.9-5.5-12.4-12.3-12.5c-6.8-0.1-12.4,5.6-12.4,12.3
		C483.8,327.8,489.6,333.5,496.3,333.4z M495.4,228.5c0.3-6.5-4.3-11.7-10.7-12c-6.8-0.4-12.8,4.6-12.7,11.3c0,5.6,3.9,11.5,11.5,12
		C489.9,240.1,495.2,235.1,495.4,228.5z M333.4,442.4c-6.9,0.1-11.7,4.9-11.6,11.8c0.1,6.5,5.3,11.5,11.8,11.4
		c6.1-0.2,11.6-5.9,11.5-12C345,447.5,339.6,442.4,333.4,442.4z M333.6,113.2c-6.7-0.1-11.9,5-11.9,11.7c0,6.3,5,11.5,11.2,11.6
		c6.4,0.1,12-5,12.2-11.1C345.3,118.8,340,113.3,333.6,113.2z M495.2,350.8c0-6.5-5.1-11.7-11.6-11.7c-5.9,0-11.5,5.7-11.5,11.6
		c0,6.4,5.3,11.5,11.8,11.5C490.2,362.2,495.2,357.2,495.2,350.8z M292.3,131.2c-5.7-0.9-11.2,5.8-10.9,10.7
		c0.3,5.9,4.9,10.9,10.8,11c5.7,0.1,10.8-5.1,10.9-11C303.3,136.4,297.8,130.3,292.3,131.2z M303.1,436.8c0-5.9-5.2-10.9-11.1-10.8
		c-5.7,0.1-10.6,5.1-10.6,10.9c0,5.7,5,10.7,10.7,10.8C298.1,447.7,303.2,442.7,303.1,436.8z M474.9,376.1c0-6-4.7-10.7-10.6-10.8
		c-6-0.1-10.8,4.8-10.8,11c0,5.8,4.8,11,10.7,10.6C469.9,386.6,475.3,382.7,474.9,376.1z M439.1,405.6c5.4,0,9.9-4.6,9.9-10.1
		c0-5.5-4.6-10-10-10c-5.5,0-9.9,4.5-9.9,10.1C429.1,401.1,433.6,405.6,439.1,405.6z M256.9,179.1c5.1,0.2,10-4.6,10.1-9.9
		c0.2-5.3-4.7-10.1-10.3-10.2c-4.7-0.1-9.5,4.6-9.8,9.5C246.7,173.9,251.3,178.8,256.9,179.1z M256.8,419.3
		c6.9,1,10.2-5.7,10.2-10.2c0-5-5-9.4-10.2-9.3c-5.1,0.1-9.9,4.8-9.9,9.8C247,414.8,251.6,420.4,256.8,419.3z M448.8,183.2
		c0.5-5.5-5.3-10.1-9.8-10c-5.4,0.1-10,4.6-9.9,10c0.1,5.6,4.4,10,9.9,10C444.5,193.2,448.8,188.8,448.8,183.2z M463.1,279.6
		c-5.4,0-9.8,4.4-9.7,9.7c0,5.4,4.4,9.7,9.8,9.6c5.4-0.1,9.6-4.5,9.5-9.9C472.6,284.1,468.1,279.6,463.1,279.6z M229.6,383.2
		c5.2,0.1,9.7-4.1,9.6-8.8c-0.1-4.5-4.6-9.3-9-9.5c-4.2-0.2-9.5,4.8-9.5,8.9C220.7,379.4,224.2,383.1,229.6,383.2z M400.3,171.1
		c0,4.9,4.2,8.9,9.1,8.9c4.7-0.1,9-4.2,9-8.7c0-5.2-4.1-9.4-9.1-9.4C404.4,162,400.3,166.2,400.3,171.1z M418.3,407.9
		c0.1-5-3.9-9-8.9-9.1c-5,0-8.8,3.7-9,8.6c-0.1,5.1,3.8,9.4,8.6,9.4C414.1,416.8,418.3,412.8,418.3,407.9z M460,302.4
		c-4.9,0-9,4.1-8.9,9.1c0.1,4.9,3.9,8.7,8.8,8.8c5.1,0,9.1-3.8,9.1-8.8C469,306.5,464.9,302.4,460,302.4z M229,212.9
		c5,0.1,9.5-4,9.5-8.5c0-4.7-4.2-9.3-8.8-9.5c-4.8-0.2-9.2,4.2-9.2,9.3C220.6,208.6,224.8,212.9,229,212.9z M213.2,234.7
		c-5-0.1-9,3.7-9,8.5c0,4.5,4.1,8.5,8.6,8.5c4.6,0,8.4-3.7,8.5-8.1C221.4,238.6,217.8,234.8,213.2,234.7z M451.4,238.4
		c-4.8,0-8.3,3.7-8.2,8.6c0.1,4.5,3.5,7.9,8.1,7.9c4.7,0,8.4-3.5,8.5-8C459.9,242.2,456.2,238.4,451.4,238.4z M377.5,174.9
		c5,0,8.2-3.1,8.2-8.1c0-4.5-3.9-8.4-8.3-8.3c-4,0-8.1,4.1-8.2,8.2C369.1,171.3,372.7,174.8,377.5,174.9z M451.2,323.9
		c-4.3,0.1-7.9,3.8-7.9,8.3c0,4.4,4,8.4,8.4,8.2c4.2-0.2,8-4.2,8-8.4C459.7,327.6,455.7,323.8,451.2,323.9z M385.6,411.7
		c0-4.3-3.9-8-8.2-7.9c-4.4,0.1-8.1,3.8-8.1,8.1c0,4.2,3.9,8.1,8.1,8.1C382.1,420,385.6,416.4,385.6,411.7z M438.1,357.1
		c3.6-0.1,7.4-3.8,7.4-7.3c0-3.6-3.9-7.6-7.4-7.7c-4-0.1-7.7,3.6-7.7,7.6C430.4,353.9,433.8,357.1,438.1,357.1z M430.5,229.1
		c0,4.2,3.5,7.6,7.6,7.5c3.9-0.1,7.4-3.6,7.5-7.5c0.1-3.9-3.7-7.5-7.8-7.5C433.7,221.8,430.5,225.1,430.5,229.1z M353.3,171.1
		c-0.1-4.1-3.3-7.4-7.4-7.3c-4.3,0-7.7,3.4-7.5,7.6c0.1,4,3.7,7.4,7.6,7.2C349.9,178.4,353.3,175,353.3,171.1z M346,400.4
		c-4.1-0.1-7.6,3-7.7,6.9c-0.1,3.7,3.4,7.7,7,8c3.7,0.3,7.9-3.7,7.9-7.4C353.2,404,349.9,400.5,346,400.4z M426.9,363
		c-0.1-3.5-3.2-6.7-6.7-6.7c-3.1,0-6.8,3.7-6.7,6.8c0,3.3,3.4,6.5,6.9,6.5C424,369.7,426.9,366.6,426.9,363z M316,176.9
		c-3.7,0.1-6.5,2.9-6.5,6.7c0,3.7,3.3,6.7,7.1,6.6c3.4-0.1,6.1-3.2,6.1-6.8C322.7,179.5,319.9,176.8,316,176.9z M426.8,215.8
		c0.1-3.6-2.9-6.6-6.6-6.6c-3.3,0-6.6,2.9-6.8,6.2c-0.2,3.3,3.1,6.8,6.5,6.8C423.7,222.3,426.8,219.4,426.8,215.8z M309.8,395.6
		c0,3.7,2.7,6.3,6.3,6.3c3.5,0,6.5-3.2,6.5-6.8c-0.1-3.1-3.3-6.5-6.1-6.4C312.6,388.8,309.8,391.7,309.8,395.6z M427.7,289.2
		c-0.2,3.2,2.7,6.2,6.1,6.3c3.4,0.2,6.4-2.5,6.5-5.8c0.2-3.2-3-6.7-6.2-6.8C431.1,282.9,427.8,286.1,427.7,289.2z M399.5,377.8
		c3.1,0.1,6.3-3.1,6.3-6.2c0-3-2.9-6-5.9-6.1c-3.1-0.1-6.1,2.7-6.2,5.8C393.4,374.5,396.3,377.7,399.5,377.8z M405.7,207.3
		c0.1-3.2-3-6.3-6.2-6.3c-3,0-6,3.1-6,6.1c0,3.1,2.9,6,6,6C402.9,213.1,405.6,210.5,405.7,207.3z M296.4,376c0-3.4-2.3-5.9-5.3-6
		c-3.2-0.1-5.9,2.6-5.9,5.8c0,3.4,2.5,5.8,5.9,5.8C294,381.5,296.4,379,296.4,376z M377.5,198.6c-3.1,0-5.9,2.5-5.9,5.5
		c0,3,3,5.9,6.1,5.8c3.1-0.1,5.6-2.6,5.6-5.8C383.2,201,380.8,198.7,377.5,198.6z M291,197.2c-3.2-0.1-5.8,2.4-5.8,5.5
		c-0.1,3.1,2.4,5.8,5.5,6c3,0.2,5.7-2.4,5.8-5.6C296.6,199.9,294.1,197.3,291,197.2z M377.5,368.9c-3,0-5.6,2.4-5.7,5.2
		c-0.1,3.2,2.6,6.1,5.8,6c2.8-0.1,5.5-2.7,5.5-5.5C383.2,371.5,380.7,368.9,377.5,368.9z M432,298.4c-3.2,0.1-5.7,2.7-5.5,5.8
		c0.1,2.8,2.9,5.5,5.6,5.4c2.9-0.1,5.7-3.1,5.6-5.9C437.6,300.9,434.8,298.3,432,298.4z M432,261.1c-0.1-2.6-3.1-5.5-5.7-5.4
		c-2.7,0.1-5.5,3-5.4,5.7c0.1,2.6,3.1,5.6,5.6,5.5C429.1,266.7,432,263.6,432,261.1z M360.8,371.6c-0.1-3-2.8-5.6-5.5-5.5
		c-2.8,0.2-5,2.6-4.9,5.5c0,3.1,2.6,5.7,5.4,5.5C358.4,376.9,360.9,374.2,360.8,371.6z M360.7,207.4c0.1-3-2.4-5.7-5.3-5.6
		c-2.8,0-5.1,2.3-5.2,5.2c-0.2,3.1,2.1,5.6,5.2,5.7C358.1,212.7,360.6,210.2,360.7,207.4z M426.4,312.4c-2.7,0-5.4,2.5-5.4,5.1
		c0,2.6,2.6,5.1,5.4,5.2c2.9,0,5.3-2.3,5.3-5.1C431.7,315,429.1,312.4,426.4,312.4z M417.4,244.6c-2.7,0-5,2.3-4.9,5
		c0.1,3,1.7,4.6,4.7,4.7c3,0.1,5.1-1.8,5.1-4.7C422.4,247,420.1,244.7,417.4,244.6z M339.8,216c0.1-2.6-2.2-5.1-4.7-5.3
		c-2.7-0.1-4.9,2-5.1,4.8c-0.1,3,1.7,5,4.6,5.2C337.4,220.8,339.7,218.7,339.8,216z M416.7,334.1c3.7-0.2,5.3-1.8,5.6-4.7
		c0.2-2.6-2.3-5.1-4.8-5.2c-2.6-0.1-4.9,2.3-4.9,5C412.5,332,414.6,334.1,416.7,334.1z M276.2,350.9c0-3.5-1.9-5-4.5-5.5
		c-2.2-0.5-5.2,2.5-5.3,4.8c-0.1,2.4,2.5,5.2,5,5.1C274.3,355.1,275.9,353.3,276.2,350.9z M335.2,358.1c-2.8-0.1-5,1.9-5.1,4.7
		c-0.1,2.9,1.8,5.1,4.6,5.1c2.9,0,4.6-1.6,5-4.4C340.1,360.7,337.8,358.1,335.2,358.1z M271.2,223.6c-2,0-5,3-4.7,5.1
		c0.4,2.6,2.1,4.3,4.7,4.5c2.3,0.2,4.9-2.4,4.9-4.8C276.1,226.2,273.4,223.5,271.2,223.6z M321.9,348.7c-0.8-2-2-4-4.6-3.9
		c-2.6,0.1-4.5,1.5-4.4,4.5c0.1,2.8,1.9,4.5,4.6,4.5C320.3,353.8,321.4,351.5,321.9,348.7z M312.9,228.9c0.1,2.9,1.6,4.7,4.2,4.8
		c2.8,0.2,4.2-1.8,4.6-4.4c0.3-2.1-2.1-4.6-4.4-4.4C314.8,225.1,313.2,226.4,312.9,228.9z M405.7,333.6c-2.6,0.1-4.2,1.5-4.3,4.1
		c0,2.6,1.3,4.6,4.1,4.9c2.4,0.3,5.1-2.3,4.8-4.6C409.9,335.5,408.7,333.6,405.7,333.6z M401.3,240.5c0.4,2.8,1.7,4.7,4.5,4.7
		c2.8,0,4.5-1.8,4.4-4.5c0-2.7-2-4.3-4.7-4.3C402.9,236.3,401.7,238.2,401.3,240.5z M307.6,331.6c-0.1-2.5-1.4-3.9-4-3.9
		c-2.7,0-3.9,1.9-4,4.1c0,2.3,1.4,4.1,4.1,3.8C306.1,335.5,307.9,334.5,307.6,331.6z M392,239.2c2.8-0.1,4-1.7,4-4.1
		c0-2.5-1.8-3.9-4-3.9c-2.2,0-3.7,1.6-3.6,3.9C388.3,237.4,389.5,239,392,239.2z M392,347.3c2.6,0.1,4-1.3,4-3.7
		c0.1-2.4-1.5-3.7-3.7-3.8c-2.6-0.1-3.9,1.4-4,3.9C388.2,346,389.6,347.3,392,347.3z M304.2,243.3c-2.9,0.1-4.3,1.8-4.3,3.8
		c0,2.2,1.5,4.1,4.1,3.9c2.3-0.1,3.6-1.7,3.6-4C307.5,244.6,306.1,243.4,304.2,243.3z M377.6,341.9c-2.1,0.3-3.6,1.2-3.6,3.5
		c0,2.3,1.6,3.5,3.6,3.6c1.8,0,3.3-1.3,3.4-3.3C381.1,343.5,379.7,342.3,377.6,341.9z M381.2,233.2c-0.4-2.1-1.6-3.6-3.7-3.6
		c-1.9,0-3.6,1.3-3.7,3.5c-0.1,2.5,1.7,3.6,3.8,3.7C379.9,237,380.7,235.2,381.2,233.2z M363.1,346.9c2.1-0.3,3-1.7,3-3.6
		c0.1-2-1.3-2.9-3.1-2.8c-1.8,0.1-3.1,1.1-3.1,3C360,345.4,360.9,346.8,363.1,346.9z M366.2,234.9c-0.3-1.8-1.5-2.9-3.2-3
		c-2-0.1-3.3,1.3-3.2,3.3c0.1,1.8,1.2,3.1,3,3.1C364.9,238.4,365.9,237,366.2,234.9z M352.4,240.8c-0.5-1.5-1.2-2.9-2.9-2.8
		c-1.6,0.1-2.8,1-2.7,2.9c0.1,1.8,1,2.8,2.8,2.8C351.3,243.6,352,242.4,352.4,240.8z M352,337.9c-0.1-1.9-0.9-2.7-2.6-2.7
		c-1.9,0-2.7,1.1-2.7,2.8c0,1.8,1.1,2.7,2.8,2.7C351.5,340.6,351.9,339.2,352,337.9z M337.8,331.3c1.4-0.1,2.1-1.1,2.1-2.5
		c0.1-1.3-0.5-2.3-1.9-2.3c-1.3,0-2.4,0.7-2.5,2.2C335.4,330.2,336.1,331.1,337.8,331.3z M338,252.1c1.2-0.2,2.1-0.8,2-2.2
		c-0.1-1.2-0.6-2.3-1.9-2.3c-1.4,0-2.5,0.7-2.6,2.2C335.3,251.3,336.6,251.7,338,252.1z"/>
	<path class="st1" d="M235,305.1c0-13,0-26,0-39c0-1.8-0.3-4.3,2.3-4.3c2.8,0,6.6-1.9,7.9,2.5c0.9,3.2,1.7,3.8,4.7,1.5
		c15.1-12,35.5-5.1,42.2,14.1c5.6,15.8-2.9,34.4-17.9,39.1c-6.9,2.2-13.9,1.4-20.7-0.4c-2.5-0.6-2.7-0.1-2.7,2.1c0.1,8,0,16,0.1,24
		c0,3-0.8,4.5-4.1,4.2c-2.5-0.2-5-0.2-7.5,0c-3.3,0.3-4.4-1.1-4.4-4.3C235,331.3,235,318.2,235,305.1z M250.8,291.8
		C250.8,291.8,250.8,291.8,250.8,291.8c0,3,0,6,0,9c0,1.2,0.1,2.2,1.3,2.8c5.5,2.7,11.2,3.9,16.9,1.2c9.7-4.4,12-18,4.7-26
		c-4.1-4.5-10.2-6-15.7-3.8c-5.3,2.1-7.2,5.4-7.2,12.4C250.8,288.8,250.8,290.3,250.8,291.8z"/>
	<path class="st1" d="M134.3,290.8c2.2-4.1,3.8-7.2,5.5-10.3c3.1-5.9,6.3-11.9,9.4-17.9c0.8-1.6,1.7-2.6,3.6-2.6
		c2,0,2.9,1.1,3.6,2.6c4.7,9,9.4,18.1,14.4,27.7c2.9-6.2,4.1-12.3,6.3-18c0.1-0.2,0.1-0.5,0.2-0.7c3.1-10.1,3.1-10,13.7-10.1
		c3.6,0,4,1.3,3.1,4.3c-2.5,7.8-5,15.6-7.5,23.4c-2.9,9.1-5.9,18.2-8.9,27.3c-0.5,1.6-0.7,3.5-3.1,3.7c-2.4,0.2-3.6-1.1-4.6-3
		c-5.4-10.4-10.8-20.8-16.2-31.1c-0.2-0.4-0.6-0.8-0.8-1.2c-1.3-0.1-1.4,1-1.7,1.7c-5.3,10-10.5,20.1-15.7,30.1c-1,2-2,3.7-4.7,3.5
		c-2.5-0.2-2.8-2.2-3.3-3.9c-5.5-17.1-11-34.3-16.6-51.4c-0.9-2.8,0.1-3.4,2.5-3.3c0.1,0,0.2,0,0.4,0c11.1-0.3,11.1-0.3,14.4,10.2
		C130.2,277.8,132,283.8,134.3,290.8z"/>
	<path class="st1" d="M377.3,320.2c-15.2-0.2-29-12.1-29-30.1c-0.1-18.7,14.7-30.6,30-30.2c16,0.4,28.9,13.7,28.8,30.2
		C407,306.9,393.7,320.4,377.3,320.2z M377.6,306c8.7,0,15.4-7,15.4-15.9c-0.1-9.1-6.7-16-15.3-16c-8.4,0-15.1,7-15.2,15.8
		C362.3,298.9,369,306,377.6,306z"/>
	<path class="st2" d="M548,309.1c-10.9-0.2-19.9-9-19.8-19.8c0-11.1,9.5-20.3,20.8-20.1c10.3,0.2,19.4,9.6,19.4,20
		C568.3,300.5,559.3,309.3,548,309.1z"/>
	<path class="st1" d="M305.7,289.7c0-8,0-16,0-24c0-1.7-0.3-4.1,2.2-4c2.7,0.1,6.2-1.9,7.9,2.1c0.3,0.7,0.6,1.4,0.8,2.1
		c0.6,2,1.3,1.8,2.7,0.4c6.2-6.3,13.7-7.8,22-5.6c4,1.1,4.6,2.6,3,6.3c-0.2,0.6-0.5,1.1-0.8,1.7c-2.6,6-2.6,5.9-9.2,5.6
		c-2.2-0.1-4.5-0.2-6.6,0.7c-4.6,1.9-6,3.7-5.9,8.6c0,9.9,0,19.7,0,29.6c0,5.2-0.2,5.4-5.5,5.4c-1.7,0-3.5,0-5.2,0
		c-5,0-5.2-0.2-5.2-5.4C305.7,305.5,305.7,297.6,305.7,289.7C305.7,289.7,305.7,289.7,305.7,289.7z"/>
	<path class="st3" d="M560.7,333.3c0.3,9.8-7.9,18.3-17.8,18.4c-10,0.1-18.4-7.8-18.6-17.7c-0.3-10.1,8.1-18.8,18.2-18.9
		C552.2,315.1,560.4,323.2,560.7,333.3z"/>
	<path class="st1" d="M220.7,290.3c0,8.1-0.1,16.2,0.1,24.3c0.1,3-1.2,4-4,4c-2.7,0-5.5-0.1-8.2,0c-2.6,0.1-3.6-1.3-3.6-3.6
		c0-16.7,0-33.5,0-50.2c0-2.3,1.1-3.4,3.5-3.3c3,0.1,6,0.1,9,0c2.7-0.1,3.4,1.1,3.4,3.6C220.6,273.6,220.7,282,220.7,290.3z"/>
	<path class="st4" d="M525.2,220.7c-9.5-0.1-16.6-7.2-16.6-16.6c0-9.3,7.5-16.7,17-16.7c9.2,0.1,16.9,7.9,16.7,17
		C542.1,213.5,534.4,220.7,525.2,220.7z"/>
	<path class="st5" d="M525.6,358.3c8.9,0.1,16.5,7.8,16.4,16.5c-0.1,8.9-8,16.7-16.9,16.7c-8.8-0.1-16.8-8.2-16.6-16.9
		C508.8,365.4,516.4,358.2,525.6,358.3z"/>
	<path class="st6" d="M498.1,395.2c8.5,0,14.9,6.4,15,14.8c0,8.2-6.8,15.2-14.9,15.2c-8.1,0-15.1-7.2-15.2-15.4
		C483,402.3,490.6,394.4,498.1,395.2z"/>
	<path class="st2" d="M514.7,289.4c0,7.8-6.5,14.2-14.4,14.2c-7.6,0-14.3-6.7-14.2-14.4c0.1-7.8,6.5-14.1,14.5-14.1
		C508.5,275.2,514.7,281.5,514.7,289.4z"/>
	<path class="st6" d="M462.9,422.9c7.8,0,14.2,6.2,14.1,13.9c-0.1,8-6.4,14.4-14.3,14.3c-7.7-0.1-14-6.3-14.1-14
		C448.5,429.2,455,422.9,462.9,422.9z"/>
	<path class="st7" d="M462.8,127.6c7.6,0,14.2,6.4,14.3,13.9c0.1,7.9-6.3,14.4-14.1,14.4c-7.8,0-14.4-6.5-14.3-14.2
		C448.7,134.2,455.3,127.6,462.8,127.6z"/>
	<path class="st8" d="M495.7,154.3c7.8-2,16,3.5,17.4,12.1c1.3,8.3-4.8,16.7-12.7,17.3c-11.3,1-20-8.9-16.5-18.8
		c1.6,1.4-0.5,2.8,0,4.1c0.4,1,0.2,2.6,1.4,2.7c1.5,0.1,1.5-1.3,1.5-2.5c0-0.5,0-1,0.2-1.5c0.6-1.5,1.2-3,3-3.5
		c2.2-0.7,1.7,1.9,3.7,2.9c-1.1-5.1,1.4-8.3,4.4-11.2c-1.3-1.3-2.9-0.4-3.7-1.5c0.2-0.2,0.5-0.2,0.7-0.1c0,0,0.3,0,0.3,0
		L495.7,154.3z"/>
	<path class="st8" d="M525.7,252c-4.1-7.9-0.4-20,9.9-23.9c9.3-3.6,20.4,0.4,23.4,10.3c0.2,0.8,0.7,1.5,1.1,2.3
		c-0.6,0.2-1.4,0.3-1.6,0.7c-0.7,1.2-0.3,3.5-2.1,3.6c-2.4,0.1-0.2-3-2.1-3.8c-0.9,0.9-0.8,2.8-2.5,3.2c-4.7,1.1-9.1,3.7-14,3.8
		C533.1,248.1,529.7,250.7,525.7,252z"/>
	<path class="st9" d="M408.7,124.8c0-7.8,5.4-13.2,13.1-13.2c7.4,0,13.3,6,13.3,13.3c-0.1,7.2-6.4,13.1-14,13.1
		C415.8,137.9,408.1,132.8,408.7,124.8z"/>
	<path class="st10" d="M421.6,467.2c-7.4-0.1-12.8-5.9-13-13.4c-0.2-6.6,6.4-13.4,13.4-13c7.1,0.4,13.1,6.3,13.1,13.2
		C435,461.2,428.7,467.3,421.6,467.2z"/>
	<path class="st9" d="M377.4,131.3c-7,0-12.5-5.6-12.5-12.6c0-6.4,6.2-12.3,12.7-12.2c6.7,0.2,12.5,5.9,12.5,12.4
		C390,125.9,384.5,131.3,377.4,131.3z"/>
	<path class="st10" d="M377.5,447.6c7,0,12.5,5.3,12.5,12.1c0,6.8-6,12.7-12.7,12.6c-6.6-0.2-12-6-12-12.8
		C365.3,452.8,370.6,447.6,377.5,447.6z"/>
	<path class="st3" d="M496.3,333.4c-6.8,0-12.5-5.6-12.5-12.3c0-6.8,5.7-12.4,12.4-12.3c6.8,0.1,12.3,5.6,12.3,12.5
		C508.7,327.7,502.9,333.4,496.3,333.4z"/>
	<path class="st11" d="M525.7,252c4-1.4,7.4-3.9,12-4c4.9,0,9.3-2.6,14-3.8c1.8-0.4,1.6-2.2,2.5-3.2c1.9,0.9-0.3,3.9,2.1,3.8
		c1.8,0,1.4-2.3,2.1-3.6c0.2-0.4,1.1-0.5,1.6-0.7c2.5,8.6-2.7,18.2-10.4,21.5c-7.5,3.2-16.3,1-21.8-5.8
		C526.8,255,525.9,253.7,525.7,252z"/>
	<path class="st4" d="M495.4,228.5c-0.3,6.6-5.6,11.6-11.9,11.3c-7.6-0.4-11.4-6.4-11.5-12c-0.1-6.7,5.9-11.7,12.7-11.3
		C491.1,216.8,495.7,222,495.4,228.5z"/>
	<path class="st12" d="M333.4,442.4c6.2-0.1,11.6,5.1,11.7,11.2c0.1,6.1-5.4,11.8-11.5,12c-6.5,0.2-11.7-4.8-11.8-11.4
		C321.7,447.3,326.5,442.5,333.4,442.4z"/>
	<path class="st13" d="M333.6,113.2c6.4,0.1,11.7,5.6,11.5,12.2c-0.2,6.1-5.8,11.3-12.2,11.1c-6.2-0.1-11.2-5.4-11.2-11.6
		C321.7,118.2,326.9,113.1,333.6,113.2z"/>
	<path class="st5" d="M495.2,350.8c0,6.4-5,11.4-11.3,11.4c-6.5,0-11.8-5.2-11.8-11.5c0-5.9,5.6-11.6,11.5-11.6
		C490.1,339.1,495.2,344.3,495.2,350.8z"/>
	<path class="st14" d="M292.3,131.2c5.5-0.9,11,5.3,10.8,10.8c-0.2,5.9-5.2,11.1-10.9,11c-5.9-0.1-10.5-5.1-10.8-11
		C281.1,137,286.6,130.3,292.3,131.2z"/>
	<path class="st12" d="M303.1,436.8c0,5.8-5,10.8-11,10.8c-5.7,0-10.7-5-10.7-10.8c0-5.8,4.9-10.8,10.6-10.9
		C297.9,425.9,303.1,430.9,303.1,436.8z"/>
	<path class="st6" d="M474.9,376.1c0.3,6.6-5,10.5-10.7,10.8c-5.8,0.3-10.7-4.8-10.7-10.6c0-6.2,4.8-11,10.8-11
		C470.3,365.3,474.9,370.1,474.9,376.1z"/>
	<path class="st6" d="M439.1,405.6c-5.4,0-10-4.5-10-10c-0.1-5.6,4.3-10.1,9.9-10.1c5.5,0,10,4.5,10,10
		C449,401,444.5,405.6,439.1,405.6z"/>
	<path class="st14" d="M256.9,179.1c-5.6-0.2-10.2-5.1-9.9-10.5c0.3-4.9,5.1-9.6,9.8-9.5c5.6,0.1,10.5,4.9,10.3,10.2
		C266.9,174.5,262,179.3,256.9,179.1z"/>
	<path class="st12" d="M256.8,419.3c-5.2,1.1-9.8-4.5-9.8-9.8c0-5,4.7-9.7,9.9-9.8c5.2-0.1,10.2,4.4,10.2,9.3
		C267,413.6,263.7,420.3,256.8,419.3z"/>
	<path class="st7" d="M448.8,183.2c0,5.6-4.3,10-9.8,10c-5.5,0-9.8-4.4-9.9-10c-0.1-5.4,4.5-9.9,9.9-10
		C443.5,173.1,449.3,177.7,448.8,183.2z"/>
	<path class="st2" d="M463.1,279.6c5,0,9.5,4.4,9.6,9.5c0.1,5.4-4.2,9.8-9.5,9.9c-5.4,0.1-9.8-4.3-9.8-9.6
		C453.3,284,457.7,279.7,463.1,279.6z"/>
	<path class="st8" d="M467.1,192.5c4.3,0.9,7.2,3.9,7.9,8.2c0.8,4.7-1.1,8.9-4.9,11.2c-3.8,2.3-8.9,2-12.2-0.7
		c-1.6-1.3-3.3-2.7-3.6-5c1.9,0.7,3.6,0.5,5.2-0.7c-2.7-2.7-2.7-3.5,0.4-5.6c1.5-1,2.3-3,1.9-4.2c-0.7-1.9,0.4-1.9,1.4-2.5
		C464.3,192.6,465.7,192.8,467.1,192.5z"/>
	<path class="st12" d="M229.6,383.2c-5.3-0.1-8.9-3.8-8.9-9.4c0-4.2,5.2-9.1,9.5-8.9c4.4,0.2,9,5,9,9.5
		C239.2,379.1,234.7,383.3,229.6,383.2z"/>
	<path class="st9" d="M400.3,171.1c0-4.9,4.1-9.1,8.9-9.2c5,0,9.1,4.2,9.1,9.4c0,4.5-4.2,8.6-9,8.7C404.4,180,400.3,176,400.3,171.1
		z"/>
	<path class="st10" d="M418.3,407.9c-0.1,4.8-4.3,8.9-9.3,8.9c-4.8,0-8.8-4.3-8.6-9.4c0.1-4.9,4-8.6,9-8.6
		C414.5,398.9,418.4,402.9,418.3,407.9z"/>
	<path class="st3" d="M460,302.4c4.9,0,9,4.1,9,9c0,5-4,8.8-9.1,8.8c-4.8,0-8.7-3.9-8.8-8.8C451.1,306.6,455.1,302.5,460,302.4z"/>
	<path class="st15" d="M229,212.9c-4.3,0-8.4-4.3-8.5-8.7c0-5,4.4-9.5,9.2-9.3c4.6,0.2,8.8,4.8,8.8,9.5C238.6,209,234,213,229,212.9
		z"/>
	<path class="st8" d="M484,259.4c-0.4-7.1,2.5-11.9,8.7-13.9c5.2-1.7,10.6,0.5,13.8,5.5c0,3.5-1.8,5.7-5.3,6
		c-5.8,0.6-11,3.8-16.9,3.6c0,0-0.1-0.2-0.1-0.2C484.5,260,484.3,259.7,484,259.4z"/>
	<path class="st11" d="M484.2,260.6c5.9,0.2,11.1-3,16.9-3.6c3.4-0.4,5.2-2.5,5.3-6c2.7,3.9,2.9,9.1,0.5,12.9
		c-3.1,4.8-7.5,7-13.1,5.9C488.9,268.9,485.4,265.9,484.2,260.6z"/>
	<path class="st15" d="M213.2,234.7c4.6,0.1,8.1,3.9,8.1,8.9c-0.1,4.4-3.9,8-8.5,8.1c-4.6,0-8.6-4-8.6-8.5
		C204.2,238.4,208.2,234.6,213.2,234.7z"/>
	<path class="st4" d="M451.4,238.4c4.8,0,8.5,3.7,8.4,8.5c-0.1,4.5-3.8,8-8.5,8c-4.6,0-8-3.4-8.1-7.9
		C443.2,242.2,446.7,238.5,451.4,238.4z"/>
	<path class="st9" d="M377.5,174.9c-4.8,0-8.4-3.6-8.3-8.2c0.1-4.1,4.1-8.2,8.2-8.2c4.4,0,8.3,3.8,8.3,8.3
		C385.7,171.7,382.5,174.9,377.5,174.9z"/>
	<path class="st5" d="M451.2,323.9c4.5-0.1,8.5,3.7,8.5,8.1c0,4.2-3.8,8.2-8,8.4c-4.4,0.2-8.5-3.8-8.4-8.2
		C443.3,327.7,446.9,324,451.2,323.9z"/>
	<path class="st10" d="M385.6,411.7c0,4.7-3.5,8.3-8.2,8.3c-4.3,0-8.1-3.9-8.1-8.1c0-4.3,3.7-8,8.1-8.1
		C381.7,403.6,385.6,407.4,385.6,411.7z"/>
	<path class="st6" d="M438.1,357.1c-4.3,0.1-7.6-3.2-7.7-7.4c-0.1-4,3.7-7.7,7.7-7.6c3.6,0.1,7.4,4.1,7.4,7.7
		C445.5,353.3,441.7,357,438.1,357.1z"/>
	<path class="st8" d="M430.5,229.1c0-4.1,3.2-7.4,7.3-7.4c4.1-0.1,7.8,3.5,7.8,7.5c-0.1,3.9-3.5,7.4-7.5,7.5
		C433.9,236.7,430.5,233.4,430.5,229.1z"/>
	<path class="st8" d="M453.1,272.9c-2.9-3.9-3-7.8-0.3-11.2c2.5-3.3,6.9-4.4,10.8-2.9c3.8,1.5,5.7,5,5.3,9.7
		c-0.6-0.1-1.5-0.1-1.7-0.4c-2-3.5-3.5-1.2-4.9,0.4c-0.9,1-1.6,2.4-3.2,2.2C456.7,270.4,455.1,272.1,453.1,272.9z"/>
	<path class="st13" d="M353.3,171.1c0.1,3.9-3.3,7.3-7.4,7.5c-3.9,0.1-7.4-3.2-7.6-7.2c-0.1-4.2,3.3-7.6,7.5-7.6
		C349.9,163.7,353.2,167,353.3,171.1z"/>
	<path class="st12" d="M346,400.4c3.9,0.1,7.2,3.6,7.2,7.5c0,3.7-4.2,7.6-7.9,7.4c-3.6-0.2-7.2-4.3-7-8
		C338.4,403.4,341.9,400.3,346,400.4z"/>
	<path class="st6" d="M426.9,363c0.1,3.6-2.9,6.7-6.5,6.7c-3.5,0-6.9-3.2-6.9-6.5c0-3.2,3.6-6.8,6.7-6.8
		C423.7,356.3,426.8,359.5,426.9,363z"/>
	<path class="st14" d="M316,176.9c3.9-0.1,6.6,2.6,6.7,6.4c0.1,3.6-2.6,6.6-6.1,6.8c-3.8,0.2-7.1-2.9-7.1-6.6
		C309.5,179.8,312.3,176.9,316,176.9z"/>
	<path class="st7" d="M426.8,215.8c-0.1,3.6-3.1,6.5-6.8,6.4c-3.4-0.1-6.7-3.6-6.5-6.8c0.2-3.2,3.5-6.2,6.8-6.2
		C423.9,209.2,426.9,212.2,426.8,215.8z"/>
	<path class="st12" d="M309.8,395.6c0-3.9,2.7-6.8,6.7-6.9c2.8-0.1,6,3.3,6.1,6.4c0.1,3.6-2.9,6.8-6.5,6.8
		C312.5,401.9,309.9,399.3,309.8,395.6z"/>
	<path class="st2" d="M427.7,289.2c0.2-3.1,3.4-6.3,6.4-6.3c3.2,0.1,6.4,3.5,6.2,6.8c-0.2,3.3-3.1,6-6.5,5.8
		C430.4,295.3,427.5,292.4,427.7,289.2z"/>
	<path class="st10" d="M399.5,377.8c-3.1-0.1-6.1-3.3-5.9-6.5c0.2-3.1,3.2-5.8,6.2-5.8c3,0.1,5.9,3.1,5.9,6.1
		C405.8,374.7,402.6,377.9,399.5,377.8z"/>
	<path class="st9" d="M405.7,207.3c-0.1,3.2-2.8,5.8-6.2,5.8c-3.1,0-6-2.8-6-6c0-3,3-6.1,6-6.1C402.7,201,405.8,204.1,405.7,207.3z"
		/>
	<path class="st11" d="M494.4,154.5c0.8,1.2,2.4,0.2,3.7,1.5c-3.1,2.8-5.5,6.1-4.4,11.2c-2-1-1.5-3.7-3.7-2.9c-1.8,0.6-2.4,2-3,3.5
		c-0.2,0.4-0.2,1-0.2,1.5c0,1.2,0,2.6-1.5,2.5c-1.2-0.1-1.1-1.7-1.4-2.7c-0.5-1.4,1.6-2.8,0-4.1
		C485.2,159.3,488.8,155.9,494.4,154.5z"/>
	<path class="st12" d="M296.4,376c0,3-2.4,5.5-5.4,5.5c-3.4,0.1-5.9-2.3-5.9-5.8c0-3.3,2.7-5.9,5.9-5.8
		C294.1,370.1,296.3,372.7,296.4,376z"/>
	<path class="st9" d="M377.5,198.6c3.3,0,5.7,2.4,5.8,5.5c0,3.1-2.5,5.7-5.6,5.8c-3.1,0.1-6.1-2.8-6.1-5.8
		C371.6,201.2,374.4,198.6,377.5,198.6z"/>
	<path class="st14" d="M291,197.2c3.1,0.1,5.6,2.7,5.5,5.9c-0.1,3.2-2.7,5.8-5.8,5.6c-3.1-0.2-5.6-2.8-5.5-6
		C285.2,199.6,287.8,197.1,291,197.2z"/>
	<path class="st10" d="M377.5,368.9c3.1,0,5.6,2.6,5.6,5.7c0,2.8-2.7,5.5-5.5,5.5c-3.2,0.1-5.9-2.8-5.8-6
		C371.9,371.2,374.6,368.9,377.5,368.9z"/>
	<path class="st3" d="M432,298.4c2.8-0.1,5.6,2.5,5.7,5.3c0.1,2.8-2.7,5.8-5.6,5.9c-2.8,0.1-5.5-2.5-5.6-5.4
		C426.4,301.1,428.8,298.5,432,298.4z"/>
	<path class="st4" d="M432,261.1c0.1,2.5-2.9,5.6-5.5,5.7c-2.5,0.1-5.6-2.8-5.6-5.5c-0.1-2.7,2.7-5.6,5.4-5.7
		C428.9,255.6,431.9,258.5,432,261.1z"/>
	<path class="st12" d="M360.8,371.6c0.1,2.6-2.4,5.3-5.1,5.5c-2.8,0.2-5.3-2.4-5.4-5.5c0-2.9,2.1-5.3,4.9-5.5
		C358,366,360.7,368.6,360.8,371.6z"/>
	<path class="st13" d="M360.7,207.4c-0.1,2.8-2.6,5.3-5.3,5.3c-3.1-0.1-5.3-2.6-5.2-5.7c0.1-2.9,2.4-5.2,5.2-5.2
		C358.3,201.7,360.8,204.4,360.7,207.4z"/>
	<path class="st5" d="M426.4,312.4c2.7,0,5.3,2.6,5.3,5.2c0,2.8-2.5,5.1-5.3,5.1c-2.7,0-5.4-2.6-5.4-5.2
		C421,314.9,423.7,312.4,426.4,312.4z"/>
	<path class="st11" d="M453.1,272.9c1.9-0.9,3.5-2.5,5.9-2.3c1.6,0.1,2.2-1.2,3.2-2.2c1.5-1.6,3-3.9,4.9-0.4
		c0.2,0.3,1.1,0.3,1.7,0.4c0.1,0.8,0.2,1.6-0.6,2.2c-0.3,0.1-0.7,0.3-0.3,0.7C464.5,277.5,457.8,278.2,453.1,272.9z"/>
	<path class="st8" d="M428.9,279.1c-2.8-1.6-3.3-4.1-1.9-6.8c1.4-2.8,3.9-3.9,6.8-3c2.9,1,4,3.6,3.7,6.6c-1.6,0.1-1,0.9-0.6,1.6
		c0,0,0,0,0,0C434.2,278.4,431.2,276.9,428.9,279.1z"/>
	<path class="st8" d="M417.4,244.6c2.7,0,4.9,2.3,4.9,5.1c0,2.9-2.1,4.8-5.1,4.7c-3-0.1-4.6-1.7-4.7-4.7
		C412.5,246.9,414.8,244.6,417.4,244.6z"/>
	<path class="st14" d="M339.8,216c-0.1,2.7-2.4,4.8-5.2,4.7c-2.9-0.2-4.7-2.2-4.6-5.2c0.1-2.8,2.4-4.9,5.1-4.8
		C337.7,210.8,340,213.4,339.8,216z"/>
	<path class="st6" d="M416.7,334.1c-2.1,0-4.2-2-4.1-4.9c0-2.7,2.4-5.1,4.9-5c2.5,0.1,5,2.6,4.8,5.2
		C422,332.2,420.4,333.8,416.7,334.1z"/>
	<path class="st12" d="M276.2,350.9c-0.3,2.4-1.9,4.2-4.8,4.4c-2.5,0.2-5.1-2.6-5-5.1c0-2.3,3-5.3,5.3-4.8
		C274.3,345.9,276.3,347.4,276.2,350.9z"/>
	<path class="st12" d="M335.2,358.1c2.6,0.1,4.9,2.6,4.5,5.3c-0.4,2.8-2.1,4.5-5,4.4c-2.8,0-4.8-2.2-4.6-5.1
		C330.2,360,332.4,358,335.2,358.1z"/>
	<path class="st11" d="M467.1,192.5c-1.3,0.2-2.7,0.1-4,0.8c-1,0.6-2.1,0.6-1.4,2.5c0.4,1.1-0.4,3.2-1.9,4.2c-3,2.1-3.1,2.9-0.4,5.6
		c-1.6,1.2-3.4,1.4-5.2,0.7C452,197,458.6,190,467.1,192.5z"/>
	<path class="st15" d="M271.2,223.6c2.2,0,4.9,2.6,4.9,4.8c0,2.4-2.5,5-4.9,4.8c-2.7-0.2-4.4-1.9-4.7-4.5
		C266.2,226.6,269.2,223.6,271.2,223.6z"/>
	<path class="st12" d="M321.9,348.7c-0.5,2.8-1.6,5-4.4,5.1c-2.7,0-4.4-1.7-4.6-4.5c-0.1-2.9,1.8-4.3,4.4-4.5
		C319.9,344.7,321.1,346.7,321.9,348.7z"/>
	<path class="st14" d="M312.9,228.9c0.3-2.5,1.9-3.8,4.4-4c2.3-0.1,4.7,2.3,4.4,4.4c-0.4,2.6-1.8,4.6-4.6,4.4
		C314.5,233.6,313,231.8,312.9,228.9z"/>
	<path class="st6" d="M405.7,333.6c3-0.1,4.3,1.9,4.6,4.4c0.3,2.3-2.4,4.9-4.8,4.6c-2.8-0.3-4.1-2.3-4.1-4.9
		C401.4,335.2,403,333.7,405.7,333.6z"/>
	<path class="st7" d="M401.3,240.5c0.4-2.3,1.6-4.2,4.3-4.2c2.7,0,4.6,1.6,4.7,4.3c0,2.7-1.6,4.5-4.4,4.5
		C403,245.2,401.7,243.3,401.3,240.5z"/>
	<path class="st12" d="M307.6,331.6c0.3,2.9-1.6,3.8-3.9,4c-2.6,0.2-4.1-1.5-4.1-3.8c0-2.2,1.3-4.1,4-4.1
		C306.2,327.7,307.5,329.1,307.6,331.6z"/>
	<path class="st9" d="M392,239.2c-2.4-0.1-3.6-1.8-3.7-4.1c0-2.3,1.4-3.9,3.6-3.9c2.3,0,4,1.4,4,3.9
		C395.9,237.5,394.7,239,392,239.2z"/>
	<path class="st10" d="M392,347.3c-2.4,0-3.7-1.3-3.7-3.6c0.1-2.4,1.4-4,4-3.9c2.2,0.1,3.8,1.4,3.7,3.8
		C396,346,394.6,347.4,392,347.3z"/>
	<path class="st15" d="M304.2,243.3c1.9,0.1,3.4,1.4,3.4,3.7c0,2.3-1.3,3.8-3.6,4c-2.6,0.2-4.1-1.7-4.1-3.9
		C299.9,245.1,301.3,243.3,304.2,243.3z"/>
	<path class="st10" d="M377.6,341.9c2.1,0.4,3.5,1.6,3.4,3.8c-0.1,2-1.6,3.4-3.4,3.3c-1.9,0-3.6-1.2-3.6-3.6
		C374.1,343.2,375.6,342.2,377.6,341.9z"/>
	<path class="st9" d="M381.2,233.2c-0.5,2-1.3,3.8-3.6,3.7c-2.1-0.1-3.9-1.3-3.8-3.7c0.1-2.2,1.8-3.5,3.7-3.5
		C379.6,229.6,380.8,231.1,381.2,233.2z"/>
	<path class="st12" d="M363.1,346.9c-2.1-0.1-3.1-1.5-3.2-3.4c-0.1-1.9,1.3-2.9,3.1-3c1.8-0.1,3.2,0.8,3.1,2.8
		C366,345.2,365.1,346.6,363.1,346.9z"/>
	<path class="st13" d="M366.2,234.9c-0.3,2.1-1.3,3.5-3.4,3.5c-1.9,0-3-1.3-3-3.1c-0.1-2.1,1.2-3.4,3.2-3.3
		C364.7,232,365.9,233.2,366.2,234.9z"/>
	<path class="st14" d="M352.4,240.8c-0.4,1.6-1.1,2.8-2.9,2.9c-1.8,0-2.7-1-2.8-2.8c-0.1-1.8,1.1-2.8,2.7-2.9
		C351.2,237.9,351.9,239.3,352.4,240.8z"/>
	<path class="st12" d="M352,337.9c-0.1,1.3-0.5,2.7-2.4,2.8c-1.7,0-2.8-0.9-2.8-2.7c0-1.7,0.8-2.7,2.7-2.8
		C351.1,335.1,351.9,336,352,337.9z"/>
	<path class="st12" d="M337.8,331.3c-1.6-0.2-2.3-1.1-2.3-2.5c0.1-1.5,1.2-2.2,2.5-2.2c1.4,0,1.9,1,1.9,2.3
		C339.8,330.3,339.2,331.2,337.8,331.3z"/>
	<path class="st13" d="M338,252.1c-1.3-0.4-2.6-0.7-2.5-2.3c0.1-1.5,1.2-2.2,2.6-2.2c1.3,0,1.9,1.1,1.9,2.3
		C340,251.3,339.1,251.8,338,252.1z"/>
	<path class="st11" d="M428.9,279.1c2.3-2.1,5.3-0.7,7.9-1.5C434.1,281.1,432.1,281.5,428.9,279.1z"/>
	<path class="st11" d="M436.8,277.6c-0.5-0.8-1-1.6,0.6-1.6C437.5,276.6,437.4,277.2,436.8,277.6z"/>
	<path class="st11" d="M495.7,154.3l-0.3,0.1c0,0-0.3,0-0.3,0C495.3,154.4,495.5,154.4,495.7,154.3z"/>
	<path class="st8" d="M467.9,271.4c-0.3-0.5,0-0.6,0.3-0.7C468.1,270.9,468,271.1,467.9,271.4z"/>
	<path class="st11" d="M484,259.4c0.3,0.3,0.5,0.6,0.2,1c-0.1-0.2-0.2-0.4-0.3-0.6C483.9,259.7,483.9,259.6,484,259.4z"/>
	<path class="st0" d="M250.8,291.8c0-1.5,0-3,0-4.5c0-7,1.9-10.3,7.2-12.4c5.4-2.1,11.6-0.6,15.7,3.8c7.3,8,5,21.6-4.7,26
		c-5.7,2.6-11.4,1.4-16.9-1.2c-1.2-0.6-1.3-1.6-1.3-2.8C250.8,297.7,250.8,294.8,250.8,291.8C250.8,291.8,250.8,291.8,250.8,291.8z"
		/>
	<path class="st0" d="M377.6,306c-8.6,0-15.2-7.1-15.1-16.1c0.1-8.8,6.8-15.7,15.2-15.8c8.6,0,15.3,6.9,15.3,16
		C393,299,386.2,306,377.6,306z"/>
</g>
</svg>
