<?xml version="1.0" encoding="utf-8"?>
<!-- Generator: Adobe Illustrator 19.0.0, SVG Export Plug-In . SVG Version: 6.00 Build 0)  -->
<svg version="1.1" id="Isolation_Mode" xmlns="http://www.w3.org/2000/svg" xmlns:xlink="http://www.w3.org/1999/xlink" x="0px"
	 y="0px" viewBox="-380.8 251.1 93.8 57" style="enable-background:new -380.8 251.1 93.8 57;" xml:space="preserve">
<style type="text/css">
	.st0{fill:#FFFFFF;}
	.st1{fill:url(#XMLID_2_);}
	.st2{fill:url(#XMLID_3_);}
	.st3{fill:url(#XMLID_4_);}
	.st4{fill:url(#XMLID_5_);}
	.st5{fill:#C22229;}
	.st6{fill:#D92228;}
</style>
<g id="XMLID_3275_">
	<ellipse id="XMLID_3307_" class="st0" cx="-333.9" cy="279.6" rx="46.9" ry="28.5"/>
	<g id="XMLID_3276_">
		<g id="XMLID_3280_">
			
				<radialGradient id="XMLID_2_" cx="-361.6698" cy="308.0805" r="79.6566" gradientTransform="matrix(1 0 0 -1 0 564)" gradientUnits="userSpaceOnUse">
				<stop  offset="6.500000e-02" style="stop-color:#FFFFFF"/>
				<stop  offset="0.1046" style="stop-color:#FCD7D8"/>
				<stop  offset="0.1599" style="stop-color:#F8A6A9"/>
				<stop  offset="0.2168" style="stop-color:#F57C80"/>
				<stop  offset="0.2741" style="stop-color:#F2595F"/>
				<stop  offset="0.332" style="stop-color:#F03E45"/>
				<stop  offset="0.3908" style="stop-color:#EE2B33"/>
				<stop  offset="0.4511" style="stop-color:#ED2028"/>
				<stop  offset="0.515" style="stop-color:#ED1C24"/>
				<stop  offset="0.6591" style="stop-color:#D81E26"/>
				<stop  offset="0.8595" style="stop-color:#C62027"/>
				<stop  offset="1" style="stop-color:#C02128"/>
			</radialGradient>
			<path id="XMLID_3285_" class="st1" d="M-333.9,253.7c-23.6,0-42.8,11.6-42.8,26c0,14.3,19.1,26,42.8,26c23.6,0,42.8-11.6,42.8-26
				C-291.2,265.3-310.3,253.7-333.9,253.7z M-326.9,282.9c0.1-0.4,0.5-1.6,0.5-1.6c1,0.5,2.4,1,3.4,0.9s1.3-0.5,1.3-0.9
				s-0.2-1-2.9-2.3c-2.7-1.3-2.4-3.1-2.3-3.9c0.1-0.8,1.4-3.2,4.4-3.1c2.3,0,3.5,0.8,3.5,0.8s0.2,1-0.5,2.5c-3.2-1.3-4.2-0.1-4,0.3
				c0.2,0.4,0.5,0.9,2.4,1.8c1.9,0.9,3.3,2.3,2.6,4.7c-0.7,2.1-3.1,2.8-4.8,2.8c0,0-1.2-0.1-2.3-0.4c-0.8-0.2-1.4-0.4-1.6-0.4
				C-327.1,283.6-327,283.2-326.9,282.9z M-329.7,267.4c0,0,1.9-0.1,1.9,2c0.2,1.4-1.4,1.7-2.1,1.7c-0.6,0-1.6-0.4-1.6-2
				C-331.4,267.5-329.7,267.4-329.7,267.4z M-331.3,272.4c0,0,1.9-0.4,3.4,0c0,1.6,0,12.1,0,12.1h-2.8c0,0-0.6,0-0.7-0.2
				c-0.1-0.2,0-9.3,0-9.3S-331.5,273.2-331.3,272.4z M-344.3,266.8l3.5,0.1c0,0,0,4.6,0,6.2c0.8-0.6,2.6-1.2,4.3-1
				c1.3,0.2,3.1,0.8,4,3.2c0.2,0.5,0.3,1,0.4,1.6c0.2,0.5,0,1.9,0,2.2c-0.1,0.4-0.2,0.8-0.3,1.2c-1.4,4.5-5.2,4.5-5.2,4.5
				c-1.4,0.1-2.9-0.8-3.2-1.1s-0.5-0.3-0.5-0.3v0.9h-3c0,0,0.2-2.9,0.2-6C-344.1,275.1-344.3,266.8-344.3,266.8z M-347.2,272.8
				c3.2,2.6,2.2,6.7,2.2,6.7c-0.3-0.4-7.9,0-7.9,0c0.7,4.1,6.8,2,6.8,2l0.5,2.4c0,0-2.3,1-5.1,1c-4.5-0.6-6.1-3.9-5.6-8
				C-355.6,272.7-350.4,270.2-347.2,272.8z M-360.7,279.5c-0.5-2.1-3.4-1.7-3.4-1.7c-0.7,1.1-0.1,5-0.3,6.8c-0.5-0.3-2.3-0.1-3.1,0
				c-0.2-1.4-0.2-2.7-0.2-2.7s0-9.6-0.3-13.6c0,0,1.3-0.5,3.6-0.7c6.5-0.2,8.1,2.5,8.1,4.6c0,2.2-1,3.6-2.5,4.2
				c1.8,1.7,2.9,7.9,2.9,7.9h-3.5C-359.5,284.3-360.2,281.5-360.7,279.5z M-327.2,297.2c-1.9,0.3-8.2,0.9-12.9,0.1
				c-2.3-0.3-5-0.9-7.9-1.9c-5-1.8-9.4-5.4-8.1-6.7c0,0,0.6-1.3,2.5,0c1.4,1.2,2.8,2.6,6.9,4.5c1.6,0.8,3.9,1.6,7,2.2
				c2.3,0.5,4,0.6,6,0.7c9.7,0.6,18.8-4,21-6.4C-316,294.4-322.7,296.4-327.2,297.2z M-312.1,284.9c-2-0.1-5.3-1.2-6-4.8
				c-0.7-3.6,1.9-6.4,3.5-7.3c1.6-0.9,2.9-1.1,4.4-0.8c0.8,0.2,1.5,0.5,1.7,0.6c0.2,0.1,0.4,0.1,0.4,0.1l-0.6,2.3c0,0-0.1,0.2-1.2,0
				c-1.2-0.2-4.4-0.9-4.6,3.1c0.2,3.9,3.8,4.7,5.8,3.3c0.3-0.2,0.6,2.6,0.6,2.6S-309.8,285-312.1,284.9z M-302.4,285.1
				c-2.7,0-6.5-1.4-6.4-7.8c0.6-5.3,6.1-5.2,6.1-5.2c1.4,0,2.9,0,4.3,1.3c1.4,1.3,2,3.1,1.6,6.1
				C-297.1,282.6-299.7,285.1-302.4,285.1z"/>
			
				<radialGradient id="XMLID_3_" cx="-361.3884" cy="308.0825" r="79.4728" gradientTransform="matrix(1 0 0 -1 0 564)" gradientUnits="userSpaceOnUse">
				<stop  offset="6.500000e-02" style="stop-color:#FFFFFF"/>
				<stop  offset="0.1046" style="stop-color:#FCD7D8"/>
				<stop  offset="0.1599" style="stop-color:#F8A6A9"/>
				<stop  offset="0.2168" style="stop-color:#F57C80"/>
				<stop  offset="0.2741" style="stop-color:#F2595F"/>
				<stop  offset="0.332" style="stop-color:#F03E45"/>
				<stop  offset="0.3908" style="stop-color:#EE2B33"/>
				<stop  offset="0.4511" style="stop-color:#ED2028"/>
				<stop  offset="0.515" style="stop-color:#ED1C24"/>
				<stop  offset="0.6591" style="stop-color:#D81E26"/>
				<stop  offset="0.8595" style="stop-color:#C62027"/>
				<stop  offset="1" style="stop-color:#C02128"/>
			</radialGradient>
			<path id="XMLID_3284_" class="st2" d="M-364.2,270.5v4.5c0,0,0.9,0.2,1.8,0.1c0.4-0.1,0.8-0.2,1.2-0.4c0.5-0.4,0.8-0.8,1-1.1
				c0.2-0.4,0.2-0.9,0.2-1.4C-360.2,271.3-361.6,269.7-364.2,270.5z"/>
			
				<radialGradient id="XMLID_4_" cx="-360.1766" cy="308.6661" r="78.9962" gradientTransform="matrix(1 0 0 -1 0 564)" gradientUnits="userSpaceOnUse">
				<stop  offset="6.500000e-02" style="stop-color:#FFFFFF"/>
				<stop  offset="0.1046" style="stop-color:#FCD7D8"/>
				<stop  offset="0.1599" style="stop-color:#F8A6A9"/>
				<stop  offset="0.2168" style="stop-color:#F57C80"/>
				<stop  offset="0.2741" style="stop-color:#F2595F"/>
				<stop  offset="0.332" style="stop-color:#F03E45"/>
				<stop  offset="0.3908" style="stop-color:#EE2B33"/>
				<stop  offset="0.4511" style="stop-color:#ED2028"/>
				<stop  offset="0.515" style="stop-color:#ED1C24"/>
				<stop  offset="0.6591" style="stop-color:#D81E26"/>
				<stop  offset="0.8595" style="stop-color:#C62027"/>
				<stop  offset="1" style="stop-color:#C02128"/>
			</radialGradient>
			<path id="XMLID_3283_" class="st3" d="M-338.2,282.1c0,0,2.7-0.1,2.6-3.8c-0.1-3.7-2.8-3.3-2.8-3.3s-2.7,0-2.6,3.4
				C-340.7,282.2-338.2,282.1-338.2,282.1z"/>
			
				<radialGradient id="XMLID_5_" cx="-360.2284" cy="308.8492" r="79.4921" gradientTransform="matrix(1 0 0 -1 0 564)" gradientUnits="userSpaceOnUse">
				<stop  offset="6.500000e-02" style="stop-color:#FFFFFF"/>
				<stop  offset="0.1046" style="stop-color:#FCD7D8"/>
				<stop  offset="0.1599" style="stop-color:#F8A6A9"/>
				<stop  offset="0.2168" style="stop-color:#F57C80"/>
				<stop  offset="0.2741" style="stop-color:#F2595F"/>
				<stop  offset="0.332" style="stop-color:#F03E45"/>
				<stop  offset="0.3908" style="stop-color:#EE2B33"/>
				<stop  offset="0.4511" style="stop-color:#ED2028"/>
				<stop  offset="0.515" style="stop-color:#ED1C24"/>
				<stop  offset="0.6591" style="stop-color:#D81E26"/>
				<stop  offset="0.8595" style="stop-color:#C62027"/>
				<stop  offset="1" style="stop-color:#C02128"/>
			</radialGradient>
			<path id="XMLID_3282_" class="st4" d="M-350.4,274.6c-2.1,0-2.5,2.2-2.5,2.2h4.5C-348.3,276.8-347.9,274.7-350.4,274.6z"/>
			<path id="XMLID_3281_" class="st5" d="M-302.5,274.8c0,0-2.6-0.2-2.8,3.1c-0.2,2.2,0.7,3.3,1.5,3.9c0.4,0.3,1.3,0.4,1.6,0.3
				c0.8-0.2,2.1-1,2.1-3.4C-300,275.5-301.7,274.8-302.5,274.8z"/>
		</g>
		<path id="XMLID_3277_" class="st6" d="M-333.9,253.7c-23.6,0-42.8,11.6-42.8,26c0,14.3,19.1,26,42.8,26c23.6,0,42.8-11.6,42.8-26
			C-291.2,265.3-310.3,253.7-333.9,253.7z M-333.9,303.3c-22.3,0-40.5-10.7-40.5-23.8s18.1-23.8,40.5-23.8s40.5,10.7,40.5,23.8
			C-293.5,292.7-311.6,303.3-333.9,303.3z"/>
	</g>
</g>
</svg>
