<?xml version="1.0" encoding="utf-8"?>
<!-- Generator: Adobe Illustrator 19.0.0, SVG Export Plug-In . SVG Version: 6.00 Build 0)  -->
<svg version="1.1" id="Layer_1" xmlns="http://www.w3.org/2000/svg" xmlns:xlink="http://www.w3.org/1999/xlink" x="0px" y="0px"
	 viewBox="0 0 187.1 32" style="enable-background:new 0 0 187.1 32;" xml:space="preserve">
<style type="text/css">
	.st0{fill:#FFFFFF;}
</style>
<polygon points="185,3.4 185,1.2 185.7,1.2 186.1,2.6 186.5,1.2 187.1,1.2 187.1,3.4 186.7,3.4 186.7,1.7 186.3,3.4 185.9,3.4 
	185.4,1.7 185.4,3.4 "/>
<polygon points="183.6,3.4 183.6,1.6 183,1.6 183,1.2 184.7,1.2 184.7,1.6 184.1,1.6 184.1,3.4 "/>
<path d="M159.7,1.2l17.5,19.3V1.2h3.2v28.6h-3.2L156.6,7.4v22.4h-3.2V1.2C155.5,1.2,157.6,1.2,159.7,1.2L159.7,1.2z"/>
<path d="M91,1.2c3.8,0,8.7,3.1,8.8,7.7c0.1,4.5-3.2,7-8.1,7.7l8.8,13.2h-7l-9.7-15h3.4c4,0,6.4-2.7,6.3-5.8c0-3.6-2.4-6-7.3-6h-4
	v26.8h-6.8V1.2C80.6,1.2,85.8,1.2,91,1.2L91,1.2z"/>
<polygon points="105.1,1.2 111.9,1.2 111.9,29.8 105.1,29.8 "/>
<path d="M132.7,0.8c9.3,0,16.9,6.7,16.9,15c0,8.2-7.6,14.9-16.9,14.9c-9.3,0-16.9-6.8-16.9-14.9C115.7,7.5,123.3,0.8,132.7,0.8
	L132.7,0.8z"/>
<path d="M54,0.8c9.3,0,16.9,6.7,16.9,15c0,8.2-7.6,14.9-16.9,14.9c-9.3,0-17-6.8-17-14.9C37,7.5,44.7,0.8,54,0.8L54,0.8z"/>
<path d="M27.9,26.9h-6.2c-0.7,0-1.3,0.5-1.3,1c0,0.6,0.8,0.9,1.3,0.9h4.1c-2.7,2-6.1,3.2-9.7,3.2C7.2,32,0,24.8,0,16S7.2,0,16.1,0
	c3.4,0,6.7,1.1,9.3,2.9H14.5c-0.7,0-1.3,0.5-1.3,1c0,0.6,0.8,0.9,1.3,0.9h13.2c0.8,0.9,1.6,1.9,2.3,2.9H17.1c-0.7,0-1.2,0.4-1.2,0.9
	c0,0.7,0.8,1,1.2,1H31c0.4,0.9,0.7,1.9,1,2.9H19c-0.7,0-1.3,0.4-1.3,0.9c0,0.6,0.8,1,1.3,1h13.2c0.1,0.5,0.1,1,0.1,1.6
	c0,0.4,0,0.8-0.1,1.2H20.3c-0.7,0-1.3,0.5-1.3,1c0,0.6,0.8,0.9,1.3,0.9h11.6c-0.2,1-0.5,2-0.9,2.9h-9.7c-0.7,0-1.3,0.5-1.3,0.9
	c0,0.7,0.8,1,1.3,1h8.8C29.5,25,28.8,26,27.9,26.9L27.9,26.9z"/>
<path class="st0" d="M54.2,2.6c7.2,0,9.8,5.9,9.8,13.1c0,7.1-2.6,13-9.8,13s-9.9-5.8-9.9-13S47,2.6,54.2,2.6L54.2,2.6z"/>
<path class="st0" d="M132.8,2.6c7.2,0,9.9,5.9,9.9,13.1c0,7.1-2.7,13-9.9,13s-9.9-5.8-9.9-13C122.9,8.5,125.6,2.6,132.8,2.6
	L132.8,2.6z"/>
</svg>
