<?xml version="1.0" encoding="utf-8"?>
<!-- Generator: Adobe Illustrator 19.0.0, SVG Export Plug-In . SVG Version: 6.00 Build 0)  -->
<svg version="1.1" id="Layer_1" xmlns="http://www.w3.org/2000/svg" xmlns:xlink="http://www.w3.org/1999/xlink" x="0px" y="0px"
	 viewBox="-225.5 247.3 201.3 70.3" style="enable-background:new -225.5 247.3 201.3 70.3;" xml:space="preserve">
<style type="text/css">
	.st0{fill:#FFFFFF;}
	.st1{fill:#00AB4F;}
	.st2{fill:#FFDF00;}
</style>
<path class="st0" d="M-216,308.2h170.3c6.7,0,12.1-5.4,12.1-12.1v-39.3h-170.3c-3.2,0-6.3,1.3-8.5,3.5c-2.3,2.3-3.5,5.3-3.5,8.5
	v39.4H-216z M-45.7,317.6H-217c-4.7,0-8.5-3.8-8.5-8.5v-40.3c0-5.7,2.2-11.1,6.3-15.2c4.1-4.1,9.5-6.3,15.2-6.3h171.3
	c4.7,0,8.5,3.8,8.5,8.5v40.4C-24.2,308-33.9,317.6-45.7,317.6"/>
<path class="st1" d="M-45.7,312.9H-217c-2.1,0-3.8-1.7-3.8-3.7v-40.4c0-4.5,1.7-8.7,4.9-11.9c3.2-3.2,7.4-4.9,11.9-4.9h171.3
	c2.1,0,3.8,1.7,3.8,3.7v40.5C-28.9,305.4-36.5,312.9-45.7,312.9"/>
<path class="st0" d="M-207.8,272.9c0-1.7,1.1-2.6,2.5-2.6s2.5,0.9,2.5,2.6v11.7c0,3.1,2,5.5,5.1,5.5c3,0,5.1-2.6,5.1-5.5v-11.7
	c0-1.7,1.1-2.6,2.5-2.6s2.5,0.9,2.5,2.6v11.9c0,5.6-4.6,9.9-10.1,9.9s-10.1-4.2-10.1-9.9V272.9z"/>
<path class="st0" d="M-183.2,272.9c0-1.7,1.1-2.6,2.5-2.6c0.6,0,1.7,0.5,2.1,1.1l10.5,14.1h0.1v-12.6c0-1.7,1.1-2.6,2.5-2.6
	s2.5,0.9,2.5,2.6v19c0,1.7-1.1,2.6-2.5,2.6c-0.6,0-1.6-0.5-2.1-1.1l-10.5-14h-0.1v12.5c0,1.7-1.1,2.6-2.5,2.6
	c-1.4,0-2.5-0.9-2.5-2.6C-183.2,291.9-183.2,272.9-183.2,272.9z"/>
<path class="st0" d="M-158.4,272.9c0-1.7,1.1-2.6,2.5-2.6s2.5,0.9,2.5,2.6v19c0,1.7-1.1,2.6-2.5,2.6s-2.5-0.9-2.5-2.6V272.9z"/>
<path class="st0" d="M-143.7,289.9h3.9c1.8,0,3.1-1,3.1-2.9c0-1.6-1.2-2.6-3.5-2.6h-3.5V289.9z M-143.7,279.9h2.6
	c1.6,0,2.7-1,2.7-2.6s-1.2-2.4-2.7-2.4h-2.6V279.9z M-148.7,273c0-1.6,1.1-2.5,2.6-2.5h6.4c3.5,0,6.2,2.3,6.2,5.9
	c0,2.3-1,3.9-3.1,4.9v0.1c2.8,0.4,5,2.8,5,5.7c0,4.7-3.1,7.2-7.7,7.2h-6.7c-1.5,0-2.7-1-2.7-2.5V273z"/>
<path class="st0" d="M-128.1,273.4c0-1.7,0.8-2.9,2.6-2.9h8.2c1.6,0,2.4,1.1,2.4,2.3c0,1.1-0.8,2.3-2.4,2.3h-5.8v4.9h5.4
	c1.6,0,2.4,1.1,2.4,2.3c0,1.1-0.8,2.3-2.4,2.3h-5.4v5.1h6.1c1.6,0,2.4,1.1,2.4,2.3c0,1.1-0.8,2.3-2.4,2.3h-8.6c-1.5,0-2.6-1-2.6-2.5
	v-18.4H-128.1z"/>
<path class="st0" d="M-111.1,272.9c0-1.7,1.1-2.6,2.5-2.6c0.6,0,1.7,0.5,2.1,1.1l10.5,14.1h0.1v-12.6c0-1.7,1.1-2.6,2.5-2.6
	s2.5,0.9,2.5,2.6v19c0,1.7-1.1,2.6-2.5,2.6c-0.6,0-1.6-0.5-2.1-1.1l-10.5-14h-0.1v12.5c0,1.7-1.1,2.6-2.5,2.6s-2.5-0.9-2.5-2.6
	V272.9z"/>
<path class="st2" d="M-53.4,276.5l1.3-2.8c-0.1-3.5-1.5-7.8-5.7-10.7c0,0-1.9,5.2-0.7,8.1C-57.7,272.9-54.9,275.3-53.4,276.5
	 M-56.8,287.2l1.4-4.5c-0.4-3.7-2.2-6.1-5.1-8.6c0,0-3.5,3.9-1.1,8.1C-60.4,284.3-58.6,286.1-56.8,287.2 M-40.4,291.1l-7.3,2.5
	l7.2,3.4C-39.2,295.2-39.6,293.1-40.4,291.1 M-48.4,302.3c2.2,0.1,4.8-1.7,6.1-3.4l-7-4.5L-48.4,302.3z M-67.9,292.3
	c4.1,3.8-0.4,8.3-4.1,8.3L-67.9,292.3z M-79.6,303.3c-0.3,1.9-1.5,3.2-1.2,3.4c0.6,0.4,5.5-1.9,8.7-2.7c2.5-0.6,4.8-1,7-2.6
	c1.8-1.4,2.4-3,2.3-4.6c-0.2-2-1.2-3.7-2.5-5.1c1.6,0.3,3,0.7,3.9,1.4c0.8-6.2-4.6-5.2-7.5-3.8c-0.1,0-0.2-0.1-0.3-0.1
	c1.8-3,3-6,1.6-9c-1.8,2.7-3.4,3.7-3.4,7c-0.2-3.3-2.4-4.9-6.1-5.9c-0.9,2.1,0.5,4.7,2.1,6.7c-5.1,0-9.3,2.8-6.6,8.9
	C-80.9,299.1-79.3,301.2-79.6,303.3 M-36.9,289.1l-1.6,0.8c2,4.4,0.9,9-1.8,11.7c-1.1,1.1-2.5,2-4,2.7c-1.5,0.6-3.9,1.1-5.5,1
	c-3.1,0-6.7-1.8-8.8-5.2c0.5-0.7,1.1-1.4,1.6-2.2c1.1,1.8,3.2,4.5,6.3,5l0.1-7.8l-5.8,2c1.9-2.9,3.5-6.2,4.7-9.7
	c11.2,3.7,13.2-8,13.2-8c-3.3-0.5-9.4,0.9-12.1,4.4c0.8-2.8,1.5-5.9,1.9-9.1l1.2,3c1.9-0.1,4.8-0.5,6-1.8c2.6-2.9,2.1-8.6,2.1-8.6
	c-3.5,0.3-7.8,3.3-9.2,6.2c0.2-1.3,0.3-2.6,0.4-4c4.4-5,3.1-11-0.4-13c0,0-8.1,8.2-1.3,12.2c-1.6,19.5-14,37.8-32.6,44.4h8.1
	c5.6-2.9,10.4-6.6,14.4-11.3c2,4.5,6,6.7,10.2,6.7c2.1,0,4.3-0.4,6.3-1.3c2-0.8,3.8-2,5.3-3.5C-34.5,299.9-34.2,295-36.9,289.1"/>
</svg>
