<?xml version="1.0" encoding="utf-8"?>
<!-- Generator: Adobe Illustrator 19.0.0, SVG Export Plug-In . SVG Version: 6.00 Build 0)  -->
<svg version="1.1" id="Layer_1" xmlns="http://www.w3.org/2000/svg" xmlns:xlink="http://www.w3.org/1999/xlink" x="0px" y="0px"
	 viewBox="431.5 216.8 180.7 84.9" style="enable-background:new 431.5 216.8 180.7 84.9;" xml:space="preserve">
<style type="text/css">
	.st0{display:none;fill:#FFFFFF;}
	.st1{fill:#00529C;}
	.st2{fill:#0099D8;}
	.st3{fill:#F47937;}
	.st4{fill:#009D57;}
	.st5{fill:#ED1B2E;}
	.st6{fill:#6DBFD4;}
	.st7{fill:url(#SVGID_1_);}
</style>
<g>
	<polygon class="st0" points="423,185 615.8,185 615.8,377.8 423,377.8 	"/>
	<path class="st1" d="M476.6,287.5h4.1c1.6,0,2.2,0.5,2.2,1.9c0,1.3-0.6,1.8-2.2,1.8h-4.1V287.5L476.6,287.5z M470.3,301.1h6.3v-5.5
		h6.7c4.5,0,6.1-2.6,6.1-6c0-4-1.7-6.2-6.1-6.2h-13V301.1L470.3,301.1z"/>
	<polygon class="st1" points="491.5,283.3 508.5,283.3 508.5,287.6 497.8,287.6 497.8,290 507.7,290 507.7,294.3 497.8,294.3 
		497.8,296.7 508.5,296.7 508.5,301.1 491.5,301.1 	"/>
	<path class="st1" d="M517.4,287.5h4.1c1.6,0,2.2,0.5,2.2,1.9c0,1.3-0.6,1.8-2.2,1.8h-4.1V287.5L517.4,287.5z M511.1,301.1h6.3v-5.5
		h6.7c4.5,0,6.1-2.6,6.1-6c0-4-1.7-6.2-6.1-6.2h-13V301.1L511.1,301.1z"/>
	<path class="st1" d="M536.3,293.5c-3.1-0.5-4.4-2.5-4.4-5c0-4.6,4-5.8,9.2-5.8c7.1,0,10,2.1,10.3,5.8h-7.3c0-0.7-0.4-1.2-1-1.4
		c-0.6-0.3-1.3-0.4-2-0.4c-1.9,0-2.5,0.5-2.5,1.3c0,0.5,0.2,0.8,0.8,0.9l7.5,1.2c3.2,0.5,5.1,2.2,5.1,5.2c0,4.3-3.2,6.4-10.3,6.4
		c-4.8,0-10.1-0.7-10.2-6h7.6c0,0.6,0.2,1,0.7,1.3c0.5,0.2,1.2,0.4,2.1,0.4c2,0,2.5-0.6,2.5-1.4c0-0.5-0.3-1-1.1-1.2L536.3,293.5
		L536.3,293.5z"/>
	<polygon class="st1" points="554.2,283.3 560.5,283.3 560.5,301.1 554.2,301.1 	"/>
	<path class="st1" d="M583.9,294.1c-0.4,2.3-1.1,4.2-2.7,5.5c-1.5,1.3-4,2-7.8,2s-10.9-0.3-10.9-9.5s7.1-9.5,10.9-9.5
		c3.8,0,9.7,0.5,10.5,7.6h-7.1c-0.2-1.3-0.9-3.1-3.4-3.1c-2.6,0-4.2,1.4-4.2,5s1.6,5,3.9,5c2,0,3.2-0.9,3.7-3.1h7.1V294.1z"/>
	<path class="st1" d="M592.1,292.2c0-3.6,1.6-5,4.2-5c2.6,0,4.2,1.4,4.2,5s-1.6,5-4.2,5C593.8,297.2,592.1,295.8,592.1,292.2
		L592.1,292.2z M585.4,292.2c0,9.2,7.1,9.5,10.9,9.5c3.8,0,10.9-0.3,10.9-9.5s-7.1-9.5-10.9-9.5S585.4,283,585.4,292.2L585.4,292.2z
		"/>
	<path class="st1" d="M460.8,283.5c0.4-8.5-6.9-18.1-16.9-19.3v-0.1c9.9,0,17.4,9.1,17.4,16.3c0,1.5-0.1,2.4-0.3,3.1H460.8
		L460.8,283.5z M460.2,284.6c-0.7,0.8-1.5,1.6-2.4,2.4c-1.8-10.2-9.3-19.2-14.6-21.8l-0.1,0.1c5.3,4.4,11.7,12.9,14.2,22.1
		c-1.2,0.9-2.6,1.7-4.1,2.3c-5-5.8-9.7-16.8-11.3-23.9h-0.2c0,6.8,4.9,18.4,10.8,24.1c-1.3,0.5-2.7,0.9-4.2,1.2
		c-5.7-2.2-9.7-9.4-9.7-16.8c0-4.8,1.5-7.8,1.8-8.4h-0.1c-0.3,0.5-2.5,3.5-2.5,8.7c0,8.3,4.1,14.7,9.6,16.7
		c-1.9,0.2-3.8,0.1-5.8-0.3v0.1c0.6,0.2,2.6,1,5.6,1c6.8,0,11.5-4.2,13.3-7.5L460.2,284.6L460.2,284.6z"/>
	<path class="st2" d="M446.3,261.1c-5.2,0-11.3,3.7-11.3,7.2c0,1.3,1.2,2.4,3.7,2.4c5.8,0,11.2-4,11.2-7.1
		C450,261.9,448.4,261.1,446.3,261.1L446.3,261.1z M448.4,263.5c0,2.6-5,5.8-9.2,5.8c-1.9,0-2.9-0.7-2.9-1.9c0-2.7,5.1-5.8,9-5.8
		C447.9,261.6,448.4,262.9,448.4,263.5L448.4,263.5z"/>
	<path class="st3" d="M433,269.8c-0.1,0.3-0.7,1.4-0.7,2.6c0,2.2,2.2,4.2,6.2,4.2c7.8,0,16.7-5.7,16.7-11c0-2.4-2.3-3.7-3.8-3.9v0.1
		c0.5,0.2,2.3,1,2.3,3.1c0,4.2-7.9,10-15.8,10c-3,0-4.9-1.5-4.9-3.7c0-0.7,0.1-1.1,0.2-1.3L433,269.8L433,269.8z"/>
	<path class="st4" d="M458.4,266c0.2,0.2,1.5,1.2,1.5,3.2c0,6.9-10.8,13.6-20.3,13.6c-5.7,0-8.3-2.8-8.1-5.3h0.1
		c0.2,1.3,2.1,3.6,7,3.6c9.5,0,20.2-7,20.2-13.1C458.8,267,458.5,266.3,458.4,266L458.4,266L458.4,266z"/>
	<path class="st5" d="M462,272.4c0,0.1,0.3,0.8,0.3,1.8c0,7.6-10.9,14.2-20.4,14.2c-4.9,0-7.4-2.4-8-3.3l0.1-0.1
		c1.3,1.2,4,2.1,7.1,2.1c8.4,0,20.8-6.4,20.7-14.7H462L462,272.4z"/>
</g>
<g id="XMLID_1_">
	<path id="XMLID_3_" class="st6" d="M470.9,218h7.4c-0.3,2.4-0.3,6.2-0.3,9.9c0,0,0.1,10.9,0.4,13.1h-4.2c-1.3,0-2.1-0.7-2.3-1.6
		c-2,1.5-4.5,2.1-6.7,2.1c-7.9,0-8.9-4.1-8.9-8.3v-6.4c0-3.6-0.2-6.9-0.4-8.8h4.4c2,0,3,1.2,3,3.3v9.3c0,4.8,0.9,6.5,4.9,6.5
		c1.1,0,2.3,0,3.2-0.3l-0.2-8.5C471.2,225.4,471.1,220.4,470.9,218z"/>
	<path id="XMLID_4_" class="st6" d="M485.9,241c0.3-2.4,0.3-10.4,0.3-10.4c0-3.7-0.2-10.9-0.5-12.8h4.3c1.4,0,2.4,0.6,2.6,1.7
		c2-1.5,4.3-2.2,6.5-2.2c7.8,0,9,4.8,9,8.3v6.5c0,3.6,0.2,7.1,0.5,9.1H504c-2,0-3-1.5-3-3.5v-9.4c0-3.7-0.4-6.6-5-6.6
		c-1.1,0-2.3,0.2-3.2,0.5v8.3c0,2.9,0,5.8,0.3,10.4L485.9,241L485.9,241z"/>
	<path id="XMLID_5_" class="st6" d="M529.4,217.9c1.2,0,3.3-0.1,4.3-0.3c-0.2,0.7-0.7,2.6-1.1,3.4c-0.6,1.3-1.6,1.8-4.7,1.8h-2.5
		v7.9c0,2.9,0.1,8.1,0.3,10.5h-7.5c0.3-2.4,0.3-7.6,0.3-10.5v-7.9h-2.4c-2,0-3.7,0.1-4.6,0.7l-0.1-2.9c0-1.8,0.4-2.6,3-2.6
		L529.4,217.9L529.4,217.9z"/>
	<path id="XMLID_8_" class="st6" d="M558.9,229.4c0,7.7-4.4,12.6-12.5,12.6c-8,0-12.1-4.4-12.1-12.3c0-7.9,4.4-12.4,12.4-12.4
		C554.7,217.3,558.9,221.6,558.9,229.4z M541.1,229.5c0,5.3,1.9,7.7,5.5,7.7s5.4-2.4,5.4-7.7s-1.8-7.8-5.4-7.8
		C543,221.7,541.1,224.1,541.1,229.5z"/>
	<path id="XMLID_9_" class="st6" d="M584.1,242.4c-2.8,0-3.4-1.1-5.2-3.6c-1-1.4-4-6.6-4.6-7.7c-0.3-0.5-0.4-1,0.2-1.2
		c2.3-1.3,2.9-2.8,2.9-4.3c0-1.9-0.8-3.5-3.4-3.5c-0.8,0-1.9,0.1-2.5,0.3v7.8c0,2.9,0.1,8.6,0.3,11h-7.2c0.3-2.3,0.4-7.3,0.4-11
		c0,0-0.1-10-0.5-12.1c3.4,0,8.4-0.2,10.6-0.2c3.9,0,9.1,0.8,9.1,6.6c0,2.4-1.1,4.3-3.1,5.6c-0.4,0.3-0.4,0.4,0,1
		c2.5,3.7,5.5,7.9,8.2,10.8C588.3,242,585.8,242.4,584.1,242.4z"/>
	<path id="XMLID_10_" class="st6" d="M603.2,234.4c0,0,0.1,5.2,0.4,6.7h-7.4c0.3-1.5,0.3-6.7,0.3-6.7c0-1-0.3-1.9-1-3.5
		c-1.7-3.4-5.3-9.8-8.4-12.8c1.2-0.2,3.5-0.3,4.8-0.3c2.9,0,3.7,1,4.4,2.1c0.6,1,3,5.8,3.8,7.9c0.9-2.3,2.9-6.4,3.7-7.8
		c0.7-1.1,1.7-2.2,4.1-2.2c1.1,0,2.9,0.1,4.3,0.3c-2.2,2-6.5,9.2-8.2,12.5C603.3,232.1,603.2,232.9,603.2,234.4z"/>
	<path id="XMLID_11_" class="st6" d="M443.7,227c-1.6-0.5-4.3-1.3-4.3-3.3s2.5-2.4,4.2-2.4c3.7,0,6.2,1.7,6.2,1.7v-4
		c0,0-1.6-2.2-6.5-2.2c-6,0-11,2.4-11,7.2s3.5,6,5.8,6.7c2.1,0.7,5.6,1.5,5.6,3.7c0,2.7-2.5,2.8-4.2,2.8c-4.3,0-7.2-1.7-7.2-1.7v3.9
		c0,0,0.5,2.4,7.6,2.4c5.3,0,11.1-2,11-7.4C450.7,230.2,448,228.2,443.7,227z"/>
</g>
<linearGradient id="SVGID_1_" gradientUnits="userSpaceOnUse" x1="461.3" y1="309.7" x2="609.7" y2="309.7" gradientTransform="matrix(1 0 0 -1 0 564)">
	<stop  offset="2.133317e-02" style="stop-color:#00AAEA"/>
	<stop  offset="1" style="stop-color:#2B2F85"/>
</linearGradient>
<polygon class="st7" points="461.3,254.3 609.7,252.8 609.7,255.8 "/>
</svg>
