<?xml version="1.0" encoding="utf-8"?>
<!-- Generator: Adobe Illustrator 19.0.0, SVG Export Plug-In . SVG Version: 6.00 Build 0)  -->
<svg version="1.1" id="Layer_1" xmlns="http://www.w3.org/2000/svg" xmlns:xlink="http://www.w3.org/1999/xlink" x="0px" y="0px"
	 viewBox="0 0 960 195" style="enable-background:new 0 0 960 195;" xml:space="preserve">
<style type="text/css">
	.st0{fill:#FDFDFD;}
	.st1{fill:#E61E1D;}
	.st2{fill:#1C1A1A;}
</style>
<g id="XMLID_19_">
	<path id="XMLID_32_" class="st0" d="M480,195c-159.3,0-318.5,0-477.8,0c-1.8,0-2.2-0.4-2.2-2.4C0.1,129.2,0.1,65.8,0,2.4
		C0,0.4,0.4,0,2.2,0c318.5,0.1,637.1,0.1,955.6,0c1.8,0,2.2,0.4,2.2,2.4c-0.1,63.4-0.1,126.8,0,190.2c0,2-0.4,2.4-2.2,2.4
		C798.6,194.9,639.3,195,480,195z M711.4,185c-0.4-1.1-0.2-2.2-0.2-3.4c0-56.1,0-112.2,0-168.2c0-1,0.3-2-0.4-3
		c-0.3,0.3-0.6,0.5-0.8,0.7c-26.1,28.4-52.3,56.9-78.5,85.3c-1.2,1.3-0.7,1.9,0.2,2.9c25.9,28.2,51.8,56.4,77.8,84.6
		C710,184.3,710.4,185.3,711.4,185c0.5,1.2,1.4,0.5,2.1,0.5c52.3,0,104.7,0,157,0c0.7,0,1.6,0.6,2-0.6c1.1,0.4,1.5-0.8,2.1-1.4
		c25.8-28,51.6-56.1,77.5-84.1c1.3-1.4,1.2-2.1,0-3.4c-25.8-28-51.6-56.1-77.5-84.2c-0.5-0.5-0.8-1.3-1.9-1.2c0,1,0,2.1,0,3.1
		c0,56.1,0,112.2,0,168.2c0,1-0.1,2.1-0.1,3.1c-0.4-0.3-0.8-0.5-1.1-0.9c-26-28.3-52.1-56.6-78.1-84.9c-1.2-1.4-1-2,0.1-3.2
		c25.7-27.8,51.3-55.7,76.9-83.6c0.6-0.7,1.3-1.4,2.1-2.4c-53.8,0-107.2,0-161,0c0.9,1,1.5,1.8,2.2,2.5
		c25.5,27.7,50.9,55.4,76.4,83.1c1.6,1.7,1.5,2.5,0,4.2c-25.7,27.8-51.3,55.7-76.9,83.6C712.7,183.9,712,184.4,711.4,185z
		 M150.7,97.8c0-23.2,0-46.3,0-69.5c0-8.1,5.3-14.5,12.7-15.3c2.6-0.3,5.3-0.2,7.9-0.2c1.3,0,1.6-0.5,1.6-1.8c0.1-2-1.2-1.5-2.1-1.5
		c-20.6,0-41.3,0-61.9,0c-0.3,0-0.6,0-1,0c-1.1-0.1-1.3,0.5-1.3,1.5c0,1.1,0.1,1.8,1.4,1.8c2.1-0.1,4.2-0.1,6.2,0
		c8.9,0.2,14.7,6.6,14.7,16.2c0,21.4,0,42.8,0.1,64.3c0,2.1-0.6,2.6-2.4,2.5c-24.6-0.1-49.3-0.1-73.9,0c-1.7,0-2.3-0.2-2.3-2.3
		c0.1-21.8,0-43.5,0.1-65.3c0-7.8,5.4-14.4,12.6-15.1c2.7-0.3,5.4-0.2,8.1-0.2c1.2,0,1.4-0.5,1.5-1.7c0.1-2.1-1.2-1.6-2.3-1.6
		c-16.8,0-33.6,0-50.4,0c-4,0-8,0-12,0c-1.2,0-1.7,0.3-1.7,1.7c0,1.3,0.5,1.6,1.6,1.6c1.8-0.1,3.7,0,5.5,0
		c9.4,0.1,15.2,6.5,15.2,16.7c0,22.7,0,45.5,0,68.2c0,22.9,0,45.8,0,68.7c0,8.2-4.6,14.1-11.8,15.7c-2.9,0.6-5.9,0.3-8.9,0.3
		c-1.5,0-1.7,0.6-1.7,2c0.1,1.9,1.3,1.2,2.1,1.2c15.7,0,31.4,0,47,0c5.2,0,10.4,0,15.6,0c1,0,1.6-0.1,1.6-1.5s-0.4-1.8-1.6-1.7
		c-2.2,0.1-4.3,0.1-6.5,0c-8.1-0.3-14.1-7-14.1-15.8c0-19.9,0-39.7,0-59.6c0-2.1,0.6-2.4,2.3-2.4c14.3,0.1,28.6,0,43,0
		c10.4,0,20.8,0,31.2,0c1.2,0,2.1-0.1,2.1,1.8c-0.1,20.3,0.1,40.6-0.1,60.9c0,7.6-4.7,13.2-11.7,14.7c-2.9,0.6-5.9,0.2-8.9,0.3
		c-1.1,0-1.8,0-1.8,1.6s0.7,1.6,1.8,1.6c21,0,41.9,0,62.9,0c1.1,0,1.7,0,1.7-1.6s-0.7-1.6-1.7-1.6c-1.8,0.1-3.7,0-5.5,0
		c-8.5,0.2-15.2-7.1-15.1-16.4C150.9,143.2,150.7,120.5,150.7,97.8z M391.7,95.8c2-0.9,3.5-1.5,5-2.3c12.7-6.9,19.6-18.4,20.8-33.6
		c1.2-15.7-4.8-27.9-16.5-36.8C390.2,14.9,377.8,12,365,11c-11.1-0.9-22.2-0.4-33.3-0.5c-11.5-0.1-23,0-34.6,0c-1.1,0-2-0.1-2,1.7
		c0,1.9,1,1.6,2,1.6c2.2,0,4.3,0,6.5,0c8.3,0,14,6.2,14,15.2c0,46.1,0,92.1,0,138.2c0,8.9-5.7,15-13.9,15.1c-2.4,0-4.8,0.1-7.2,0
		c-1.2,0-1.4,0.5-1.5,1.6c-0.1,2.2,1.3,1.6,2.3,1.6c23.9,0,47.8,0,71.8,0c11.3,0,22.2-2.2,32.6-7.3c26.8-13.2,28.1-48.9,14.2-65.7
		C409.3,104.6,401.2,99.6,391.7,95.8z M184,156.9c0,1.1,0,2.3,0,3.4c0,8.4,0,16.7,0,25.1c0,1.4,0.1,2.4,1.8,2.2c1.1-0.2,0.9-1,1-1.7
		c1.9-9.8,8.1-13.3,16.6-9.2c2.5,1.2,4.9,2.5,7.4,3.7c10.7,5.3,21.7,8.8,33.6,7.3c13.3-1.7,24.7-7.7,32.8-19.3
		c12.5-18,12.2-38,0.7-54.5c-4.2-5.9-9.6-10.4-15.1-14.8c-13.1-10.6-27-19.8-40.5-29.8c-4.8-3.6-9.5-7.3-12.8-12.8
		c-6.7-11.1-3.6-26.1,7-32.9c3.2-2.1,6.7-3.2,10.2-4.3c15.8-4.5,32.2,2.1,40.2,19.3c3.6,7.7,6.1,15.8,7.4,24.4
		c0.2,1.1-0.5,3.2,1.7,2.9c2.1-0.2,1.1-2,1.1-3c0.1-10,0.1-20,0.1-30c0-7.5,0-15,0-22.5c0-0.8,0.6-2.2-1.1-2.3
		c-1.5-0.1-1.5,0.9-1.6,1.9c-0.1,0.5-0.2,1-0.3,1.5c-1.2,4.9-4.2,7.4-8.8,7.6c-2.5,0.1-4.7-0.7-6.9-1.9c-3.2-1.8-6.3-3.8-9.6-5.3
		c-16.5-7.4-32.3-6.3-47.5,4.5c-16.6,11.8-25.5,43.3-3.1,63.6c6.6,6,13.5,11.7,20.7,16.9c10.6,7.7,21.3,15.3,32,23
		c5.6,4.1,9.9,9.3,11.7,16.6c4.7,19-6.7,37.7-24.7,39.9c-13.8,1.7-26.2-2.3-36-13.6c-8.3-9.6-13.3-21.1-15.2-34.2
		c-0.2-1.1-0.2-2-1.6-1.9c-1.7,0.1-1.2,1.3-1.2,2.2C184,138.1,184,147.5,184,156.9z M575.9,42.8L575.9,42.8
		c-0.4-9.3-0.7-18.6-1.1-27.9c0-1,0.4-2.3-1.4-2.3c-1.6,0-1.5,1.1-1.6,2.2c-0.7,6.3-6,10.1-11.7,8.5c-1.9-0.5-3.6-1.4-5.3-2.4
		C535.1,8.5,514.1,7.2,493,14.3c-22.1,7.5-38.5,23-47.2,46.6c-6.2,16.8-7.8,34.6-5.6,52.6c3.4,28,15.6,49.6,38.6,63.6
		c15.1,9.2,31.3,13.4,48.4,10.9c23.9-3.6,40.5-19.5,54.3-39.8c0.3-0.5,0.7-0.8,0.1-1.5c-1.7-1.9-2.7-1.9-4.2,0.1
		c-15.4,20.9-35.2,31.3-59.9,27.7c-19.7-2.8-34.7-14-43.9-33.4c-4.8-10.2-7.2-21.1-7.9-32.5c-1.2-19.3,1.4-37.9,9.2-55.3
		c11.1-24.7,33.2-34.1,53.2-31.6c19.5,2.5,42.4,19.3,45.6,48.7c0.2,1.8,0.8,2,2.2,2c1.9,0,1.3-1.4,1.2-2.4
		C576.6,60.9,576.2,51.9,575.9,42.8z"/>
	<path id="XMLID_11_" class="st1" d="M872.5,184.9c-0.4,1.2-1.4,0.6-2,0.6c-52.3,0-104.7,0-157,0c-0.7,0-1.6,0.6-2-0.6v0.1
		c0.6-0.6,1.2-1.1,1.8-1.7c25.6-27.9,51.3-55.8,76.9-83.6c1.5-1.7,1.5-2.5,0-4.2c-25.5-27.6-51-55.4-76.4-83.1
		c-0.7-0.7-1.3-1.5-2.2-2.5c53.8,0,107.1,0,161,0c-0.9,1-1.5,1.7-2.1,2.4c-25.6,27.9-51.3,55.8-76.9,83.6c-1.1,1.2-1.3,1.8-0.1,3.2
		c26.1,28.3,52.1,56.6,78.1,84.9C871.8,184.4,872.2,184.7,872.5,184.9L872.5,184.9z"/>
	<path id="XMLID_10_" class="st2" d="M150.7,97.8c0,22.7,0.2,45.5-0.1,68.2c-0.1,9.3,6.6,16.6,15.1,16.4c1.8,0,3.7,0,5.5,0
		c1.1,0,1.7,0,1.7,1.6s-0.7,1.6-1.7,1.6c-21,0-41.9,0-62.9,0c-1.1,0-1.8-0.1-1.8-1.6c0-1.6,0.7-1.6,1.8-1.6c3-0.1,5.9,0.3,8.9-0.3
		c6.9-1.5,11.6-7.1,11.7-14.7c0.1-20.3,0-40.6,0.1-60.9c0-1.9-0.9-1.8-2.1-1.8c-10.4,0-20.8,0-31.2,0c-14.3,0-28.6,0-43,0
		c-1.7,0-2.3,0.3-2.3,2.4c0.1,19.9,0,39.7,0,59.6c0,8.8,6,15.5,14.1,15.8c2.2,0.1,4.3,0.1,6.5,0c1.3-0.1,1.6,0.4,1.6,1.7
		c0,1.4-0.6,1.5-1.6,1.5c-5.2,0-10.4,0-15.6,0c-15.7,0-31.4,0-47,0c-0.8,0-2,0.7-2.1-1.2c0-1.4,0.2-2,1.7-2c2.9,0,5.9,0.3,8.9-0.3
		c7.3-1.5,11.8-7.5,11.8-15.7c0-22.9,0-45.8,0-68.7c0-22.7,0-45.5,0-68.2c0-10.2-5.8-16.6-15.2-16.7c-1.8,0-3.7,0-5.5,0
		c-1.1,0-1.6-0.2-1.6-1.6s0.5-1.8,1.7-1.7c4,0.1,8,0,12,0c16.8,0,33.6,0,50.4,0c1,0,2.4-0.5,2.3,1.6c-0.1,1.2-0.3,1.7-1.5,1.7
		c-2.7,0-5.5-0.1-8.1,0.2c-7.2,0.8-12.6,7.3-12.6,15.1c0,21.8,0,43.5-0.1,65.3c0,2.1,0.6,2.3,2.3,2.3c24.6-0.1,49.3-0.1,73.9,0
		c1.8,0,2.4-0.4,2.4-2.5c-0.1-21.4,0-42.8-0.1-64.3c0-9.6-5.8-16-14.7-16.2c-2.1-0.1-4.2-0.1-6.2,0c-1.3,0.1-1.4-0.6-1.4-1.8
		c0-1.1,0.3-1.7,1.3-1.5c0.3,0,0.6,0,1,0c20.6,0,41.3,0,61.9,0c0.9,0,2.2-0.5,2.1,1.5c0,1.3-0.3,1.8-1.6,1.8
		c-2.6-0.1-5.3-0.1-7.9,0.2c-7.4,0.8-12.7,7.2-12.7,15.3C150.7,51.4,150.7,74.6,150.7,97.8z"/>
	<path id="XMLID_26_" class="st2" d="M391.7,95.8c9.5,3.8,17.7,8.8,24.2,16.7c13.9,16.9,12.6,52.5-14.2,65.7
		c-10.4,5.1-21.2,7.3-32.6,7.3c-23.9-0.1-47.8,0-71.8,0c-1,0-2.4,0.6-2.3-1.6c0.1-1.2,0.3-1.7,1.5-1.6c2.4,0.1,4.8,0,7.2,0
		c8.2-0.1,13.9-6.2,13.9-15.1c0-46.1,0-92.1,0-138.2c0-9.1-5.7-15.2-14-15.2c-2.2,0-4.3,0-6.5,0c-1,0-2,0.3-2-1.6
		c0-1.8,0.9-1.7,2-1.7c11.5,0,23,0,34.6,0c11.1,0.1,22.2-0.4,33.3,0.5c12.8,1,25.2,3.8,35.9,12c11.7,8.9,17.8,21.1,16.5,36.8
		c-1.2,15.2-8.1,26.7-20.8,33.6C395.2,94.3,393.6,94.9,391.7,95.8z M352.3,99.3c-2.2,0-6.6,0.3-11,0.9c-1.8,0.2-2.1,1-2.1,2.8
		c0.1,23.4,0.1,46.8,0,70.2c0,1.8,0.5,2.5,2.1,3c9,2.5,18.1,3.3,27.3,2c20.2-2.9,33.2-19.7,32.2-41.8c-0.6-14.9-11.4-30.1-24.3-34.3
		C369.3,99.9,361.9,99.3,352.3,99.3z M339.2,55.7c0,10.6,0.1,21.2-0.1,31.9c-0.1,2.9,1,3.6,3.3,3.9c7,0.9,14,1,21.1,0.4
		c8.7-0.7,16.5-3.4,22.9-10.4c17.7-19.2,12-50.3-11.2-59.8c-11-4.5-22.4-4.3-33.8-1.5c-1.7,0.4-2.3,1.1-2.3,3.1
		C339.3,34.1,339.2,44.9,339.2,55.7z"/>
	<path id="XMLID_6_" class="st1" d="M711.5,184.9c-1,0.3-1.4-0.6-1.9-1.2c-25.9-28.2-51.8-56.4-77.8-84.6c-0.9-1-1.4-1.5-0.2-2.9
		c26.2-28.4,52.3-56.8,78.5-85.3c0.2-0.2,0.5-0.4,0.8-0.7c0.7,1,0.4,2.1,0.4,3c0,56.1,0,112.2,0,168.2
		C711.2,182.7,711,183.9,711.5,184.9C711.4,185,711.5,184.9,711.5,184.9z"/>
	<path id="XMLID_5_" class="st1" d="M872.6,185c0-1,0.1-2.1,0.1-3.1c0-56.1,0-112.2,0-168.2c0-1,0-2,0-3.1c1.1-0.1,1.4,0.7,1.9,1.2
		c25.8,28.1,51.6,56.1,77.5,84.2c1.3,1.4,1.3,2,0,3.4c-25.8,28-51.6,56.1-77.5,84.1C874.1,184.1,873.7,185.3,872.6,185
		C872.5,184.9,872.6,185,872.6,185z"/>
	<path id="XMLID_4_" class="st2" d="M184,156.9c0-9.4,0-18.8,0-28.2c0-0.9-0.5-2.2,1.2-2.2c1.4,0,1.5,0.8,1.6,1.9
		c1.8,13.1,6.9,24.6,15.2,34.2c9.7,11.3,22.1,15.3,36,13.6c18-2.2,29.4-20.9,24.7-39.9c-1.8-7.3-6.1-12.5-11.7-16.6
		c-10.6-7.7-21.3-15.3-32-23c-7.2-5.2-14.1-10.9-20.7-16.9c-22.4-20.3-13.5-51.8,3.1-63.6c15.1-10.8,31-11.9,47.5-4.5
		c3.3,1.5,6.4,3.5,9.6,5.3c2.2,1.2,4.4,2,6.9,1.9c4.7-0.1,7.7-2.7,8.8-7.6c0.1-0.5,0.3-1,0.3-1.5c0.2-1,0.1-2.1,1.6-1.9
		c1.7,0.2,1.1,1.5,1.1,2.3c0.1,7.5,0,15,0,22.5c0,10,0,20-0.1,30c0,1,1,2.8-1.1,3c-2.2,0.2-1.6-1.9-1.7-2.9
		c-1.3-8.5-3.8-16.6-7.4-24.4c-8-17.2-24.4-23.8-40.2-19.3c-3.6,1-7,2.2-10.2,4.3c-10.5,6.8-13.7,21.8-7,32.9
		c3.3,5.5,8,9.1,12.8,12.8c13.4,10.1,27.4,19.3,40.5,29.8c5.5,4.4,10.9,8.9,15.1,14.8c11.5,16.5,11.8,36.5-0.7,54.5
		c-8.1,11.7-19.5,17.7-32.8,19.3c-11.9,1.5-22.9-2.1-33.6-7.3c-2.5-1.2-4.9-2.5-7.4-3.7c-8.5-4-14.7-0.6-16.6,9.2
		c-0.1,0.7,0,1.6-1,1.7c-1.7,0.3-1.8-0.8-1.8-2.2c0-8.4,0-16.7,0-25.1C184,159.2,184,158.1,184,156.9z"/>
	<path id="XMLID_3_" class="st2" d="M575.9,42.8c0.4,9,0.7,18.1,1.1,27.1c0,1,0.6,2.3-1.2,2.4c-1.4,0-2-0.2-2.2-2
		c-3.2-29.4-26.1-46.2-45.6-48.7c-20-2.5-42.1,6.9-53.2,31.6c-7.8,17.4-10.4,36-9.2,55.3c0.7,11.4,3.1,22.4,7.9,32.5
		c9.3,19.4,24.3,30.6,43.9,33.4c24.7,3.6,44.5-6.8,59.9-27.7c1.5-2,2.6-2,4.2-0.1c0.6,0.7,0.3,1-0.1,1.5
		c-13.8,20.3-30.4,36.2-54.3,39.8c-17.2,2.6-33.3-1.7-48.4-10.9c-22.9-14-35.2-35.7-38.6-63.6c-2.2-18-0.5-35.8,5.6-52.6
		c8.7-23.6,25.1-39.1,47.2-46.6c21.2-7.2,42.1-5.9,61.8,6.5c1.7,1,3.4,1.9,5.3,2.4c5.7,1.6,10.9-2.2,11.7-8.5c0.1-1.1,0-2.2,1.6-2.2
		c1.8,0,1.4,1.3,1.4,2.3C575.2,24.2,575.5,33.5,575.9,42.8L575.9,42.8z"/>
	<path id="XMLID_2_" class="st0" d="M352.3,99.3c9.6,0,17,0.6,24.2,2.8c12.9,4.1,23.7,19.4,24.3,34.3c1,22.1-12,38.9-32.2,41.8
		c-9.2,1.3-18.3,0.6-27.3-2c-1.6-0.5-2.1-1.2-2.1-3c0.1-23.4,0.1-46.8,0-70.2c0-1.8,0.3-2.6,2.1-2.8
		C345.7,99.6,350.1,99.3,352.3,99.3z"/>
	<path id="XMLID_1_" class="st0" d="M339.2,55.7c0-10.8,0-21.6,0-32.4c0-2,0.5-2.7,2.3-3.1c11.4-2.8,22.7-3,33.8,1.5
		c23.2,9.5,28.8,40.6,11.2,59.8c-6.4,7-14.2,9.7-22.9,10.4c-7,0.6-14.1,0.5-21.1-0.4c-2.3-0.3-3.3-1-3.3-3.9
		C339.4,77,339.2,66.4,339.2,55.7z"/>
</g>
</svg>
