<?xml version="1.0" encoding="utf-8"?>
<!-- Generator: Adobe Illustrator 19.0.0, SVG Export Plug-In . SVG Version: 6.00 Build 0)  -->
<svg version="1.1" id="Layer_1" xmlns="http://www.w3.org/2000/svg" xmlns:xlink="http://www.w3.org/1999/xlink" x="0px" y="0px"
	 viewBox="-242 229.4 102 112.9" style="enable-background:new -242 229.4 102 112.9;" xml:space="preserve">
<style type="text/css">
	.st0{fill:#232F84;}
</style>
<g>
	<path class="st0" d="M-159.8,252.5c0.4,3,4.9,6.9,6.1,6.8c0.8,0,1.1-3.9,1.1-6.8c0-1.7,0.1-3-0.8-3.4
		C-154.9,252-158.6,252.6-159.8,252.5L-159.8,252.5z M-159.6,251.2c3.2,0,6.2-2.6,6.2-4.8c0-1.1-0.5-1.9-1.8-2.1
		c0.2,0.3,0.3,0.5,0.3,1c0,1.7-2.6,3.6-5.4,3.6c-1,0-1.3,0.7-1.3,1.1C-161.6,250.8-160.8,251.2-159.6,251.2L-159.6,251.2z
		 M-160.3,247.7c-0.4,0-1.1,0-1.4-0.7c-0.3-0.6-0.2-1.5-0.7-1.9c0.5,0.2,1.1,0.2,1.5,0.2c1.4,0,2.7-1,3.8-1c0.7,0,0.9,0.4,0.9,0.9
		C-156.2,246.5-159,247.7-160.3,247.7L-160.3,247.7z M-229.8,272c1.1,0,0.8-6.5,2.5-6.5c0.4,0,0.5,0.4,0.5,0.9
		c0,1.5-0.7,3.6-0.7,4.8c0,0.6,0.2,0.8,0.4,0.8c0.7,0,2-7.1,3.3-7.1c0.4,0,0.6,0.4,0.6,0.8c0,1.5-1.9,5.8-1.9,7
		c0,0.2,0.1,0.3,0.2,0.3c0.8,0,2.3-3.4,2.8-5c0.3-0.9,0.7-1.3,1-1.3s0.6,0.3,0.6,1.1c0,1.7-1.6,5.6-2.9,8.3c-1.1,2-2.7,5-2.7,6.6
		c0,0.8,0.2,1.7,1.4,2.8c-2-0.1-2.8-0.3-3.5-1.9c-3.3,6.6,6.1,6,2.9,11.8c-0.6-1.1-5.2-2.1-5.2-8.3c0-5.3,4.7-8.4,4.7-10.6
		c0-0.4-0.2-0.8-0.6-1.1c-1-0.9-1.1-1.6-1.9-1.6c-0.6,0-1.3,1.4-0.6,2.6c0.2,0.4,0.5,0.7,0.5,1c0,0.9-1.4,3.2-2.3,3.2
		c-0.9,0-1.7-2.4-1.7-6.2c0-3.4,0.8-6.9,1.7-6.9c0.3,0,0.4,0.2,0.4,0.4c0,0.4-0.1,1.2-0.1,2.6C-230.4,271.9-230,272-229.8,272
		L-229.8,272z M-182.2,241.5c0.5,0,0.6,1.2,0.7,1.9c0.1,0.4,0.1,0.4,0.3,0.4c0.4,0,1-1.4,1.4-1.4c0.6,0,2.2,1.6,4.8,1.6
		c3.8,0,7.3-2.6,7.3-7.3c0-4.5-3.2-7.1-7.5-7.1c-2.1,0-3.6,1-4.4,1c-0.5,0-1.2-1.2-1.6-1.2c-0.2,0-0.3,0.3-0.3,0.8
		c0,0.3,0,1.4-0.4,1.4c-0.7,0-3.6-2.1-3.6-1.4s1.9,2.9,1.9,3.4c0,0.6-1.9,1.1-1.9,1.5c0,0.7,2,0.8,2,1.7c0,0.9-2.1,1.6-2.1,2.2
		c0,0.5,2.1,0.2,2.1,0.8c0,0.7-1.6,2.8-1.6,3.4c0,0.2,0,0.2,0.2,0.2C-184.4,243.5-182.6,241.5-182.2,241.5L-182.2,241.5z
		 M-222,287.4c0-0.6,0.4-1.2,1.1-1.3s1.2,0.4,1.3,1.1s-0.4,1.2-1.1,1.3C-221.4,288.5-222,288-222,287.4L-222,287.4z M-225.5,288.3
		c0.1,1.1,1.1,1.9,2.2,1.7c0.4,0,0.8-0.2,1-0.3c0.2,1,1,1.6,2.2,1.5c1.1-0.1,2-1.1,1.8-2.2c0-0.3-0.1-0.5-0.2-0.7h0.2
		c1.1-0.1,1.9-1.1,1.8-2.2c-0.1-1.1-1.1-1.9-2.2-1.8c-0.4,0.1-0.7,0.2-1,0.4c-0.3-0.9-1.1-1.7-2.2-1.6c-1.1,0.1-1.9,1.1-1.8,2.3
		c0,0.2,0.1,0.4,0.2,0.6h-0.2C-224.7,286.2-225.6,287.1-225.5,288.3L-225.5,288.3z M-156.3,231.4c0,0.4,0.3,0.8,0.8,0.8
		c0.4,0,0.8-0.3,0.8-0.8c0-0.4-0.3-0.8-0.8-0.8C-155.9,230.6-156.3,231-156.3,231.4L-156.3,231.4z M-173.6,260.8
		c0,0.7,0.6,1.3,1.3,1.3s1.3-0.6,1.3-1.3c0-0.7-0.6-1.3-1.3-1.3S-173.6,260.1-173.6,260.8L-173.6,260.8z M-173.5,264.7
		c0,0.8,0.7,1.5,1.5,1.5s1.5-0.7,1.5-1.5c0-0.8-0.7-1.5-1.5-1.5C-172.9,263.3-173.5,263.9-173.5,264.7L-173.5,264.7z M-178,267.4
		c0,1.2,1,2.1,2.1,2.1c1.2,0,2.1-1,2.1-2.1s-1-2.1-2.1-2.1C-177,265.2-178,266.2-178,267.4L-178,267.4z M-176.8,263
		c0,0.7,0.6,1.2,1.2,1.2c0.7,0,1.2-0.6,1.2-1.2c0-0.7-0.6-1.2-1.2-1.2C-176.3,261.8-176.8,262.3-176.8,263L-176.8,263z
		 M-180.9,265.5c0,0.7,0.6,1.2,1.2,1.2c0.7,0,1.2-0.6,1.2-1.2c0-0.7-0.6-1.2-1.2-1.2C-180.3,264.2-180.9,264.8-180.9,265.5
		L-180.9,265.5z M-177.7,258.2c0,1.1,0.9,2,2,2s2-0.9,2-2s-0.9-2-2-2S-177.7,257.1-177.7,258.2L-177.7,258.2z M-175.4,254.4
		c0,0.7,0.5,1.2,1.2,1.2s1.2-0.5,1.2-1.2s-0.5-1.2-1.2-1.2C-174.8,253.2-175.4,253.8-175.4,254.4L-175.4,254.4z M-181,257.4
		c0,0.7,0.5,1.2,1.2,1.2s1.2-0.5,1.2-1.2s-0.5-1.2-1.2-1.2C-180.5,256.2-181,256.7-181,257.4L-181,257.4z M-181.1,261.4
		c0,1.1,0.8,1.9,1.9,1.9c1.1,0,1.9-0.8,1.9-1.9s-0.8-1.9-1.9-1.9S-181.1,260.4-181.1,261.4L-181.1,261.4z M-185.1,263.4
		c0,1,0.8,1.8,1.8,1.8s1.8-0.8,1.8-1.8s-0.8-1.8-1.8-1.8S-185.1,262.4-185.1,263.4L-185.1,263.4z M-184,259c0,0.7,0.6,1.2,1.2,1.2
		c0.7,0,1.2-0.6,1.2-1.2c0-0.7-0.6-1.2-1.2-1.2S-184,258.3-184,259L-184,259z M-188.1,304.8c0,0.7,0.6,1.2,1.2,1.2
		c0.7,0,1.2-0.6,1.2-1.2c0-0.7-0.6-1.2-1.2-1.2C-187.6,303.6-188.1,304.1-188.1,304.8L-188.1,304.8z M-221.6,253.3
		c0,0.7,0.6,1.2,1.2,1.2c0.7,0,1.2-0.6,1.2-1.2c0-0.7-0.6-1.2-1.2-1.2C-221,252.1-221.6,252.7-221.6,253.3L-221.6,253.3z
		 M-223.2,250.6c0,0.7,0.6,1.2,1.2,1.2c0.7,0,1.2-0.6,1.2-1.2s-0.6-1.2-1.2-1.2C-222.6,249.3-223.2,249.9-223.2,250.6L-223.2,250.6z
		 M-221.8,281.1c1.3,0,2.4-1,2.4-3.1v-3.2c0-1.2,0.1-2.6,0.9-3.5c-0.1,0.4-0.1,0.8-0.1,1.2c0,2.7,1.5,4.5,1.5,7.1c0,1-0.3,1.5-1,1.5
		s-0.7-0.7-0.8-0.7c-0.1,0-0.3,0.4-0.3,0.8c0,0.7,0.5,1.7,1.8,1.7c1.1,0,2-1,2-2.2c0-2.8-2.2-5.9-2.2-8.9c0-1.3,0.3-2.2,0.6-2.9
		c0,6.2,5.2,10.7,5.2,13.3c0,0.6-0.4,1.1-1.1,1.1s-1.1-0.6-1.1-1c0-0.2,0-0.3-0.1-0.3c-0.2,0-0.7,0.6-0.7,1.4c0,1,0.8,2.3,2.4,2.3
		c1.8,0,2.7-1.5,2.7-2.8c0-3.3-6.4-8.2-6.4-13.5c0-0.9,0.2-2.4,0.8-3.5c-4.1,2.6-5.4,6.1-5.4,9.2c0,2.7-0.1,4-1.5,4
		c-0.7,0-0.9-0.7-1.1-0.7s-0.3,0.6-0.3,0.7C-223.5,280.5-222.7,281.1-221.8,281.1L-221.8,281.1z M-168,250.1c1.4,0,2.4-0.6,2.4-1
		c0-0.1-0.2-0.2-0.6-0.2c-0.4,0-1.2,0-2.7-0.3c-1.3-0.2-2.3-0.7-2.7-0.7c-0.1,0-0.2,0.1-0.2,0.2C-171.8,248.8-170.3,250.1-168,250.1
		L-168,250.1z M-174.8,246.1c0.4-0.2,2.1,0.2,4.4-1c0.3-0.2,0.6-0.2,0.8-0.2c1.1,0,0.8,1.2,1.8,1.2c0.8,0,1.8-0.7,2.4-0.7
		c0.9,0,2.3,2.9,2.3,4.3c0,1.6-2.4,2.5-5.2,2.5c-4.1,0-6.6-3.6-6.6-5.9C-175,246.3-174.9,246.2-174.8,246.1L-174.8,246.1z
		 M-221.2,292.8c-1,0.2-2.7,1.9-2.7,4.4c0,3,3.3,7.7,8.6,7.7c4.5,0,5.7-3.1,5.7-5.3c0-4.7-2.9-8-6.6-8c-2,0-3.9,1.5-3.9,3.7
		c0,2.1,1.6,5.1,5.2,5.1c1.7,0,2.8-1.2,2.8-2.7c0-1.4-1.3-3.3-3.1-3.3c-0.6,0-1,0.4-1,1c0,0.7,1,1.5,2.3,1.5c0.3,0,0.6-0.1,0.7-0.1
		c0.1,0.1,0.1,0.2,0.1,0.4c0,0.7-0.7,1.1-1.7,1.1c-1.6,0-3.1-1.2-3.1-3c0-1.1,1-1.9,2.4-1.9c2.8,0,4.4,2.5,4.4,4.9
		c0,2.2-1.2,3.5-3.7,3.5C-219.8,301.8-222.3,297.4-221.2,292.8L-221.2,292.8z M-224.3,259.1c-0.7,0.2-2.2,1.1-2.2,2.6
		c0,1.1,0.9,1.8,2,1.8c0.6,0,1-0.1,1.2-0.3c-0.9-0.8-1.2-1.8-1.2-2.7C-224.5,259.8-224.4,259.4-224.3,259.1L-224.3,259.1z
		 M-231.9,259.5c0,0.2,0,0.3,0,0.5c0,1.5,0.8,2.3,1.8,2.3c0.8,0,1.7-0.5,2.5-1.5c-0.3,0.1-0.7,0.1-1.1,0.1
		C-229.9,260.8-231.2,260.5-231.9,259.5L-231.9,259.5z M-233,262.3c0,2.4,0.7,3.5,2,3.5c1,0,2.3-0.7,3.9-2.1c-1.2,0.3-2.1,0.5-3,0.5
		C-231.2,264.1-232.1,263.7-233,262.3L-233,262.3z M-185.7,311c1.5,0,1.4-0.1,1.9-0.1s0.5,0.3,0.5,0.5c0,0.7-1.5,1.5-4.2,1.5
		c-1.6,0-2.5-0.8-2.8-1.8c-1.6,1-3.9,1.9-6.2,1.9c-6.4,0-8-2.8-10-3.7c-1.5-0.7-3.9,0.7-7.1-3c0.4,0.1,1,0.1,1.5,0.1
		c2.9,0,4.4-1.4,4.4-3.6c0-0.3,0-0.6-0.1-0.9c0.9,0.3,2.9,1.8,3.3,4.5c0.1,0.3,1.3,0.6,2.1,0.6c1.1,0,2.5-0.5,2.8-2.3
		c3.7-0.3,6.2-2.5,6.8-5.3c1.3,0.4,2.9,1.6,3.2,2.3c0.5-0.2,1.1-0.3,1.9-0.3c1,0,2.1,0.2,3.4,0.6c0.1-0.4,0.1-0.9,0.7-0.9
		c0.9,0,0.7,1,1,1.6c0.2,0.3,0.9,0.5,0.9,1.1s-0.5,0.8-0.8,0.8c-0.1,0-0.3,0-0.4-0.1c-0.6,0.2-0.7,4.7-3.3,4.7
		c-1.9,0-3.7-1.6-4.5-3.6c-0.2-0.6-0.7-1-1.1-1c-0.5,0-0.8,0.1-1.4,0.7c-1.7,1.8-4.5,3.4-7.9,3.4c-1.1,0-1.9-0.1-2.1-0.1
		c-0.1,0-0.1,0-0.1,0.1c0,0.2,1.1,1.1,3.4,1.1c5.5,0,6.8-3.1,7.7-3.1c0.1,0,0.5,0,0.7,0.5C-190.2,310.3-187.5,311-185.7,311
		L-185.7,311L-185.7,311z M-203.4,248.6c2,0,3,1.8,3,3.8c0,0.9-0.2,2.1-0.7,2.1c-0.4,0-0.3-0.7-0.4-1.4c-0.1-0.8-0.2-1-0.5-1
		c-0.5,0-0.9,1.2-0.9,2.4c0,0.7,0.1,1.5,0.7,1.5c0.3,0,0.6-0.2,0.8-0.3c-0.1,1.4-1.2,2.7-2.7,2.7c-2.7,0-3.8-3.2-4.1-5.1
		c-1.6,1.7-3.2,3-5.9,3c-2.5,0-3.7-1.9-3.7-3.6c0-0.5,0.2-1.9,0.8-1.9c0.8,0,0.1,2.5,1.6,2.5c0.4,0,1.1-0.3,1.4-1.3
		c0.2-0.6,0.3-1.3,0.3-1.8c0-0.8-0.2-1.4-0.8-1.4c-0.5,0-1.2,0.4-1.4,0.6c0.7-2.2,2.5-3.4,4.5-3.4c2.5,0,3.8,2.2,3.8,4.6
		c0,0.3,0,0.7-0.1,1.1C-206.4,249.9-204.9,248.6-203.4,248.6L-203.4,248.6z M-211.1,230.1c0-0.2-0.9-0.4-2.2-0.4
		c-2,0-1.7,1.7-3.3,1.7c-1.6,0-1.2-1.7-3.3-1.7c-1.2,0-2.4,0.2-2.4,0.5c0,0.4,1.5,0.2,1.5,1.2c0,1.1-3.1,1.4-3.1,2
		c0,0.2,0.2,0.3,0.6,0.3c0.7,0,1.8-0.3,2.5-0.3c0.4,0,0.8,0.1,0.8,0.5c0,0.8-1.7,2.2-1.7,2.8c0,0.2,0.2,0.2,0.3,0.2
		c0.6,0,1.7-1.6,2.7-1.6c1.6,0,0.6,3.5,1.5,3.5c0.9,0,0.5-3.4,1.9-3.4c1.1,0,1.9,2.4,2.6,2.4c0.2,0,0.3-0.2,0.3-0.4
		c0-0.7-0.9-2-0.9-2.9c0-0.5,0.4-0.8,0.9-0.8c0.7,0,1.7,0.4,2.2,0.4c0.2,0,0.4-0.1,0.4-0.3c0-0.7-2.8-1.6-2.8-2.5
		C-212.7,230.5-211.1,230.5-211.1,230.1L-211.1,230.1z M-166.9,291.2c-0.7,0-4.3,4.8-6.6,4.8c-0.6,0-1-1.1-1-1.9
		c0-0.4,0.3-0.7,1.3-1c5.3-1.2,4.2-5.2,8.7-5.2c2.5,0,5.3,1.7,5.3,5.6c0,4.1-5.8,9.2-6.7,9.2c-0.7,0-1.5-1-1.5-1.7
		c0-0.2,0.1-0.5,0.7-0.7c3-1.2,4.7-3.9,4.7-5.3c0-0.3-0.2-0.6-0.6-0.6c-0.5,0-2.8,5.2-5.3,5.2c-1.7,0-3.5-1.6-3.5-2.3
		c0-1.2,5-3.5,5-5.3C-166.3,291.3-166.6,291.2-166.9,291.2L-166.9,291.2z M-163.5,289.3c-0.4,0-0.9,0.3-0.9,1.2s0.7,1.5,1.1,1.7
		c0.2,0.1,0.6,0.2,0.9,0.2c0.9,0,1.6-0.2,1.6-1C-160.8,290.5-162.2,289.3-163.5,289.3L-163.5,289.3z M-203.9,233.3
		c0,0.6,2,1.8,2.9,1.8c0.5,0,0.7-0.7,0.7-1.5c0-0.9-0.4-1-1.2-1C-202.5,232.6-203.9,232.9-203.9,233.3L-203.9,233.3z M-200.6,239.4
		c0-1.9-5.1-5.3-5.1-6.7c0-0.1,0-0.1,0-0.2c0.4-1,4.6-1.7,4.6-2.6c0-0.4-0.7-0.4-1.1-0.4c-2.9,0-7.1,1.1-7.1,2.1
		c0,1.1,3.8,3.6,3.8,4.9c0,0.3-0.2,0.5-0.6,0.5c-1.1,0-3.4-1.3-4.4-1.3c-0.5,0-0.7,0.3-0.7,0.8c0,1.5,1.8,4.3,1.8,5.2
		c0,0.1,0,0.2-0.2,0.2c-0.6,0-3.2-3.1-4.1-3.1c-0.3,0-0.4,0.5-0.4,1.1v1.1c0,0.7,0,1.1-0.4,1.1c-0.8,0-1.2-2.3-2-2.3s-1,4-1.7,4
		c-0.9,0-0.1-4.4-1-4.4c-1,0-2,3-2.7,3c-0.2,0-0.3-0.2-0.3-0.5c0-0.9,0.5-2.4,0.5-3.2c0-0.4-0.1-0.7-0.5-0.7c-1,0-3.1,1.6-3.9,1.6
		c-0.1,0-0.3-0.1-0.3-0.2c0-0.7,3.4-3.1,3.4-4.2c0-1-4.7-0.3-4.7-1.5c0-1,3.3-2,3.3-3c0-0.9-3.9-1.3-5.5-1.3c-1.8,0-2.8,0.2-2.8,0.7
		c0,0.8,4.2,1.1,4.2,1.8c0,0.7-4.3,2.5-4.3,3.6c0,0.9,6.1,0.1,6.1,1c0,1.1-5.3,5.6-5.3,7.1c0,0.3,0.2,0.5,0.6,0.5
		c1.6,0,5.8-3.1,7-3.1c0.4,0,0.4,0.5,0.4,0.9c0,0.8-0.3,2-0.3,3c0,0.7,0.2,1.2,0.8,1.2c1.1,0,2.2-2,3-2c1,0,0.4,5.7,1.9,5.7
		c1.3,0,1.8-6.2,2.6-6.2c0.8,0,1.5,1.8,2.2,1.8c0.9,0,0.5-3.1,1.5-3.1c1.1,0,4.2,3.7,5.6,3.7c0.4,0,0.6-0.3,0.6-0.8
		c0-1.6-2.3-5.4-2.3-6.6c0-0.3,0.1-0.4,0.4-0.4c1.2,0,4.8,1.7,6.4,1.7C-201,240.1-200.6,239.8-200.6,239.4L-200.6,239.4z
		 M-158.2,275.1c0.5-1.6,1.1-2.6,2.1-4.3c-1-0.5-3.7-1.6-3.7-3.5c0-2.1,2.7-3.8,3.2-3.8c0.2,0,0.3,0.2,0.3,0.6
		c0,1.1-0.5,2.9-0.5,3.9c0,0.9,0.6,1.7,1.1,1.7s2-1.9,2-3.7c0-3.3-2.9-4.3-3.8-4.3c-0.8,0-2.4,1.4-5.9,1.4c-6.7,0-8.2-6.6-8.2-9.5
		c0-0.1,0-0.2,0.1-0.2c0.2,0,0.8,0.8,2.9,0.8c1.1,0,2.1-0.3,3.7-0.3c3.7,0,5.4,2.6,7.7,5.9c1.4,0.9,4.7,2.3,4.7,6.2
		c0,3.5-3.7,5.4-4.6,9.1c1.4-0.2,2.3-2.7,3.7-2.7c0.7,0,1.1,0.6,1.1,1.5c0,1.4-0.8,3.4-2.3,4.7c0-0.1,0-0.3,0-0.5
		c0-0.9-0.3-2.1-1.3-2.1c-1.5,0-2,1.7-2.9,3.1c-0.9-3.2-2.1-6-4.3-7.8c-2.2-1.8-6-0.8-6-4c0-0.9,0.6-2.1,0.6-3.1
		c0-0.3-0.1-0.7-0.2-0.9c3,1.1,1.9,3.1,3.8,5.2c1.1,1.3,4.3,2.5,6.1,7.9c0-0.2,0.1-0.6,0.1-0.8c0-4.6-6.1-9.1-6.6-11
		c3.5,0.4,4.2,1.3,5.8,5.9C-159.3,271.6-158.2,274-158.2,275.1L-158.2,275.1z M-224.9,249.8c0.2-0.5,0.3-1.1,0.3-1.8
		c0-1.5-0.7-3.8-2.8-3.8c-1.2,0-2.1,1-2.1,2.1C-229.5,248.8-227.1,249.8-224.9,249.8L-224.9,249.8z M-227.6,257.7
		c-1,0-2.1-1.3-2.1-2.4c0-0.6,0.5-1.4,0.8-1.4c0.1,0,0.2,0.1,0.2,0.3c0.2,1.5,1.2,2.4,2.1,2.8c0.1,0.1,0.2,0.1,0.2,0.2
		C-226.4,257.4-227,257.7-227.6,257.7L-227.6,257.7z M-223.9,254.7c0,0.4-0.2,1-0.7,1c-1.1,0-2-1.6-2-2.6c0-0.6,0.3-0.7,0.8-0.7
		c0.2,0,0.3,0,0.5,0.1c0.3,0.2,0.3,0.8,0.6,1.2C-224.5,254.2-223.9,254.5-223.9,254.7L-223.9,254.7z M-225,251.5c-0.2,0-0.4,0-0.7,0
		c-1,0-2.4,0.2-3.6,1c-2.7,1.8-2.3,4.6-2.7,5.3c-0.1,0.1-0.1,0.2-0.1,0.3c0,0.3,0.3,0.6,0.6,0.6c0.2,0,0.4-0.1,0.5-0.1
		c0.7,0,1.6,0.5,2.8,0.5c0.7,0,1.6-0.2,2.6-0.7c2.2-1.1,3.1-3.9,3.1-4.3c0-0.6-0.5-0.5-0.9-1.1c-0.4-0.7-0.2-0.9-0.5-1.3
		C-224,251.5-224.4,251.5-225,251.5L-225,251.5z M-221.7,256.5c-0.7,0.8-1.4,2.2-1.4,3.6c0,1.7,1,3.1,2.6,3.1c1.5,0,2.2-1.3,2.2-2.6
		C-218.3,258.4-220.2,256.9-221.7,256.5L-221.7,256.5z M-228.4,250.5c0,0-0.9,0.7-2,0.7c-1.3,0-2.4-1-2.4-2.4c0-1,0.5-2,1.6-2.5
		c0,0.2,0,0.3,0,0.5C-231.2,248.7-230.2,250-228.4,250.5L-228.4,250.5z M-173.1,268.6c0-0.6,0.6-1.1,1.2-1.1c0.7,0,1.2,0.5,1.2,1.1
		c0,0.7-0.5,1.2-1.2,1.2C-172.5,269.8-173.1,269.3-173.1,268.6L-173.1,268.6z M-172.3,304.3c0.2,0,0.3,0.1,0.3,0.7
		c0,0.7-0.3,1.6-1.4,2.3c-0.8,0.5-1.8,1-3.4,1c0.2-0.7,0.4-1.5,0.4-2.3c0-0.2,0-0.4-0.1-0.7h0.4
		C-173.5,305.3-172.5,304.3-172.3,304.3L-172.3,304.3z M-172,301.2c0.2-0.2,0.3-0.6,0.3-0.9v-0.7c0-0.9-1.4-1.4-3.2-1.4
		c-2.3,0-3.5,1-3.5,1.5v1.4c0,0.6,1.4,1.2,3,1.2C-174.1,302.3-172.9,301.9-172,301.2L-172,301.2z M-170.4,301.6
		c-0.8,0.6-2.7,2-5.8,2c-1.7,0-2.4-0.5-2.7-0.5s-0.7,0.3-1,0.7c-0.7,0.9-1.7,2.5-1.7,4.3c0,1.2,1,2.5,2.8,2.5
		c5.8,0,10.2-3.6,10.2-6.6C-168.7,302.3-169.7,301.6-170.4,301.6L-170.4,301.6z M-169.3,275.5c0,0.8,0.2,1.7,1,1.7
		c0.7,0,1.2-1,1.2-2.1c0-1.2-0.2-2.2-0.2-2.7c0-0.2,0.1-0.3,0.2-0.3c0.5,0,0.9,1.3,1.4,1.3c0.6,0,1.4-1,1.7-1c0.1,0,0.1,0.1,0.1,0.2
		c0,0.5-0.7,1.5-0.7,1.9c0,0.3,1.8,0.4,1.8,0.7c0,0.5-1.9,0.5-2.8,0.9c-0.9,0.4-1.4,0.8-1.4,1.5c0,0.6,0.6,0.7,1.5,0.7
		c2.1,0,3.5-1.1,4-1.1c0.1,0,0.2,0.1,0.2,0.2c0,0.3-1.1,1.3-1.1,1.8s1.9,1.1,1.9,1.5c0,0.1-0.2,0.1-0.4,0.1c-0.3,0-0.9-0.1-1.3-0.1
		c-0.2,0-0.5,0-0.6,0.2c-0.2,0.2,0.1,1.9-0.4,1.9c-0.4,0-1.5-3.7-3.8-3.7c-0.3,0-0.6,0.3-0.6,0.7c0,1.2,1.2,2.7,2.4,3.4
		c0.5,0.3,1.4,0.7,1.4,0.9c0,0.4-2,0-2,0.7c0,0.6,0.2,1.4,0.2,1.9c0,0.2,0,0.3-0.2,0.3c-0.4,0-1.3-1.7-1.7-1.7s-1.2,1-1.5,1
		c-0.1,0-0.2-0.1-0.2-0.2c0-0.7,1.1-2.3,1.1-3.9c0-0.7-0.1-2.4-1-2.4c-0.7,0-1.6,1.2-2,2.4c-0.2,0.7-0.1,3.3-0.6,3.3s-0.3-1.8-1-1.8
		c-0.5,0-1.5,0.8-1.8,0.8c-0.1,0-0.1,0-0.1-0.1c0-0.4,0.9-1.6,0.9-1.8c0-0.5-2.1-0.5-2.1-0.9c0-0.2,0.8-0.4,1.6-0.5
		c1.6-0.3,3.9-1.4,3.9-3c0-1.8-1.7-2.6-2.9-3.3c-0.6-0.4-1.2-0.7-1.2-0.9c0-0.2,0.7-0.2,1.1-0.2c0.5,0,0.9,0,0.9-0.4
		c0-0.3-0.1-0.8-0.1-1.3c0-0.3,0-0.6,0.2-0.6c0.5,0,1.1,1.5,1.4,1.5c0.5,0,1.2-1.2,1.6-1.2c0.2,0,0.2,0.1,0.2,0.4
		C-168.8,273-169.3,274.3-169.3,275.5L-169.3,275.5z M-184.2,266.4c0.3,2.6,3.9,1.3,3.9,4.5c0,0.5-0.1,1.2-0.1,1.7
		c0,0.7,0.1,1.3,0.6,1.3s0.7-0.4,0.7-0.9s-0.1-1.1-0.1-1.5c0-1.1,0.8-1.3,1.2-1.3c1.2,0,2.1,1.2,3.9,1.2c-0.4,2-4.5,1.5-4.5,3.6
		c0,1.1,1.1,1.3,1.8,1.3s0.9-0.1,0.9-0.7c0-0.3-0.1-0.7-0.1-0.9c0-0.1,0.1-0.2,0.2-0.2c0.7,0,4,2.5,4,3.3c0,0.7-3.5,1.4-4.6,1.4
		c-0.3,0-0.4-0.2-0.4-0.3c0-0.2,0.5-0.9,0.5-1.2c0-0.3-0.5-0.5-1.7-0.5c-0.6,0-1,0.1-1,0.5c0,0.8,1.4,1.9,1.4,2.6c0,0.6-0.4,1-1.4,1
		c-0.8,0-2.1-0.7-2.1-1.7c0-0.9,0.9-1.7,0.9-2.3c0-0.2-0.1-0.4-0.5-0.4c-1.2,0-1.5,3-5.5,3.4c0.7-0.6,1.2-1.2,1.2-2.6
		c0-0.7-0.2-1.2-0.2-1.9c0-0.9,0.4-1.4,1.1-1.4c1.1,0,1.7,1.6,2.5,1.6c0.4,0,0.8-0.4,0.8-0.9c0-2.4-4.5-2-4.5-5.3
		C-185.3,269-185,267.9-184.2,266.4L-184.2,266.4z M-178.3,286.5c0,0.4,0.3,0.8,0.7,0.8c0.5,0,0.8-0.4,0.8-0.9
		c0-0.7-0.6-1.6-1.2-1.6c-0.2,0-0.2,0.4-0.2,0.8C-178.1,285.9-178.3,286.3-178.3,286.5L-178.3,286.5z M-179.9,282.4
		c3.3,0.6,5,3.1,5,5.4c0,1.6-1,3-2.7,3c-1.6,0-2.7-1.1-2.7-2.8c0-1.3,1-2.7,1-4C-179.3,283.5-179.4,282.9-179.9,282.4L-179.9,282.4z
		 M-184,287.7c0.3,0.3,0.4,0.6,0.4,0.9c0,0.5-0.2,1-0.2,1.5c0,0.7,0.6,1.4,1.4,1.4c0.9,0,1.5-0.7,1.5-1.5
		C-181,288.8-182.2,287.7-184,287.7L-184,287.7z M-173.7,285.7c0.2,0.3,0.3,0.7,0.3,1c0,0.9-0.6,1.7-0.6,2.6c0,1,0.8,1.9,2,1.9
		c1.3,0,2.1-1,2.1-2.2C-169.9,287.3-171.4,285.9-173.7,285.7L-173.7,285.7z M-183.3,284.1c1.4,0.2,1.8,0.7,1.8,1.1
		c0,0.7-0.6,0.9-1.2,0.9c-0.4,0-0.9-0.1-1.5-0.1c-0.7,0-1.4,0.2-1.9,0.8c0.4,0.1,1,0.3,1,1c0,1.8-5,0.3-5,4.9c0,2.5,2.5,5.1,6.4,5.1
		c2,0,3.3-0.6,3.3-1.4c0-0.6-1.1-0.2-1.1-0.7c0-0.2,0.4-0.6,0.4-1c0-0.2-0.1-0.4-0.4-0.4c-0.6,0-1.6,0.9-3.8,0.9
		c-1.7,0-3.3-1-3.3-2.3c0-0.3,0.1-0.4,0.3-0.4s0.4,0.1,0.7,0.1c0.2,0,0.2-0.1,0.2-0.5c0-0.3,0-1.3,0.6-1.3s1.7,2.2,6,2.2
		c1.4,0,4.2-0.3,5.2-1.2c0,3.4-2.7,7.9-8.3,7.9c-5.8,0-8.9-4.7-8.9-8.9c0-4.8,3.9-9.1,9.2-9.1c1.4,0,2.5,0.5,2.5,1.1
		C-181.1,283.6-183.1,283.1-183.3,284.1L-183.3,284.1z M-205.7,252.3c0-0.5-0.1-0.7-0.2-0.7c-0.3,0-0.7,0.4-1.1,1.2
		c0.1,1.1,0.2,1.6,0.6,1.6C-206.2,254.4-205.7,253.3-205.7,252.3L-205.7,252.3z M-210,253.5c0.3,0,0.8-0.4,1.6-1.3
		c0.1-0.4,0.1-0.8,0.1-1.2c0-0.6-0.2-1.3-0.6-1.3c-0.9,0-1.4,2.5-1.4,3.1C-210.4,253.2-210.2,253.5-210,253.5L-210,253.5z
		 M-204.9,256.3c0.8,0,1.6-3,1.6-4.8c0-0.4-0.1-0.8-0.2-0.8c-0.7,0-1.7,3.1-1.7,4.8C-205.3,256-205.1,256.3-204.9,256.3
		L-204.9,256.3z M-212.5,254.6c1.1,0,2.3-5.7,2.3-6.7c0-0.2-0.1-0.4-0.3-0.4c-1,0-2.3,5.4-2.3,6.6
		C-212.9,254.3-212.8,254.6-212.5,254.6L-212.5,254.6z M-209.2,256.9c-1.3,0-1.4,1.6-1.4,4.9c-1-2.1-2.6-4.4-4.6-4.4
		c-1.3,0-1.8,0.9-1.8,2.4c0,0.3,0,0.8,0.1,1.1c0.2-0.5,0.7-0.7,1.3-0.7c1.3,0,2.9,1,4,2.4c-1.2-0.2-2.4-0.4-3.4-0.4
		c-0.6,0-1.2,0.1-1.6,0.3c-0.9,0.4-2.1,1.7-2.1,3.8c0,0.3,0,0.7,0.1,1c1.1-2.4,4-3.5,5.8-3.5c0.4,0,0.7,0,0.9,0.1
		c-1,0.9-1.2,2.4-1.2,3.4c0,0.5-0.2,0.5-0.6,0.5c0,1,0.8,2.5,0.8,3.3c0,0.3-0.2,0.5-0.3,0.6c0,1.4,1.4,2.4,1.4,3.2
		c0,0.2-0.1,0.4-0.2,0.5c0.1,0.6,1.6,1.5,1.8,1.9c0.3,0.7,0.5,0.7,0.7,0.7c0.5,0,1.4-0.6,1.4-1.2c0-0.2-0.2-0.4-0.3-0.5
		c-0.6-0.4-0.9-1.4-1.1-2c-0.2,0-0.5-0.1-0.6-0.4c-0.1-0.4-0.2-1.9-0.4-2.6c-0.4-0.1-0.6-0.2-0.6-1.1c0-0.4,0.2-2,0.2-2.5
		c-0.2,0-0.4-0.1-0.4-0.5c0-1,1-1.8,1.3-3c1.8,1.3,2.2,2.6,2.2,3.8c0,0.6-0.1,1.2-0.2,1.8c1.3-0.7,3.3-1.6,3.3-3.6
		c0-1.1-0.5-2.4-4-2.9c1.1-0.4,2.5-0.6,3.6-0.6c2,0,3.1,0.6,3.4,2c0.4-0.6,0.7-1.3,0.7-2c0-1.5-1.3-2.5-2.9-2.5
		c-1.9,0-3.6,1-5.4,2.2c0.8-1.7,1.4-2.7,2.4-2.7c0.2,0,0.3,0,0.5,0.1C-207,258.3-208.4,256.9-209.2,256.9L-209.2,256.9z M-229,237.6
		c0,0.6-2.4,2.7-3.2,2.7c-0.3,0-0.4-0.4-0.4-0.7c0-0.6,0.3-1.5,0.6-1.8c0.4-0.4,1.3-0.6,2.1-0.6C-229.5,237.3-229,237.4-229,237.6
		L-229,237.6z M-156.8,279.3c1.6,0,2.8,2,2.8,4.4c0,2.5-1.2,5.2-3.3,7.1c0-4.2-5.2-2.9-5.2-5.9c0-1.3,0.9-2.2,2.1-2.2
		c1,0,1.8,0.3,2.3,0.8c-0.6-0.5-0.8-1.3-0.8-2C-158.9,280.4-158.2,279.3-156.8,279.3L-156.8,279.3z M-179.9,247.6
		c-0.2-0.4-1.2-0.6-1.6-0.6c-1.4,0-2.3,1-2.5,1.8c-0.1-0.3-0.2-0.7-0.2-1.1c0-1.4,0.9-3,3.2-3c2,0,2.8,1.1,3,1.1
		c0.3,0,0.6-0.3,0.9-0.3c0.3,0,0.3,0.5,0.3,0.9c0,1.2-0.6,3.4-2,4.2c-0.2-0.5-0.7-1.1-1.6-1.5c-0.2-0.1-0.3-0.3-0.3-0.5
		C-180.6,248.2-180.2,247.8-179.9,247.6L-179.9,247.6z M-184.6,249.8c0.8,0.8,1.5,1.1,2.4,1.1c0.3,0,0.7-0.1,1-0.1s0.5,0.1,0.5,0.3
		c0,0.3-0.3,0.9-0.7,1.2c0.4,0.2,0.8,0.2,1.2,0.2c1.8,0,3.8-1.1,3.8-3.9c0.4,0.5,0.6,1.5,0.6,2c0,3.4-2.5,4.7-4.8,4.7
		c-1.5,0-2.2-0.5-2.4-0.5c-0.6,0-0.6,1.2-1,1.1c-0.7-0.1-1.4-1.7-1.4-3.4C-185.4,251.7-185.1,250.6-184.6,249.8L-184.6,249.8z
		 M-206.1,240.8c0,1.1,3.9,6.4,4.6,6.4c0.6,0,1.1-1.1,1.1-2c0-0.2-0.1-0.5-0.2-0.7c-0.6-0.8-4.5-3.9-5.4-3.9
		C-206.1,240.6-206.1,240.7-206.1,240.8L-206.1,240.8z M-161.3,238.3c0-2.2-5.3-2.8-5.3-3.3c0-0.4,2.9-1.1,4.5-1.1
		c-2.3-3-5.7-2.7-5.7-3.2c0-0.3,2.5-0.9,4.8-0.9c1.9,0,3.7,0.4,3.7,1.9c0,0.8-0.7,1.6-0.7,2.9c0,0.7,0.3,1.3,1.2,1.3
		c1,0,1.2-1,1.2-2.1c0-0.9-0.2-1.6-0.2-2c0-1.3,0.9-2.2,2.2-2.2c1.1,0,1.3,0.5,2.9,0.5c-0.8,0.5-1.1,1.4-1.1,1.8
		c0,1.3,0.8,2.2,0.8,4.9c0,4.9-4.6,6.6-10.2,6.6c-1.6,0-3.2-0.1-4.8-0.4c-0.2,0-0.3-0.1-0.3-0.2c0-0.4,2.2-0.6,2.2-2.6
		c0-0.8-0.2-1.5-0.2-1.8c0-0.2,0.1-0.2,0.2-0.2c0.5,0,1.4,1.8,3.1,1.8C-162.5,239.8-161.3,239.7-161.3,238.3L-161.3,238.3z
		 M-156.1,235.1c0,2.8-2,4.9-5.7,5.5c0.4,0,0.8,0,1.2,0c4.3,0,5.8-1.9,5.8-3.5C-154.8,236.2-155.3,235.4-156.1,235.1L-156.1,235.1z
		 M-159,260.1c0-0.7-1.6-0.7-1.8-2.5c0-0.3-0.1-0.8-0.5-0.8c-0.6,0-0.1,1.7-0.7,1.7c-1.4,0-1.9-2.8-2.4-2.8c-0.1,0-0.3,0.1-0.3,0.5
		c0,0.3,0.1,0.6,0.1,1s-0.1,0.7-0.5,0.7c-0.8,0-1.6-2-2.3-2c-0.2,0-0.3,0.1-0.3,0.2c0,0.4,0.6,1.1,0.6,1.4c0,0.7-2,0.3-2,1
		c0,0.3,0.3,0.4,0.7,0.4c0.7,0,1.7-0.3,2.2-0.3c0.3,0,0.8,0.1,0.8,0.5s-1.1,1-1.1,1.4c0,0.2,0.2,0.3,0.3,0.3c0.8,0,2.3-1.5,3.4-1.5
		c0.2,0,0.7,0.1,0.7,0.4c0,0.4-1.1,1.1-1.1,1.7c0,0.2,0.1,0.3,0.3,0.3c0.6,0,1.3-1.5,2.4-1.5c0.4,0,1,0.2,1.3,0.2
		C-159.1,260.3-159,260.2-159,260.1L-159,260.1z M-181.3,236.4c0-0.3-1.2-1-1.2-1.4c0-0.1,0.1-0.1,0.2-0.1c0.3,0,0.9,0.1,1.4,0.1
		c0.4,0,0.5-1.7,0.8-1.7c0.2,0,0.6,1.6,0.9,1.6c0.4,0,1.1-0.5,1.5-0.5c0.1,0,0.1,0,0.1,0.1c0,0.2-0.8,1.1-0.8,1.3
		c0,0.3,1.7,0.6,1.7,0.9s-1.8,0.3-1.8,0.6c0,0.2,0.7,1.1,0.7,1.4c0,0.1,0,0.1-0.1,0.1c-0.2,0-1.2-0.4-1.5-0.4s-0.9,1.3-1.2,1.3
		c-0.1,0-0.2-0.1-0.2-0.3l-0.1-1.2c0-0.1-0.1-0.2-0.2-0.2c-0.4,0-1.1,0-1.3,0s-0.2,0-0.2-0.1C-182.5,237.5-181.3,236.6-181.3,236.4
		L-181.3,236.4z M-175.2,242.3c-2.2,0-3.6-1.1-3.6-1.6c0-0.3,0.2-0.5,0.4-0.5c0.7,0,2.2,1.1,2.7,1.1c0.1,0,0.2-0.1,0.2-0.2
		c0-0.6-0.5-1.5-0.5-2c0-0.1,0.1-0.2,0.3-0.2c0.8,0,2.1,0.3,2.7,0.3c0.2,0,0.3-0.1,0.3-0.2c0-0.7-2-2-2-2.4s2.5-0.9,2.5-1.5
		s-3.4-0.2-3.4-0.8c0-0.4,0.7-1.2,0.7-1.5c0-0.2-0.1-0.2-0.3-0.2c-0.3,0-1.8,0.6-2.4,0.6c-0.3,0-0.7-0.1-0.7-0.5
		c0-0.7,1.2-1.5,3.1-1.5c3.1,0,4.9,2.1,4.9,5.7C-170.4,241.2-173.5,242.3-175.2,242.3L-175.2,242.3z M-196.2,296
		c0,0.3-0.1,0.6-0.3,0.9c-0.3-0.6-1.3-0.9-1.7-0.9c-3.2,0-2,4.6-5.4,4.6c-1.4,0-1.6-0.2-2.1-0.2c-0.2,0-0.3,0.1-0.3,0.3
		c0,0.8,1.1,2.8,4.3,2.8s6.3-2,6.3-4.4c0-0.4-0.1-0.8-0.3-1.3c0.1-0.2,0.4-0.3,0.7-0.3c0.5,0,0.8,0.6,1.2,0.6c0.5,0,0.9-0.4,0.9-0.9
		c0-0.4-0.2-0.7-0.6-0.9c0.3-0.2,0.4-0.5,0.4-0.8c0-0.5-0.4-1-1-1c-0.3,0-0.5,0.1-0.7,0.3c-0.1-0.6-0.4-1.1-1-1.1
		c-0.5,0-0.8,0.3-0.8,0.9C-196.6,295.1-196.2,295.5-196.2,296L-196.2,296z M-204.6,297.2c-0.9,0-2.3-1-2.3-1.6
		c0-0.5,0.4-0.7,0.8-0.7c0.8,0,2.2,1,2.2,1.8C-204,296.9-204.1,297.2-204.6,297.2L-204.6,297.2z M-213.3,290.2c2.5,0.6,3.7,2,4,3.5
		c0.2,1.5,0.6,2.8,1.1,3.4c0.8,0.9,2.3,1.6,3.6,1.6c1.1,0,2-0.4,2-1.4c0-1.1-1.5-3.6-3.8-3.6c-0.2,0-0.5,0-0.8,0s-0.7-0.1-0.9-0.3
		c-0.5-0.4-0.7-2.8-1.6-4.2c-1-1.6-2.1-2-3.7-2c-1.1,0-2.3,0.6-2.3,1.5C-215.5,289.4-215.2,289.7-213.3,290.2L-213.3,290.2z
		 M-197.7,286.5c0-1.4-2.9-1.4-2.9-3.5c0-0.5,0.3-1.4,1-2.4c0.3,1.6,0.9,2.5,2.3,3c2.8,1,3.1,2.6,3.1,4.2c0,2.8-2,6.3-7,6.3
		c-4,0-6.9-3.6-6.9-6.6c0-0.8,0.2-1.8,0.7-1.8s0.6,0.4,1,0.7c1.4,1.4,2.9,1.8,5.1,1.8C-199.1,288.1-197.7,287.3-197.7,286.5
		L-197.7,286.5z M-197.5,288.7c-1.1,0.4-1.5,0.4-1.5,1.5c0,0.4-0.1,0.9-0.1,1.2c0,0.4,0.1,0.6,0.5,0.6c1.1,0,2.9-1.9,2.9-3.5
		c0-0.4-0.2-0.6-0.5-0.6C-196.5,287.9-196.8,288.3-197.5,288.7L-197.5,288.7z M-207.5,273c0-2,4.7-3,4.7-5.5c0-0.4-0.2-1.1-0.4-1.6
		c1.6,0.9,2.9,2.4,2.9,3.7c0,2.1-2.2,3.1-2.2,4.5c0,1.6,2.4,1.8,2.4,3.7c0,1.6-2.3,3.4-2.3,5.5c0,1.6,1.1,2.9,2.8,3.1
		c-0.6,0.1-1.1,0.2-1.6,0.2c-3.1,0-6.4-2.6-6.4-5.7c0-1.5,0.7-2.9,1.6-3.8c0.9,0.7,1.7,1.2,2.3,1.2c0.5,0,0.7-0.2,0.7-0.6
		C-202.9,276.5-207.5,275.5-207.5,273L-207.5,273z"/>
	<path class="st0" d="M-201,339.4c0.9,0,2.4-0.3,3.6-2.2c-0.7-1.5-1.2-4.6-1.2-5.7c-0.3-5.7,1.8-11,4.2-11.2
		c1.8-0.1,3.2,1.6,3.3,4.2c0.4,7.1-1.9,10-3.1,12.6c0.2,1,1.9,2.7,3.5,2.7c0.6,0,1.3-0.3,1.5-0.5c-0.1-0.4-0.2-0.9-0.2-1.7
		c0-4.1,2.6-7.6,4.9-7.6c1.8,0,2.9,2.4,2.9,4c0,1.9-1.6,3.4-3.9,4.9c0.4,0.4,1.2,0.7,1.8,0.7c3.3,0,5.1-4,6.4-7.7
		c0.2-0.7,0.6-1.7,1.5-1.7c1.4,0,2,9.2,4.3,9.2c1,0,1.8-2,1.8-3.6c0-1.2-0.4-1.3-0.4-3c0-1.9,1-3.5,2.3-3.5c0.8,0,1.1,0.8,1.1,1.8
		c0,3.7-2.7,10.7-6.7,10.7c-3,0-2.8-5.2-3.8-5.2c-1.2,0-2.8,5.2-8.6,5.2c-0.9,0-1.9-0.5-2.7-1.4c-1.4,0.9-2.6,1.4-3.9,1.4
		c-2.2,0-3.1-2.2-4-2.2c-1.1,0-2.2,2.3-5.7,2.3c-2.8,0-3.3-3.7-4.3-3.7c-0.9,0-2.2,3.7-3.7,3.7c-2.5,0-3-6.5-5.2-6.5
		c-1.7,0-7.1,6.6-8.5,6.4c-0.6-0.1-0.8-0.5-0.8-1.1c0.1-0.8,0.8-3,1.1-4c0.5-1.8,0.9-3.7,1.2-4.4c0.2-0.6,0.9-1.1,1.4-1
		c0.3,0,0.3,0.5,0.4,0.9c0.3,1.5,0.7,2.9,1.2,2.9c0.8,0,3.5-5.2,5.1-5.2c1.9,0,2.2,8.2,4.8,8.2c0.9,0,1.5-1.1,2.1-2.3
		c0.1-2.2,0.6-5.3,2.4-5.3c1.2,0,1.8,2.7,0.9,5.2C-204.1,338.7-202.3,339.4-201,339.4L-201,339.4z M-157.4,333.9
		c0-1.5-1.3-3.5-3.3-3.5c-2.6,0-5.2,2.9-5.2,6.8c0,3.6,2.2,4.7,4.4,4.7c3.9,0,6.2-3.2,7.4-5.8c0.6,1.8,0.9,5.8,2.4,5.8
		c0.6,0,1-0.3,1.7-1.9c1.8-3.9,3.4-8.4,5.8-8.4c0.9,0,0.4,1.6,2.5,1.6c1,0,1.7-0.8,1.7-1.8c0-1.3-1.2-2.4-3.1-2.4
		c-5.5,0-6.7,8.3-7.5,8.3c-1.5,0-1-6.6-2-6.6c-0.9,0-1.4,1.1-1.5,1.6c-0.8,3-2.9,7.4-6.2,7.4c-0.8,0-2.1-0.3-2.1-1.1
		C-162.5,338-157.4,337.9-157.4,333.9L-157.4,333.9z M-193.1,326.3c-0.1-1.6-0.5-2.4-1.4-2.3c-1.2,0.1-1.7,3.7-1.5,7.6
		c0.2,2.5,0.5,2.9,0.9,2.9C-194.4,334.4-192.8,329.9-193.1,326.3L-193.1,326.3z M-202.6,322.8c-0.1-0.9-0.8-1.6-1.8-1.6
		c-1.1,0-2.2,1.2-2,2.6c0,0.9,0.6,1.8,1.8,1.8C-203.4,325.6-202.5,324.2-202.6,322.8L-202.6,322.8z M-184.4,334.8
		c0-1-0.5-1.8-1.2-1.8c-0.5,0-1.8,0.6-1.8,2.5c0,1.5,0.5,2.2,0.8,2.5C-184.8,337.3-184.4,335.9-184.4,334.8L-184.4,334.8z
		 M-161.5,332.8c1.2,0,1.6,1.5,1.3,2.3c-0.3,0.9-1.3,1.9-3,2.2C-163.5,336.4-163.7,332.8-161.5,332.8L-161.5,332.8z M-242,333.7
		c-0.1-2.4,0.1-4.8,1.1-8.2c0.5-1.8,1-2.5,2.6-2.8c1.3-0.2,1.2,1.1,0.9,2.7c-0.6,3.5-0.9,5.2-0.7,9.2c0.2,4.2,2.2,5.9,4.3,5.9
		c3.2,0.1,4.6-2.6,5.2-6.4c0.5-3,0.1-4.5-0.2-5.4c-0.2-0.5-0.6-1.7-0.8-2.6c-0.2-2.2,0.8-3.3,1.7-3.6c1.1-0.3,1.5,0.2,1.9,1.5
		c0.5,1.9,0.6,4.3,0.4,7.8c-0.2,4.8-2.6,10.6-8.6,10.5C-239.5,342.1-241.7,338.8-242,333.7L-242,333.7z"/>
</g>
</svg>
