<?xml version="1.0" encoding="utf-8"?>
<!-- Generator: Adobe Illustrator 19.0.0, SVG Export Plug-In . SVG Version: 6.00 Build 0)  -->
<svg version="1.1" id="Layer_1" xmlns="http://www.w3.org/2000/svg" xmlns:xlink="http://www.w3.org/1999/xlink" x="0px" y="0px"
	 viewBox="0 0 396.1 131.4" style="enable-background:new 0 0 396.1 131.4;" xml:space="preserve">
<style type="text/css">
	.st0{fill:#BD0329;}
	.st1{fill:#BC052A;}
	.st2{fill:#79706E;}
	.st3{fill:#C0BEBD;}
	.st4{fill:#FCFCFC;}
</style>
<path class="st0" d="M234.4,106.1c0-0.2-0.1-0.3-0.1-0.5c0-0.1,0-0.2-0.1-0.3c0-0.1,0-0.1,0-0.2c0.1-0.7-0.1-1.3-0.5-1.9
	c0-0.2,0-0.3,0-0.5c0.1-0.3,0-0.5-0.2-0.7c-0.6-3.5-0.9-7.1-0.7-10.6c0.7-11.1,4.2-20.9,13.7-27.7c5.2-3.7,11.1-5.3,17.3-5.9
	c5.1-0.4,10-0.1,15,1.1c2.5,0.6,4.9,1.5,7.2,2.6c0,0.1,0.1,0.2,0.3,0.2c0.1,0,0.2,0.1,0.2,0.1c0,0.1,0.1,0.2,0.3,0.2
	c0.1,0,0.1,0.1,0.2,0.1c0,0.1,0.1,0.2,0.3,0.2c0.2,0.1,0.3,0.2,0.5,0.3c0,0.1,0.1,0.2,0.3,0.2c0.1,0,0.1,0.1,0.2,0.1
	c0.2,0.3,0.4,0.4,0.7,0.5c0,0,0,0,0,0c0,0.1,0.1,0.2,0.3,0.2c0.1,0,0.1,0.1,0.2,0.1c0.1,0.1,0.2,0.3,0.4,0.4
	c2.6,1.9,4.9,4.1,6.8,6.8c1.9,2.7,3.3,5.6,4.5,8.6c0,0.2,0.1,0.5,0.1,0.7c1.4,4.4,2,8.8,2,13.4c0,6-0.9,11.7-3.3,17.2
	c-3,6.9-7.8,12.1-14.6,15.3c-5.2,2.5-10.8,3.6-16.5,3.6c-5.7,0-11.2-0.7-16.5-2.9c-1.3-0.5-2.5-1.5-3.9-1.7l0,0
	c0-0.4-0.4-0.5-0.7-0.5l0,0c0-0.3-0.2-0.4-0.5-0.4l0,0c-0.1-0.4-0.4-0.4-0.7-0.4c-3.6-2.6-6.4-5.9-8.6-9.7
	C236.3,111.3,235.4,108.7,234.4,106.1z M258.4,117.7L258.4,117.7c0.1,0.3,0.3,0.4,0.5,0.4l0,0c0,0.1,0.1,0.2,0.2,0.2
	c3.6,2.6,7.7,3.3,12,2.5c5.4-1,8.7-4.5,11-9.1c2.3-4.8,3.2-10,3.5-15.3c0.4-6.5-0.4-12.9-2.7-19.1c0-0.3,0-0.5-0.2-0.6l0-0.1
	c0-0.1-0.1-0.1-0.1-0.2c0-0.1-0.1-0.2-0.1-0.3c0-0.2,0-0.3-0.2-0.4c-0.1-0.1-0.1-0.3-0.2-0.4c0-0.2-0.1-0.4-0.3-0.5c0,0,0,0,0,0
	c-0.1-0.2-0.1-0.5-0.2-0.7c-3.9-6.8-10-9.1-17.3-7.6c-4.5,0.9-7.5,3.9-9.7,7.8c-2.9,5.2-3.9,10.8-4.2,16.7c-0.3,6.1,0.3,12.2,2.4,18
	c1.1,3,2.5,5.9,5,8l0,0c0.1,0.2,0.2,0.4,0.5,0.4l0,0C258.2,117.5,258.3,117.6,258.4,117.7z"/>
<path class="st0" d="M161.9,100.1c0-0.2,0-0.3,0-0.5c0-0.5,0.1-1-0.2-1.5c0-0.2,0-0.5-0.1-0.7c0-0.6,0.2-1.2-0.2-1.7
	c-0.3-7.7,1.2-15,5.7-21.5c4-5.9,9.5-10,15.9-13c6.1-2.8,12.5-4.1,19.3-3.7c6.2,0.4,11.9,1.9,17.4,4.7c0.2,0.3,0.6,0.4,0.9,0.5l0,0
	c0,0.1,0.1,0.2,0.3,0.1c0.1,0,0.2,0.1,0.2,0.1c0,0.1,0.1,0.2,0.2,0.2c0,0,0.1,0.1,0.2,0.1c0,0.2,0.1,0.2,0.3,0.2c0,0,0,0.1,0,0.1
	c-0.3,2.7-1.8,4.8-3.4,6.7c-2.7,3.1-6,5.2-10.2,5.5c-0.1-0.1-0.1-0.2-0.2-0.2c0-0.2,0-0.5,0-0.7c0-0.5,0-1,0-1.4
	c0.1-2.1-1-3.6-2.4-5c-0.2-0.5-0.6-0.8-1.1-1c-2.1-1.2-4.4-1.4-6.8-1.2c-3.1,0.3-5.9,1.2-8.4,3.2c-3.6,3-6,6.9-7.7,11.2
	c-2.6,6.4-3,13.1-1.9,19.9c0.4,2.3,0.9,4.7,2.1,6.8c0.3,0.5,0.5,1.1,0.8,1.6c1.8,3.3,4,6.2,7.3,8.1c0,0,0,0,0,0
	c0.2,0.3,0.4,0.4,0.7,0.4c0,0,0,0,0,0c0,0.1,0.1,0.2,0.3,0.2c0,0,0.1,0.1,0.2,0.1c0.1,0.1,0.2,0.2,0.3,0.2c0.4,0.2,0.8,0.4,1.2,0.6
	c0.2,0.2,0.4,0.3,0.6,0.3c0.1,0,0.2,0.1,0.4,0.1c0.1,0,0.1,0.1,0.2,0.1c0.2,0.1,0.3,0.1,0.5,0.2c0.2,0.2,0.5,0.4,0.9,0.3
	c0.2,0,0.4,0.1,0.6,0.1c0,0.1,0.1,0.1,0.2,0.1c0.3,0.1,0.5,0.1,0.8,0.2c0,0.1,0.1,0.2,0.2,0.1c0.3,0,0.5,0.1,0.8,0.1
	c0,0.1,0,0.1,0.1,0c0.4,0.1,0.7,0.1,1.1,0.2c0.2,0.1,0.3,0.3,0.6,0.1c0.5,0.1,0.9,0.1,1.4,0.2c0.3,0.3,0.5,0.2,0.8,0
	c1.3,0,2.7,0,4,0c0.4,0.2,0.6,0.1,0.8-0.3c0-0.1,0.1-0.2,0.1-0.3c0,0,0.1,0,0.1,0c0,0-0.1-0.1-0.1-0.1c0,0,0-0.1,0-0.1
	c0-7.5,0-14.9,0.1-22.4c0-0.7-0.4-0.8-1-0.9c-3-0.2-5.8,0.6-8.4,1.9c0,0-0.1-0.1-0.1-0.1c0-0.1,0-0.1-0.1-0.1
	c-0.2-0.3-0.1-0.6-0.1-0.9c0.3-0.5,0.2-1.2,0.2-1.7c0-0.5,0-1.1,0-1.6c0.4-0.4,0.2-0.8,0.2-1.3c0-0.6,0.1-1.2,0.1-1.8
	c0.3-0.3,0.2-0.7,0.1-1.1c0-0.5,0.1-1,0.1-1.6c0.1,0,0.2-0.1,0.2-0.3c0.2,0,0.4-0.1,0.6-0.1c8.4,0,16.7,0,25.1,0
	c0.4,0.9,0.4,1.9,0.4,2.8c0,9.2,0,18.5,0,27.7c0,2.7,0.8,5,2.8,6.9c0.3,0.3,0.7,0.4,0.7,0.9c-0.3,0.1-0.5,0.2-0.8,0.2
	c-4.7,0.1-9.3,1.1-13.9,1.8c-6.2,0.8-12.4,1.7-18.6,1.1c-2-0.2-4.1-0.3-6.1-0.8c-2.2-0.6-4.3-1.3-6.4-2.2c-2.5-1-4.8-2.6-7.1-3.9
	l0,0c-0.3-0.5-0.7-0.8-1.3-1c0-0.1-0.1-0.1-0.1-0.1l-0.1-0.1c0-0.1-0.1-0.1-0.1-0.1c-0.3-0.4-0.6-0.8-1-1l0,0
	c-0.1-0.2-0.2-0.3-0.4-0.2c-3.1-3.1-5.3-6.8-7.1-10.8c-0.9-2-1.3-4.2-2.1-6.2c0-0.2,0-0.5-0.1-0.7
	C162.3,101.4,162.2,100.7,161.9,100.1z"/>
<path class="st0" d="M307.2,129c3.4-1.7,4.7-4.7,4.7-8.3c0-12.5,0-25,0-37.5c0-5.5,0-11,0-16.4c0-2.9-0.8-5.5-3.5-7.2
	c-0.7-0.4-1-1.3-1.8-1.6c0.2-0.5,0.5-0.3,0.7-0.3c5.6,0,11.2,0,16.8,0c0.7,0,1.1,0.2,1.5,0.7c3.4,4.2,6.8,8.5,10.2,12.7
	c6.1,7.6,12.2,15.1,18.3,22.7c1.9,2.4,3.9,4.8,6.1,7.2c0-0.6,0-1.2,0-1.8c0-10.9,0-21.7,0-32.6c0-2.8-0.8-5.4-3.5-6.9
	c-0.7-0.4-1-1.3-1.8-1.6c0.1-0.5,0.5-0.3,0.7-0.3c6,0,11.9,0,17.9,0c0.3,0,0.7-0.2,0.8,0.3c-1.2,0.5-2.2,1.2-3,2.1
	c-1.8,2-2.3,4.5-2.4,7.1c-0.1,5.1,0,10.2,0,15.4c0,15.2,0,30.4,0,45.6c0,1.5-0.1,1.6-1.5,1.6c-1.2,0-2.4,0.1-3.6,0
	c-1.7-0.1-3.3-0.1-4.6-1.7c-4.7-6-9.5-11.8-14.2-17.7c-7.4-9.2-14.8-18.5-22.3-27.7c-0.6-0.7-1.1-1.6-2-2.2
	c-0.4,0.4-0.2,0.8-0.2,1.2c0,12.7,0,25.3,0,38c0,1,0.1,2.1,0.3,3.1c0.5,2.4,1.5,4.6,3.7,5.8c0,0,0.1,0.1,0.1,0.1
	c0.1,0,0.1,0.1,0.2,0.1c0.1,0,0.2,0.1,0.2,0.1c0.1,0.1,0.1,0.1,0.2,0.2c0,0,0.1,0,0.1,0c-0.1,0.7-0.6,0.5-1,0.5c-5.3,0-10.7,0-16,0
	C307.9,129.4,307.4,129.6,307.2,129z"/>
<path class="st0" d="M2.3,127.5c-0.1-0.5-0.1-1.1-0.2-1.6c0.1-0.2,0.1-0.4-0.1-0.5c0-0.4-0.1-0.8-0.1-1.2c0.1-0.3,0.1-0.5-0.1-0.7
	c0-0.4-0.1-0.8-0.1-1.2c0.1-0.3,0.1-0.5-0.1-0.7c0-0.3,0-0.6-0.1-1c0.1-0.3,0.1-0.5-0.1-0.7c0-0.4-0.1-0.8-0.1-1.2
	c0-0.3,0.1-0.5-0.1-0.7c0-0.3-0.1-0.6-0.1-1c0-0.3,0.1-0.7-0.2-1c0-0.4-0.1-0.8-0.1-1.2c0.1-0.3,0.1-0.5-0.2-0.7
	c0-0.3,0-0.6-0.1-0.9c0-0.3,0.1-0.5-0.2-0.7c-0.1-1.2-0.2-2.3-0.3-3.5c0-0.3-0.3-0.7,0.1-0.8c0.4-0.2,0.6,0.2,0.8,0.4
	c1.8,1.9,3.7,3.7,5.7,5.3c3.7,2.8,7.6,5.2,12.2,6.2c4.2,0.9,8.1,0.3,11.2-3.1c2.1-2.3,2.6-5.1,2.1-8c-0.5-2.3-2-3.7-4-4.8
	c-5.8-3.2-11.8-6.2-17.5-9.8c-5.9-3.7-10-9-10.6-16.2c-0.7-8.4,2.7-15,9.7-19.7c5.1-3.4,10.9-4.6,17-4.2c5.2,0.3,10.4,0.8,15.4,2.7
	c1.5,0.5,2.9,1.2,4.3,1.7c0.1,0.2,0.3,0.3,0.5,0.2c0,0,0,0,0,0c0,0.1,0.1,0.2,0.3,0.2c0.1,0.1,0.2,0.1,0.4,0.2
	c0.1,0,0.2,0.1,0.3,0.1c0,0,0,0,0,0c0,0.1,0.1,0.2,0.3,0.1c0.1,0.1,0.2,0.1,0.4,0.2c0.1,0.1,0.2,0.1,0.3,0.2c0,0,0,0,0,0
	c0.1,0.2,0.3,0.3,0.5,0.2c0,0,0,0,0,0c0.3,0.3,0.5,0.7,0.5,1.1c-0.1,0.2-0.2,0.4-0.2,0.6c-0.4,3.8-2.3,7-4.9,9.7
	c-1.8,1.9-4.1,3.1-6.4,4.2c-0.2,0-0.5,0-0.7,0c-0.3-0.3-0.2-0.7-0.1-1c0.3-1.3,0.3-2.7,0-4c0-0.6,0-1.2-0.7-1.5c0-0.1,0-0.1,0-0.2
	c0.2-0.4-0.1-0.8-0.3-1.1c-0.7-0.9-1.4-1.8-2.4-2.5c-0.5-0.7-1.2-1.1-2.1-1l0,0c0-0.4-0.2-0.5-0.5-0.5c-3.9-1.2-7.6-0.9-10.8,1.9
	c-2.5,2.1-3.6,5.6-2.6,9c0.5,2.3,1.7,4.1,3.8,5.2l0,0c0,0.1,0.1,0.2,0.3,0.2c3.8,2.4,7.8,4.5,11.8,6.5c1.6,0.8,3.3,1.7,4.9,2.5
	c0,0.1,0.1,0.2,0.3,0.2c0,0,0,0,0,0c0,0.1,0.1,0.2,0.3,0.2c0,0.1,0.1,0.1,0.2,0.1c0.2,0.3,0.4,0.4,0.8,0.4c0,0,0,0,0,0
	c0,0.1,0.1,0.2,0.3,0.2c0,0,0.1,0.1,0.2,0.1c0,0.2,0.1,0.2,0.3,0.2c0,0,0,0,0,0c0,0.1,0.1,0.2,0.2,0.2c0,0.1,0.1,0.1,0.2,0.1
	c3.2,2.4,6,5.2,7.8,8.8c0.1,0.3,0.1,0.5,0.2,0.8c1.1,2.2,1.5,4.6,1.6,7.1c0.3,5.9-1.9,11-6,15.1c-5.7,5.8-12.8,7.7-20.7,7
	c-5.3-0.5-10.6-1.4-15.8-2.8C6,125.9,4,126.9,3,129.1c-0.1,0-0.3,0-0.4,0c-0.1-0.4-0.1-0.7-0.2-1.1C2.5,127.8,2.5,127.6,2.3,127.5z"
	/>
<path class="st0" d="M97.5,111.2c-0.1-0.2-0.1-0.3-0.2-0.5c0-0.7-0.5-1.3-0.7-2c-0.1-0.3-0.3-0.3-0.5-0.3c-3.2,0.3-6.4,0.1-9.6,0.1
	c-4.9,0-9.7,0.2-14.6-0.1c-0.6,0-0.6,0.3-0.8,0.7c-1.7,4.7-3.4,9.4-5.1,14.1c-0.8,2.3,0,4.3,2.2,5.5c0,0,0.1,0,0.1,0
	c0.1,0,0.1,0.1,0.2,0.1c0.6,0.3,0.6,0.9,0.5,1.3c-0.1,0.5-0.7,0.3-1,0.3c-5.2,0-10.5,0-15.7,0c-1.1,0-1.3-1-2.1-1.2
	c-0.4-0.1,0.2-0.6,0.4-0.7c4.3-2.7,6.7-6.9,8.5-11.5c2.6-6.7,5-13.5,7.6-20.3c3.2-8.7,6.5-17.4,9.7-26.1c0.9-2.4,1.6-4.8,2.6-7.1
	c0.8-2,0.3-3.7-0.9-5.2c-0.2-0.2-0.5-0.3-0.4-0.7c0.1-0.3,0.5-0.2,0.7-0.2c5.7,0,11.4,0,17,0c0.4,0,0.7,0,1,0.3c0,0.1,0,0.2,0.1,0.4
	c2.4,6.3,4.8,12.6,7.2,18.9c3.2,8.5,6.3,17.1,9.5,25.6c1.7,4.5,3.3,9,5.1,13.4c1.9,4.9,4.3,9.4,8.5,12.8c-0.2,0.6-0.8,0.5-1.2,0.5
	c-3.4,0-6.9,0-10.3,0c-5.4,0-10.8,0-16.1,0c-0.3-0.2-0.5-0.3,0-0.5c3-1.5,3.7-3.1,2.6-6.3c-0.6-1.7-1.2-3.4-1.9-5.2
	c0-0.2,0-0.4-0.2-0.6c0,0-0.1-0.1-0.1-0.1c0-0.2,0-0.4-0.2-0.6c0,0-0.1-0.1,0-0.1c0-0.4-0.1-0.8-0.4-1.1c0,0-0.1-0.1-0.1-0.2
	c0-0.1-0.1-0.2-0.1-0.3c0-0.1-0.1-0.2-0.1-0.3c0-0.2,0-0.5-0.2-0.7c0-0.1-0.1-0.2-0.1-0.3c0-0.2,0-0.3-0.2-0.4c0,0-0.1-0.1-0.1-0.1
	c0-0.2,0-0.3-0.2-0.4c0-0.1-0.1-0.2-0.1-0.3c0-0.2,0-0.3-0.1-0.4c0-0.1-0.1-0.2-0.1-0.3C97.6,111.3,97.6,111.2,97.5,111.2z M85,77.6
	c-0.3-0.9-0.7-1.7-1-2.6c-0.1,0.1-0.2,0.1-0.3,0.2c-2.9,7.7-5.7,15.4-8.7,23.1c-0.4,1.1,0,1.3,0.9,1.3c1.4,0,2.9,0,4.3,0
	c3.9,0,7.8,0,11.7,0c0.4,0,1.2,0.3,0.9-0.7c-0.9-2.4-1.8-4.8-2.7-7.2C88.5,87.1,86.8,82.4,85,77.6z"/>
<path class="st1" d="M130,58.1c-0.1-0.8,0.5-0.5,0.8-0.5c1.3,0,2.6,0,4,0c7.2,0,14.4,0,21.6,0c0.4,0,1-0.3,1.1,0.3
	c0.1,0.6,0.6,1.3-0.3,1.8c-2.9,1.8-3.9,4.6-3.9,7.9c0,9.6,0,19.3,0,28.9c0,8,0,16,0,24c0,1,0.1,2.1,0.3,3.1c0.4,2.5,1.8,4.2,4,5.3
	c-0.2,0.7-0.8,0.5-1.2,0.5c-3.4,0-6.9,0-10.3,0c-5.4,0-10.7,0-16.1,0c-0.2-0.4,0-0.4,0.3-0.6c3-1.1,4.2-3.6,4.6-6.5
	c0.3-2,0.2-4,0.2-6c0-15.7,0-31.3,0-47c0-1.8,0-3.6-0.5-5.3c0.2-0.4,0-0.7-0.1-1C133.8,60.7,132.2,59.2,130,58.1z"/>
<path class="st1" d="M167.7,3.6c0.3,0.1,0.5,0.3,0.7,0.6c0.1,0.1,0.1,0.2,0.2,0.3c4.4,4.4,3.7,11.5-3.2,14.3
	c-1.1,0.4-2.2,0.9-3.5,1.4c1.3,0.4,2.4,0.8,3.5,1.1c0.2,0.1,0.4,0.2,0.6,0.2c0,0.1,0.1,0.2,0.3,0.2c0.1,0,0.1,0.1,0.2,0.1
	c0.1,0.1,0.2,0.1,0.3,0.2c0.2,0.1,0.4,0.2,0.6,0.4c1.5,1.2,2.9,2.5,3.7,4.3c0.1,0.1,0.1,0.2,0.2,0.3l0,0c0,0.2,0,0.4,0.2,0.5l0,0
	c0,0.2,0,0.4,0.2,0.5c0,0.1,0,0.1,0.1,0.2c-0.1,0.3,0.1,0.6,0.1,0.9c0.7,4.3-0.4,7.9-3.9,10.6c-3.3,2.5-7.2,3.5-11.2,3.6
	c-8.3,0.2-16.6,0.1-25,0c-0.4,0-0.8,0.1-1.2-0.2c2-1.1,2.9-2.8,2.9-5.1c0-10.2-0.1-20.4,0-30.6c0-2.9-0.7-5.2-3.3-7.1
	c0.9,0,1.6,0,2.2,0c7.3,0,14.5,0,21.8,0c4,0,7.9,0.5,11.5,2.3c0.2,0.1,0.5,0.3,0.7,0.4c0,0,0,0.1,0,0.1l0.1,0
	c0.1,0.1,0.2,0.1,0.3,0.2c0,0,0,0.1,0,0.1s0.1,0,0.1,0c0.1,0.1,0.3,0.2,0.4,0.3C167.5,3.5,167.5,3.6,167.7,3.6z M145.3,17.8
	c1.8,0,3.7,0.1,5.5,0c2.1-0.1,4.2-0.3,6.2-1.2c3.4-1.4,4.6-4.3,3.2-7.7c-0.7-2-2.4-2.7-4.2-3.1c-3.8-0.9-7.6-0.4-11.4-0.5
	c-0.6,0-0.4,0.3-0.4,0.7c0,3.6,0.1,7.1,0,10.7C144.1,17.6,144.3,18,145.3,17.8z M144.7,31c0,2,0,3.9,0,5.9c0,0.5,0,0.9,0.7,0.9
	c3.7,0,7.4,0.3,10.9-0.8c2.8-0.8,4.8-2.6,5.2-5.6c0.3-2.1,0.1-4.2-1.7-5.6c-1.2-0.9-2.7-1.3-4.2-1.5c-3.2-0.5-6.4-0.2-9.6-0.3
	c-1,0-1.3,0.5-1.3,1.4C144.7,27.2,144.7,29.1,144.7,31z"/>
<path class="st1" d="M199.1,43.1c-0.3-0.1-0.3-0.2,0-0.4c3.4-2.1,4.7-5.6,6-9.1c2.8-7.6,5.7-15.3,8.5-22.9c0.8-2.3,1.7-4.6,2.5-6.8
	c0.5-1.4,0.2-2.6-0.9-3.8c3.3,0,6.3,0,9.4,0c0.7,0,1.4-0.2,2,0.2c1.6,4.2,3.1,8.3,4.7,12.5c1.9,5,3.7,10.1,5.6,15.1
	c1.4,3.8,2.6,7.6,4.6,11.1c0.9,1.5,2,2.7,3.4,4c-0.8,0.1-1.5,0.3-2.1,0.3c-3.6,0-7.3,0-10.9,0c-1.1,0-2.3,0-3.4-0.5
	c0.7-0.3,1.2-0.7,1.5-1.4c0.1-0.1,0.1-0.2,0.2-0.3c0-0.3,0-0.6,0-0.9c-0.8-3-1.8-5.8-3.1-8.6c0.2-0.9-0.2-1.2-1-1.2
	c-4.5,0-9,0-13.6,0c-0.7,0-0.9,0.3-1.1,0.8c-1,2.7-1.9,5.4-2.9,8.1c-0.4,1.1-0.3,2,0.6,2.8c0.2,0.4,0.7,0.5,0.8,1
	C206.2,43.1,202.6,43.1,199.1,43.1z M220.1,12.9c-0.1-0.8-0.5-1.5-0.9-2.2c-0.2,0.1-0.2,0.2-0.3,0.2c-1.8,4.6-3.5,9.2-5.3,13.8
	c-0.2,0.4,0,0.6,0.4,0.6c0.4,0,0.7,0,1.1,0c2.8,0,5.6,0,8.4,0c0.9,0,1.1-0.2,0.8-1.1C222.8,20.4,221.5,16.6,220.1,12.9z"/>
<path class="st0" d="M181.4,38.2c0-0.4,0.1-0.8,0.1-1.2c0-10.3,0-20.6,0-30.9c0-0.3,0-0.6-0.1-1c0-2.1-0.7-3.7-2.7-4.6
	c-0.1-0.1-0.4-0.2-0.2-0.4c0.2-0.1,0.5-0.1,0.7-0.1c5,0,10,0,15,0c0.3,0,0.6-0.1,0.7,0.2c-0.3,0.2-0.6,0.4-0.9,0.5
	c-1.5,0.9-2.1,2.3-2.1,4c0,11.1,0,22.2,0,33.3c0,1,0.2,2.1,0.9,2.9l0,0c0.1,0.1,0.1,0.1,0.2,0.2c0.2,0.9,1.3,0.9,1.7,1.7
	c-5.2,0-10.5,0-15.7,0c-0.1-0.2,0-0.4,0.2-0.5c1.5-0.9,2.1-2.4,2.2-4.1c0,0,0.1-0.1,0.1-0.1C181.5,38.4,181.4,38.3,181.4,38.2z"/>
<path class="st2" d="M324.6,128.4c-2.3-1.3-3.3-3.4-3.7-5.8c-0.2-1-0.3-2-0.3-3.1c0-12.7,0-25.3,0-38c0-0.4-0.2-0.8,0.2-1.2
	c0.9,0.5,1.4,1.4,2,2.2c7.4,9.2,14.9,18.5,22.3,27.7c4.7,5.9,9.6,11.8,14.2,17.7c1.3,1.6,2.9,1.6,4.6,1.7c1.2,0.1,2.4,0,3.6,0
	c1.5,0,1.5-0.1,1.5-1.6c0-15.2,0-30.4,0-45.6c0-5.1,0-10.2,0-15.4c0-2.6,0.6-5.1,2.4-7.1c0.8-0.9,1.8-1.6,3-2.1c1.2,1,1.2,1.2-0.1,2
	c-2.9,1.8-4,4.5-4,7.7c-0.1,7.4,0,14.8,0,22.2c0,13,0,25.9,0,38.9c0,2.1-0.2,2.3-2.3,2.3c-1.5,0-3-0.1-4.4,0
	c-1.9,0.1-3.2-0.7-4.3-2.1c-6.3-7.8-12.6-15.7-18.8-23.5c-5.6-7-11.3-14-16.9-21c-0.1-0.1-0.2-0.2-0.3-0.4c-0.3-0.3-0.6-0.8-1-0.7
	c-0.6,0.2-0.4,0.8-0.4,1.3c0,11.9,0,23.7,0,35.6C321.8,123.2,322.4,126.1,324.6,128.4z"/>
<path class="st3" d="M301.1,79.2c-1.2-3-2.6-6-4.5-8.6c-1.9-2.6-4.2-4.9-6.8-6.8c-0.2-0.1-0.3-0.3-0.4-0.4c1.7,0.4,2.8,1.7,4.1,2.8
	c4.9,4.3,7.9,9.7,9.7,15.8c1.6,5.6,2,11.3,1.4,17.2c-0.5,5.3-1.8,10.3-4.3,14.9c-3.7,6.9-9.2,11.7-16.5,14.5
	c-3.9,1.5-8,2.2-12.2,2.5c-5.7,0.4-11.2-0.3-16.6-2c-6.2-2-11.3-5.7-15.1-11c-2.4-3.3-4.1-7-5.2-10.9c-0.1-0.3-0.4-0.6,0-1
	c0.9,2.6,1.9,5.2,3.3,7.6c2.2,3.8,5,7.1,8.6,9.7c0.1,0.4,0.4,0.4,0.7,0.4c0,0,0,0,0,0c0,0.4,0.2,0.5,0.5,0.4c0,0,0,0,0,0
	c0.1,0.4,0.3,0.6,0.7,0.5c0,0,0,0,0,0c0.1,0.4,0.5,0.5,0.8,0.7c5.5,3.4,11.7,4.6,18,4.9c3.8,0.2,7.5-0.2,11.2-1
	c7.9-1.7,14.4-5.6,19.1-12.2c4.9-6.9,6.5-14.7,6.6-23c0-4.4-0.6-8.8-2-13.1C301.7,80.5,301.7,79.7,301.1,79.2z"/>
<path class="st3" d="M126.7,129c-4.2-3.4-6.6-7.9-8.5-12.8c-1.8-4.4-3.4-8.9-5.1-13.4c-3.2-8.5-6.3-17.1-9.5-25.6
	c-2.4-6.3-4.8-12.6-7.2-18.9c0-0.1,0-0.2-0.1-0.4c0.9,0,1.3,0.6,1.6,1.3c1.9,5,3.8,10,5.6,15c2.9,7.7,5.8,15.5,8.7,23.2
	c2.3,6.2,4.6,12.3,6.9,18.5c1.8,4.8,4.1,9.3,8.1,12.8c0.2,0.2,0.5,0.4,0.7,0.7c0.5,0.7,0.3,1.2-0.4,1.6c-0.4,0.2-0.8,0.2-1.3,0.2
	c-8.5,0-17,0-25.5,0c-1.5,0-1.6-0.2-1.6-1.7c0.4,0,1-0.1,1.2,0.3c0.3,0.6,0.8,0.5,1.3,0.5c8.1,0,16.1,0,24.2,0
	C127.2,130.4,127.2,130.3,126.7,129z"/>
<path class="st3" d="M162.4,102.8c0.7,2.1,1.2,4.2,2.1,6.2c1.7,4,4,7.7,7.1,10.8c0.1,0.2,0.2,0.3,0.4,0.2c0,0,0,0,0,0
	c0.2,0.5,0.4,1,1,1c0.1,0,0.1,0.1,0.1,0.1c-0.1,0.2-0.1,0.2,0.1,0.1c0.1,0,0.1,0.1,0.1,0.1c0.1,0.8,0.7,0.9,1.3,1c0,0,0,0,0,0
	c-0.1,0.4,0.2,0.6,0.5,0.8c2.3,1.8,4.9,3.2,7.6,4.3c8.3,3.4,17,3.6,25.8,2.5c4.8-0.6,9.5-1.3,14.3-2.1c1.4-0.2,2.8-0.2,4.2-0.3
	c0.4,0,0.9-0.1,1.1-0.6c0.1-0.4-0.1-0.6-0.4-0.7c0-0.5-0.4-0.7-0.7-0.9c-2-1.9-2.8-4.2-2.8-6.9c0-9.2,0-18.5,0-27.7
	c0-1,0.1-1.9-0.4-2.8c1.3,0.3,1.7,1.1,1.7,2.5c-0.1,9,0,17.9,0,26.9c0,1.3,0.2,2.5,0.3,3.8c0.2,1.9,1.2,3.4,2.6,4.7
	c0.4,0.4,0.9,0.8,0.6,1.4c-0.3,0.7-0.9,1-1.6,1.1c-5,0.1-9.9,1.3-14.9,1.9c-5.4,0.7-10.9,1.3-16.3,1c-7.7-0.5-14.9-2.6-21.1-7.2
	c-7-5.2-11.1-12.4-12.8-20.9C162.2,103,162.3,102.9,162.4,102.8z"/>
<path class="st3" d="M228.4,42.8c1.1,0.5,2.3,0.5,3.4,0.5c3.6,0.1,7.3,0,10.9,0c0.7,0,1.3-0.2,2.1-0.3c-1.3-1.3-2.5-2.5-3.4-4
	c-2-3.5-3.2-7.4-4.6-11.1c-1.9-5-3.8-10.1-5.6-15.1c-1.6-4.2-3.1-8.3-4.7-12.5c0.9,0.1,1.4,0.6,1.7,1.4c4.2,11.3,8.4,22.6,12.7,33.9
	c1,2.6,2.2,5,4.4,6.9c0.5,0.5,0.8,1,0.6,1.7c-0.2,0.7-0.9,0.7-1.5,0.7c-4.8,0-9.5,0-14.3,0C228.8,44.9,228.1,44,228.4,42.8z"/>
<path class="st1" d="M378.3,123.9c-1.4-3.9,0-8,3.3-10.2c3.5-2.3,8-1.8,11,1.1c0.2,0.3,0.4,0.6,0.6,0.9c2.4,3.2,2.3,7.7-0.3,10.8
	c-2.5,2.9-7.1,3.8-10.6,1.9C380.4,127.5,379.2,125.8,378.3,123.9z M392.6,117.9C392.6,117.9,392.6,117.9,392.6,117.9
	c0.1-0.7-0.2-1.1-0.7-1.5c-1.3-2.2-4.6-3.3-7.2-2.6c-5.1,1.4-7,7.7-3.7,11.9c1,1.2,2.1,2.1,3.7,2.4c1.6,0.5,3.2,0.3,4.7-0.4
	c0.5,0,0.8-0.4,1.1-0.6c0.1,0,0.1,0,0.1-0.1c0.3-0.3,0.6-0.4,0.8-0.8c1.6-1.6,2.2-3.6,2.1-5.8c0-0.1,0-0.2,0-0.3
	c-0.1-0.3-0.1-0.6-0.2-0.8C393.2,118.6,393.1,118.1,392.6,117.9z"/>
<path class="st2" d="M68.2,128.7c-2.2-1.3-3-3.2-2.2-5.5c1.7-4.7,3.4-9.4,5.1-14.1c0.1-0.4,0.2-0.7,0.8-0.7
	c4.9,0.3,9.7,0.1,14.6,0.1c3.2,0,6.4,0.2,9.6-0.1c0.3,0,0.5,0,0.5,0.3c0.2,0.7,0.7,1.3,0.7,2c-0.4-0.7-1-0.9-1.9-0.9
	c-7.2,0-14.4,0-21.6,0c-0.9,0-1.5,0.2-1.8,1.1c-1.5,4.1-2.9,8.2-4.5,12.3C66.7,125.2,66.7,127,68.2,128.7z"/>
<path class="st3" d="M49.4,99.4c-1.8-3.7-4.6-6.4-7.8-8.8c1.4,0.2,2.3,1.2,3.2,1.9c3.6,3.1,6.2,6.9,7.3,11.5
	c1.5,6.5,0.3,12.5-3.8,17.7c-3.9,5-9.2,8-15.5,9.1c-4.3,0.7-8.5,0.1-12.7-0.4c-3.9-0.5-7.8-1.4-11.6-2.2c-1.4-0.3-2.9,0.1-3.7,1.5
	c-0.3,0.5-0.8,1-1.5,0.8c-0.7-0.2-0.8-0.8-0.7-1.4c0.1,0,0.3,0,0.4,0c0.5,0.6,1,0.6,1.4,0c1.3-1.6,3.1-1.9,4.9-1.4
	c4.9,1.2,9.9,2.1,15,2.6c4.7,0.5,9.3,0.3,13.7-1.5c8.8-3.5,15.5-12.3,13.8-22.6C51.3,103.7,50.9,101.4,49.4,99.4z"/>
<path class="st2" d="M130.7,42.8c0.3,0.3,0.8,0.2,1.2,0.2c8.3,0,16.6,0.1,25,0c4-0.1,7.9-1,11.2-3.6c3.5-2.7,4.5-6.4,3.9-10.6
	c0-0.3-0.2-0.6-0.1-0.9c0.8,0.3,0.8,1.1,0.9,1.7c1.2,5.6-1.6,10.5-6.9,12.7c-3,1.2-6.1,1.8-9.2,1.9c-7.8,0.1-15.7,0.1-23.5,0.1
	c-0.4,0-0.9,0.1-1-0.4c-0.2-0.8-0.8-0.5-1.3-0.5C130.6,43.1,130.4,43,130.7,42.8z"/>
<path class="st3" d="M190.2,117c-3.3-1.9-5.6-4.7-7.3-8.1c-0.3-0.5-0.5-1.1-0.8-1.6c0.1-0.5-0.1-0.9-0.2-1.3
	c-1.7-5.3-2.2-10.7-1.4-16.2c1-7.1,3.7-13.5,9-18.6c2.7-2.6,6-3.7,9.6-4c2.4-0.2,4.6,0.3,6.7,1.3c1.4,1.4,2.5,2.9,2.4,5
	c-0.6-1-0.8-2.2-1.6-3.1c-2.1-2.4-4.9-2.7-7.8-2.5c-3.9,0.3-7.2,1.8-9.9,4.8c-3.9,4.2-6.2,9.2-7.3,14.8c-1.2,5.5-0.9,10.9,0.4,16.3
	c1.3,5,3.7,9.2,7.8,12.4C190,116.5,190.2,116.7,190.2,117z"/>
<path class="st3" d="M194,0.8c0.3-0.2,0.6-0.4,0.9-0.5c0.5,0.1,1,0.2,1.2,0.8c0.1,0.6-0.3,0.9-0.7,1.2c-1.4,0.9-1.9,2.2-2,3.8
	c-0.4,10.1-0.1,20.3-0.2,30.4c0,1.1,0.1,2.3,0.2,3.4c0.1,1.1,0.8,2,1.6,2.7c0.5,0.4,1,0.9,0.6,1.6c-0.3,0.7-1,0.6-1.6,0.6
	c-4.5,0-8.9,0-13.4,0c-1.5,0-1.6-0.1-1.7-1.6c0.4,0,0.8-0.1,0.9,0.3c0.2,0.6,0.6,0.6,1.1,0.6c4.2,0,8.5,0,12.7,0
	c0.9,0,1.2-0.3,0.8-1.2c-0.4-0.8-1.5-0.8-1.7-1.7c0-0.1-0.1-0.1-0.2-0.2c0,0,0,0,0,0c0.2-0.8-0.2-1.6-0.2-2.4c0-10.8,0-21.6,0-32.4
	c0-1.6,0.5-3,1.7-4.1C195.3,1.5,194.9,1.1,194,0.8z"/>
<path class="st3" d="M130.7,43.2c0.5,0,1-0.2,1.3,0.5c0.1,0.5,0.6,0.4,1,0.4c7.8,0,15.7,0,23.5-0.1c3.2,0,6.2-0.6,9.2-1.9
	c5.4-2.2,8.1-7.1,6.9-12.7c-0.1-0.6-0.1-1.4-0.9-1.7c0-0.1,0-0.1-0.1-0.2c0.1-0.2,0-0.4-0.2-0.5c0,0,0,0,0,0c0-0.2,0-0.4-0.2-0.5
	c0,0,0,0,0,0c-0.1-0.1-0.1-0.2-0.2-0.3c-0.9-1.7-2.2-3.1-3.7-4.3c1.5,0.3,2.5,1.3,3.5,2.4c2.9,3.2,3.5,8.2,1.8,12.2
	c-1.5,3.4-4.2,5.2-7.5,6.5c-3.1,1.2-6.2,1.6-9.5,1.6c-7.7,0-15.4,0-23.2,0C130.9,44.9,130.8,44.8,130.7,43.2z"/>
<path class="st2" d="M378.3,123.9c0.9,1.9,2.1,3.5,4,4.5c3.5,1.8,8,1,10.6-1.9c2.6-3.1,2.7-7.6,0.3-10.8c-0.2-0.3-0.4-0.6-0.6-0.9
	c1.6,0.6,2.3,2.1,2.9,3.5c1.8,4.4,0.1,9.2-4,11.5c-3.7,2.1-8.8,1-11.6-2.6C379,126.3,378.4,125.2,378.3,123.9z"/>
<path class="st3" d="M226.9,31.5c1.3,2.8,2.4,5.7,3.1,8.6c-0.9-0.8-0.9-2.1-1.4-3.1c-0.6-1.3-1-2.6-1.5-3.9c-0.2-0.7-0.7-1-1.4-1
	c-3.9,0-7.8,0-11.8,0c-0.8,0-1.2,0.3-1.5,1c-0.8,2.3-1.7,4.6-2.5,7c-0.3,1-0.4,2,0.6,2.7c0.4,0.3,0.6,0.7,0.4,1.1
	c-0.2,0.5-0.6,0.9-1.2,0.9c-3.2,0-6.4,0-9.6,0c-1.1,0-1.1-0.9-1-1.7c0.5,0,1-0.1,1.2,0.6c0.1,0.3,0.5,0.4,0.8,0.4c2.6,0,5.2,0,7.9,0
	c0.8,0,1.1-0.4,0.7-1.1c-0.1-0.5-0.6-0.6-0.8-1c0.1-0.5,0-1.1,0.2-1.6c1-2.6,1.9-5.2,2.8-7.9c0.3-0.7,0.7-1.1,1.5-1.1
	C217.9,31.5,222.4,31.5,226.9,31.5z"/>
<path class="st2" d="M129.8,129.4c5.4,0,10.7,0,16.1,0c3.4,0,6.9,0,10.3,0c0.4,0,1,0.2,1.2-0.5c0.1,0,0.1,0,0.2,0
	c0.2,1.6,0.2,1.6-1.4,1.6c-7.6,0-15.1,0-22.7,0c-1,0-2.1,0.4-2.7-0.9c0-0.1-0.4,0-0.7-0.1C130,129.6,129.9,129.5,129.8,129.4z"/>
<path class="st2" d="M165.4,21.2c-1.1-0.3-2.2-0.7-3.5-1.1c1.3-0.5,2.4-0.9,3.5-1.4c6.9-2.8,7.5-9.9,3.2-14.3
	c-0.1-0.1-0.1-0.2-0.2-0.3c1.9,1,3,2.8,3.6,4.8c1.5,4.9-0.6,9-5.5,11.2C166,20.3,165.2,20.3,165.4,21.2z"/>
<path class="st2" d="M307.2,129c0.2,0.6,0.7,0.5,1.1,0.5c5.3,0,10.7,0,16,0c0.4,0,0.9,0.2,1-0.5c0.5,0.3,1.1,0.7,0.9,1.4
	c-0.2,0.7-0.9,0.6-1.5,0.6c-5.2,0-10.3,0-15.5,0C308.1,130.9,307.3,130.2,307.2,129z"/>
<path class="st3" d="M22,79.7c-2.1-1.1-3.3-2.9-3.8-5.2c0.5-0.5,0.2-1.1,0.2-1.7c0.1-4.7,4.1-8.7,8.8-8.9c1.6-0.1,3.2,0.1,4.9,0.2
	c0,0,0,0,0,0c0.6,0.6,1.4,0.7,2.1,1c1,0.7,1.7,1.5,2.4,2.5c0.2,0.3,0.5,0.7,0.3,1.1c-1.2-1-2.1-2.3-3.7-3c-4-1.7-9.1-1.5-12.3,2.4
	c-2.2,2.7-2.1,7.9,0.3,10.4C21.5,78.9,21.9,79.2,22,79.7z"/>
<path class="st2" d="M126.7,129c0.5,1.3,0.4,1.4-0.9,1.4c-8.1,0-16.1,0-24.2,0c-0.5,0-1,0.1-1.3-0.5c-0.2-0.4-0.8-0.2-1.2-0.3
	c0,0,0-0.1,0-0.1c5.4,0,10.8,0,16.1,0c3.4,0,6.9,0,10.3,0C125.9,129.4,126.5,129.6,126.7,129z"/>
<path class="st2" d="M208.3,75.9c4.2-0.3,7.5-2.4,10.2-5.5c1.7-1.9,3.2-4,3.4-6.7c0.1,0,0.1,0,0.2,0c0,0.8,0.8,1.5,0.3,2.5
	c-1.9,4.5-4.9,7.9-9.4,9.8c-1.5,0.7-3.1,1.5-4.7,0.1C208.3,76,208.3,76,208.3,75.9z"/>
<path class="st3" d="M130,129.6c0.2,0,0.6,0,0.7,0.1c0.6,1.3,1.7,0.9,2.7,0.9c7.6,0,15.1,0,22.7,0c1.7,0,1.7,0,1.4-1.6
	c0.7,0.1,1.2,0.5,1.1,1.3c-0.1,0.7-0.8,1-1.4,1c-1,0-1.9,0-2.9,0c-7.3,0-14.5,0-21.8,0c-0.4,0-0.7,0-1.1,0
	C130.5,131.2,129.8,130.8,130,129.6z"/>
<path class="st2" d="M197.5,98.5c2.6-1.4,5.4-2.1,8.4-1.9c0.6,0,1,0.1,1,0.9c0,7.5,0,14.9-0.1,22.4c-0.2-0.4-0.1-0.8-0.1-1.2
	c0-6.3,0-12.7,0-19c0-1.2-0.2-1.7-1.5-1.6c-2,0.1-3.8,0.5-5.6,1.4C198.3,100.1,197.8,99.8,197.5,98.5z"/>
<path class="st3" d="M49.8,61c0-0.5-0.2-0.8-0.5-1.1c1.6,0.3,2.1,1.2,1.8,3c-0.6,3.3-2,6.2-4.1,8.8c-2,2.5-4.5,4.1-7.4,5.3
	c-1.5,0.6-2,0.2-2.1-1.4c0.2,0,0.5,0,0.7,0c0.3,1.4,1.3,0.7,1.9,0.4c5.6-2.6,9-6.9,10.1-13C50.4,62.2,50.6,61.4,49.8,61z"/>
<path class="st2" d="M194.7,43c0.4,0.8,0.1,1.2-0.8,1.2c-4.2,0-8.5,0-12.7,0c-0.5,0-0.9,0-1.1-0.6c-0.1-0.5-0.6-0.3-0.9-0.3
	c-0.1-0.1-0.1-0.1-0.2-0.2C184.3,43.1,189.5,43.1,194.7,43z"/>
<path class="st3" d="M208.3,76.1c1.6,1.4,3.2,0.5,4.7-0.1c4.5-1.9,7.5-5.3,9.4-9.8c0.4-1-0.3-1.6-0.3-2.5c1.1,0.1,1.6,0.8,1.2,1.8
	c-1.4,4.5-4.2,7.9-8.2,10.3c-1.6,0.9-3.3,1.6-5.1,1.9C208.8,77.9,208.1,77.2,208.3,76.1z"/>
<path class="st2" d="M209.7,43c0.4,0.8,0.1,1.1-0.7,1.1c-2.6,0-5.2,0-7.9,0c-0.3,0-0.7,0-0.8-0.4c-0.2-0.7-0.7-0.6-1.2-0.6
	c-0.1,0-0.1-0.1,0-0.1C202.6,43.1,206.2,43.1,209.7,43z"/>
<path class="st3" d="M130,58.1c2.2,1.1,3.8,2.6,4.5,5c0.1,0.3,0.3,0.7,0.1,1c-0.8-1.8-2-3.3-3.7-4.2C130,59.5,130.4,58.7,130,58.1z"
	/>
<path class="st3" d="M178.7,0.5c2,0.9,2.7,2.5,2.7,4.6c-0.4-1.3-1.2-2.3-2.4-3.1C178.5,1.7,178.8,1,178.7,0.5z"/>
<path class="st3" d="M161.9,100.1c0.3,0.6,0.3,1.3,0.4,1.9C161.7,101.5,161.9,100.8,161.9,100.1z"/>
<path class="st3" d="M36.9,68.9c0.6,0.3,0.7,0.9,0.7,1.5C37.1,70,36.9,69.5,36.9,68.9z"/>
<path class="st2" d="M197.4,95.7c0,0.6,0.1,1.2-0.2,1.7C197.1,96.8,197.2,96.2,197.4,95.7z"/>
<path class="st3" d="M233.7,103.2c0.3,0.6,0.5,1.2,0.5,1.9C233.6,104.6,233.6,103.9,233.7,103.2z"/>
<path class="st2" d="M197.6,92.8c0,0.4,0.2,0.9-0.2,1.3C197.3,93.6,197.4,93.2,197.6,92.8z"/>
<path class="st2" d="M201.9,120.6c-0.3,0.2-0.5,0.2-0.8,0C201.4,120.4,201.6,120.4,201.9,120.6z"/>
<path class="st2" d="M197.8,89.9c0.1,0.4,0.1,0.7-0.1,1.1C197.5,90.5,197.7,90.2,197.8,89.9z"/>
<path class="st3" d="M161.5,95.8c0.3,0.5,0.2,1.1,0.2,1.7C161.3,96.9,161.4,96.4,161.5,95.8z"/>
<path class="st3" d="M0.9,116c0.3,0.3,0.2,0.6,0.2,1C0.7,116.7,0.5,116.4,0.9,116z"/>
<path class="st2" d="M98.9,115c0.3,0.3,0.4,0.7,0.4,1.1C98.9,115.8,98.9,115.4,98.9,115z"/>
<path class="st3" d="M1.8,123.4c0.2,0.2,0.2,0.5,0.1,0.7C1.6,124,1.5,123.7,1.8,123.4z"/>
<path class="st3" d="M1.6,121.5c0.3,0.2,0.2,0.5,0.1,0.7C1.3,122.1,1.3,121.8,1.6,121.5z"/>
<path class="st3" d="M220.7,62.9c-0.4-0.1-0.7-0.2-0.9-0.5C220.1,62.5,220.6,62.4,220.7,62.9z"/>
<path class="st2" d="M206.7,120.3c-0.1,0.4-0.4,0.5-0.8,0.3C206.2,120.5,206.4,120.4,206.7,120.3z"/>
<path class="st3" d="M1.1,117.9c0.3,0.2,0.2,0.5,0.1,0.7C0.8,118.5,0.8,118.2,1.1,117.9z"/>
<path class="st3" d="M161.7,98.2c0.3,0.5,0.2,1,0.2,1.5C161.5,99.2,161.6,98.7,161.7,98.2z"/>
<path class="st2" d="M195.5,119.5c-0.4,0-0.6-0.1-0.9-0.3C194.9,119.2,195.3,119.2,195.5,119.5z"/>
<path class="st3" d="M190.9,117.4c-0.3,0-0.6-0.2-0.7-0.4C190.6,116.9,190.9,117,190.9,117.4z"/>
<path class="st2" d="M193.5,118.8c-0.3,0-0.5-0.1-0.6-0.3C193.1,118.5,193.4,118.5,193.5,118.8z"/>
<path class="st3" d="M40.5,89.8c-0.3,0-0.6-0.2-0.8-0.4C40,89.3,40.4,89.3,40.5,89.8z"/>
<path class="st3" d="M1.4,119.8c0.2,0.2,0.2,0.5,0.1,0.7C1.3,120.3,1,120.1,1.4,119.8z"/>
<path class="st2" d="M199.7,120.4c-0.2,0.2-0.4,0-0.6-0.1C199.4,120.2,199.6,120.2,199.7,120.4z"/>
<path class="st3" d="M288.9,63.2c-0.3,0-0.6-0.2-0.7-0.5C288.5,62.7,288.8,62.7,288.9,63.2z"/>
<path class="st3" d="M2.1,125.3c0.2,0.1,0.2,0.3,0.1,0.5C1.9,125.7,1.8,125.6,2.1,125.3z"/>
<path class="st2" d="M98.4,113.6c0.2,0.2,0.2,0.4,0.2,0.7C98.3,114.1,98.4,113.9,98.4,113.6z"/>
<path class="st3" d="M2.3,127.5c0.2,0.1,0.2,0.3,0.1,0.5C2.1,127.9,2,127.7,2.3,127.5z"/>
<path class="st3" d="M208.1,74.9c0,0.2,0,0.5,0,0.7C207.9,75.4,207.9,75.2,208.1,74.9z"/>
<path class="st2" d="M99.3,116.2c0.2,0.2,0.2,0.4,0.2,0.6C99.4,116.7,99.3,116.5,99.3,116.2z"/>
<path class="st3" d="M0.6,114c0.2,0.2,0.2,0.5,0.2,0.7C0.6,114.6,0.6,114.3,0.6,114z"/>
<path class="st2" d="M99.6,116.9c0.2,0.2,0.2,0.4,0.2,0.6C99.7,117.3,99.7,117.1,99.6,116.9z"/>
<path class="st3" d="M0.4,112.4c0.3,0.2,0.2,0.5,0.2,0.7C0.3,112.9,0.4,112.6,0.4,112.4z"/>
<path class="st3" d="M233.4,102c0.2,0.2,0.3,0.5,0.2,0.7C233.4,102.6,233.4,102.3,233.4,102z"/>
<path class="st2" d="M98.7,114.6c0,0.1,0.1,0.2,0.1,0.3C98.7,114.8,98.7,114.7,98.7,114.6z"/>
<path class="st2" d="M98.1,112.9c0.2,0.1,0.2,0.2,0.2,0.4C98.1,113.2,98.1,113.1,98.1,112.9z"/>
<path class="st2" d="M97.9,112.4c0.2,0.1,0.2,0.2,0.2,0.4C97.9,112.7,97.8,112.6,97.9,112.4z"/>
<path class="st2" d="M97.7,111.7c0.2,0.1,0.2,0.2,0.1,0.4C97.7,112,97.6,111.8,97.7,111.7z"/>
<path class="st2" d="M198.1,88c0,0.2,0,0.2-0.2,0.3C197.9,88.2,197.9,88,198.1,88z"/>
<path class="st3" d="M49.3,59.8c-0.2,0-0.4,0-0.5-0.2C49.1,59.5,49.2,59.6,49.3,59.8z"/>
<path class="st3" d="M46.9,58.6c-0.2,0-0.4,0-0.5-0.2C46.7,58.4,46.8,58.4,46.9,58.6z"/>
<path class="st3" d="M221.4,63.3c-0.1,0-0.2,0-0.2-0.2C221.3,63.2,221.4,63.3,221.4,63.3z"/>
<path class="st3" d="M289.1,63.3c-0.1,0-0.2,0-0.3-0.2C289,63.2,289,63.3,289.1,63.3z"/>
<path class="st3" d="M221.9,63.6c-0.2,0-0.3,0-0.3-0.2C221.7,63.5,221.8,63.6,221.9,63.6z"/>
<path class="st3" d="M47.2,58.8c-0.1,0-0.2,0-0.3-0.2C47,58.7,47.1,58.7,47.2,58.8z"/>
<path class="st3" d="M230,41.1c-0.1,0.1-0.1,0.2-0.2,0.3C229.9,41.3,230,41.2,230,41.1z"/>
<path class="st3" d="M221,63.1c-0.1,0.1-0.2,0-0.3-0.1C220.8,63,220.9,63,221,63.1z"/>
<path class="st3" d="M287.9,62.6c-0.1,0-0.2,0-0.3-0.2C287.7,62.5,287.8,62.6,287.9,62.6z"/>
<path class="st3" d="M287.2,62.2c-0.2,0-0.2,0-0.3-0.2C287,62,287.1,62.1,287.2,62.2z"/>
<path class="st3" d="M286.7,61.9c-0.1,0-0.2,0-0.3-0.2C286.5,61.8,286.6,61.8,286.7,61.9z"/>
<polygon class="st2" points="166.6,2.9 166.5,2.9 166.5,2.8 166.6,2.8 "/>
<path class="st3" d="M286.2,61.7c-0.1,0-0.2,0-0.3-0.2C286.1,61.6,286.1,61.6,286.2,61.7z"/>
<path class="st2" d="M324.9,128.6c-0.1,0-0.1-0.1-0.2-0.1C324.7,128.5,324.8,128.6,324.9,128.6z"/>
<path class="st2" d="M68.5,128.9c-0.1,0-0.1-0.1-0.2-0.1C68.4,128.8,68.4,128.8,68.5,128.9z"/>
<path class="st2" d="M325.3,128.9c-0.1-0.1-0.1-0.1-0.2-0.2C325.2,128.8,325.3,128.9,325.3,128.9z"/>
<path class="st3" d="M48.9,59.6c-0.1-0.1-0.2-0.1-0.3-0.2C48.7,59.4,48.8,59.4,48.9,59.6z"/>
<path class="st3" d="M48.2,59.2c-0.1,0.1-0.2,0-0.3-0.1C48,59.1,48.1,59.2,48.2,59.2z"/>
<path class="st3" d="M47.9,59.1c-0.1,0-0.2-0.1-0.3-0.1C47.7,58.9,47.8,59,47.9,59.1z"/>
<polygon class="st2" points="167.1,3.2 167,3.2 167,3.1 167,3.1 "/>
<path class="st2" d="M167.7,3.6c-0.1,0-0.2,0-0.2-0.1C167.5,3.5,167.6,3.5,167.7,3.6z"/>
<path class="st2" d="M97.5,111.2c0.1,0,0.1,0.1,0.1,0.2C97.5,111.3,97.5,111.3,97.5,111.2C97.4,111.3,97.5,111.2,97.5,111.2z"/>
<path class="st3" d="M166.2,21.6c-0.1,0-0.2,0-0.3-0.2C166.1,21.5,166.2,21.5,166.2,21.6z"/>
<path class="st3" d="M234.2,105.4c0.1,0.1,0.2,0.1,0.1,0.3C234.3,105.6,234.2,105.5,234.2,105.4z"/>
<path class="st3" d="M191.2,117.6c-0.1,0-0.2,0-0.3-0.2C191,117.5,191.1,117.5,191.2,117.6z"/>
<path class="st3" d="M191.7,117.9c-0.1,0-0.3,0-0.3-0.2C191.5,117.7,191.6,117.8,191.7,117.9z"/>
<path class="st3" d="M166.7,21.8c-0.1-0.1-0.2-0.1-0.3-0.2C166.5,21.7,166.6,21.8,166.7,21.8z"/>
<path class="st2" d="M197.3,98.3c0.1,0,0.1,0.1,0.1,0.1C197.3,98.4,197.2,98.4,197.3,98.3z"/>
<path class="st3" d="M41.4,90.5c-0.1,0-0.2,0-0.2-0.2C41.3,90.3,41.4,90.4,41.4,90.5z"/>
<path class="st3" d="M41.2,90.3c-0.2,0-0.3,0-0.3-0.2C41,90.2,41.1,90.2,41.2,90.3z"/>
<path class="st2" d="M194.1,119c-0.1,0-0.1-0.1-0.2-0.1C194,118.9,194,118.9,194.1,119z"/>
<path class="st3" d="M40.7,90c-0.1,0-0.2-0.1-0.3-0.2C40.5,89.9,40.6,89.9,40.7,90z"/>
<path class="st2" d="M196.2,119.7c-0.1,0.1-0.1,0-0.2-0.1C196.1,119.6,196.2,119.6,196.2,119.7L196.2,119.7z"/>
<path class="st3" d="M39.5,89.3c-0.1,0-0.2,0-0.3-0.2C39.4,89.1,39.5,89.1,39.5,89.3z"/>
<path class="st3" d="M39.2,89.1c-0.2,0-0.2-0.1-0.3-0.2C39.1,89,39.1,89,39.2,89.1z"/>
<path class="st2" d="M197.2,120c-0.1,0.1-0.2,0-0.2-0.1C197.1,119.9,197.1,119.9,197.2,120z"/>
<path class="st2" d="M206.8,119.9C206.8,119.9,206.8,119.9,206.8,119.9c0.1,0.1,0,0.1,0,0.1C206.8,120,206.7,119.9,206.8,119.9
	L206.8,119.9z"/>
<path class="st2" d="M198.1,120.1C198,120.2,198,120.2,198.1,120.1C198,120.1,198,120.1,198.1,120.1L198.1,120.1z"/>
<path class="st3" d="M181.4,38.2c0,0.1,0.1,0.1,0.1,0.2c0,0,0,0.1-0.1,0.1C181.4,38.4,181.4,38.4,181.4,38.2
	C181.3,38.3,181.4,38.2,181.4,38.2z"/>
<path class="st3" d="M22.2,79.9c-0.1,0-0.2,0-0.3-0.2C22.1,79.8,22.2,79.8,22.2,79.9z"/>
<path class="st4" d="M282.9,77.3c2.3,6.2,3,12.5,2.7,19.1c-0.3,5.3-1.2,10.5-3.5,15.3c-2.2,4.7-5.6,8.2-11,9.1
	c-4.3,0.8-8.4,0.1-12-2.5c-0.1-0.1-0.1-0.1-0.2-0.2c0,0,0,0,0,0c-0.1-0.3-0.3-0.3-0.5-0.4c0,0,0,0,0,0c0-0.1-0.1-0.2-0.2-0.2
	c0,0,0,0,0,0c0-0.3-0.2-0.4-0.5-0.4c0,0,0,0,0,0c-0.1-0.2-0.1-0.4-0.3-0.5c-3.4-4.4-4.8-9.6-5.6-15c-0.6-4.6-0.6-9.2,0-13.9
	c0.7-5,2-9.8,4.9-14.1c4.9-7.2,15.9-8.3,22.1-2.2c1.1,1,1.8,2.3,2.8,3.4c0,0,0,0,0,0c0,0.2,0,0.5,0.3,0.5c0.1,0.1,0.1,0.3,0.2,0.4
	c-0.1,0.2,0,0.3,0.2,0.4c0,0.1,0.1,0.2,0.1,0.3c-0.1,0.1,0,0.2,0.1,0.2c0,0,0,0.1,0,0.1C282.6,76.9,282.6,77.1,282.9,77.3z"/>
<path class="st2" d="M281.7,74.7c-1.1-1-1.8-2.3-2.8-3.4c-6.2-6.1-17.2-5-22.1,2.2c-2.9,4.3-4.3,9.1-4.9,14.1
	c-0.6,4.6-0.7,9.2,0,13.9c0.8,5.4,2.2,10.6,5.6,15c0.1,0.2,0.2,0.3,0.3,0.5c-2.5-2.2-3.9-5-5-8c-2.1-5.8-2.7-11.9-2.4-18
	c0.3-5.8,1.3-11.5,4.2-16.7c2.2-3.9,5.2-6.8,9.7-7.8c7.2-1.5,13.3,0.8,17.3,7.6C281.5,74.2,281.6,74.5,281.7,74.7z"/>
<path class="st2" d="M301.1,79.2c0.6,0.5,0.7,1.3,0.9,1.9c1.3,4.3,2,8.6,2,13.1c-0.1,8.2-1.7,16.1-6.6,23
	c-4.7,6.7-11.2,10.5-19.1,12.2c-3.7,0.8-7.4,1.1-11.2,1c-6.4-0.3-12.5-1.5-18-4.9c-0.3-0.2-0.7-0.2-0.8-0.7c1.4,0.2,2.6,1.2,3.9,1.7
	c5.3,2.2,10.8,2.9,16.5,2.9c5.8,0,11.3-1.1,16.5-3.6c6.8-3.3,11.6-8.5,14.6-15.3c2.4-5.5,3.4-11.3,3.3-17.2c0-4.5-0.7-9-2-13.4
	C301.1,79.7,301.1,79.5,301.1,79.2z"/>
<path class="st2" d="M248.3,124.8c-0.4,0.1-0.7-0.1-0.7-0.5C247.9,124.4,248.3,124.4,248.3,124.8z"/>
<path class="st2" d="M247.1,123.9c-0.3,0-0.7,0-0.7-0.4C246.6,123.5,247,123.5,247.1,123.9z"/>
<path class="st2" d="M247.6,124.3c-0.3,0.1-0.5-0.1-0.5-0.4C247.4,123.9,247.6,124,247.6,124.3z"/>
<path class="st2" d="M282,75.2c-0.3-0.1-0.3-0.3-0.3-0.5C281.9,74.8,282,75,282,75.2z"/>
<path class="st2" d="M282.9,77.3c-0.2-0.1-0.3-0.4-0.2-0.6C282.9,76.8,282.9,77,282.9,77.3z"/>
<path class="st2" d="M257.7,117c0.3,0,0.4,0.2,0.5,0.4C257.9,117.3,257.7,117.2,257.7,117z"/>
<path class="st2" d="M258.4,117.7c0.2,0,0.4,0.1,0.5,0.4C258.7,118,258.5,117.9,258.4,117.7z"/>
<path class="st2" d="M282.4,76.1c-0.2-0.1-0.3-0.2-0.2-0.4C282.4,75.8,282.4,75.9,282.4,76.1z"/>
<path class="st2" d="M282.6,76.6c-0.1,0-0.2-0.1-0.1-0.2C282.5,76.5,282.6,76.5,282.6,76.6z"/>
<path class="st2" d="M258.1,117.4c0.1,0,0.2,0.1,0.2,0.2C258.3,117.6,258.2,117.5,258.1,117.4z"/>
<path class="st2" d="M258.9,118.1c0.1,0.1,0.1,0.1,0.2,0.2C259,118.3,258.9,118.2,258.9,118.1z"/>
<path class="st2" d="M227.6,126.3c0.3,0.1,0.6,0.4,0.4,0.7c-0.2,0.5-0.6,0.6-1.1,0.6c-1.4,0.1-2.8,0.1-4.2,0.3
	c-4.8,0.7-9.5,1.5-14.3,2.1c-8.8,1.1-17.4,0.9-25.8-2.5c-2.7-1.1-5.2-2.5-7.6-4.3c-0.3-0.2-0.5-0.4-0.5-0.8c2.3,1.4,4.6,2.9,7.1,3.9
	c2.1,0.9,4.2,1.6,6.4,2.2c2,0.5,4,0.7,6.1,0.8c6.3,0.6,12.4-0.2,18.6-1.1c4.6-0.6,9.2-1.7,13.9-1.8
	C227.1,126.5,227.3,126.4,227.6,126.3z"/>
<path class="st2" d="M205.8,68.5c-2.1-1-4.4-1.5-6.7-1.3c-3.7,0.3-6.9,1.4-9.6,4c-5.3,5.1-8,11.5-9,18.6c-0.8,5.5-0.3,10.9,1.4,16.2
	c0.1,0.4,0.3,0.8,0.2,1.3c-1.2-2.1-1.7-4.4-2.1-6.8c-1.1-6.8-0.8-13.4,1.9-19.9c1.7-4.3,4.1-8.2,7.7-11.2c2.4-2,5.3-2.9,8.4-3.2
	c2.4-0.2,4.7,0,6.8,1.2C205.2,67.7,205.6,68,205.8,68.5z"/>
<path class="st2" d="M174.7,122.4c-0.6-0.1-1.2-0.2-1.3-1C173.9,121.6,174.3,121.9,174.7,122.4z"/>
<path class="st2" d="M173,121.1c-0.7,0-0.9-0.5-1-1C172.4,120.3,172.7,120.7,173,121.1z"/>
<path class="st2" d="M171.9,120.1c-0.2,0-0.3-0.1-0.4-0.2C171.7,119.8,171.9,119.9,171.9,120.1z"/>
<path class="st2" d="M173.2,121.3C173.1,121.4,173,121.4,173.2,121.3C173.2,121.2,173.2,121.3,173.2,121.3z"/>
<path class="st2" d="M49.4,99.4c1.5,2,2,4.3,2.3,6.7c1.7,10.3-5,19.1-13.8,22.6c-4.4,1.8-9,2-13.7,1.5c-5-0.5-10-1.4-15-2.6
	c-1.8-0.4-3.6-0.2-4.9,1.4c-0.5,0.6-0.9,0.6-1.4,0c1-2.2,3-3.2,5.7-2.5c5.2,1.3,10.5,2.3,15.8,2.8c7.9,0.7,15-1.2,20.7-7
	c4.1-4.1,6.3-9.2,6-15.1c-0.1-2.4-0.5-4.8-1.6-7.1C49.5,99.9,49.5,99.7,49.4,99.4z"/>
<path class="st2" d="M49.8,61c0.8,0.4,0.6,1.2,0.5,1.8c-1.1,6.1-4.6,10.4-10.1,13c-0.6,0.3-1.5,1-1.9-0.4c2.4-1,4.6-2.2,6.4-4.2
	c2.6-2.8,4.4-5.9,4.9-9.7C49.6,61.3,49.8,61.2,49.8,61z"/>
<path class="st2" d="M32,64.2c-1.6-0.1-3.2-0.3-4.9-0.2c-4.7,0.2-8.7,4.2-8.8,8.9c0,0.6,0.2,1.2-0.2,1.7c-1-3.4,0.1-6.8,2.6-9
	c3.2-2.8,6.9-3.1,10.8-1.9C31.8,63.7,32.1,63.8,32,64.2z"/>
<path class="st2" d="M34.2,65.1c-0.8-0.2-1.6-0.3-2.1-1C33,64.1,33.6,64.4,34.2,65.1z"/>
<path class="st4" d="M85,77.6c1.7,4.7,3.5,9.4,5.2,14.2c0.9,2.4,1.8,4.8,2.7,7.2c-0.1,0.5-0.5,0.5-0.8,0.5c-5,0-10.1,0-15.1,0
	c-0.7,0-0.8-0.2-0.6-0.8c0.7-1.7,1.3-3.4,1.9-5.2c1.9-5,3.8-10,5.6-15C84.2,77.9,84.2,77.3,85,77.6z"/>
<path class="st2" d="M85,77.6c-0.8-0.3-0.8,0.3-1,0.8c-1.9,5-3.8,10-5.6,15c-0.6,1.7-1.3,3.5-1.9,5.2c-0.3,0.7-0.1,0.8,0.6,0.8
	c5,0,10.1,0,15.1,0c0.4,0,0.7,0,0.8-0.5c0.2,1-0.5,0.7-0.9,0.7c-3.9,0-7.8,0-11.7,0c-1.4,0-2.9,0-4.3,0c-0.9,0-1.3-0.2-0.9-1.3
	c2.9-7.7,5.8-15.4,8.7-23.1c0-0.1,0.1-0.1,0.3-0.2C84.3,75.9,84.7,76.8,85,77.6z"/>
<path class="st4" d="M144.7,31c0-1.9,0-3.8,0-5.7c0-0.8,0.3-1.4,1.3-1.4c3.2,0.1,6.4-0.2,9.6,0.3c1.5,0.2,3,0.6,4.2,1.5
	c1.9,1.4,2.1,3.5,1.7,5.6c-0.4,3-2.4,4.8-5.2,5.6c-3.6,1.1-7.3,0.8-10.9,0.8c-0.7,0-0.7-0.4-0.7-0.9C144.7,34.9,144.7,32.9,144.7,31
	z"/>
<path class="st4" d="M160.2,8.9c1.4,3.4,0.1,6.3-3.2,7.7c-2,0.8-4.1,1.1-6.2,1.2c-1.8,0.1-3.7,0-5.5,0c-0.2-3.4,0-6.8-0.1-10.3
	c0-0.9,0.6-1,1.3-1c1.6,0,3.3,0,4.9,0C154.6,6.6,157.6,6.8,160.2,8.9z"/>
<path class="st2" d="M160.2,8.9c-2.6-2.1-5.7-2.3-8.8-2.4c-1.6,0-3.3,0-4.9,0c-0.7,0-1.3,0.1-1.3,1c0,3.4-0.1,6.9,0.1,10.3
	c-1,0.2-1.2-0.1-1.2-1.1c0.1-3.5,0-7.1,0-10.7c0-0.4-0.2-0.7,0.4-0.7c3.8,0.1,7.7-0.4,11.4,0.5C157.8,6.3,159.5,6.9,160.2,8.9z"/>
<path class="st2" d="M171.2,26.7c0.2,0.1,0.3,0.3,0.2,0.5C171.3,27.1,171.2,26.9,171.2,26.7z"/>
<path class="st2" d="M171.5,27.2c0.2,0.1,0.3,0.3,0.2,0.5C171.5,27.6,171.5,27.4,171.5,27.2z"/>
<path class="st2" d="M171.1,26.4c0.1,0.1,0.1,0.2,0.2,0.3C171.2,26.6,171.1,26.5,171.1,26.4z"/>
<path class="st4" d="M220.1,12.9c1.4,3.8,2.8,7.6,4.2,11.3c0.4,0.9,0.1,1.1-0.8,1.1c-2.8,0-5.6,0-8.4,0c0-0.3,0-0.6,0.1-0.8
	c1.3-3.6,2.7-7.3,4-10.9C219.4,13.1,219.5,12.7,220.1,12.9z"/>
<path class="st2" d="M226.9,31.5c-4.5,0-9,0-13.5,0c-0.8,0-1.3,0.4-1.5,1.1c-0.9,2.6-1.9,5.2-2.8,7.9c-0.2,0.5-0.1,1.1-0.2,1.6
	c-0.9-0.8-1-1.7-0.6-2.8c1-2.7,2-5.4,2.9-8.1c0.2-0.6,0.4-0.8,1.1-0.8c4.5,0,9,0,13.6,0C226.7,30.3,227.1,30.6,226.9,31.5z"/>
<path class="st2" d="M220.1,12.9c-0.6-0.2-0.7,0.3-0.8,0.6c-1.4,3.6-2.7,7.3-4,10.9c-0.1,0.2,0,0.6-0.1,0.8c-0.4,0-0.7,0-1.1,0
	c-0.4,0-0.6-0.2-0.4-0.6c1.8-4.6,3.5-9.2,5.3-13.8c0-0.1,0.1-0.1,0.3-0.2C219.5,11.4,220,12,220.1,12.9z"/>
<path class="st2" d="M194,0.8c0.9,0.3,1.2,0.7,0.3,1.4c-1.2,1-1.7,2.5-1.7,4.1c0,10.8,0,21.6,0,32.4c0,0.8,0.4,1.6,0.2,2.4
	c-0.7-0.8-0.9-1.9-0.9-2.9c0-11.1,0-22.2,0-33.3C191.9,3.2,192.6,1.8,194,0.8z"/>
<path class="st2" d="M192.9,41.1c0.1,0.1,0.1,0.1,0.2,0.2C193,41.3,192.9,41.2,192.9,41.1z"/>
<path class="st4" d="M393.2,119.1c0.1,0.3,0.1,0.6,0.2,0.8c-0.1,0.1-0.1,0.2,0,0.3c0.1,2.2-0.4,4.2-2.1,5.8c-0.3-1-0.4-2.1-0.9-3
	c-0.4-0.7-0.3-1.2,0.2-1.8c1.1-1.5,0.4-3.8-1.3-4.1c-1.4-1.2-3-1.2-4.7-1.1c-0.3-0.5,0.1-0.5,0.3-0.5c1.8-0.5,3.6-0.5,5.3,0.5
	c0.3,0.2,0.6,0.5,1.1,0.3l0,0c0,0.8,0.6,1.2,1.1,1.5c0,0,0,0,0,0C392.6,118.4,392.6,118.9,393.2,119.1z"/>
<path class="st2" d="M380.9,125.6c-3.3-4.2-1.3-10.5,3.7-11.9c2.6-0.7,5.9,0.4,7.2,2.6c-0.1,0-0.3,0-0.4,0.1c0,0,0,0,0,0
	c-1.7-1.7-3.8-2-6-1.5c-0.8,0.2-1.7,0.3-2.1,1.3l0,0c-0.5-0.2-0.8,0.1-1,0.4c-1.2,1.3-1.9,2.8-2.1,4.7
	C380.1,122.8,380.7,124.2,380.9,125.6z"/>
<path class="st3" d="M380.9,125.6c-0.3-1.4-0.9-2.8-0.7-4.3c0.2-1.8,0.9-3.3,2.1-4.7c0.3-0.3,0.5-0.6,1-0.4c0,0.3-0.1,0.6-0.1,0.9
	c-0.4,0-0.7,0.1-0.9,0.4c-2,2.3-1.9,6.4,0.1,8.6c0.2,0.2,0.3,0.7,0.7,0.5c0.4-0.1,0.1-0.6,0.2-0.9c0.2,0.1,0.4,0.1,0.6,0.2
	c0.1,0.5,0.3,0.9,0.9,0.8c0.5-0.1,0.7-0.5,0.8-0.9c0.1-0.5,0.1-1.1,0-1.7c-0.1-0.9,0.3-1.3,1.3-1.3c0.3,0,0.6,0,1,0.1
	c-0.1,0.4,0.4,0.6,0.2,1c-0.3-0.1-0.5-0.3-0.8-0.4c-0.6-0.2-1.1,0-1.1,0.6c0.1,1.5,0,2.9-1.5,3.8C383,127.7,381.9,126.8,380.9,125.6
	z"/>
<path class="st4" d="M384.6,128c1.4-0.9,1.6-2.3,1.5-3.8c-0.1-0.7,0.5-0.8,1.1-0.6c0.3,0.1,0.6,0.3,0.8,0.4c0,0.1,0.1,0.2,0.1,0.4
	c-0.1,0.2-0.1,0.4,0.1,0.6c0,0.1,0.1,0.3,0.1,0.4c-0.1,0.2,0,0.3,0.1,0.3c0,0,0.1,0.1,0.1,0.1c-0.3,0.9,0.4,1.3,0.8,1.9
	C387.8,128.3,386.2,128.5,384.6,128z"/>
<path class="st3" d="M389.4,117.2c1.6,0.3,2.4,2.6,1.3,4.1c-0.5,0.6-0.5,1.1-0.2,1.8c0.5,0.9,0.6,2,0.9,3c-0.1,0.4-0.5,0.6-0.8,0.8
	c-0.1-1.5,0.1-3-1.2-4.1c0,0,0-0.1,0-0.1c0-0.6,0.3-1,0.6-1.5c1-1.2,0.8-2.2-0.3-3.3C389.6,117.7,389.5,117.4,389.4,117.2z"/>
<path class="st2" d="M389.4,122.8c1.3,1.1,1.1,2.7,1.2,4.1c0,0.1-0.1,0.1-0.1,0.1c-0.6-0.3-1.4-0.4-1.7-1.2c0.9,0.1,1.3-0.1,0.9-1.1
	C389.5,124.1,389.5,123.4,389.4,122.8z"/>
<path class="st3" d="M388.8,125.8c0.3,0.8,1.1,0.9,1.7,1.2c-0.4,0.2-0.7,0.6-1.1,0.6c-0.3-0.6-1.1-1-0.8-1.9
	C388.6,125.8,388.7,125.8,388.8,125.8z"/>
<path class="st3" d="M391.4,116.4c0.1,0,0.3,0,0.4-0.1c0.5,0.4,0.8,0.9,0.7,1.6C392,117.5,391.4,117.2,391.4,116.4z"/>
<path class="st3" d="M393.2,119.1c-0.6-0.2-0.6-0.7-0.6-1.2C393.1,118.1,393.2,118.6,393.2,119.1z"/>
<path class="st3" d="M393.4,120.3c-0.1-0.1-0.1-0.2,0-0.3C393.4,120.1,393.4,120.2,393.4,120.3z"/>
<path class="st1" d="M388.8,125.8c-0.1,0-0.2-0.1-0.2-0.1c0-0.1,0-0.1-0.1-0.1c0-0.1-0.1-0.2-0.1-0.3c0-0.1-0.1-0.3-0.1-0.4
	c0.1-0.2,0-0.4-0.1-0.6c0-0.1-0.1-0.2-0.1-0.4c0.1-0.4-0.3-0.6-0.2-1c-0.5-1.2-1.1-1.5-2.6-1.2c-1,0.2-0.4,1-0.5,1.6
	c-0.1,0.5-0.1,1.1,0,1.7c0,0.6-0.2,0.9-0.8,1c-0.2-0.1-0.4-0.1-0.6-0.2c0-2.9,0-5.7,0-8.6c0-0.3,0.1-0.6,0.1-0.9c0,0,0,0,0,0
	c0.5,0,0.9,0.1,1.4-0.2c1.7-0.1,3.3-0.1,4.7,1.1c0.1,0.2,0.2,0.5,0.3,0.7c0.2,1.4-0.3,2.5-2.1,3.2c1.2,0.2,1.4,1,1.8,1.5
	c0,0,0,0.1,0,0.1c0.1,0.7,0.1,1.3,0.3,2C390.1,125.8,389.7,126,388.8,125.8z M388.2,118.7c0.2-0.9-0.5-1.1-1.1-1.3
	c-0.8-0.3-1.6-0.3-2.3-0.1c-0.4,0.1-0.3,3.2,0.1,3.4c0.2,0.1,0.5,0.1,0.7-0.1C387.6,120.6,388.2,120.2,388.2,118.7z"/>
<path class="st3" d="M384.7,116.1c-0.4,0.3-0.9,0.2-1.4,0.2c0.3-1,1.3-1.1,2.1-1.3c2.2-0.5,4.3-0.3,6,1.5c-0.4,0.2-0.7-0.1-1.1-0.3
	c-1.7-1-3.5-1-5.3-0.5C384.8,115.6,384.4,115.6,384.7,116.1z"/>
<path class="st4" d="M383.2,117.1c0,2.9,0,5.7,0,8.6c-0.1,0.3,0.2,0.7-0.2,0.9c-0.4,0.2-0.5-0.3-0.7-0.5c-2-2.2-2.1-6.3-0.1-8.6
	C382.5,117.2,382.8,117.1,383.2,117.1z"/>
<path class="st2" d="M383.9,125.9c0.6-0.1,0.8-0.4,0.8-1c0-0.6-0.1-1.1,0-1.7c0.1-0.5-0.5-1.4,0.5-1.6c1.5-0.3,2.1,0,2.6,1.2
	c-0.3,0-0.6,0-1-0.1c-0.9-0.1-1.3,0.3-1.3,1.3c0,0.6,0,1.1,0,1.7c-0.1,0.4-0.2,0.9-0.8,0.9C384.1,126.8,384,126.4,383.9,125.9z"/>
<path class="st3" d="M388.1,124.3c0.1,0.2,0.2,0.4,0.1,0.6C388,124.7,388,124.5,388.1,124.3z"/>
<path class="st3" d="M388.3,125.2c0,0.1,0.1,0.2,0.1,0.3C388.3,125.5,388.3,125.4,388.3,125.2z"/>
<path class="st2" d="M389.4,122.7c-0.4-0.5-0.6-1.3-1.8-1.5c1.8-0.7,2.3-1.8,2.1-3.2c1.1,1,1.2,2.1,0.3,3.3
	C389.6,121.7,389.4,122.1,389.4,122.7z"/>
<path class="st2" d="M385.6,120.6c-0.2,0.2-0.4,0.2-0.7,0.1c-0.4-0.2-0.5-3.2-0.1-3.4c0.8-0.3,1.6-0.3,2.3,0.1
	c0.6,0.2,1.2,0.5,1.1,1.3c-0.2-0.1-0.4-0.2-0.7-0.2c-1.4-0.3-1.9,0.1-1.9,1.5C385.6,120.2,385.6,120.4,385.6,120.6z"/>
<path class="st4" d="M385.6,120.6c0-0.2,0-0.4,0-0.6c0-1.5,0.5-1.8,1.9-1.5c0.2,0.1,0.4,0.1,0.7,0.2
	C388.2,120.2,387.6,120.6,385.6,120.6z"/>
</svg>
