<?xml version="1.0" encoding="iso-8859-1"?>
<!-- Generator: Adobe Illustrator 21.0.0, SVG Export Plug-In . SVG Version: 6.00 Build 0)  -->
<svg version="1.1" xmlns="http://www.w3.org/2000/svg" xmlns:xlink="http://www.w3.org/1999/xlink" x="0px" y="0px"
	 viewBox="0 0 159.252 159.252" style="enable-background:new 0 0 159.252 159.252;" xml:space="preserve">
<g id="marico">
	<g>
		<circle style="fill:#FFFFFF;" cx="79.626" cy="79.626" r="79.626"/>
		<g>
			<g>
				<path style="fill:#B2B2B2;" d="M50.913,47.341c1.023,0.409,6.343,5.32,7.776,6.548c0.819,0.819,6.957,6.548,7.162,7.367
					c0.409,0.409,3.274,3.274,3.683,3.888l2.251,2.865c1.637,2.046,2.251,3.069,3.888,5.116c0.205,0.205,0.409,0.614,0.409,0.818
					c0,0.205-0.409,1.637-0.409,2.046c-0.409,1.228-0.614,2.865-0.819,4.297c0,0.819-0.205,1.432-0.409,2.251
					c-0.205,1.432-0.614,5.73-0.614,7.162c0.205-0.205,0.205-0.614,0.409-1.023c1.023-2.66,2.865-6.139,4.297-8.594
					c1.637-2.66,2.251-3.683,3.888-6.139c1.228-1.637,2.455-3.274,3.683-4.911c0.205-0.205,0.409-0.614,0.614-0.818l3.888-4.706
					c0.409-0.409,1.023-1.432,1.432-1.432c0.205-0.409,0.614-0.614,0.819-1.023c0.205-0.409,0.614-0.614,0.819-1.023
					c1.023-1.228,5.525-5.73,6.343-6.548c1.023-1.023,6.139-5.73,6.957-5.934c0.205-0.205,0.409-0.205,0.614-0.409l1.637-1.432
					c2.046-1.842,5.934-4.502,8.185-6.139c0.409-0.409,0.819-0.614,1.228-0.819c0.409-0.205,0.819-0.614,1.228-0.818l6.139-3.888
					c0.205-0.205,0,0,0.205-0.205c-0.614,0-0.819-0.205-1.228,0c-2.251,0.205-3.888,0.205-6.548,0.614
					c-0.819,0.205-1.637,0.205-2.455,0.409c-1.023,0.205-2.251,0.409-3.274,0.819c-0.409,0.205-0.819,0.205-1.228,0.409
					c-1.432,0.409-2.865,0.819-4.297,1.432c-3.683,1.432-7.776,3.479-11.05,5.934c-0.205,0.205-0.409,0.409-0.819,0.614
					c-0.819,0.614-1.637,1.228-2.455,1.842c-1.023,0.818-2.66,2.456-3.683,3.274l-2.046,2.251c-2.455,3.069-3.683,4.706-5.73,8.39
					c-0.409,0.614-0.614,1.228-1.023,1.842c-0.205,0.614-0.614,1.228-1.023,1.842c-1.432,3.479-1.842,4.297-3.069,8.185
					l-0.614,2.046l0,0c0-0.819-0.409-2.66-0.614-3.479c-0.205-1.023-0.614-2.251-0.819-3.274c-1.637-4.706-3.069-8.594-6.139-12.687
					c-0.614-1.023-1.432-2.046-2.251-2.865l-1.432-1.637c-1.023-1.023-2.251-2.046-3.479-2.865
					c-3.274-2.456-7.367-4.297-11.664-5.116c-2.046-0.409-3.479-0.614-5.525-0.614c-0.819,0-1.228,0-2.046,0
					c0,0.409,1.842,1.432,2.046,1.842c0.819,0.614,1.432,1.023,2.251,1.637L50.913,47.341L50.913,47.341z"/>
				<path style="fill:#484848;" d="M65.851,61.255c-0.205-0.614-6.343-6.548-7.162-7.367c-1.432-1.228-6.957-6.139-7.776-6.548
					v41.13c0,1.023-0.205,1.228,0.614,1.228c4.707,0,9.617,0,14.324,0V61.255L65.851,61.255z"/>
				<path style="fill:#484848;" d="M92.043,61.869v26.806c0,0.409-0.205,1.023,0.205,1.023h14.733V47.341
					c-0.819,0.409-5.934,5.116-6.957,5.934c-0.819,0.819-5.32,5.32-6.343,6.548c-0.205,0.409-0.614,0.614-0.819,1.023
					C92.657,61.051,92.248,61.255,92.043,61.869L92.043,61.869z"/>
				<path style="fill:#484848;" d="M27.995,110.571v-3.479h-1.637v17.803h1.637v-8.185c0-2.456,0.205-4.502,1.432-6.139l0.614-0.819
					c0.205-0.205,0.205-0.205,0.409-0.409c1.842-1.432,4.707-1.637,6.139,0c0.819,1.023,1.228,3.069,1.228,4.911v10.641h1.637
					v-9.618c0-2.046,0.409-3.479,1.432-4.502c0.819-1.228,1.842-2.251,3.683-2.456c4.707-0.409,4.502,3.888,4.502,7.162v9.413h1.637
					v-10.436c0-4.093-0.819-7.776-5.525-7.776c-2.046,0-3.479,1.023-4.707,2.251c-0.409,0.409-1.023,1.432-1.228,2.046h-0.205
					c0-0.409-0.409-1.432-0.614-1.637c-0.205-0.614-0.614-1.023-1.023-1.432c-1.637-1.637-5.525-1.637-7.367,0
					C28.609,109.138,28.404,110.161,27.995,110.571L27.995,110.571z"/>
				<path style="fill:#484848;" d="M62.168,123.871c-2.865,0-4.297-1.432-4.297-4.093c0-2.66,1.842-3.479,3.888-4.093
					c0.614-0.205,1.842-0.205,2.66-0.409c0.409,0,0.409-0.205,0.819-0.205c0.614-0.205,1.023-0.205,1.637-0.409
					c0.409-0.205,1.023-0.614,1.432-0.614c0,1.637,0.205,5.32-0.409,6.548c-0.205,0.205-0.205,0.409-0.409,0.614
					c-0.409,0.614-1.432,1.637-2.046,1.842C64.828,123.462,63.191,123.871,62.168,123.871L62.168,123.871z M56.848,110.775
					c0.409,0,0.819,0.614,1.228,0.818c0.205-0.818,1.432-2.046,2.046-2.456c1.842-1.228,4.502-1.432,6.548-0.409
					c0.819,0.409,1.432,1.023,1.637,2.046c0.409,1.432,0.205,1.637-1.228,2.046c-1.432,0.614-1.023,0.409-2.66,0.818
					c-1.023,0.205-1.842,0.409-2.865,0.819c-1.842,0.409-1.023,0.205-2.66,1.023c-0.614,0.409-0.614,0.205-1.023,0.818
					c-0.614,0.818-1.023,1.023-1.228,2.251c-0.409,1.432-0.409,2.251,0.205,3.683c0.614,2.046,2.865,3.274,4.707,3.274
					c3.069,0,3.479-0.409,5.525-1.842c0.409-0.409,0.819-0.819,1.228-1.023c0.205,1.432,0.819,2.865,2.455,2.865
					c1.432,0,1.228,0,1.228-1.228c0-0.614-1.637,0.205-1.842-1.432c-0.409-2.66,0.205-10.231-0.409-12.482
					c-0.205-0.409-0.205-0.818-0.409-1.228c-1.637-3.479-7.776-3.274-10.027-1.432C58.484,108.524,57.052,109.957,56.848,110.775
					L56.848,110.775z"/>
				<path style="fill:#484848;" d="M119.055,116.505c0-2.456,0.205-4.093,1.637-6.139c2.046-2.865,6.548-2.865,8.39-0.614
					c2.046,2.456,2.046,4.093,2.046,7.367c0,1.637-0.819,3.888-1.637,4.706c-0.409,0.409-0.819,1.023-1.637,1.432
					c-1.432,0.818-3.888,0.818-5.32,0c-1.228-0.614-2.455-2.456-3.069-3.888C119.259,118.756,119.055,117.528,119.055,116.505
					L119.055,116.505z M117.213,115.277c0,1.637,0,2.865,0.614,4.502c0.614,1.842,1.842,3.683,3.479,4.502
					c1.842,0.818,2.455,0.818,4.502,0.818c1.023,0,2.455-0.614,3.069-1.023c0.205-0.205,0.409-0.205,0.614-0.409
					s0.409-0.205,0.614-0.409c0.819-0.819,2.046-2.865,2.251-3.888c1.023-3.479,0.614-7.162-1.432-10.027
					c-0.205-0.205-0.205-0.409-0.409-0.614c-0.409-0.614-1.023-1.023-1.637-1.432c-2.66-1.637-6.957-1.228-9.413,1.842
					C118.236,110.571,117.213,112.821,117.213,115.277L117.213,115.277z"/>
				<path style="fill:#484848;" d="M98.182,115.891c0,2.251,0.614,4.706,1.432,5.934c0.819,1.228,1.432,2.046,2.66,2.865
					c0.819,0.409,2.046,0.818,2.865,0.818c2.251,0,3.479,0,5.525-1.637c1.023-0.819,0.819-1.023,1.637-2.046
					c0.205-0.205,0.614-1.023,0.614-1.432c-0.819-0.205-1.023-0.614-1.637-0.614c-0.205,1.228-2.046,3.274-3.274,3.683
					c-1.432,0.409-3.479,0.409-4.911-0.205c-0.409-0.205-1.023-0.819-1.432-1.228c-0.614-0.818-1.023-1.432-1.432-2.865
					c-0.614-2.66-0.614-6.753,1.432-9.004c0.409-0.614,0.614-0.818,1.432-1.228c1.637-1.023,3.888-1.023,5.525,0
					c0.409,0.205,0.409,0.409,0.819,0.614c1.023,0.819,1.432,1.842,2.046,2.865l1.432-0.819c-0.409-1.432-1.842-3.274-3.274-4.093
					c-1.842-1.228-5.32-1.228-7.367,0c-0.409,0.409-0.819,0.614-1.228,0.818l-1.023,1.023
					C98.796,111.184,98.182,113.435,98.182,115.891L98.182,115.891z"/>
				<path style="fill:#484848;" d="M78.947,111.594v-4.502H77.31v17.803h1.637v-6.343c0-3.069,0.409-6.548,2.66-8.799
					c1.432-1.432,2.865-1.228,4.502-0.818v-1.842c-1.637-0.818-3.888,0-5.116,1.637c-0.409,0.614-0.614,1.023-1.023,1.637
					l-0.614,1.228C79.357,111.594,79.357,111.389,78.947,111.594L78.947,111.594z"/>
				<polygon style="fill:#484848;" points="90.611,124.69 92.453,124.69 92.453,107.092 90.611,107.092 				"/>
			</g>
		</g>
	</g>
</g>
<g id="Layer_1">
</g>
</svg>
