<?xml version="1.0" encoding="iso-8859-1"?>
<!-- Generator: Adobe Illustrator 21.0.0, SVG Export Plug-In . SVG Version: 6.00 Build 0)  -->
<svg version="1.1" xmlns="http://www.w3.org/2000/svg" xmlns:xlink="http://www.w3.org/1999/xlink" x="0px" y="0px"
	 viewBox="0 0 159.252 159.252" style="enable-background:new 0 0 159.252 159.252;" xml:space="preserve">
<g id="orion">
	<g>
		<circle style="fill:#FFFFFF;" cx="79.626" cy="79.626" r="79.626"/>
		<g>
			<polygon points="140.498,71.239 140.498,69.775 140.964,69.775 141.23,70.707 141.496,69.775 141.895,69.775 141.895,71.239 
				141.629,71.239 141.629,70.108 141.363,71.239 141.097,71.239 140.764,70.108 140.764,71.239 			"/>
			<polygon points="139.566,71.239 139.566,70.041 139.166,70.041 139.166,69.775 140.298,69.775 140.298,70.041 139.899,70.041 
				139.899,71.239 			"/>
			<path d="M123.657,69.775l11.648,12.847V69.775h2.13v19.037h-2.13l-13.712-14.91v14.91h-2.13V69.775
				C120.862,69.775,122.26,69.775,123.657,69.775L123.657,69.775z"/>
			<path d="M77.929,69.775c2.529,0,5.791,2.063,5.857,5.125c0.067,2.995-2.13,4.659-5.392,5.125l5.857,8.786h-4.659l-6.457-9.984
				H75.4c2.662,0,4.26-1.797,4.193-3.861c0-2.396-1.597-3.994-4.859-3.994h-2.662v17.839h-4.526V69.775
				C71.006,69.775,74.468,69.775,77.929,69.775L77.929,69.775z"/>
			<polygon points="87.314,69.775 91.84,69.775 91.84,88.812 87.314,88.812 			"/>
			<path d="M105.685,69.509c6.19,0,11.249,4.46,11.249,9.984c0,5.458-5.059,9.918-11.249,9.918c-6.19,0-11.249-4.526-11.249-9.918
				C94.37,73.968,99.429,69.509,105.685,69.509L105.685,69.509z"/>
			<path d="M53.301,69.509c6.19,0,11.249,4.46,11.249,9.984c0,5.458-5.059,9.918-11.249,9.918s-11.316-4.526-11.316-9.918
				C41.985,73.968,47.11,69.509,53.301,69.509L53.301,69.509z"/>
			<path d="M35.928,86.882h-4.127c-0.466,0-0.865,0.333-0.865,0.666c0,0.399,0.532,0.599,0.865,0.599h2.729
				c-1.797,1.331-4.06,2.13-6.457,2.13c-5.924,0-10.717-4.792-10.717-10.65s4.792-10.65,10.717-10.65c2.263,0,4.46,0.732,6.19,1.93
				h-7.255c-0.466,0-0.865,0.333-0.865,0.666c0,0.399,0.533,0.599,0.865,0.599h8.786c0.532,0.599,1.065,1.265,1.531,1.93h-8.587
				c-0.466,0-0.799,0.266-0.799,0.599c0,0.466,0.532,0.666,0.799,0.666h9.252c0.266,0.599,0.466,1.265,0.666,1.93h-8.653
				c-0.466,0-0.865,0.266-0.865,0.599c0,0.399,0.532,0.666,0.865,0.666h8.786c0.067,0.333,0.067,0.666,0.067,1.065
				c0,0.266,0,0.532-0.067,0.799h-7.921c-0.466,0-0.865,0.333-0.865,0.666c0,0.399,0.532,0.599,0.865,0.599h7.721
				c-0.133,0.666-0.333,1.331-0.599,1.93h-6.457c-0.466,0-0.865,0.333-0.865,0.599c0,0.466,0.532,0.666,0.865,0.666h5.857
				C36.993,85.617,36.527,86.282,35.928,86.882L35.928,86.882z"/>
			<path style="fill:#FFFFFF;" d="M53.434,70.707c4.792,0,6.523,3.927,6.523,8.72c0,4.726-1.731,8.653-6.523,8.653
				s-6.59-3.861-6.59-8.653C46.844,74.634,48.641,70.707,53.434,70.707L53.434,70.707z"/>
			<path style="fill:#FFFFFF;" d="M105.752,70.707c4.792,0,6.59,3.927,6.59,8.72c0,4.726-1.797,8.653-6.59,8.653
				c-4.793,0-6.59-3.861-6.59-8.653C99.162,74.634,100.96,70.707,105.752,70.707L105.752,70.707z"/>
		</g>
	</g>
</g>
<g id="Layer_1">
</g>
</svg>
