<?xml version="1.0" encoding="iso-8859-1"?>
<!-- Generator: Adobe Illustrator 21.0.0, SVG Export Plug-In . SVG Version: 6.00 Build 0)  -->
<svg version="1.1" xmlns="http://www.w3.org/2000/svg" xmlns:xlink="http://www.w3.org/1999/xlink" x="0px" y="0px"
	 viewBox="0 0 159.252 159.252" style="enable-background:new 0 0 159.252 159.252;" xml:space="preserve">
<g id="rebisco">
	<g>
		<circle style="fill:#FFFFFF;" cx="79.626" cy="79.626" r="79.626"/>
		<g>
			<g id="XMLID_1_">
				<ellipse id="XMLID_18_" style="fill:#FFFFFF;" cx="79.626" cy="79.626" rx="60.065" ry="36.5"/>
				<g id="XMLID_3_">
					<g id="XMLID_5_">
						
							<radialGradient id="XMLID_6_" cx="-670.7386" cy="533.2681" r="102.0163" gradientTransform="matrix(1 0 0 1 714.8 -483.9695)" gradientUnits="userSpaceOnUse">
							<stop  offset="0.065" style="stop-color:#FFFFFF"/>
							<stop  offset="0.1046" style="stop-color:#E2E2E2"/>
							<stop  offset="0.1599" style="stop-color:#BFBFBF"/>
							<stop  offset="0.2168" style="stop-color:#A1A1A1"/>
							<stop  offset="0.2741" style="stop-color:#888888"/>
							<stop  offset="0.332" style="stop-color:#747474"/>
							<stop  offset="0.3908" style="stop-color:#666666"/>
							<stop  offset="0.4511" style="stop-color:#5E5E5E"/>
							<stop  offset="0.515" style="stop-color:#5C5C5C"/>
							<stop  offset="0.6591" style="stop-color:#575757"/>
							<stop  offset="0.8595" style="stop-color:#535353"/>
							<stop  offset="1" style="stop-color:#515151"/>
						</radialGradient>
						<path id="XMLID_17_" style="fill:url(#XMLID_6_);" d="M79.626,46.456c-30.225,0-54.814,14.856-54.814,33.298
							c0,18.314,24.461,33.298,54.814,33.298c30.225,0,54.814-14.856,54.814-33.298C134.312,61.312,109.851,46.456,79.626,46.456z
							 M88.591,83.853c0.128-0.512,0.64-2.049,0.64-2.049c1.281,0.64,3.074,1.281,4.354,1.153c1.281-0.128,1.665-0.64,1.665-1.153
							c0-0.512-0.256-1.281-3.714-2.946c-3.458-1.665-3.074-3.97-2.946-4.995c0.128-1.025,1.793-4.098,5.635-3.97
							c2.946,0,4.482,1.025,4.482,1.025s0.256,1.281-0.64,3.202c-4.098-1.665-5.379-0.128-5.123,0.384s0.64,1.153,3.074,2.305
							c2.433,1.153,4.226,2.946,3.33,6.019c-0.897,2.689-3.97,3.586-6.147,3.586c0,0-1.537-0.128-2.946-0.512
							c-1.025-0.256-1.793-0.512-2.049-0.512C88.335,84.749,88.463,84.237,88.591,83.853z M85.005,64.002
							c0,0,2.433-0.128,2.433,2.561c0.256,1.793-1.793,2.177-2.689,2.177c-0.768,0-2.049-0.512-2.049-2.561
							C82.828,64.13,85.005,64.002,85.005,64.002z M82.956,70.405c0,0,2.433-0.512,4.354,0c0,2.049,0,15.496,0,15.496h-3.586
							c0,0-0.768,0-0.897-0.256c-0.128-0.256,0-11.911,0-11.911S82.7,71.43,82.956,70.405z M66.307,63.233l4.482,0.128
							c0,0,0,5.891,0,7.94c1.025-0.768,3.33-1.537,5.507-1.281c1.665,0.256,3.97,1.025,5.123,4.098
							c0.256,0.64,0.384,1.281,0.512,2.049c0.256,0.64,0,2.433,0,2.818c-0.128,0.512-0.256,1.025-0.384,1.537
							c-1.793,5.763-6.66,5.763-6.66,5.763c-1.793,0.128-3.714-1.025-4.098-1.409c-0.384-0.384-0.64-0.384-0.64-0.384v1.153h-3.842
							c0,0,0.256-3.714,0.256-7.684C66.563,73.863,66.307,63.233,66.307,63.233z M62.593,70.917c4.098,3.33,2.818,8.581,2.818,8.581
							c-0.384-0.512-10.118,0-10.118,0c0.897,5.251,8.709,2.561,8.709,2.561l0.64,3.074c0,0-2.946,1.281-6.532,1.281
							c-5.763-0.768-7.812-4.995-7.172-10.246C51.835,70.789,58.495,67.588,62.593,70.917z M45.303,79.498
							c-0.64-2.689-4.354-2.177-4.354-2.177c-0.897,1.409-0.128,6.404-0.384,8.709c-0.64-0.384-2.946-0.128-3.97,0
							c-0.256-1.793-0.256-3.458-0.256-3.458s0-12.295-0.384-17.418c0,0,1.665-0.64,4.611-0.897
							c8.325-0.256,10.374,3.202,10.374,5.891c0,2.818-1.281,4.611-3.202,5.379c2.305,2.177,3.714,10.118,3.714,10.118h-4.482
							C46.84,85.646,45.944,82.06,45.303,79.498z M88.207,102.167c-2.433,0.384-10.502,1.153-16.521,0.128
							c-2.946-0.384-6.404-1.153-10.118-2.433c-6.404-2.305-12.039-6.916-10.374-8.581c0,0,0.768-1.665,3.202,0
							c1.793,1.537,3.586,3.33,8.837,5.763c2.049,1.025,4.995,2.049,8.965,2.818c2.946,0.64,5.123,0.768,7.684,0.897
							c12.423,0.768,24.077-5.123,26.895-8.196C102.551,98.581,93.97,101.142,88.207,102.167z M107.546,86.414
							c-2.561-0.128-6.788-1.537-7.684-6.147c-0.897-4.611,2.433-8.196,4.482-9.349c2.049-1.153,3.714-1.409,5.635-1.025
							c1.025,0.256,1.921,0.64,2.177,0.768c0.256,0.128,0.512,0.128,0.512,0.128l-0.768,2.946c0,0-0.128,0.256-1.537,0
							c-1.537-0.256-5.635-1.153-5.891,3.97c0.256,4.995,4.867,6.019,7.428,4.226c0.384-0.256,0.768,3.33,0.768,3.33
							S110.491,86.542,107.546,86.414z M119.968,86.67c-3.458,0-8.325-1.793-8.196-9.989c0.768-6.788,7.812-6.66,7.812-6.66
							c1.793,0,3.714,0,5.507,1.665c1.793,1.665,2.561,3.97,2.049,7.812C126.756,83.468,123.426,86.67,119.968,86.67z"/>
						
							<radialGradient id="XMLID_7_" cx="-670.3782" cy="533.2656" r="101.781" gradientTransform="matrix(1 0 0 1 714.8 -483.9695)" gradientUnits="userSpaceOnUse">
							<stop  offset="0.065" style="stop-color:#FFFFFF"/>
							<stop  offset="0.1046" style="stop-color:#E2E2E2"/>
							<stop  offset="0.1599" style="stop-color:#BFBFBF"/>
							<stop  offset="0.2168" style="stop-color:#A1A1A1"/>
							<stop  offset="0.2741" style="stop-color:#888888"/>
							<stop  offset="0.332" style="stop-color:#747474"/>
							<stop  offset="0.3908" style="stop-color:#666666"/>
							<stop  offset="0.4511" style="stop-color:#5E5E5E"/>
							<stop  offset="0.515" style="stop-color:#5C5C5C"/>
							<stop  offset="0.6591" style="stop-color:#575757"/>
							<stop  offset="0.8595" style="stop-color:#535353"/>
							<stop  offset="1" style="stop-color:#515151"/>
						</radialGradient>
						<path id="XMLID_11_" style="fill:url(#XMLID_7_);" d="M40.821,67.972v5.763c0,0,1.153,0.256,2.305,0.128
							c0.512-0.128,1.025-0.256,1.537-0.512c0.64-0.512,1.025-1.025,1.281-1.409C46.2,71.43,46.2,70.789,46.2,70.149
							C45.944,68.996,44.151,66.947,40.821,67.972z"/>
						
							<radialGradient id="XMLID_12_" cx="-668.8262" cy="532.5181" r="101.1706" gradientTransform="matrix(1 0 0 1 714.8 -483.9695)" gradientUnits="userSpaceOnUse">
							<stop  offset="0.065" style="stop-color:#FFFFFF"/>
							<stop  offset="0.1046" style="stop-color:#E2E2E2"/>
							<stop  offset="0.1599" style="stop-color:#BFBFBF"/>
							<stop  offset="0.2168" style="stop-color:#A1A1A1"/>
							<stop  offset="0.2741" style="stop-color:#888888"/>
							<stop  offset="0.332" style="stop-color:#747474"/>
							<stop  offset="0.3908" style="stop-color:#666666"/>
							<stop  offset="0.4511" style="stop-color:#5E5E5E"/>
							<stop  offset="0.515" style="stop-color:#5C5C5C"/>
							<stop  offset="0.6591" style="stop-color:#575757"/>
							<stop  offset="0.8595" style="stop-color:#535353"/>
							<stop  offset="1" style="stop-color:#515151"/>
						</radialGradient>
						<path id="XMLID_10_" style="fill:url(#XMLID_12_);" d="M74.119,82.828c0,0,3.458-0.128,3.33-4.867
							c-0.128-4.739-3.586-4.226-3.586-4.226s-3.458,0-3.33,4.354C70.917,82.956,74.119,82.828,74.119,82.828z"/>
						
							<radialGradient id="XMLID_13_" cx="-668.8926" cy="532.2836" r="101.8057" gradientTransform="matrix(1 0 0 1 714.8 -483.9695)" gradientUnits="userSpaceOnUse">
							<stop  offset="0.065" style="stop-color:#FFFFFF"/>
							<stop  offset="0.1046" style="stop-color:#E2E2E2"/>
							<stop  offset="0.1599" style="stop-color:#BFBFBF"/>
							<stop  offset="0.2168" style="stop-color:#A1A1A1"/>
							<stop  offset="0.2741" style="stop-color:#888888"/>
							<stop  offset="0.332" style="stop-color:#747474"/>
							<stop  offset="0.3908" style="stop-color:#666666"/>
							<stop  offset="0.4511" style="stop-color:#5E5E5E"/>
							<stop  offset="0.515" style="stop-color:#5C5C5C"/>
							<stop  offset="0.6591" style="stop-color:#575757"/>
							<stop  offset="0.8595" style="stop-color:#535353"/>
							<stop  offset="1" style="stop-color:#515151"/>
						</radialGradient>
						<path id="XMLID_9_" style="fill:url(#XMLID_13_);" d="M58.495,73.223c-2.689,0-3.202,2.818-3.202,2.818h5.763
							C61.184,76.04,61.696,73.351,58.495,73.223z"/>
						<path id="XMLID_8_" style="fill:#535353;" d="M119.84,73.479c0,0-3.33-0.256-3.586,3.97c-0.256,2.818,0.897,4.226,1.921,4.995
							c0.512,0.384,1.665,0.512,2.049,0.384c1.025-0.256,2.689-1.281,2.689-4.354C123.042,74.375,120.865,73.479,119.84,73.479z"/>
					</g>
					<path id="XMLID_4_" style="fill:#5A5A5A;" d="M79.626,46.456c-30.225,0-54.814,14.856-54.814,33.298
						c0,18.314,24.461,33.298,54.814,33.298c30.225,0,54.814-14.856,54.814-33.298C134.312,61.312,109.851,46.456,79.626,46.456z
						 M79.626,109.979c-28.56,0-51.868-13.704-51.868-30.481s23.181-30.481,51.868-30.481s51.868,13.704,51.868,30.481
						C131.367,96.403,108.186,109.979,79.626,109.979z"/>
				</g>
			</g>
		</g>
	</g>
</g>
<g id="Layer_1">
</g>
</svg>
