<?xml version="1.0" encoding="iso-8859-1"?>
<!-- Generator: Adobe Illustrator 21.0.0, SVG Export Plug-In . SVG Version: 6.00 Build 0)  -->
<svg version="1.1" xmlns="http://www.w3.org/2000/svg" xmlns:xlink="http://www.w3.org/1999/xlink" x="0px" y="0px"
	 viewBox="0 0 159.252 159.252" style="enable-background:new 0 0 159.252 159.252;" xml:space="preserve">
<g id="Layer_5">
	<g>
		<circle style="fill:#FFFFFF;" cx="79.626" cy="79.626" r="79.626"/>
		<g>
			<polygon style="display:none;fill:#FFFFFF;" points="18.928,33.393 140.325,33.393 140.325,154.791 18.928,154.791 			"/>
			<path style="fill:#424242;" d="M52.677,97.933h2.582c1.007,0,1.385,0.315,1.385,1.196c0,0.819-0.378,1.133-1.385,1.133h-2.582
				V97.933L52.677,97.933z M48.71,106.496h3.967v-3.463h4.219c2.833,0,3.841-1.637,3.841-3.778c0-2.519-1.07-3.904-3.841-3.904
				H48.71V106.496L48.71,106.496z"/>
			<polygon style="fill:#424242;" points="62.059,95.288 72.763,95.288 72.763,97.996 66.026,97.996 66.026,99.507 72.259,99.507 
				72.259,102.214 66.026,102.214 66.026,103.726 72.763,103.726 72.763,106.496 62.059,106.496 			"/>
			<path style="fill:#424242;" d="M78.367,97.933h2.582c1.007,0,1.385,0.315,1.385,1.196c0,0.819-0.378,1.133-1.385,1.133h-2.582
				V97.933L78.367,97.933z M74.4,106.496h3.967v-3.463h4.219c2.833,0,3.841-1.637,3.841-3.778c0-2.519-1.07-3.904-3.841-3.904H74.4
				L74.4,106.496L74.4,106.496z"/>
			<path style="fill:#424242;" d="M90.267,101.711c-1.952-0.315-2.771-1.574-2.771-3.148c0-2.896,2.519-3.652,5.793-3.652
				c4.471,0,6.297,1.322,6.485,3.652h-4.596c0-0.441-0.252-0.756-0.63-0.882c-0.378-0.189-0.819-0.252-1.259-0.252
				c-1.196,0-1.574,0.315-1.574,0.819c0,0.315,0.126,0.504,0.504,0.567l4.722,0.756c2.015,0.315,3.211,1.385,3.211,3.274
				c0,2.708-2.015,4.03-6.485,4.03c-3.022,0-6.36-0.441-6.422-3.778h4.785c0,0.378,0.126,0.63,0.441,0.819
				c0.315,0.126,0.756,0.252,1.322,0.252c1.259,0,1.574-0.378,1.574-0.882c0-0.315-0.189-0.63-0.693-0.756L90.267,101.711
				L90.267,101.711z"/>
			<polygon style="fill:#424242;" points="101.538,95.288 105.505,95.288 105.505,106.496 101.538,106.496 			"/>
			<path style="fill:#424242;" d="M120.239,102.089c-0.252,1.448-0.693,2.645-1.7,3.463c-0.944,0.819-2.519,1.259-4.911,1.259
				c-2.393,0-6.863-0.189-6.863-5.982c0-5.793,4.471-5.982,6.863-5.982c2.393,0,6.108,0.315,6.611,4.785h-4.471
				c-0.126-0.819-0.567-1.952-2.141-1.952c-1.637,0-2.645,0.882-2.645,3.148s1.007,3.148,2.456,3.148
				c1.259,0,2.015-0.567,2.33-1.952h4.471V102.089z"/>
			<path style="fill:#424242;" d="M125.402,100.892c0-2.267,1.007-3.148,2.645-3.148c1.637,0,2.645,0.882,2.645,3.148
				s-1.007,3.148-2.645,3.148C126.473,104.04,125.402,103.159,125.402,100.892L125.402,100.892z M121.183,100.892
				c0,5.793,4.471,5.982,6.863,5.982c2.393,0,6.863-0.189,6.863-5.982s-4.471-5.982-6.863-5.982S121.183,95.099,121.183,100.892
				L121.183,100.892z"/>
			<path style="fill:#424242;" d="M42.728,95.414c0.252-5.352-4.345-11.397-10.641-12.152v-0.063c6.234,0,10.956,5.73,10.956,10.263
				c0,0.944-0.063,1.511-0.189,1.952H42.728L42.728,95.414z M42.351,96.107c-0.441,0.504-0.944,1.007-1.511,1.511
				c-1.133-6.422-5.856-12.089-9.193-13.726l-0.063,0.063c3.337,2.77,7.367,8.123,8.941,13.915c-0.756,0.567-1.637,1.07-2.582,1.448
				c-3.148-3.652-6.108-10.578-7.115-15.049h-0.126c0,4.282,3.085,11.586,6.8,15.175c-0.819,0.315-1.7,0.567-2.645,0.756
				c-3.589-1.385-6.108-5.919-6.108-10.578c0-3.022,0.944-4.911,1.133-5.289h-0.063c-0.189,0.315-1.574,2.204-1.574,5.478
				c0,5.226,2.582,9.256,6.045,10.515c-1.196,0.126-2.393,0.063-3.652-0.189v0.063c0.378,0.126,1.637,0.63,3.526,0.63
				c4.282,0,7.241-2.645,8.374-4.722L42.351,96.107L42.351,96.107z"/>
			<path style="fill:#727272;" d="M33.598,81.31c-3.274,0-7.115,2.33-7.115,4.534c0,0.819,0.756,1.511,2.33,1.511
				c3.652,0,7.052-2.519,7.052-4.471C35.928,81.814,34.921,81.31,33.598,81.31L33.598,81.31z M34.921,82.821
				c0,1.637-3.148,3.652-5.793,3.652c-1.196,0-1.826-0.441-1.826-1.196c0-1.7,3.211-3.652,5.667-3.652
				C34.606,81.625,34.921,82.443,34.921,82.821L34.921,82.821z"/>
			<path style="fill:#979797;" d="M25.224,86.788c-0.063,0.189-0.441,0.882-0.441,1.637c0,1.385,1.385,2.645,3.904,2.645
				c4.911,0,10.515-3.589,10.515-6.926c0-1.511-1.448-2.33-2.393-2.456v0.063c0.315,0.126,1.448,0.63,1.448,1.952
				c0,2.645-4.974,6.297-9.949,6.297c-1.889,0-3.085-0.944-3.085-2.33c0-0.441,0.063-0.693,0.126-0.819L25.224,86.788L25.224,86.788
				z"/>
			<path style="fill:#666666;" d="M41.217,84.395c0.126,0.126,0.944,0.756,0.944,2.015c0,4.345-6.8,8.563-12.782,8.563
				c-3.589,0-5.226-1.763-5.1-3.337h0.063c0.126,0.819,1.322,2.267,4.408,2.267c5.982,0,12.719-4.408,12.719-8.248
				C41.469,85.025,41.28,84.584,41.217,84.395L41.217,84.395L41.217,84.395z"/>
			<path style="fill:#5C5C5C;" d="M43.484,88.425c0,0.063,0.189,0.504,0.189,1.133c0,4.785-6.863,8.941-12.845,8.941
				c-3.085,0-4.659-1.511-5.037-2.078l0.063-0.063c0.819,0.756,2.519,1.322,4.471,1.322c5.289,0,13.097-4.03,13.034-9.256H43.484
				L43.484,88.425z"/>
		</g>
		<g id="XMLID_2_">
			<path id="XMLID_16_" style="fill:#A9A9A9;" d="M49.088,54.172h4.659c-0.189,1.511-0.189,3.904-0.189,6.234
				c0,0,0.063,6.863,0.252,8.248h-2.645c-0.819,0-1.322-0.441-1.448-1.007c-1.259,0.944-2.833,1.322-4.219,1.322
				c-4.974,0-5.604-2.582-5.604-5.226v-4.03c0-2.267-0.126-4.345-0.252-5.541h2.77c1.259,0,1.889,0.756,1.889,2.078v5.856
				c0,3.022,0.567,4.093,3.085,4.093c0.693,0,1.448,0,2.015-0.189l-0.126-5.352C49.277,58.831,49.214,55.683,49.088,54.172z"/>
			<path id="XMLID_15_" style="fill:#A9A9A9;" d="M58.533,68.654c0.189-1.511,0.189-6.548,0.189-6.548
				c0-2.33-0.126-6.863-0.315-8.06h2.708c0.882,0,1.511,0.378,1.637,1.07c1.259-0.944,2.708-1.385,4.093-1.385
				c4.911,0,5.667,3.022,5.667,5.226v4.093c0,2.267,0.126,4.471,0.315,5.73H69.93c-1.259,0-1.889-0.944-1.889-2.204v-5.919
				c0-2.33-0.252-4.156-3.148-4.156c-0.693,0-1.448,0.126-2.015,0.315v5.226c0,1.826,0,3.652,0.189,6.548L58.533,68.654
				L58.533,68.654z"/>
			<path id="XMLID_14_" style="fill:#A9A9A9;" d="M85.923,54.109c0.756,0,2.078-0.063,2.708-0.189
				c-0.126,0.441-0.441,1.637-0.693,2.141c-0.378,0.819-1.007,1.133-2.959,1.133h-1.574v4.974c0,1.826,0.063,5.1,0.189,6.611h-4.722
				c0.189-1.511,0.189-4.785,0.189-6.611v-4.974h-1.511c-1.259,0-2.33,0.063-2.896,0.441l-0.063-1.826
				c0-1.133,0.252-1.637,1.889-1.637L85.923,54.109L85.923,54.109z"/>
			<path id="XMLID_13_" style="fill:#A9A9A9;" d="M104.498,61.35c0,4.848-2.77,7.934-7.871,7.934c-5.037,0-7.619-2.77-7.619-7.745
				c0-4.974,2.77-7.808,7.808-7.808C101.853,53.731,104.498,56.439,104.498,61.35z M93.29,61.413c0,3.337,1.196,4.848,3.463,4.848
				c2.267,0,3.4-1.511,3.4-4.848s-1.133-4.911-3.4-4.911C94.486,56.501,93.29,58.013,93.29,61.413z"/>
			<path id="XMLID_12_" style="fill:#A9A9A9;" d="M120.365,69.535c-1.763,0-2.141-0.693-3.274-2.267
				c-0.63-0.882-2.519-4.156-2.896-4.848c-0.189-0.315-0.252-0.63,0.126-0.756c1.448-0.819,1.826-1.763,1.826-2.708
				c0-1.196-0.504-2.204-2.141-2.204c-0.504,0-1.196,0.063-1.574,0.189v4.911c0,1.826,0.063,5.415,0.189,6.926h-4.534
				c0.189-1.448,0.252-4.596,0.252-6.926c0,0-0.063-6.297-0.315-7.619c2.141,0,5.289-0.126,6.674-0.126
				c2.456,0,5.73,0.504,5.73,4.156c0,1.511-0.693,2.708-1.952,3.526c-0.252,0.189-0.252,0.252,0,0.63
				c1.574,2.33,3.463,4.974,5.163,6.8C123.009,69.283,121.435,69.535,120.365,69.535z"/>
			<path id="XMLID_7_" style="fill:#A9A9A9;" d="M132.391,64.498c0,0,0.063,3.274,0.252,4.219h-4.659
				c0.189-0.944,0.189-4.219,0.189-4.219c0-0.63-0.189-1.196-0.63-2.204c-1.07-2.141-3.337-6.171-5.289-8.06
				c0.756-0.126,2.204-0.189,3.022-0.189c1.826,0,2.33,0.63,2.771,1.322c0.378,0.63,1.889,3.652,2.393,4.974
				c0.567-1.448,1.826-4.03,2.33-4.911c0.441-0.693,1.07-1.385,2.582-1.385c0.693,0,1.826,0.063,2.708,0.189
				c-1.385,1.259-4.093,5.793-5.163,7.871C132.454,63.05,132.391,63.554,132.391,64.498z"/>
			<path id="XMLID_6_" style="fill:#A9A9A9;" d="M31.961,59.839c-1.007-0.315-2.708-0.819-2.708-2.078
				c0-1.259,1.574-1.511,2.645-1.511c2.33,0,3.904,1.07,3.904,1.07v-2.519c0,0-1.007-1.385-4.093-1.385
				c-3.778,0-6.926,1.511-6.926,4.534s2.204,3.778,3.652,4.219c1.322,0.441,3.526,0.944,3.526,2.33c0,1.7-1.574,1.763-2.645,1.763
				c-2.708,0-4.534-1.07-4.534-1.07v2.456c0,0,0.315,1.511,4.785,1.511c3.337,0,6.989-1.259,6.926-4.659
				C36.369,61.854,34.669,60.594,31.961,59.839z"/>
		</g>
		
			<linearGradient id="SVGID_1_" gradientUnits="userSpaceOnUse" x1="140.5433" y1="526.6978" x2="233.9841" y2="526.6978" gradientTransform="matrix(1 0 0 1 -97.5 -449.6695)">
			<stop  offset="0.0213" style="stop-color:#7E7E7E"/>
			<stop  offset="1" style="stop-color:#373737"/>
		</linearGradient>
		<polygon style="fill:url(#SVGID_1_);" points="43.043,77.028 136.484,76.084 136.484,77.973 		"/>
	</g>
</g>
<g id="Layer_1">
</g>
</svg>
