<?xml version="1.0" encoding="iso-8859-1"?>
<!-- Generator: Adobe Illustrator 21.0.0, SVG Export Plug-In . SVG Version: 6.00 Build 0)  -->
<svg version="1.1" xmlns="http://www.w3.org/2000/svg" xmlns:xlink="http://www.w3.org/1999/xlink" x="0px" y="0px"
	 viewBox="0 0 159.252 159.252" style="enable-background:new 0 0 159.252 159.252;" xml:space="preserve">
<g id="unilever">
	<g>
		<circle style="fill:#FFFFFF;" cx="79.626" cy="79.626" r="79.626"/>
		<g>
			<g>
				<path style="fill:#353535;" d="M108.571,48.698c0.371,2.782,4.544,6.399,5.657,6.306c0.742,0,1.02-3.617,1.02-6.306
					c0-1.577,0.093-2.782-0.742-3.153C113.115,48.234,109.684,48.791,108.571,48.698L108.571,48.698z M108.756,47.492
					c2.968,0,5.75-2.411,5.75-4.451c0-1.02-0.464-1.762-1.669-1.947c0.185,0.278,0.278,0.464,0.278,0.927
					c0,1.577-2.411,3.339-5.008,3.339c-0.927,0-1.206,0.649-1.206,1.02C106.902,47.121,107.644,47.492,108.756,47.492
					L108.756,47.492z M108.107,44.246c-0.371,0-1.02,0-1.298-0.649c-0.278-0.556-0.185-1.391-0.649-1.762
					c0.464,0.185,1.02,0.185,1.391,0.185c1.298,0,2.504-0.927,3.524-0.927c0.649,0,0.835,0.371,0.835,0.835
					C111.909,43.134,109.313,44.246,108.107,44.246L108.107,44.246z M43.655,66.782c1.02,0,0.742-6.028,2.318-6.028
					c0.371,0,0.464,0.371,0.464,0.835c0,1.391-0.649,3.339-0.649,4.451c0,0.556,0.185,0.742,0.371,0.742
					c0.649,0,1.855-6.584,3.06-6.584c0.371,0,0.556,0.371,0.556,0.742c0,1.391-1.762,5.379-1.762,6.492
					c0,0.185,0.093,0.278,0.185,0.278c0.742,0,2.133-3.153,2.597-4.637c0.278-0.835,0.649-1.206,0.927-1.206s0.556,0.278,0.556,1.02
					c0,1.577-1.484,5.193-2.689,7.697c-1.02,1.855-2.504,4.637-2.504,6.121c0,0.742,0.185,1.577,1.298,2.597
					c-1.855-0.093-2.597-0.278-3.246-1.762c-3.06,6.121,5.657,5.564,2.689,10.943c-0.556-1.02-4.822-1.947-4.822-7.697
					c0-4.915,4.359-7.79,4.359-9.83c0-0.371-0.185-0.742-0.556-1.02c-0.927-0.835-1.02-1.484-1.762-1.484
					c-0.556,0-1.206,1.298-0.556,2.411c0.185,0.371,0.464,0.649,0.464,0.927c0,0.835-1.298,2.968-2.133,2.968
					c-0.835,0-1.577-2.226-1.577-5.75c0-3.153,0.742-6.399,1.577-6.399c0.278,0,0.371,0.185,0.371,0.371
					c0,0.371-0.093,1.113-0.093,2.411C43.099,66.689,43.47,66.782,43.655,66.782L43.655,66.782z M87.798,38.497
					c0.464,0,0.556,1.113,0.649,1.762c0.093,0.371,0.093,0.371,0.278,0.371c0.371,0,0.927-1.298,1.298-1.298
					c0.556,0,2.04,1.484,4.451,1.484c3.524,0,6.77-2.411,6.77-6.77c0-4.173-2.968-6.584-6.955-6.584
					c-1.947,0-3.339,0.927-4.08,0.927c-0.464,0-1.113-1.113-1.484-1.113c-0.185,0-0.278,0.278-0.278,0.742
					c0,0.278,0,1.298-0.371,1.298c-0.649,0-3.339-1.947-3.339-1.298s1.762,2.689,1.762,3.153c0,0.556-1.762,1.02-1.762,1.391
					c0,0.649,1.855,0.742,1.855,1.577c0,0.835-1.947,1.484-1.947,2.04c0,0.464,1.947,0.185,1.947,0.742
					c0,0.649-1.484,2.597-1.484,3.153c0,0.185,0,0.185,0.185,0.185C85.758,40.352,87.427,38.497,87.798,38.497L87.798,38.497z
					 M50.888,81.063c0-0.556,0.371-1.113,1.02-1.206s1.113,0.371,1.206,1.02s-0.371,1.113-1.02,1.206
					C51.445,82.083,50.888,81.619,50.888,81.063L50.888,81.063z M47.643,81.898c0.093,1.02,1.02,1.762,2.04,1.577
					c0.371,0,0.742-0.185,0.927-0.278c0.185,0.927,0.927,1.484,2.04,1.391c1.02-0.093,1.855-1.02,1.669-2.04
					c0-0.278-0.093-0.464-0.185-0.649h0.185c1.02-0.093,1.762-1.02,1.669-2.04c-0.093-1.02-1.02-1.762-2.04-1.669
					c-0.371,0.093-0.649,0.185-0.927,0.371c-0.278-0.835-1.02-1.577-2.04-1.484c-1.02,0.093-1.762,1.02-1.669,2.133
					c0,0.185,0.093,0.371,0.185,0.556h-0.185C48.385,79.95,47.55,80.785,47.643,81.898L47.643,81.898z M111.817,29.13
					c0,0.371,0.278,0.742,0.742,0.742c0.371,0,0.742-0.278,0.742-0.742c0-0.371-0.278-0.742-0.742-0.742
					C112.188,28.388,111.817,28.759,111.817,29.13L111.817,29.13z M95.773,56.395c0,0.649,0.556,1.206,1.206,1.206
					s1.206-0.556,1.206-1.206c0-0.649-0.556-1.206-1.206-1.206S95.773,55.746,95.773,56.395L95.773,56.395z M95.866,60.012
					c0,0.742,0.649,1.391,1.391,1.391s1.391-0.649,1.391-1.391s-0.649-1.391-1.391-1.391C96.422,58.713,95.866,59.27,95.866,60.012
					L95.866,60.012z M91.693,62.516c0,1.113,0.927,1.947,1.947,1.947c1.113,0,1.947-0.927,1.947-1.947
					c0-1.02-0.927-1.947-1.947-1.947C92.62,60.475,91.693,61.403,91.693,62.516L91.693,62.516z M92.806,58.435
					c0,0.649,0.556,1.113,1.113,1.113c0.649,0,1.113-0.556,1.113-1.113c0-0.649-0.556-1.113-1.113-1.113
					C93.269,57.322,92.806,57.786,92.806,58.435L92.806,58.435z M89.003,60.754c0,0.649,0.556,1.113,1.113,1.113
					c0.649,0,1.113-0.556,1.113-1.113c0-0.649-0.556-1.113-1.113-1.113C89.56,59.548,89.003,60.104,89.003,60.754L89.003,60.754z
					 M91.971,53.984c0,1.02,0.835,1.855,1.855,1.855c1.02,0,1.855-0.835,1.855-1.855c0-1.02-0.835-1.855-1.855-1.855
					C92.806,52.129,91.971,52.964,91.971,53.984L91.971,53.984z M94.104,50.46c0,0.649,0.464,1.113,1.113,1.113
					s1.113-0.464,1.113-1.113s-0.464-1.113-1.113-1.113C94.66,49.347,94.104,49.903,94.104,50.46L94.104,50.46z M88.911,53.242
					c0,0.649,0.464,1.113,1.113,1.113c0.649,0,1.113-0.464,1.113-1.113s-0.464-1.113-1.113-1.113
					C89.374,52.129,88.911,52.593,88.911,53.242L88.911,53.242z M88.818,56.951c0,1.02,0.742,1.762,1.762,1.762
					c1.02,0,1.762-0.742,1.762-1.762s-0.742-1.762-1.762-1.762S88.818,56.024,88.818,56.951L88.818,56.951z M85.108,58.806
					c0,0.927,0.742,1.669,1.669,1.669s1.669-0.742,1.669-1.669c0-0.927-0.742-1.669-1.669-1.669S85.108,57.879,85.108,58.806
					L85.108,58.806z M86.129,54.726c0,0.649,0.556,1.113,1.113,1.113c0.649,0,1.113-0.556,1.113-1.113
					c0-0.649-0.556-1.113-1.113-1.113S86.129,54.077,86.129,54.726L86.129,54.726z M82.326,97.199c0,0.649,0.556,1.113,1.113,1.113
					c0.649,0,1.113-0.556,1.113-1.113c0-0.649-0.556-1.113-1.113-1.113C82.79,96.086,82.326,96.55,82.326,97.199L82.326,97.199z
					 M51.259,49.44c0,0.649,0.556,1.113,1.113,1.113c0.649,0,1.113-0.556,1.113-1.113c0-0.649-0.556-1.113-1.113-1.113
					C51.816,48.327,51.259,48.883,51.259,49.44L51.259,49.44z M49.776,46.936c0,0.649,0.556,1.113,1.113,1.113
					c0.649,0,1.113-0.556,1.113-1.113s-0.556-1.113-1.113-1.113C50.332,45.73,49.776,46.287,49.776,46.936L49.776,46.936z
					 M51.074,75.221c1.206,0,2.226-0.927,2.226-2.875v-2.968c0-1.113,0.093-2.411,0.835-3.246c-0.093,0.371-0.093,0.742-0.093,1.113
					c0,2.504,1.391,4.173,1.391,6.584c0,0.927-0.278,1.391-0.927,1.391s-0.649-0.649-0.742-0.649s-0.278,0.371-0.278,0.742
					c0,0.649,0.464,1.577,1.669,1.577c1.02,0,1.855-0.927,1.855-2.04c0-2.597-2.04-5.471-2.04-8.254c0-1.206,0.278-2.04,0.556-2.689
					c0,5.75,4.822,9.923,4.822,12.334c0,0.556-0.371,1.02-1.02,1.02s-1.02-0.556-1.02-0.927c0-0.185,0-0.278-0.093-0.278
					c-0.185,0-0.649,0.556-0.649,1.298c0,0.927,0.742,2.133,2.226,2.133c1.669,0,2.504-1.391,2.504-2.597
					c0-3.06-5.935-7.604-5.935-12.519c0-0.835,0.185-2.226,0.742-3.246c-3.802,2.411-5.008,5.657-5.008,8.532
					c0,2.504-0.093,3.709-1.391,3.709c-0.649,0-0.835-0.649-1.02-0.649s-0.278,0.556-0.278,0.649
					C49.497,74.664,50.239,75.221,51.074,75.221L51.074,75.221z M100.966,46.472c1.298,0,2.226-0.556,2.226-0.927
					c0-0.093-0.185-0.185-0.556-0.185c-0.371,0-1.113,0-2.504-0.278c-1.206-0.185-2.133-0.649-2.504-0.649
					c-0.093,0-0.185,0.093-0.185,0.185C97.442,45.267,98.833,46.472,100.966,46.472L100.966,46.472z M94.66,42.763
					c0.371-0.185,1.947,0.185,4.08-0.927c0.278-0.185,0.556-0.185,0.742-0.185c1.02,0,0.742,1.113,1.669,1.113
					c0.742,0,1.669-0.649,2.226-0.649c0.835,0,2.133,2.689,2.133,3.988c0,1.484-2.226,2.318-4.822,2.318
					c-3.802,0-6.121-3.339-6.121-5.471C94.475,42.948,94.568,42.855,94.66,42.763L94.66,42.763z M51.63,86.071
					c-0.927,0.185-2.504,1.762-2.504,4.08c0,2.782,3.06,7.141,7.975,7.141c4.173,0,5.286-2.875,5.286-4.915
					c0-4.359-2.689-7.419-6.121-7.419c-1.855,0-3.617,1.391-3.617,3.431c0,1.947,1.484,4.73,4.822,4.73
					c1.577,0,2.597-1.113,2.597-2.504c0-1.298-1.206-3.06-2.875-3.06c-0.556,0-0.927,0.371-0.927,0.927
					c0,0.649,0.927,1.391,2.133,1.391c0.278,0,0.556-0.093,0.649-0.093c0.093,0.093,0.093,0.185,0.093,0.371
					c0,0.649-0.649,1.02-1.577,1.02c-1.484,0-2.875-1.113-2.875-2.782c0-1.02,0.927-1.762,2.226-1.762
					c2.597,0,4.08,2.318,4.08,4.544c0,2.04-1.113,3.246-3.431,3.246C52.929,94.417,50.61,90.337,51.63,86.071L51.63,86.071z
					 M48.756,54.819c-0.649,0.185-2.04,1.02-2.04,2.411c0,1.02,0.835,1.669,1.855,1.669c0.556,0,0.927-0.093,1.113-0.278
					c-0.835-0.742-1.113-1.669-1.113-2.504C48.57,55.468,48.663,55.097,48.756,54.819L48.756,54.819z M41.708,55.189
					c0,0.185,0,0.278,0,0.464c0,1.391,0.742,2.133,1.669,2.133c0.742,0,1.577-0.464,2.318-1.391
					c-0.278,0.093-0.649,0.093-1.02,0.093C43.562,56.395,42.357,56.117,41.708,55.189L41.708,55.189z M40.687,57.786
					c0,2.226,0.649,3.246,1.855,3.246c0.927,0,2.133-0.649,3.617-1.947c-1.113,0.278-1.947,0.464-2.782,0.464
					C42.357,59.455,41.522,59.084,40.687,57.786L40.687,57.786z M84.552,102.949c1.391,0,1.298-0.093,1.762-0.093
					s0.464,0.278,0.464,0.464c0,0.649-1.391,1.391-3.895,1.391c-1.484,0-2.318-0.742-2.597-1.669
					c-1.484,0.927-3.617,1.762-5.75,1.762c-5.935,0-7.419-2.597-9.274-3.431c-1.391-0.649-3.617,0.649-6.584-2.782
					c0.371,0.093,0.927,0.093,1.391,0.093c2.689,0,4.08-1.298,4.08-3.339c0-0.278,0-0.556-0.093-0.835
					c0.835,0.278,2.689,1.669,3.06,4.173c0.093,0.278,1.206,0.556,1.947,0.556c1.02,0,2.318-0.464,2.597-2.133
					c3.431-0.278,5.75-2.318,6.306-4.915c1.206,0.371,2.689,1.484,2.968,2.133c0.464-0.185,1.02-0.278,1.762-0.278
					c0.927,0,1.947,0.185,3.153,0.556c0.093-0.371,0.093-0.835,0.649-0.835c0.835,0,0.649,0.927,0.927,1.484
					c0.185,0.278,0.835,0.464,0.835,1.02s-0.464,0.742-0.742,0.742c-0.093,0-0.278,0-0.371-0.093
					c-0.556,0.185-0.649,4.359-3.06,4.359c-1.762,0-3.431-1.484-4.173-3.339c-0.185-0.556-0.649-0.927-1.02-0.927
					c-0.464,0-0.742,0.093-1.298,0.649c-1.577,1.669-4.173,3.153-7.326,3.153c-1.02,0-1.762-0.093-1.947-0.093
					c-0.093,0-0.093,0-0.093,0.093c0,0.185,1.02,1.02,3.153,1.02c5.101,0,6.306-2.875,7.141-2.875c0.093,0,0.464,0,0.649,0.464
					C80.379,102.3,82.883,102.949,84.552,102.949L84.552,102.949L84.552,102.949z M68.138,45.081c1.855,0,2.782,1.669,2.782,3.524
					c0,0.835-0.185,1.947-0.649,1.947c-0.371,0-0.278-0.649-0.371-1.298c-0.093-0.742-0.185-0.927-0.464-0.927
					c-0.464,0-0.835,1.113-0.835,2.226c0,0.649,0.093,1.391,0.649,1.391c0.278,0,0.556-0.185,0.742-0.278
					c-0.093,1.298-1.113,2.504-2.504,2.504c-2.504,0-3.524-2.968-3.802-4.73c-1.484,1.577-2.968,2.782-5.471,2.782
					c-2.318,0-3.431-1.762-3.431-3.339c0-0.464,0.185-1.762,0.742-1.762c0.742,0,0.093,2.318,1.484,2.318
					c0.371,0,1.02-0.278,1.298-1.206c0.185-0.556,0.278-1.206,0.278-1.669c0-0.742-0.185-1.298-0.742-1.298
					c-0.464,0-1.113,0.371-1.298,0.556c0.649-2.04,2.318-3.153,4.173-3.153c2.318,0,3.524,2.04,3.524,4.266
					c0,0.278,0,0.649-0.093,1.02C65.355,46.287,66.747,45.081,68.138,45.081L68.138,45.081z M60.997,27.925
					c0-0.185-0.835-0.371-2.04-0.371c-1.855,0-1.577,1.577-3.06,1.577c-1.484,0-1.113-1.577-3.06-1.577
					c-1.113,0-2.226,0.185-2.226,0.464c0,0.371,1.391,0.185,1.391,1.113c0,1.02-2.875,1.298-2.875,1.855
					c0,0.185,0.185,0.278,0.556,0.278c0.649,0,1.669-0.278,2.318-0.278c0.371,0,0.742,0.093,0.742,0.464
					c0,0.742-1.577,2.04-1.577,2.597c0,0.185,0.185,0.185,0.278,0.185c0.556,0,1.577-1.484,2.504-1.484
					c1.484,0,0.556,3.246,1.391,3.246c0.835,0,0.464-3.153,1.762-3.153c1.02,0,1.762,2.226,2.411,2.226
					c0.185,0,0.278-0.185,0.278-0.371c0-0.649-0.835-1.855-0.835-2.689c0-0.464,0.371-0.742,0.835-0.742
					c0.649,0,1.577,0.371,2.04,0.371c0.185,0,0.371-0.093,0.371-0.278c0-0.649-2.597-1.484-2.597-2.318
					C59.513,28.296,60.997,28.296,60.997,27.925L60.997,27.925z M101.987,84.587c-0.649,0-3.988,4.451-6.121,4.451
					c-0.556,0-0.927-1.02-0.927-1.762c0-0.371,0.278-0.649,1.206-0.927c4.915-1.113,3.895-4.822,8.068-4.822
					c2.318,0,4.915,1.577,4.915,5.193c0,3.802-5.379,8.532-6.213,8.532c-0.649,0-1.391-0.927-1.391-1.577
					c0-0.185,0.093-0.464,0.649-0.649c2.782-1.113,4.359-3.617,4.359-4.915c0-0.278-0.185-0.556-0.556-0.556
					c-0.464,0-2.597,4.822-4.915,4.822c-1.577,0-3.246-1.484-3.246-2.133c0-1.113,4.637-3.246,4.637-4.915
					C102.543,84.68,102.265,84.587,101.987,84.587L101.987,84.587z M105.14,82.825c-0.371,0-0.835,0.278-0.835,1.113
					s0.649,1.391,1.02,1.577c0.185,0.093,0.556,0.185,0.835,0.185c0.835,0,1.484-0.185,1.484-0.927
					C107.644,83.938,106.345,82.825,105.14,82.825L105.14,82.825z M67.674,30.892c0,0.556,1.855,1.669,2.689,1.669
					c0.464,0,0.649-0.649,0.649-1.391c0-0.835-0.371-0.927-1.113-0.927C68.972,30.243,67.674,30.521,67.674,30.892L67.674,30.892z
					 M70.734,36.549c0-1.762-4.73-4.915-4.73-6.213c0-0.093,0-0.093,0-0.185c0.371-0.927,4.266-1.577,4.266-2.411
					c0-0.371-0.649-0.371-1.02-0.371c-2.689,0-6.584,1.02-6.584,1.947c0,1.02,3.524,3.339,3.524,4.544
					c0,0.278-0.185,0.464-0.556,0.464c-1.02,0-3.153-1.206-4.08-1.206c-0.464,0-0.649,0.278-0.649,0.742
					c0,1.391,1.669,3.988,1.669,4.822c0,0.093,0,0.185-0.185,0.185c-0.556,0-2.968-2.875-3.802-2.875
					c-0.278,0-0.371,0.464-0.371,1.02v1.02c0,0.649,0,1.02-0.371,1.02c-0.742,0-1.113-2.133-1.855-2.133
					c-0.742,0-0.927,3.709-1.577,3.709c-0.835,0-0.093-4.08-0.927-4.08c-0.927,0-1.855,2.782-2.504,2.782
					c-0.185,0-0.278-0.185-0.278-0.464c0-0.835,0.464-2.226,0.464-2.968c0-0.371-0.093-0.649-0.464-0.649
					c-0.927,0-2.875,1.484-3.617,1.484c-0.093,0-0.278-0.093-0.278-0.185c0-0.649,3.153-2.875,3.153-3.895
					c0-0.927-4.359-0.278-4.359-1.391c0-0.927,3.06-1.855,3.06-2.782c0-0.835-3.617-1.206-5.101-1.206
					c-1.669,0-2.597,0.185-2.597,0.649c0,0.742,3.895,1.02,3.895,1.669c0,0.649-3.988,2.318-3.988,3.339
					c0,0.835,5.657,0.093,5.657,0.927c0,1.02-4.915,5.193-4.915,6.584c0,0.278,0.185,0.464,0.556,0.464
					c1.484,0,5.379-2.875,6.492-2.875c0.371,0,0.371,0.464,0.371,0.835c0,0.742-0.278,1.855-0.278,2.782
					c0,0.649,0.185,1.113,0.742,1.113c1.02,0,2.04-1.855,2.782-1.855c0.927,0,0.371,5.286,1.762,5.286
					c1.206,0,1.669-5.75,2.411-5.75c0.742,0,1.391,1.669,2.04,1.669c0.835,0,0.464-2.875,1.391-2.875
					c1.02,0,3.895,3.431,5.193,3.431c0.371,0,0.556-0.278,0.556-0.742c0-1.484-2.133-5.008-2.133-6.121
					c0-0.278,0.093-0.371,0.371-0.371c1.113,0,4.451,1.577,5.935,1.577C70.363,37.198,70.734,36.92,70.734,36.549L70.734,36.549z
					 M110.055,69.656c0.464-1.484,1.02-2.411,1.947-3.988c-0.927-0.464-3.431-1.484-3.431-3.246c0-1.947,2.504-3.524,2.968-3.524
					c0.185,0,0.278,0.185,0.278,0.556c0,1.02-0.464,2.689-0.464,3.617c0,0.835,0.556,1.577,1.02,1.577s1.855-1.762,1.855-3.431
					c0-3.06-2.689-3.988-3.524-3.988c-0.742,0-2.226,1.298-5.471,1.298c-6.213,0-7.604-6.121-7.604-8.81
					c0-0.093,0-0.185,0.093-0.185c0.185,0,0.742,0.742,2.689,0.742c1.02,0,1.947-0.278,3.431-0.278c3.431,0,5.008,2.411,7.141,5.471
					c1.298,0.835,4.359,2.133,4.359,5.75c0,3.246-3.431,5.008-4.266,8.439c1.298-0.185,2.133-2.504,3.431-2.504
					c0.649,0,1.02,0.556,1.02,1.391c0,1.298-0.742,3.153-2.133,4.359c0-0.093,0-0.278,0-0.464c0-0.835-0.278-1.947-1.206-1.947
					c-1.391,0-1.855,1.577-2.689,2.875c-0.835-2.968-1.947-5.564-3.988-7.233c-2.04-1.669-5.564-0.742-5.564-3.709
					c0-0.835,0.556-1.947,0.556-2.875c0-0.278-0.093-0.649-0.185-0.835c2.782,1.02,1.762,2.875,3.524,4.822
					c1.02,1.206,3.988,2.318,5.657,7.326c0-0.185,0.093-0.556,0.093-0.742c0-4.266-5.657-8.439-6.121-10.201
					c3.246,0.371,3.895,1.206,5.379,5.471C109.035,66.411,110.055,68.636,110.055,69.656L110.055,69.656z M48.199,46.194
					c0.185-0.464,0.278-1.02,0.278-1.669c0-1.391-0.649-3.524-2.597-3.524c-1.113,0-1.947,0.927-1.947,1.947
					C43.933,45.267,46.159,46.194,48.199,46.194L48.199,46.194z M45.695,53.52c-0.927,0-1.947-1.206-1.947-2.226
					c0-0.556,0.464-1.298,0.742-1.298c0.093,0,0.185,0.093,0.185,0.278c0.185,1.391,1.113,2.226,1.947,2.597
					c0.093,0.093,0.185,0.093,0.185,0.185C46.808,53.242,46.252,53.52,45.695,53.52L45.695,53.52z M49.126,50.738
					c0,0.371-0.185,0.927-0.649,0.927c-1.02,0-1.855-1.484-1.855-2.411c0-0.556,0.278-0.649,0.742-0.649
					c0.185,0,0.278,0,0.464,0.093c0.278,0.185,0.278,0.742,0.556,1.113C48.57,50.274,49.126,50.553,49.126,50.738L49.126,50.738z
					 M48.106,47.77c-0.185,0-0.371,0-0.649,0c-0.927,0-2.226,0.185-3.339,0.927c-2.504,1.669-2.133,4.266-2.504,4.915
					c-0.093,0.093-0.093,0.185-0.093,0.278c0,0.278,0.278,0.556,0.556,0.556c0.185,0,0.371-0.093,0.464-0.093
					c0.649,0,1.484,0.464,2.597,0.464c0.649,0,1.484-0.185,2.411-0.649c2.04-1.02,2.875-3.617,2.875-3.988
					c0-0.556-0.464-0.464-0.835-1.02c-0.371-0.649-0.185-0.835-0.464-1.206C49.034,47.77,48.663,47.77,48.106,47.77L48.106,47.77z
					 M51.167,52.407c-0.649,0.742-1.298,2.04-1.298,3.339c0,1.577,0.927,2.875,2.411,2.875c1.391,0,2.04-1.206,2.04-2.411
					C54.32,54.169,52.558,52.778,51.167,52.407L51.167,52.407z M44.953,46.843c0,0-0.835,0.649-1.855,0.649
					c-1.206,0-2.226-0.927-2.226-2.226c0-0.927,0.464-1.855,1.484-2.318c0,0.185,0,0.278,0,0.464
					C42.357,45.174,43.284,46.379,44.953,46.843L44.953,46.843z M96.237,63.629c0-0.556,0.556-1.02,1.113-1.02
					c0.649,0,1.113,0.464,1.113,1.02c0,0.649-0.464,1.113-1.113,1.113C96.793,64.741,96.237,64.278,96.237,63.629L96.237,63.629z
					 M96.979,96.736c0.185,0,0.278,0.093,0.278,0.649c0,0.649-0.278,1.484-1.298,2.133c-0.742,0.464-1.669,0.927-3.153,0.927
					c0.185-0.649,0.371-1.391,0.371-2.133c0-0.185,0-0.371-0.093-0.649h0.371C95.866,97.663,96.793,96.736,96.979,96.736
					L96.979,96.736z M97.257,93.861c0.185-0.185,0.278-0.556,0.278-0.835v-0.649c0-0.835-1.298-1.298-2.968-1.298
					c-2.133,0-3.246,0.927-3.246,1.391v1.298c0,0.556,1.298,1.113,2.782,1.113C95.309,94.881,96.422,94.51,97.257,93.861
					L97.257,93.861z M98.741,94.232c-0.742,0.556-2.504,1.855-5.379,1.855c-1.577,0-2.226-0.464-2.504-0.464
					s-0.649,0.278-0.927,0.649c-0.649,0.835-1.577,2.318-1.577,3.988c0,1.113,0.927,2.318,2.597,2.318
					c5.379,0,9.459-3.339,9.459-6.121C100.317,94.881,99.39,94.232,98.741,94.232L98.741,94.232z M99.761,70.027
					c0,0.742,0.185,1.577,0.927,1.577c0.649,0,1.113-0.927,1.113-1.947c0-1.113-0.185-2.04-0.185-2.504
					c0-0.185,0.093-0.278,0.185-0.278c0.464,0,0.835,1.206,1.298,1.206c0.556,0,1.298-0.927,1.577-0.927
					c0.093,0,0.093,0.093,0.093,0.185c0,0.464-0.649,1.391-0.649,1.762c0,0.278,1.669,0.371,1.669,0.649
					c0,0.464-1.762,0.464-2.597,0.835c-0.835,0.371-1.298,0.742-1.298,1.391c0,0.556,0.556,0.649,1.391,0.649
					c1.947,0,3.246-1.02,3.709-1.02c0.093,0,0.185,0.093,0.185,0.185c0,0.278-1.02,1.206-1.02,1.669s1.762,1.02,1.762,1.391
					c0,0.093-0.185,0.093-0.371,0.093c-0.278,0-0.835-0.093-1.206-0.093c-0.185,0-0.464,0-0.556,0.185
					c-0.185,0.185,0.093,1.762-0.371,1.762c-0.371,0-1.391-3.431-3.524-3.431c-0.278,0-0.556,0.278-0.556,0.649
					c0,1.113,1.113,2.504,2.226,3.153c0.464,0.278,1.298,0.649,1.298,0.835c0,0.371-1.855,0-1.855,0.649
					c0,0.556,0.185,1.298,0.185,1.762c0,0.185,0,0.278-0.185,0.278c-0.371,0-1.206-1.577-1.577-1.577
					c-0.371,0-1.113,0.927-1.391,0.927c-0.093,0-0.185-0.093-0.185-0.185c0-0.649,1.02-2.133,1.02-3.617
					c0-0.649-0.093-2.226-0.927-2.226c-0.649,0-1.484,1.113-1.855,2.226c-0.185,0.649-0.093,3.06-0.556,3.06
					s-0.278-1.669-0.927-1.669c-0.464,0-1.391,0.742-1.669,0.742c-0.093,0-0.093,0-0.093-0.093c0-0.371,0.835-1.484,0.835-1.669
					c0-0.464-1.947-0.464-1.947-0.835c0-0.185,0.742-0.371,1.484-0.464c1.484-0.278,3.617-1.298,3.617-2.782
					c0-1.669-1.577-2.411-2.689-3.06c-0.556-0.371-1.113-0.649-1.113-0.835c0-0.185,0.649-0.185,1.02-0.185
					c0.464,0,0.835,0,0.835-0.371c0-0.278-0.093-0.742-0.093-1.206c0-0.278,0-0.556,0.185-0.556c0.464,0,1.02,1.391,1.298,1.391
					c0.464,0,1.113-1.113,1.484-1.113c0.185,0,0.185,0.093,0.185,0.371C100.225,67.709,99.761,68.915,99.761,70.027L99.761,70.027z
					 M85.943,61.588c0.278,2.411,3.617,1.206,3.617,4.173c0,0.464-0.093,1.113-0.093,1.577c0,0.649,0.093,1.206,0.556,1.206
					s0.649-0.371,0.649-0.835c0-0.464-0.093-1.02-0.093-1.391c0-1.02,0.742-1.206,1.113-1.206c1.113,0,1.947,1.113,3.617,1.113
					c-0.371,1.855-4.173,1.391-4.173,3.339c0,1.02,1.02,1.206,1.669,1.206c0.649,0,0.835-0.093,0.835-0.649
					c0-0.278-0.093-0.649-0.093-0.835c0-0.093,0.093-0.185,0.185-0.185c0.649,0,3.709,2.318,3.709,3.06
					c0,0.649-3.246,1.298-4.266,1.298c-0.278,0-0.371-0.185-0.371-0.278c0-0.185,0.464-0.835,0.464-1.113
					c0-0.278-0.464-0.464-1.577-0.464c-0.556,0-0.927,0.093-0.927,0.464c0,0.742,1.298,1.762,1.298,2.411
					c0,0.556-0.371,0.927-1.298,0.927c-0.742,0-1.947-0.649-1.947-1.577c0-0.835,0.835-1.577,0.835-2.133
					c0-0.185-0.093-0.371-0.464-0.371c-1.113,0-1.391,2.782-5.101,3.153c0.649-0.556,1.113-1.113,1.113-2.411
					c0-0.649-0.185-1.113-0.185-1.762c0-0.835,0.371-1.298,1.02-1.298c1.02,0,1.577,1.484,2.318,1.484
					c0.371,0,0.742-0.371,0.742-0.835c0-2.226-4.173-1.855-4.173-4.915C84.923,63.999,85.201,62.979,85.943,61.588L85.943,61.588z
					 M91.415,80.228c0,0.371,0.278,0.742,0.649,0.742c0.464,0,0.742-0.371,0.742-0.835c0-0.649-0.556-1.484-1.113-1.484
					c-0.185,0-0.185,0.371-0.185,0.742C91.6,79.672,91.415,80.043,91.415,80.228L91.415,80.228z M89.931,76.426
					c3.06,0.556,4.637,2.875,4.637,5.008c0,1.484-0.927,2.782-2.504,2.782c-1.484,0-2.504-1.02-2.504-2.597
					c0-1.206,0.927-2.504,0.927-3.709C90.487,77.446,90.394,76.89,89.931,76.426L89.931,76.426z M86.129,81.341
					c0.278,0.278,0.371,0.556,0.371,0.835c0,0.464-0.185,0.927-0.185,1.391c0,0.649,0.556,1.298,1.298,1.298
					c0.835,0,1.391-0.649,1.391-1.391C88.911,82.361,87.798,81.341,86.129,81.341L86.129,81.341z M95.68,79.487
					c0.185,0.278,0.278,0.649,0.278,0.927c0,0.835-0.556,1.577-0.556,2.411c0,0.927,0.742,1.762,1.855,1.762
					c1.206,0,1.947-0.927,1.947-2.04C99.204,80.97,97.813,79.672,95.68,79.487L95.68,79.487z M86.778,78.003
					c1.298,0.185,1.669,0.649,1.669,1.02c0,0.649-0.556,0.835-1.113,0.835c-0.371,0-0.835-0.093-1.391-0.093
					c-0.649,0-1.298,0.185-1.762,0.742c0.371,0.093,0.927,0.278,0.927,0.927c0,1.669-4.637,0.278-4.637,4.544
					c0,2.318,2.318,4.73,5.935,4.73c1.855,0,3.06-0.556,3.06-1.298c0-0.556-1.02-0.185-1.02-0.649c0-0.185,0.371-0.556,0.371-0.927
					c0-0.185-0.093-0.371-0.371-0.371c-0.556,0-1.484,0.835-3.524,0.835c-1.577,0-3.06-0.927-3.06-2.133
					c0-0.278,0.093-0.371,0.278-0.371s0.371,0.093,0.649,0.093c0.185,0,0.185-0.093,0.185-0.464c0-0.278,0-1.206,0.556-1.206
					s1.577,2.04,5.564,2.04c1.298,0,3.895-0.278,4.822-1.113c0,3.153-2.504,7.326-7.697,7.326c-5.379,0-8.254-4.359-8.254-8.254
					c0-4.451,3.617-8.439,8.532-8.439c1.298,0,2.318,0.464,2.318,1.02C88.818,77.539,86.963,77.075,86.778,78.003L86.778,78.003z
					 M66.005,48.512c0-0.464-0.093-0.649-0.185-0.649c-0.278,0-0.649,0.371-1.02,1.113c0.093,1.02,0.185,1.484,0.556,1.484
					C65.541,50.46,66.005,49.44,66.005,48.512L66.005,48.512z M62.017,49.625c0.278,0,0.742-0.371,1.484-1.206
					c0.093-0.371,0.093-0.742,0.093-1.113c0-0.556-0.185-1.206-0.556-1.206c-0.835,0-1.298,2.318-1.298,2.875
					C61.646,49.347,61.831,49.625,62.017,49.625L62.017,49.625z M66.747,52.222c0.742,0,1.484-2.782,1.484-4.451
					c0-0.371-0.093-0.742-0.185-0.742c-0.649,0-1.577,2.875-1.577,4.451C66.376,51.944,66.561,52.222,66.747,52.222L66.747,52.222z
					 M59.698,50.645c1.02,0,2.133-5.286,2.133-6.213c0-0.185-0.093-0.371-0.278-0.371c-0.927,0-2.133,5.008-2.133,6.121
					C59.328,50.367,59.42,50.645,59.698,50.645L59.698,50.645z M62.759,52.778c-1.206,0-1.298,1.484-1.298,4.544
					c-0.927-1.947-2.411-4.08-4.266-4.08c-1.206,0-1.669,0.835-1.669,2.226c0,0.278,0,0.742,0.093,1.02
					c0.185-0.464,0.649-0.649,1.206-0.649c1.206,0,2.689,0.927,3.709,2.226c-1.113-0.185-2.226-0.371-3.153-0.371
					c-0.556,0-1.113,0.093-1.484,0.278c-0.835,0.371-1.947,1.577-1.947,3.524c0,0.278,0,0.649,0.093,0.927
					c1.02-2.226,3.709-3.246,5.379-3.246c0.371,0,0.649,0,0.835,0.093c-0.927,0.835-1.113,2.226-1.113,3.153
					c0,0.464-0.185,0.464-0.556,0.464c0,0.927,0.742,2.318,0.742,3.06c0,0.278-0.185,0.464-0.278,0.556
					c0,1.298,1.298,2.226,1.298,2.968c0,0.185-0.093,0.371-0.185,0.464c0.093,0.556,1.484,1.391,1.669,1.762
					c0.278,0.649,0.464,0.649,0.649,0.649c0.464,0,1.298-0.556,1.298-1.113c0-0.185-0.185-0.371-0.278-0.464
					c-0.556-0.371-0.835-1.298-1.02-1.855c-0.185,0-0.464-0.093-0.556-0.371c-0.093-0.371-0.185-1.762-0.371-2.411
					c-0.371-0.093-0.556-0.185-0.556-1.02c0-0.371,0.185-1.855,0.185-2.318c-0.185,0-0.371-0.093-0.371-0.464
					c0-0.927,0.927-1.669,1.206-2.782c1.669,1.206,2.04,2.411,2.04,3.524c0,0.556-0.093,1.113-0.185,1.669
					c1.206-0.649,3.06-1.484,3.06-3.339c0-1.02-0.464-2.226-3.709-2.689c1.02-0.371,2.318-0.556,3.339-0.556
					c1.855,0,2.875,0.556,3.153,1.855c0.371-0.556,0.649-1.206,0.649-1.855c0-1.391-1.206-2.318-2.689-2.318
					c-1.762,0-3.339,0.927-5.008,2.04c0.742-1.577,1.298-2.504,2.226-2.504c0.185,0,0.278,0,0.464,0.093
					C64.799,54.077,63.501,52.778,62.759,52.778L62.759,52.778z M44.397,34.88c0,0.556-2.226,2.504-2.968,2.504
					c-0.278,0-0.371-0.371-0.371-0.649c0-0.556,0.278-1.391,0.556-1.669c0.371-0.371,1.206-0.556,1.947-0.556
					C43.933,34.602,44.397,34.695,44.397,34.88L44.397,34.88z M111.353,73.551c1.484,0,2.597,1.855,2.597,4.08
					c0,2.318-1.113,4.822-3.06,6.584c0-3.895-4.822-2.689-4.822-5.471c0-1.206,0.835-2.04,1.947-2.04
					c0.927,0,1.669,0.278,2.133,0.742c-0.556-0.464-0.742-1.206-0.742-1.855C109.406,74.571,110.055,73.551,111.353,73.551
					L111.353,73.551z M89.931,44.154c-0.185-0.371-1.113-0.556-1.484-0.556c-1.298,0-2.133,0.927-2.318,1.669
					c-0.093-0.278-0.185-0.649-0.185-1.02c0-1.298,0.835-2.782,2.968-2.782c1.855,0,2.597,1.02,2.782,1.02
					c0.278,0,0.556-0.278,0.835-0.278c0.278,0,0.278,0.464,0.278,0.835c0,1.113-0.556,3.153-1.855,3.895
					c-0.185-0.464-0.649-1.02-1.484-1.391c-0.185-0.093-0.278-0.278-0.278-0.464C89.282,44.71,89.653,44.339,89.931,44.154
					L89.931,44.154z M85.572,46.194c0.742,0.742,1.391,1.02,2.226,1.02c0.278,0,0.649-0.093,0.927-0.093s0.464,0.093,0.464,0.278
					c0,0.278-0.278,0.835-0.649,1.113c0.371,0.185,0.742,0.185,1.113,0.185c1.669,0,3.524-1.02,3.524-3.617
					c0.371,0.464,0.556,1.391,0.556,1.855c0,3.153-2.318,4.359-4.451,4.359c-1.391,0-2.04-0.464-2.226-0.464
					c-0.556,0-0.556,1.113-0.927,1.02c-0.649-0.093-1.298-1.577-1.298-3.153C84.83,47.956,85.108,46.936,85.572,46.194
					L85.572,46.194z M65.634,37.848c0,1.02,3.617,5.935,4.266,5.935c0.556,0,1.02-1.02,1.02-1.855c0-0.185-0.093-0.464-0.185-0.649
					c-0.556-0.742-4.173-3.617-5.008-3.617C65.634,37.662,65.634,37.755,65.634,37.848L65.634,37.848z M107.18,35.529
					c0-2.04-4.915-2.597-4.915-3.06c0-0.371,2.689-1.02,4.173-1.02c-2.133-2.782-5.286-2.504-5.286-2.968
					c0-0.278,2.318-0.835,4.451-0.835c1.762,0,3.431,0.371,3.431,1.762c0,0.742-0.649,1.484-0.649,2.689
					c0,0.649,0.278,1.206,1.113,1.206c0.927,0,1.113-0.927,1.113-1.947c0-0.835-0.185-1.484-0.185-1.855
					c0-1.206,0.835-2.04,2.04-2.04c1.02,0,1.206,0.464,2.689,0.464c-0.742,0.464-1.02,1.298-1.02,1.669
					c0,1.206,0.742,2.04,0.742,4.544c0,4.544-4.266,6.121-9.459,6.121c-1.484,0-2.968-0.093-4.451-0.371
					c-0.185,0-0.278-0.093-0.278-0.185c0-0.371,2.04-0.556,2.04-2.411c0-0.742-0.185-1.391-0.185-1.669
					c0-0.185,0.093-0.185,0.185-0.185c0.464,0,1.298,1.669,2.875,1.669C106.067,36.92,107.18,36.828,107.18,35.529L107.18,35.529z
					 M112.002,32.562c0,2.597-1.855,4.544-5.286,5.101c0.371,0,0.742,0,1.113,0c3.988,0,5.379-1.762,5.379-3.246
					C113.208,33.582,112.744,32.84,112.002,32.562L112.002,32.562z M109.313,55.746c0-0.649-1.484-0.649-1.669-2.318
					c0-0.278-0.093-0.742-0.464-0.742c-0.556,0-0.093,1.577-0.649,1.577c-1.298,0-1.762-2.597-2.226-2.597
					c-0.093,0-0.278,0.093-0.278,0.464c0,0.278,0.093,0.556,0.093,0.927s-0.093,0.649-0.464,0.649c-0.742,0-1.484-1.855-2.133-1.855
					c-0.185,0-0.278,0.093-0.278,0.185c0,0.371,0.556,1.02,0.556,1.298c0,0.649-1.855,0.278-1.855,0.927
					c0,0.278,0.278,0.371,0.649,0.371c0.649,0,1.577-0.278,2.04-0.278c0.278,0,0.742,0.093,0.742,0.464s-1.02,0.927-1.02,1.298
					c0,0.185,0.185,0.278,0.278,0.278c0.742,0,2.133-1.391,3.153-1.391c0.185,0,0.649,0.093,0.649,0.371
					c0,0.371-1.02,1.02-1.02,1.577c0,0.185,0.093,0.278,0.278,0.278c0.556,0,1.206-1.391,2.226-1.391
					c0.371,0,0.927,0.185,1.206,0.185C109.22,55.931,109.313,55.839,109.313,55.746L109.313,55.746z M88.632,33.767
					c0-0.278-1.113-0.927-1.113-1.298c0-0.093,0.093-0.093,0.185-0.093c0.278,0,0.835,0.093,1.298,0.093
					c0.371,0,0.464-1.577,0.742-1.577c0.185,0,0.556,1.484,0.835,1.484c0.371,0,1.02-0.464,1.391-0.464c0.093,0,0.093,0,0.093,0.093
					c0,0.185-0.742,1.02-0.742,1.206c0,0.278,1.577,0.556,1.577,0.835s-1.669,0.278-1.669,0.556c0,0.185,0.649,1.02,0.649,1.298
					c0,0.093,0,0.093-0.093,0.093c-0.185,0-1.113-0.371-1.391-0.371s-0.835,1.206-1.113,1.206c-0.093,0-0.185-0.093-0.185-0.278
					l-0.093-1.113c0-0.093-0.093-0.185-0.185-0.185c-0.371,0-1.02,0-1.206,0s-0.185,0-0.185-0.093
					C87.52,34.787,88.632,33.953,88.632,33.767L88.632,33.767z M94.289,39.239c-2.04,0-3.339-1.02-3.339-1.484
					c0-0.278,0.185-0.464,0.371-0.464c0.649,0,2.04,1.02,2.504,1.02c0.093,0,0.185-0.093,0.185-0.185
					c0-0.556-0.464-1.391-0.464-1.855c0-0.093,0.093-0.185,0.278-0.185c0.742,0,1.947,0.278,2.504,0.278
					c0.185,0,0.278-0.093,0.278-0.185c0-0.649-1.855-1.855-1.855-2.226c0-0.371,2.318-0.835,2.318-1.391s-3.153-0.185-3.153-0.742
					c0-0.371,0.649-1.113,0.649-1.391c0-0.185-0.093-0.185-0.278-0.185c-0.278,0-1.669,0.556-2.226,0.556
					c-0.278,0-0.649-0.093-0.649-0.464c0-0.649,1.113-1.391,2.875-1.391c2.875,0,4.544,1.947,4.544,5.286
					C98.741,38.219,95.866,39.239,94.289,39.239L94.289,39.239z M74.815,89.038c0,0.278-0.093,0.556-0.278,0.835
					c-0.278-0.556-1.206-0.835-1.577-0.835c-2.968,0-1.855,4.266-5.008,4.266c-1.298,0-1.484-0.185-1.947-0.185
					c-0.185,0-0.278,0.093-0.278,0.278c0,0.742,1.02,2.597,3.988,2.597s5.842-1.855,5.842-4.08c0-0.371-0.093-0.742-0.278-1.206
					c0.093-0.185,0.371-0.278,0.649-0.278c0.464,0,0.742,0.556,1.113,0.556c0.464,0,0.835-0.371,0.835-0.835
					c0-0.371-0.185-0.649-0.556-0.835c0.278-0.185,0.371-0.464,0.371-0.742c0-0.464-0.371-0.927-0.927-0.927
					c-0.278,0-0.464,0.093-0.649,0.278c-0.093-0.556-0.371-1.02-0.927-1.02c-0.464,0-0.742,0.278-0.742,0.835
					C74.444,88.204,74.815,88.575,74.815,89.038L74.815,89.038z M67.025,90.151c-0.835,0-2.133-0.927-2.133-1.484
					c0-0.464,0.371-0.649,0.742-0.649c0.742,0,2.04,0.927,2.04,1.669C67.581,89.873,67.488,90.151,67.025,90.151L67.025,90.151z
					 M58.957,83.66c2.318,0.556,3.431,1.855,3.709,3.246c0.185,1.391,0.556,2.597,1.02,3.153c0.742,0.835,2.133,1.484,3.339,1.484
					c1.02,0,1.855-0.371,1.855-1.298c0-1.02-1.391-3.339-3.524-3.339c-0.185,0-0.464,0-0.742,0s-0.649-0.093-0.835-0.278
					c-0.464-0.371-0.649-2.597-1.484-3.895c-0.927-1.484-1.947-1.855-3.431-1.855c-1.02,0-2.133,0.556-2.133,1.391
					C56.916,82.918,57.195,83.196,58.957,83.66L58.957,83.66z M73.424,80.228c0-1.298-2.689-1.298-2.689-3.246
					c0-0.464,0.278-1.298,0.927-2.226c0.278,1.484,0.835,2.318,2.133,2.782c2.597,0.927,2.875,2.411,2.875,3.895
					c0,2.597-1.855,5.842-6.492,5.842c-3.709,0-6.399-3.339-6.399-6.121c0-0.742,0.185-1.669,0.649-1.669
					c0.464,0,0.556,0.371,0.927,0.649c1.298,1.298,2.689,1.669,4.73,1.669C72.125,81.712,73.424,80.97,73.424,80.228L73.424,80.228z
					 M73.609,82.269c-1.02,0.371-1.391,0.371-1.391,1.391c0,0.371-0.093,0.835-0.093,1.113c0,0.371,0.093,0.556,0.464,0.556
					c1.02,0,2.689-1.762,2.689-3.246c0-0.371-0.185-0.556-0.464-0.556C74.536,81.527,74.258,81.898,73.609,82.269L73.609,82.269z
					 M64.335,67.709c0-1.855,4.359-2.782,4.359-5.101c0-0.371-0.185-1.02-0.371-1.484c1.484,0.835,2.689,2.226,2.689,3.431
					c0,1.947-2.04,2.875-2.04,4.173c0,1.484,2.226,1.669,2.226,3.431c0,1.484-2.133,3.153-2.133,5.101
					c0,1.484,1.02,2.689,2.597,2.875c-0.556,0.093-1.02,0.185-1.484,0.185c-2.875,0-5.935-2.411-5.935-5.286
					c0-1.391,0.649-2.689,1.484-3.524c0.835,0.649,1.577,1.113,2.133,1.113c0.464,0,0.649-0.185,0.649-0.556
					C68.601,70.955,64.335,70.027,64.335,67.709L64.335,67.709z"/>
				<path style="fill:#353535;" d="M70.363,129.286c0.835,0,2.226-0.278,3.339-2.04c-0.649-1.391-1.113-4.266-1.113-5.286
					c-0.278-5.286,1.669-10.201,3.895-10.387c1.669-0.093,2.968,1.484,3.06,3.895c0.371,6.584-1.762,9.274-2.875,11.685
					c0.185,0.927,1.762,2.504,3.246,2.504c0.556,0,1.206-0.278,1.391-0.464c-0.093-0.371-0.185-0.835-0.185-1.577
					c0-3.802,2.411-7.048,4.544-7.048c1.669,0,2.689,2.226,2.689,3.709c0,1.762-1.484,3.153-3.617,4.544
					c0.371,0.371,1.113,0.649,1.669,0.649c3.06,0,4.73-3.709,5.935-7.141c0.185-0.649,0.556-1.577,1.391-1.577
					c1.298,0,1.855,8.532,3.988,8.532c0.927,0,1.669-1.855,1.669-3.339c0-1.113-0.371-1.206-0.371-2.782
					c0-1.762,0.927-3.246,2.133-3.246c0.742,0,1.02,0.742,1.02,1.669c0,3.431-2.504,9.923-6.213,9.923
					c-2.782,0-2.597-4.822-3.524-4.822c-1.113,0-2.597,4.822-7.975,4.822c-0.835,0-1.762-0.464-2.504-1.298
					c-1.298,0.835-2.411,1.298-3.617,1.298c-2.04,0-2.875-2.04-3.709-2.04c-1.02,0-2.04,2.133-5.286,2.133
					c-2.597,0-3.06-3.431-3.988-3.431c-0.835,0-2.04,3.431-3.431,3.431c-2.318,0-2.782-6.028-4.822-6.028
					c-1.577,0-6.584,6.121-7.883,5.935c-0.556-0.093-0.742-0.464-0.742-1.02c0.093-0.742,0.742-2.782,1.02-3.709
					c0.464-1.669,0.835-3.431,1.113-4.08c0.185-0.556,0.835-1.02,1.298-0.927c0.278,0,0.278,0.464,0.371,0.835
					c0.278,1.391,0.649,2.689,1.113,2.689c0.742,0,3.246-4.822,4.73-4.822c1.762,0,2.04,7.604,4.451,7.604
					c0.835,0,1.391-1.02,1.947-2.133c0.093-2.04,0.556-4.915,2.226-4.915c1.113,0,1.669,2.504,0.835,4.822
					C67.488,128.637,69.158,129.286,70.363,129.286L70.363,129.286z M110.797,124.186c0-1.391-1.206-3.246-3.06-3.246
					c-2.411,0-4.822,2.689-4.822,6.306c0,3.339,2.04,4.359,4.08,4.359c3.617,0,5.75-2.968,6.863-5.379
					c0.556,1.669,0.835,5.379,2.226,5.379c0.556,0,0.927-0.278,1.577-1.762c1.669-3.617,3.153-7.79,5.379-7.79
					c0.835,0,0.371,1.484,2.318,1.484c0.927,0,1.577-0.742,1.577-1.669c0-1.206-1.113-2.226-2.875-2.226
					c-5.101,0-6.213,7.697-6.955,7.697c-1.391,0-0.927-6.121-1.855-6.121c-0.835,0-1.298,1.02-1.391,1.484
					c-0.742,2.782-2.689,6.863-5.75,6.863c-0.742,0-1.947-0.278-1.947-1.02C106.067,127.988,110.797,127.895,110.797,124.186
					L110.797,124.186z M77.689,117.138c-0.093-1.484-0.464-2.226-1.298-2.133c-1.113,0.093-1.577,3.431-1.391,7.048
					c0.185,2.318,0.464,2.689,0.835,2.689C76.484,124.649,77.968,120.476,77.689,117.138L77.689,117.138z M68.879,113.892
					c-0.093-0.835-0.742-1.484-1.669-1.484c-1.02,0-2.04,1.113-1.855,2.411c0,0.835,0.556,1.669,1.669,1.669
					C68.138,116.489,68.972,115.19,68.879,113.892L68.879,113.892z M85.758,125.02c0-0.927-0.464-1.669-1.113-1.669
					c-0.464,0-1.669,0.556-1.669,2.318c0,1.391,0.464,2.04,0.742,2.318C85.387,127.339,85.758,126.04,85.758,125.02L85.758,125.02z
					 M106.994,123.166c1.113,0,1.484,1.391,1.206,2.133c-0.278,0.835-1.206,1.762-2.782,2.04
					C105.14,126.504,104.954,123.166,106.994,123.166L106.994,123.166z M32.341,124c-0.093-2.226,0.093-4.451,1.02-7.604
					c0.464-1.669,0.927-2.318,2.411-2.597c1.206-0.185,1.113,1.02,0.835,2.504c-0.556,3.246-0.835,4.822-0.649,8.532
					c0.185,3.895,2.04,5.471,3.988,5.471c2.968,0.093,4.266-2.411,4.822-5.935c0.464-2.782,0.093-4.173-0.185-5.008
					c-0.185-0.464-0.556-1.577-0.742-2.411c-0.185-2.04,0.742-3.06,1.577-3.339c1.02-0.278,1.391,0.185,1.762,1.391
					c0.464,1.762,0.556,3.988,0.371,7.233c-0.185,4.451-2.411,9.83-7.975,9.737C34.66,131.79,32.619,128.73,32.341,124L32.341,124z"
					/>
			</g>
		</g>
	</g>
</g>
<g id="Layer_1">
</g>
</svg>
