<?xml version="1.0" encoding="iso-8859-1"?>
<!-- Generator: Adobe Illustrator 21.0.0, SVG Export Plug-In . SVG Version: 6.00 Build 0)  -->
<svg version="1.1" xmlns="http://www.w3.org/2000/svg" xmlns:xlink="http://www.w3.org/1999/xlink" x="0px" y="0px"
	 viewBox="0 0 159.252 159.252" style="enable-background:new 0 0 159.252 159.252;" xml:space="preserve">
<g id="wipro">
	<g>
		<circle style="fill:#FFFFFF;" cx="79.626" cy="79.626" r="79.626"/>
		<g>
			<g>
				<path style="fill:#FDFDFD;" d="M79.626,126.729c-20.002,0-40.005,0-59.983,0.024c-0.616,0-0.735-0.118-0.735-0.735
					c0.024-30.928,0.024-61.856,0-92.784c0-0.616,0.118-0.735,0.735-0.735c39.981,0.024,79.986,0.024,119.967,0
					c0.616,0,0.735,0.118,0.735,0.735c-0.024,30.928-0.024,61.856,0,92.784c0,0.616-0.118,0.735-0.735,0.735
					C119.631,126.729,99.629,126.729,79.626,126.729z M102.164,78.595c0.142-0.095,0.166-0.237,0.142-0.379
					c0.095-0.735-0.166-1.351-0.877-1.564c-0.664-0.237-1.28,0.047-1.612,0.711c-0.308,0.64-0.213,1.232,0.45,1.612
					C101.051,79.52,101.525,79.425,102.164,78.595L102.164,78.595z M109.535,77.126c0.024-0.047,0.047-0.118,0.071-0.166
					c0.19-0.142,0.166-0.332,0.142-0.521c0.095-1.114-0.355-1.943-1.256-2.299c-0.924-0.355-1.967-0.095-2.56,0.687
					c-0.64,0.829-0.616,1.73,0.071,2.654C107.141,78.738,108.729,78.572,109.535,77.126z M113.398,74.519l0.024,0.047
					c0.261,1.232,1.09,1.943,2.275,2.18c1.303,0.261,2.37-0.261,3.105-1.398c0.592-0.924,0.521-2.133-0.118-3.057
					c-0.735-1.185-2.038-1.706-3.271-1.303c-1.469,0.474-2.18,1.612-2.062,3.294c0,0.024-0.024,0.047-0.024,0.071
					C113.351,74.424,113.374,74.472,113.398,74.519z M106.288,61.698c0.071,0.545,0.45,0.877,0.853,1.185
					c0.782,0.64,2.014,0.687,2.891,0.166c0.901-0.545,1.351-1.54,1.161-2.654c-0.166-1.019-0.853-1.754-1.872-1.943
					C107.331,57.835,105.767,59.494,106.288,61.698z M123.233,72.528c0.047,0.403,0.261,0.711,0.498,1.019
					c1.303,1.612,3.389,2.109,5.166,1.375c1.825-0.782,3.057-3.057,2.465-5.095c-0.095-0.19-0.19-0.355-0.261-0.545
					c-0.711-2.346-3.342-3.271-5.546-2.441C123.115,67.812,122.238,70.656,123.233,72.528z M113.327,51.91
					c-0.829,2.346,1.232,4.669,3.91,4.456c1.849-0.166,3.318-2.133,3.01-4.1c-0.308-2.014-2.275-3.342-4.124-2.868
					c-0.047,0-0.095,0.024-0.142,0.024c-0.071-0.024-0.118-0.024-0.166,0.024C114.488,49.753,113.635,50.559,113.327,51.91z
					 M54.339,85.113c0,3.105,0.024,6.209,0,9.338c0,0.758,0.261,1.09,1.043,1.019c0.592-0.047,1.185-0.047,1.777,0
					c0.758,0.071,0.972-0.284,0.972-0.995c-0.024-1.896,0-3.792-0.024-5.688c0-0.498,0.047-0.64,0.64-0.498
					c1.612,0.427,3.247,0.616,4.906,0.095c3.555-1.138,5.569-5.522,4.242-9.266c-1.612-4.55-6.423-6.162-10.001-3.342
					c-0.711,0.545-0.877,0.427-1.114-0.355c-0.308-1.043-1.209-0.592-1.872-0.592c-0.616,0-0.545,0.592-0.545,1.019
					C54.339,78.951,54.339,82.032,54.339,85.113z M30.473,81.724c-0.521-1.659-0.972-3.081-1.422-4.503
					c-0.806-2.488-0.806-2.488-3.413-2.417c-0.024,0-0.047,0-0.095,0c-0.569-0.024-0.806,0.142-0.592,0.782
					c1.327,4.053,2.631,8.129,3.934,12.182c0.142,0.403,0.19,0.877,0.782,0.924c0.64,0.047,0.877-0.355,1.114-0.829
					c1.232-2.394,2.488-4.764,3.721-7.134c0.095-0.166,0.095-0.427,0.403-0.403c0.071,0.095,0.142,0.166,0.19,0.284
					c1.28,2.465,2.56,4.906,3.839,7.371c0.237,0.45,0.521,0.758,1.09,0.711c0.569-0.047,0.616-0.498,0.735-0.877
					c0.711-2.157,1.422-4.313,2.109-6.47c0.592-1.849,1.185-3.697,1.777-5.546c0.237-0.687,0.118-1.019-0.735-1.019
					c-2.536,0.024-2.536-0.024-3.247,2.394c-0.024,0.047-0.024,0.118-0.047,0.166c-0.521,1.351-0.806,2.797-1.493,4.266
					c-1.185-2.275-2.299-4.432-3.413-6.565c-0.19-0.355-0.379-0.64-0.853-0.616c-0.474,0-0.664,0.261-0.853,0.616
					c-0.735,1.422-1.469,2.82-2.228,4.242C31.374,80.017,30.971,80.752,30.473,81.724z M88.063,88.691
					c3.887,0.024,7.039-3.152,7.062-7.134c0.024-3.91-3.034-7.062-6.825-7.157c-3.626-0.095-7.11,2.725-7.11,7.157
					C81.19,85.824,84.461,88.668,88.063,88.691z M128.518,86.061c2.678,0.047,4.811-2.038,4.835-4.716
					c0-2.465-2.157-4.692-4.598-4.74c-2.678-0.047-4.929,2.133-4.929,4.764C123.802,83.928,125.911,86.037,128.518,86.061z
					 M71.094,81.463L71.094,81.463c0,1.872,0,3.721,0,5.593c0,1.232,0.047,1.28,1.232,1.28c0.403,0,0.829,0,1.232,0
					c1.28,0,1.327-0.047,1.303-1.28c0-2.346,0-4.669,0-7.015c0-1.161,0.308-1.612,1.398-2.038c0.521-0.213,1.043-0.19,1.564-0.166
					c1.564,0.095,1.564,0.095,2.18-1.327c0.047-0.142,0.118-0.261,0.19-0.403c0.379-0.877,0.261-1.232-0.711-1.493
					c-1.967-0.521-3.745-0.166-5.214,1.327c-0.332,0.332-0.498,0.379-0.64-0.095c-0.047-0.166-0.118-0.332-0.19-0.498
					c-0.403-0.948-1.232-0.474-1.872-0.498c-0.592-0.024-0.521,0.545-0.521,0.948C71.094,77.671,71.094,79.567,71.094,81.463z
					 M131.528,91.796c-0.071-2.394-1.991-4.313-4.313-4.29c-2.394,0.024-4.361,2.086-4.313,4.479
					c0.071,2.323,2.062,4.219,4.408,4.195C129.632,96.133,131.576,94.118,131.528,91.796z M50.95,81.605
					c0-1.991-0.024-3.958,0-5.949c0-0.592-0.166-0.877-0.806-0.853c-0.711,0.024-1.422,0.024-2.133,0
					c-0.569-0.024-0.829,0.213-0.829,0.782c0,3.958,0,7.939,0,11.897c0,0.569,0.237,0.877,0.853,0.853c0.64-0.024,1.303,0,1.943,0
					s0.948-0.237,0.948-0.948C50.926,85.468,50.95,83.548,50.95,81.605z M123.115,65.11c2.18,0.024,4.005-1.706,4.053-3.839
					c0.047-2.18-1.754-4.029-3.958-4.029c-2.228-0.024-4.029,1.73-4.029,3.958C119.181,63.404,120.863,65.087,123.115,65.11z
					 M123.21,97.721c-2.18-0.024-3.982,1.683-4.029,3.839c-0.047,2.062,1.849,3.982,3.934,4.005
					c2.109,0.024,3.982-1.825,4.005-3.958C127.12,99.569,125.319,97.744,123.21,97.721z M116.692,106.466
					c-1.777-0.19-3.579,1.683-3.579,3.46c0.024,1.92,1.683,3.65,3.602,3.65c1.92,0,3.531-1.659,3.531-3.602
					C120.247,107.983,118.707,106.466,116.692,106.466z M120.626,81.392c0-1.872-1.469-3.389-3.342-3.389
					c-1.872-0.024-3.413,1.469-3.436,3.342c-0.024,1.825,1.564,3.413,3.365,3.413C119.086,84.757,120.603,83.24,120.626,81.392z
					 M108.35,113.031c-1.896,0-3.413,1.493-3.389,3.365c0.024,1.825,1.517,3.318,3.342,3.318c1.872,0.024,3.365-1.493,3.389-3.389
					C111.739,114.5,110.199,113.031,108.35,113.031z M108.326,43.046c-1.777,0-3.342,1.564-3.342,3.342
					c0,1.825,1.54,3.365,3.389,3.365c1.849,0,3.365-1.564,3.342-3.413C111.692,44.539,110.127,43.022,108.326,43.046z
					 M95.505,42.382c-0.142,1.896,1.683,3.105,2.939,3.128c1.801,0,3.294-1.375,3.318-3.105c0.024-1.73-1.398-3.128-3.152-3.152
					C96.785,39.254,95.505,40.534,95.505,42.382z M98.562,123.53c1.683,0.024,3.176-1.446,3.199-3.128
					c0.024-1.635-1.422-3.034-3.105-3.128c-1.659-0.095-3.199,1.517-3.176,3.081C95.529,122.131,96.808,123.506,98.562,123.53z
					 M88.087,43.923c1.683,0,2.986-1.28,3.01-2.939c0-1.517-1.351-2.891-2.962-2.939c-1.54-0.047-2.986,1.375-3.01,2.891
					C85.125,42.596,86.428,43.899,88.087,43.923z M88.111,118.884c-1.612,0-2.891,1.232-2.891,2.82
					c-0.024,1.612,1.28,2.986,2.844,3.034c1.588,0.047,3.01-1.375,3.01-2.986C91.049,120.141,89.746,118.884,88.111,118.884z
					 M116.266,91.82c1.54,0,2.915-1.375,2.915-2.868c-0.024-1.635-1.303-2.939-2.915-2.962c-1.612-0.024-2.939,1.327-2.939,2.915
					C113.303,90.492,114.678,91.843,116.266,91.82z M116.052,66.959c0.071-1.54-1.019-2.773-2.536-2.844
					c-1.612-0.095-3.034,1.09-3.01,2.678c0,1.327,0.924,2.725,2.725,2.844C114.749,69.708,116.005,68.523,116.052,66.959z
					 M77.659,117.652c-1.635,0.024-2.773,1.161-2.749,2.797c0.024,1.54,1.256,2.725,2.797,2.702
					c1.446-0.047,2.749-1.398,2.725-2.844C80.408,118.861,79.129,117.652,77.659,117.652z M77.707,39.633
					c-1.588-0.024-2.82,1.185-2.82,2.773c0,1.493,1.185,2.725,2.654,2.749c1.517,0.024,2.844-1.185,2.891-2.631
					C80.479,40.961,79.223,39.657,77.707,39.633z M116.005,95.943c0-1.54-1.209-2.773-2.749-2.773c-1.398,0-2.725,1.351-2.725,2.749
					c0,1.517,1.256,2.725,2.797,2.725C114.82,98.645,116.005,97.46,116.005,95.943z M67.919,43.899
					c-1.351-0.213-2.654,1.375-2.583,2.536c0.071,1.398,1.161,2.583,2.56,2.607c1.351,0.024,2.56-1.209,2.583-2.607
					C70.526,45.132,69.222,43.686,67.919,43.899z M70.478,116.325c0-1.398-1.232-2.583-2.631-2.56
					c-1.351,0.024-2.512,1.209-2.512,2.583c0,1.351,1.185,2.536,2.536,2.56C69.293,118.908,70.502,117.723,70.478,116.325z
					 M111.194,101.939c0-1.422-1.114-2.536-2.512-2.56c-1.422-0.024-2.56,1.138-2.56,2.607c0,1.375,1.138,2.607,2.536,2.512
					C110.009,104.428,111.289,103.503,111.194,101.939z M102.71,108.931c1.28,0,2.346-1.09,2.346-2.394c0-1.303-1.09-2.37-2.37-2.37
					c-1.303,0-2.346,1.066-2.346,2.394C100.34,107.864,101.406,108.931,102.71,108.931z M59.529,55.251
					c1.209,0.047,2.37-1.09,2.394-2.346c0.047-1.256-1.114-2.394-2.441-2.417c-1.114-0.024-2.251,1.09-2.323,2.251
					C57.112,54.019,58.202,55.18,59.529,55.251z M59.505,112.177c1.635,0.237,2.417-1.351,2.417-2.417
					c0-1.185-1.185-2.228-2.417-2.204c-1.209,0.024-2.346,1.138-2.346,2.323C57.183,111.111,58.273,112.438,59.505,112.177z
					 M105.008,56.223c0.118-1.303-1.256-2.394-2.323-2.37c-1.28,0.024-2.37,1.09-2.346,2.37c0.024,1.327,1.043,2.37,2.346,2.37
					S105.008,57.55,105.008,56.223z M108.397,79.069c-1.28,0-2.323,1.043-2.299,2.299c0,1.28,1.043,2.299,2.323,2.275
					c1.28-0.024,2.275-1.066,2.251-2.346C110.649,80.136,109.582,79.069,108.397,79.069z M53.059,103.622
					c1.232,0.024,2.299-0.972,2.275-2.086c-0.024-1.066-1.09-2.204-2.133-2.251c-0.995-0.047-2.251,1.138-2.251,2.109
					C50.95,102.721,51.779,103.598,53.059,103.622z M93.514,53.355c0,1.161,0.995,2.109,2.157,2.109
					c1.114-0.024,2.133-0.995,2.133-2.062c0-1.232-0.972-2.228-2.157-2.228C94.486,51.199,93.514,52.194,93.514,53.355z
					 M97.78,109.476c0.024-1.185-0.924-2.133-2.109-2.157c-1.185,0-2.086,0.877-2.133,2.038c-0.024,1.209,0.901,2.228,2.038,2.228
					C96.785,111.585,97.78,110.637,97.78,109.476z M107.663,84.473c-1.161,0-2.133,0.972-2.109,2.157
					c0.024,1.161,0.924,2.062,2.086,2.086c1.209,0,2.157-0.901,2.157-2.086S108.824,84.473,107.663,84.473z M52.917,63.262
					c1.185,0.024,2.251-0.948,2.251-2.014c0-1.114-0.995-2.204-2.086-2.251c-1.138-0.047-2.18,0.995-2.18,2.204
					C50.926,62.243,51.922,63.262,52.917,63.262z M49.172,68.428c-1.185-0.024-2.133,0.877-2.133,2.014
					c0,1.066,0.972,2.014,2.038,2.014c1.09,0,1.991-0.877,2.014-1.92C51.116,69.353,50.263,68.452,49.172,68.428z M105.625,69.305
					c-1.138,0-1.967,0.877-1.943,2.038c0.024,1.066,0.829,1.872,1.92,1.872c1.114,0,1.991-0.829,2.014-1.896
					C107.639,70.206,106.762,69.305,105.625,69.305z M88.111,54.256c1.185,0,1.943-0.735,1.943-1.92
					c0-1.066-0.924-1.991-1.967-1.967c-0.948,0-1.92,0.972-1.943,1.943C86.12,53.403,86.973,54.232,88.111,54.256z M105.577,89.568
					c-1.019,0.024-1.872,0.901-1.872,1.967c0,1.043,0.948,1.991,1.991,1.943c0.995-0.047,1.896-0.995,1.896-1.991
					C107.592,90.445,106.644,89.544,105.577,89.568z M90.03,110.376c0-1.019-0.924-1.896-1.943-1.872
					c-1.043,0.024-1.92,0.901-1.92,1.92c0,0.995,0.924,1.92,1.92,1.92C89.201,112.343,90.03,111.49,90.03,110.376z M102.473,97.436
					c0.853-0.024,1.754-0.901,1.754-1.73c0-0.853-0.924-1.801-1.754-1.825c-0.948-0.024-1.825,0.853-1.825,1.801
					C100.648,96.678,101.453,97.436,102.473,97.436z M100.671,67.101c0,0.995,0.829,1.801,1.801,1.777
					c0.924-0.024,1.754-0.853,1.777-1.777c0.024-0.924-0.877-1.777-1.849-1.777C101.43,65.371,100.671,66.153,100.671,67.101z
					 M82.375,53.355c-0.024-0.972-0.782-1.754-1.754-1.73c-1.019,0-1.825,0.806-1.777,1.801c0.024,0.948,0.877,1.754,1.801,1.706
					C81.57,55.085,82.375,54.28,82.375,53.355z M80.645,107.698c-0.972-0.024-1.801,0.711-1.825,1.635
					c-0.024,0.877,0.806,1.825,1.659,1.896c0.877,0.071,1.872-0.877,1.872-1.754C82.352,108.551,81.57,107.722,80.645,107.698z
					 M99.818,98.835c-0.024-0.829-0.758-1.588-1.588-1.588c-0.735,0-1.612,0.877-1.588,1.612c0,0.782,0.806,1.54,1.635,1.54
					C99.131,100.423,99.818,99.688,99.818,98.835z M73.535,54.73c-0.877,0.024-1.54,0.687-1.54,1.588
					c0,0.877,0.782,1.588,1.683,1.564c0.806-0.024,1.446-0.758,1.446-1.612C75.123,55.346,74.46,54.706,73.535,54.73z
					 M99.794,63.949c0.024-0.853-0.687-1.564-1.564-1.564c-0.782,0-1.564,0.687-1.612,1.469c-0.047,0.782,0.735,1.612,1.54,1.612
					C99.06,65.489,99.794,64.802,99.794,63.949z M72.066,106.561c0,0.877,0.64,1.493,1.493,1.493c0.829,0,1.54-0.758,1.54-1.612
					c-0.024-0.735-0.782-1.54-1.446-1.517C72.73,104.949,72.066,105.636,72.066,106.561z M100.008,81.344
					c-0.047,0.758,0.64,1.469,1.446,1.493c0.806,0.047,1.517-0.592,1.54-1.375c0.047-0.758-0.711-1.588-1.469-1.612
					C100.814,79.851,100.031,80.61,100.008,81.344z M93.325,102.342c0.735,0.024,1.493-0.735,1.493-1.469
					c0-0.711-0.687-1.422-1.398-1.446c-0.735-0.024-1.446,0.64-1.469,1.375C91.879,101.56,92.566,102.318,93.325,102.342z
					 M94.794,61.935c0.024-0.758-0.711-1.493-1.469-1.493c-0.711,0-1.422,0.735-1.422,1.446c0,0.735,0.687,1.422,1.422,1.422
					C94.13,63.309,94.77,62.693,94.794,61.935z M68.89,101.916c0-0.806-0.545-1.398-1.256-1.422
					c-0.758-0.024-1.398,0.616-1.398,1.375c0,0.806,0.592,1.375,1.398,1.375C68.322,103.219,68.89,102.627,68.89,101.916z
					 M88.111,59.873c-0.735,0-1.398,0.592-1.398,1.303c0,0.711,0.711,1.398,1.446,1.375c0.735-0.024,1.327-0.616,1.327-1.375
					C89.462,60.441,88.893,59.896,88.111,59.873z M67.611,59.541c-0.758-0.024-1.375,0.569-1.375,1.303
					c-0.024,0.735,0.569,1.375,1.303,1.422c0.711,0.047,1.351-0.569,1.375-1.327C68.938,60.181,68.345,59.565,67.611,59.541z
					 M88.111,100.233c-0.711,0-1.327,0.569-1.351,1.232c-0.024,0.758,0.616,1.446,1.375,1.422c0.664-0.024,1.303-0.64,1.303-1.303
					C89.462,100.849,88.869,100.233,88.111,100.233z M101.027,83.525c-0.758,0.024-1.351,0.64-1.303,1.375
					c0.024,0.664,0.687,1.303,1.327,1.28c0.687-0.024,1.351-0.735,1.327-1.398C102.354,84.117,101.69,83.501,101.027,83.525z
					 M101.027,74.685c-0.024-0.616-0.735-1.303-1.351-1.28c-0.64,0.024-1.303,0.711-1.28,1.351c0.024,0.616,0.735,1.327,1.327,1.303
					C100.34,76.012,101.027,75.277,101.027,74.685z M84.153,100.873c-0.024-0.711-0.664-1.327-1.303-1.303
					c-0.664,0.047-1.185,0.616-1.161,1.303c0,0.735,0.616,1.351,1.28,1.303C83.584,102.129,84.177,101.489,84.153,100.873z
					 M84.129,61.958c0.024-0.711-0.569-1.351-1.256-1.327c-0.664,0-1.209,0.545-1.232,1.232c-0.047,0.735,0.498,1.327,1.232,1.351
					C83.513,63.214,84.105,62.622,84.129,61.958z M99.7,86.843c-0.64,0-1.28,0.592-1.28,1.209s0.616,1.209,1.28,1.232
					c0.687,0,1.256-0.545,1.256-1.209C100.956,87.459,100.34,86.843,99.7,86.843z M97.567,70.774c-0.64,0-1.185,0.545-1.161,1.185
					c0.024,0.711,0.403,1.09,1.114,1.114c0.711,0.024,1.209-0.427,1.209-1.114C98.752,71.343,98.207,70.798,97.567,70.774z
					 M79.176,63.996c0.024-0.616-0.521-1.209-1.114-1.256c-0.64-0.024-1.161,0.474-1.209,1.138c-0.024,0.711,0.403,1.185,1.09,1.232
					C78.607,65.134,79.152,64.636,79.176,63.996z M97.401,91.986c0.877-0.047,1.256-0.427,1.327-1.114
					c0.047-0.616-0.545-1.209-1.138-1.232c-0.616-0.024-1.161,0.545-1.161,1.185C96.405,91.488,96.903,91.986,97.401,91.986z
					 M64.103,95.967c0-0.829-0.45-1.185-1.066-1.303c-0.521-0.118-1.232,0.592-1.256,1.138c-0.024,0.569,0.592,1.232,1.185,1.209
					C63.653,96.962,64.032,96.536,64.103,95.967z M78.086,97.673c-0.664-0.024-1.185,0.45-1.209,1.114
					c-0.024,0.687,0.427,1.209,1.09,1.209c0.687,0,1.09-0.379,1.185-1.043C79.247,98.29,78.702,97.673,78.086,97.673z
					 M62.918,65.798c-0.474,0-1.185,0.711-1.114,1.209c0.095,0.616,0.498,1.019,1.114,1.066c0.545,0.047,1.161-0.569,1.161-1.138
					C64.079,66.414,63.439,65.774,62.918,65.798z M74.934,95.446c-0.19-0.474-0.474-0.948-1.09-0.924s-1.066,0.355-1.043,1.066
					c0.024,0.664,0.45,1.066,1.09,1.066C74.555,96.654,74.815,96.109,74.934,95.446z M72.801,67.054
					c0.024,0.687,0.379,1.114,0.995,1.138c0.664,0.047,0.995-0.427,1.09-1.043c0.071-0.498-0.498-1.09-1.043-1.043
					C73.251,66.153,72.872,66.461,72.801,67.054z M94.794,91.867c-0.616,0.024-0.995,0.355-1.019,0.972
					c0,0.616,0.308,1.09,0.972,1.161c0.569,0.071,1.209-0.545,1.138-1.09C95.789,92.317,95.505,91.867,94.794,91.867z
					 M93.751,69.803c0.095,0.664,0.403,1.114,1.066,1.114s1.066-0.427,1.043-1.066c0-0.64-0.474-1.019-1.114-1.019
					C94.13,68.807,93.846,69.258,93.751,69.803z M71.545,91.393c-0.024-0.592-0.332-0.924-0.948-0.924
					c-0.64,0-0.924,0.45-0.948,0.972c0,0.545,0.332,0.972,0.972,0.901C71.189,92.317,71.616,92.08,71.545,91.393z M91.547,69.495
					c0.664-0.024,0.948-0.403,0.948-0.972c0-0.592-0.427-0.924-0.948-0.924c-0.521,0-0.877,0.379-0.853,0.924
					C90.67,69.068,90.955,69.447,91.547,69.495z M91.547,95.114c0.616,0.024,0.948-0.308,0.948-0.877
					c0.024-0.569-0.355-0.877-0.877-0.901c-0.616-0.024-0.924,0.332-0.948,0.924C90.646,94.806,90.978,95.114,91.547,95.114z
					 M70.739,70.466c-0.687,0.024-1.019,0.427-1.019,0.901c0,0.521,0.355,0.972,0.972,0.924c0.545-0.024,0.853-0.403,0.853-0.948
					C71.521,70.774,71.189,70.49,70.739,70.466z M88.134,93.834c-0.498,0.071-0.853,0.284-0.853,0.829
					c0,0.545,0.379,0.829,0.853,0.853c0.427,0,0.782-0.308,0.806-0.782C88.964,94.213,88.632,93.929,88.134,93.834z M88.988,68.073
					c-0.095-0.498-0.379-0.853-0.877-0.853c-0.45,0-0.853,0.308-0.877,0.829c-0.024,0.592,0.403,0.853,0.901,0.877
					C88.679,68.973,88.869,68.547,88.988,68.073z M84.698,95.019c0.498-0.071,0.711-0.403,0.711-0.853
					c0.024-0.474-0.308-0.687-0.735-0.664c-0.427,0.024-0.735,0.261-0.735,0.711C83.963,94.664,84.177,94.995,84.698,95.019z
					 M85.433,68.476c-0.071-0.427-0.355-0.687-0.758-0.711c-0.474-0.024-0.782,0.308-0.758,0.782
					c0.024,0.427,0.284,0.735,0.711,0.735C85.125,69.305,85.362,68.973,85.433,68.476z M82.162,69.874
					c-0.118-0.355-0.284-0.687-0.687-0.664c-0.379,0.024-0.664,0.237-0.64,0.687c0.024,0.427,0.237,0.664,0.664,0.664
					C81.901,70.537,82.067,70.253,82.162,69.874z M82.067,92.886c-0.024-0.45-0.213-0.64-0.616-0.64c-0.45,0-0.64,0.261-0.64,0.664
					c0,0.427,0.261,0.64,0.664,0.64C81.949,93.526,82.044,93.194,82.067,92.886z M78.702,91.322
					c0.332-0.024,0.498-0.261,0.498-0.592c0.024-0.308-0.118-0.545-0.45-0.545c-0.308,0-0.569,0.166-0.592,0.521
					C78.133,91.061,78.299,91.275,78.702,91.322z M78.749,72.552c0.284-0.047,0.498-0.19,0.474-0.521
					c-0.024-0.284-0.142-0.545-0.45-0.545c-0.332,0-0.592,0.166-0.616,0.521C78.109,72.362,78.418,72.457,78.749,72.552z"/>
				<path style="fill:#242424;" d="M54.339,85.113c0-3.081,0-6.162,0-9.243c0-0.427-0.071-1.019,0.545-1.019
					c0.664,0,1.564-0.45,1.872,0.592c0.213,0.758,0.403,0.901,1.114,0.355c3.579-2.844,8.413-1.209,10.001,3.342
					c1.327,3.745-0.687,8.153-4.242,9.267c-1.635,0.521-3.294,0.332-4.906-0.095c-0.592-0.142-0.64-0.024-0.64,0.498
					c0.024,1.896,0,3.792,0.024,5.688c0,0.711-0.19,1.066-0.972,0.995c-0.592-0.047-1.185-0.047-1.777,0
					c-0.782,0.071-1.043-0.261-1.043-1.019C54.339,91.322,54.339,88.217,54.339,85.113z M58.083,81.961L58.083,81.961
					c0,0.711,0,1.422,0,2.133c0,0.284,0.024,0.521,0.308,0.664c1.303,0.64,2.654,0.924,4.005,0.284
					c2.299-1.043,2.844-4.266,1.114-6.162c-0.972-1.066-2.417-1.422-3.721-0.901c-1.256,0.498-1.706,1.28-1.706,2.939
					C58.083,81.25,58.083,81.605,58.083,81.961z"/>
				<path style="fill:#242424;" d="M30.473,81.724c0.521-0.972,0.901-1.706,1.303-2.441c0.735-1.398,1.493-2.82,2.228-4.242
					c0.19-0.379,0.403-0.616,0.853-0.616c0.474,0,0.687,0.261,0.853,0.616c1.114,2.133,2.228,4.29,3.413,6.565
					c0.687-1.469,0.972-2.915,1.493-4.266c0.024-0.047,0.024-0.118,0.047-0.166c0.735-2.394,0.735-2.37,3.247-2.394
					c0.853,0,0.948,0.308,0.735,1.019c-0.592,1.849-1.185,3.697-1.777,5.546c-0.687,2.157-1.398,4.313-2.109,6.47
					c-0.118,0.379-0.166,0.829-0.735,0.877c-0.569,0.047-0.853-0.261-1.09-0.711c-1.28-2.465-2.56-4.929-3.839-7.371
					c-0.047-0.095-0.142-0.19-0.19-0.284c-0.308-0.024-0.332,0.237-0.403,0.403c-1.256,2.37-2.488,4.764-3.721,7.134
					c-0.237,0.474-0.474,0.877-1.114,0.829c-0.592-0.047-0.664-0.521-0.782-0.924c-1.303-4.053-2.607-8.129-3.934-12.182
					c-0.213-0.664,0.024-0.806,0.592-0.782c0.024,0,0.047,0,0.095,0c2.631-0.071,2.631-0.071,3.413,2.417
					C29.502,78.643,29.928,80.065,30.473,81.724z"/>
				<path style="fill:#242424;" d="M88.063,88.691c-3.602-0.047-6.873-2.868-6.873-7.134c-0.024-4.432,3.484-7.252,7.11-7.157
					c3.792,0.095,6.849,3.247,6.825,7.157C95.102,85.539,91.95,88.739,88.063,88.691z M88.134,85.326c2.062,0,3.65-1.659,3.65-3.768
					c-0.024-2.157-1.588-3.792-3.626-3.792c-1.991,0-3.579,1.659-3.602,3.745C84.508,83.643,86.096,85.326,88.134,85.326z"/>
				<path style="fill:#616161;" d="M128.518,86.061c-2.583-0.047-4.716-2.133-4.692-4.692c0-2.631,2.251-4.811,4.929-4.764
					c2.441,0.047,4.598,2.275,4.598,4.74C133.329,84.022,131.196,86.108,128.518,86.061z"/>
				<path style="fill:#242424;" d="M71.094,81.463c0-1.896,0-3.792,0-5.688c0-0.403-0.071-0.972,0.521-0.948
					c0.64,0.024,1.469-0.45,1.872,0.498c0.071,0.166,0.142,0.332,0.19,0.498c0.142,0.474,0.308,0.427,0.64,0.095
					c1.469-1.493,3.247-1.849,5.214-1.327c0.948,0.261,1.09,0.616,0.711,1.493c-0.047,0.142-0.118,0.261-0.19,0.403
					c-0.616,1.422-0.616,1.398-2.18,1.327c-0.521-0.024-1.066-0.047-1.564,0.166c-1.09,0.45-1.422,0.877-1.398,2.038
					c0,2.346,0,4.669,0,7.015c0,1.232-0.047,1.28-1.303,1.28c-0.403,0-0.829,0-1.232,0c-1.185,0-1.232-0.047-1.232-1.28
					C71.094,85.207,71.094,83.335,71.094,81.463L71.094,81.463z"/>
				<path style="fill:#777777;" d="M131.528,91.796c0.071,2.323-1.872,4.337-4.219,4.361c-2.37,0.024-4.361-1.849-4.408-4.195
					c-0.071-2.394,1.92-4.456,4.313-4.479C129.514,87.483,131.457,89.402,131.528,91.796z"/>
				<path style="fill:#242424;" d="M50.95,81.605c0,1.92-0.024,3.839,0.024,5.759c0.024,0.711-0.284,0.948-0.948,0.948
					c-0.64,0-1.303-0.024-1.943,0c-0.616,0.024-0.853-0.308-0.853-0.853c0-3.958,0-7.939,0-11.897c0-0.545,0.261-0.806,0.829-0.782
					c0.711,0.024,1.422,0.024,2.133,0c0.64-0.024,0.806,0.261,0.806,0.853C50.926,77.647,50.95,79.638,50.95,81.605z"/>
				<path style="fill:#323232;" d="M123.115,65.11c-2.251-0.024-3.934-1.706-3.934-3.934c0-2.204,1.777-3.958,4.029-3.958
					c2.18,0.024,4.005,1.872,3.958,4.029C127.12,63.404,125.295,65.11,123.115,65.11z"/>
				<path style="fill:#717171;" d="M123.21,97.721c2.109,0.024,3.91,1.849,3.887,3.91c-0.024,2.109-1.896,3.958-4.005,3.958
					c-2.086-0.024-3.982-1.943-3.934-4.005C119.228,99.403,121.029,97.697,123.21,97.721z"/>
				<path style="fill:#4B4B4B;" d="M116.692,106.466c2.014,0,3.531,1.517,3.555,3.508c0,1.943-1.612,3.602-3.531,3.602
					c-1.92,0-3.579-1.706-3.602-3.65C113.114,108.149,114.915,106.276,116.692,106.466z"/>
				<path style="fill:#616161;" d="M120.626,81.392c0,1.849-1.54,3.365-3.413,3.365c-1.801,0-3.389-1.588-3.365-3.413
					c0.024-1.849,1.54-3.342,3.436-3.342C119.157,78.027,120.626,79.52,120.626,81.392z"/>
				<path style="fill:#4B4B4B;" d="M108.35,113.031c1.849,0,3.365,1.469,3.342,3.294c-0.024,1.896-1.517,3.413-3.389,3.389
					c-1.825-0.024-3.318-1.493-3.342-3.318C104.937,114.524,106.478,113.031,108.35,113.031z"/>
				<path style="fill:#6D6D6D;" d="M108.326,43.046c1.801,0,3.365,1.517,3.389,3.294c0.024,1.872-1.493,3.413-3.342,3.413
					s-3.413-1.54-3.389-3.365C104.985,44.61,106.549,43.046,108.326,43.046z"/>
				<path style="fill:#424242;" d="M116.123,49.374c1.849-0.474,3.792,0.829,4.124,2.868c0.308,1.967-1.138,3.958-3.01,4.1
					c-2.678,0.237-4.74-2.109-3.91-4.456c0.379,0.332-0.118,0.664,0,0.972c0.095,0.237,0.047,0.616,0.332,0.64
					c0.355,0.024,0.355-0.308,0.355-0.592c0-0.118,0-0.237,0.047-0.355c0.142-0.355,0.284-0.711,0.711-0.829
					c0.521-0.166,0.403,0.45,0.877,0.687c-0.261-1.209,0.332-1.967,1.043-2.654c-0.308-0.308-0.687-0.095-0.877-0.355
					c0.047-0.047,0.118-0.047,0.166-0.024h0.071H116.123z"/>
				<path style="fill:#424242;" d="M123.233,72.528c-0.972-1.872-0.095-4.74,2.346-5.664c2.204-0.853,4.835,0.095,5.546,2.441
					c0.047,0.19,0.166,0.355,0.261,0.545c-0.142,0.047-0.332,0.071-0.379,0.166c-0.166,0.284-0.071,0.829-0.498,0.853
					c-0.569,0.024-0.047-0.711-0.498-0.901c-0.213,0.213-0.19,0.664-0.592,0.758c-1.114,0.261-2.157,0.877-3.318,0.901
					C124.987,71.604,124.181,72.22,123.233,72.528z"/>
				<path style="fill:#838383;" d="M95.505,42.382c0-1.849,1.28-3.128,3.105-3.128c1.754,0,3.152,1.422,3.152,3.152
					c-0.024,1.706-1.517,3.105-3.318,3.105C97.188,45.487,95.363,44.278,95.505,42.382z"/>
				<path style="fill:#7C7C7C;" d="M98.562,123.53c-1.754-0.024-3.034-1.398-3.081-3.176c-0.047-1.564,1.517-3.176,3.176-3.081
					c1.683,0.095,3.105,1.493,3.105,3.128C101.738,122.108,100.245,123.553,98.562,123.53z"/>
				<path style="fill:#838383;" d="M88.087,43.923c-1.659,0-2.962-1.327-2.962-2.986c0-1.517,1.469-2.915,3.01-2.891
					c1.588,0.047,2.962,1.398,2.962,2.939C91.073,42.643,89.77,43.923,88.087,43.923z"/>
				<path style="fill:#7C7C7C;" d="M88.111,118.884c1.659,0,2.962,1.256,2.962,2.868c0,1.612-1.422,3.01-3.01,2.986
					c-1.564-0.047-2.844-1.422-2.844-3.034C85.219,120.117,86.475,118.884,88.111,118.884z"/>
				<path style="fill:#777777;" d="M116.266,91.82c-1.612,0-2.962-1.327-2.962-2.915c0-1.612,1.351-2.939,2.939-2.915
					c1.612,0.024,2.915,1.327,2.915,2.962C119.204,90.469,117.83,91.82,116.266,91.82z"/>
				<path style="fill:#4E4E4E;" d="M123.233,72.528c0.948-0.332,1.754-0.924,2.844-0.948c1.161,0,2.204-0.616,3.318-0.901
					c0.427-0.095,0.379-0.521,0.592-0.758c0.45,0.213-0.071,0.924,0.498,0.901c0.427,0,0.332-0.545,0.498-0.853
					c0.047-0.095,0.261-0.118,0.379-0.166c0.592,2.038-0.64,4.313-2.465,5.095c-1.777,0.758-3.863,0.237-5.166-1.375
					C123.494,73.239,123.281,72.931,123.233,72.528z"/>
				<path style="fill:#323232;" d="M116.052,66.959c-0.071,1.564-1.327,2.749-2.82,2.678c-1.801-0.095-2.702-1.517-2.725-2.844
					c-0.024-1.588,1.398-2.773,3.01-2.678C115.033,64.186,116.123,65.418,116.052,66.959z"/>
				<path style="fill:#A3A3A3;" d="M77.659,117.652c1.469-0.024,2.749,1.209,2.773,2.654c0.024,1.446-1.28,2.797-2.725,2.844
					c-1.54,0.047-2.773-1.138-2.797-2.702C74.886,118.813,76.024,117.676,77.659,117.652z"/>
				<path style="fill:#7E7E7E;" d="M77.707,39.633c1.517,0.024,2.773,1.327,2.725,2.891c-0.047,1.446-1.375,2.678-2.891,2.631
					c-1.469-0.024-2.654-1.28-2.654-2.749C74.886,40.818,76.119,39.61,77.707,39.633z"/>
				<path style="fill:#717171;" d="M116.005,95.943c0,1.517-1.185,2.702-2.678,2.702c-1.54,0-2.797-1.232-2.797-2.725
					c0-1.398,1.327-2.749,2.725-2.749C114.796,93.17,116.005,94.403,116.005,95.943z"/>
				<path style="fill:#787878;" d="M67.919,43.899c1.303-0.213,2.607,1.256,2.56,2.56c-0.047,1.398-1.232,2.631-2.583,2.607
					c-1.398-0.024-2.488-1.209-2.56-2.607C65.264,45.274,66.568,43.686,67.919,43.899z"/>
				<path style="fill:#A3A3A3;" d="M70.478,116.325c0,1.375-1.185,2.56-2.607,2.56c-1.351,0-2.536-1.185-2.536-2.56
					c0-1.375,1.161-2.56,2.512-2.583C69.246,113.742,70.478,114.927,70.478,116.325z"/>
				<path style="fill:#4B4B4B;" d="M111.194,101.939c0.071,1.564-1.185,2.488-2.536,2.56c-1.375,0.071-2.536-1.138-2.536-2.512
					c0-1.469,1.138-2.607,2.56-2.607S111.194,100.517,111.194,101.939z"/>
				<path style="fill:#4B4B4B;" d="M102.71,108.931c-1.28,0-2.37-1.066-2.37-2.37c-0.024-1.327,1.019-2.394,2.346-2.394
					c1.303,0,2.37,1.066,2.37,2.37C105.056,107.84,103.989,108.931,102.71,108.931z"/>
				<path style="fill:#787878;" d="M59.529,55.251c-1.327-0.047-2.417-1.209-2.346-2.488c0.071-1.161,1.209-2.275,2.323-2.251
					c1.327,0.024,2.488,1.161,2.441,2.417C61.899,54.161,60.738,55.299,59.529,55.251z"/>
				<path style="fill:#A3A3A3;" d="M59.505,112.177c-1.232,0.261-2.323-1.066-2.323-2.323c0-1.185,1.114-2.299,2.346-2.323
					s2.417,1.043,2.417,2.204C61.923,110.827,61.141,112.414,59.505,112.177z"/>
				<path style="fill:#6D6D6D;" d="M105.008,56.223c0,1.327-1.019,2.37-2.323,2.37s-2.323-1.043-2.346-2.37
					c-0.024-1.28,1.066-2.346,2.346-2.37C103.752,53.829,105.127,54.92,105.008,56.223z"/>
				<path style="fill:#616161;" d="M108.397,79.069c1.185,0,2.251,1.043,2.275,2.251c0.024,1.28-0.995,2.323-2.251,2.346
					c-1.28,0.024-2.323-1.019-2.323-2.275C106.075,80.112,107.118,79.093,108.397,79.069z"/>
				<path style="fill:#424242;" d="M109.345,58.427c1.019,0.213,1.706,0.924,1.872,1.943c0.19,1.114-0.261,2.109-1.161,2.654
					c-0.901,0.545-2.109,0.474-2.891-0.166c-0.379-0.308-0.782-0.64-0.853-1.185c0.45,0.166,0.853,0.118,1.232-0.166
					c-0.64-0.64-0.64-0.829,0.095-1.327c0.355-0.237,0.545-0.711,0.45-0.995c-0.166-0.45,0.095-0.45,0.332-0.592
					C108.682,58.451,109.014,58.498,109.345,58.427z"/>
				<path style="fill:#A3A3A3;" d="M53.059,103.622c-1.256-0.024-2.109-0.901-2.109-2.228c0-0.995,1.232-2.157,2.251-2.109
					c1.043,0.047,2.133,1.185,2.133,2.251C55.334,102.65,54.268,103.646,53.059,103.622z"/>
				<path style="fill:#838383;" d="M93.514,53.355c0-1.161,0.972-2.157,2.109-2.18c1.185,0,2.157,0.995,2.157,2.228
					c0,1.066-0.995,2.038-2.133,2.062C94.486,55.465,93.514,54.517,93.514,53.355z"/>
				<path style="fill:#7C7C7C;" d="M97.78,109.476c-0.024,1.138-1.019,2.109-2.204,2.109c-1.138,0-2.086-1.019-2.038-2.228
					c0.024-1.161,0.948-2.038,2.133-2.038C96.879,107.343,97.804,108.291,97.78,109.476z"/>
				<path style="fill:#777777;" d="M107.663,84.473c1.161,0,2.133,0.972,2.133,2.133c0,1.185-0.948,2.086-2.157,2.086
					c-1.138,0-2.062-0.924-2.086-2.086C105.553,85.468,106.501,84.496,107.663,84.473z"/>
				<path style="fill:#9B9B9B;" d="M52.917,63.262c-1.019,0-1.991-1.019-2.014-2.062c0-1.185,1.043-2.251,2.18-2.204
					c1.09,0.047,2.086,1.138,2.086,2.251C55.192,62.337,54.102,63.285,52.917,63.262z"/>
				<path style="fill:#424242;" d="M113.351,74.282c-0.095-1.683,0.592-2.82,2.062-3.294c1.232-0.403,2.512,0.118,3.271,1.303
					c0,0.829-0.427,1.351-1.256,1.422c-1.375,0.142-2.607,0.901-4.005,0.853l-0.024-0.047
					C113.469,74.424,113.422,74.353,113.351,74.282z"/>
				<path style="fill:#4E4E4E;" d="M113.398,74.566c1.398,0.047,2.631-0.711,4.005-0.853c0.806-0.095,1.232-0.592,1.256-1.422
					c0.64,0.924,0.687,2.157,0.118,3.057c-0.735,1.138-1.777,1.659-3.105,1.398C114.512,76.533,113.682,75.822,113.398,74.566z"/>
				<path style="fill:#9B9B9B;" d="M49.172,68.428c1.09,0.024,1.92,0.924,1.92,2.109c-0.024,1.043-0.924,1.896-2.014,1.92
					c-1.09,0-2.038-0.948-2.038-2.014C47.039,69.305,47.987,68.405,49.172,68.428z"/>
				<path style="fill:#323232;" d="M105.625,69.305c1.138,0,2.014,0.877,1.991,2.014c-0.024,1.066-0.901,1.896-2.014,1.896
					c-1.09,0-1.896-0.806-1.92-1.872C103.681,70.206,104.511,69.329,105.625,69.305z"/>
				<path style="fill:#838383;" d="M88.111,54.256c-1.138,0-1.991-0.853-1.967-1.943c0.024-0.972,0.972-1.943,1.943-1.943
					c1.043,0,1.967,0.901,1.967,1.967C90.054,53.498,89.296,54.256,88.111,54.256z"/>
				<path style="fill:#717171;" d="M105.577,89.568c1.066-0.024,2.014,0.877,2.014,1.92c0,0.995-0.901,1.943-1.896,1.991
					c-1.043,0.047-2.014-0.901-1.991-1.943C103.705,90.469,104.558,89.592,105.577,89.568z"/>
				<path style="fill:#7C7C7C;" d="M90.03,110.376c0,1.114-0.829,1.967-1.943,1.967c-1.019,0-1.92-0.924-1.92-1.92
					c0-1.019,0.877-1.896,1.92-1.92C89.106,108.457,90.03,109.357,90.03,110.376z"/>
				<path style="fill:#4B4B4B;" d="M102.473,97.436c-1.019,0.024-1.801-0.758-1.825-1.754c-0.024-0.948,0.877-1.825,1.825-1.801
					c0.853,0.024,1.754,0.972,1.754,1.825C104.226,96.536,103.326,97.413,102.473,97.436z"/>
				<path style="fill:#424242;" d="M100.671,67.101c0-0.972,0.758-1.754,1.73-1.754c0.972-0.024,1.849,0.829,1.849,1.777
					c-0.024,0.924-0.829,1.754-1.777,1.777C101.477,68.902,100.671,68.12,100.671,67.101z"/>
				<path style="fill:#424242;" d="M106.027,77.481c-0.687-0.924-0.711-1.849-0.071-2.654c0.592-0.782,1.635-1.043,2.56-0.687
					c0.901,0.355,1.351,1.185,1.256,2.299c-0.142-0.024-0.355-0.024-0.403-0.095c-0.474-0.829-0.829-0.284-1.161,0.095
					c-0.213,0.237-0.379,0.569-0.758,0.521C106.881,76.889,106.501,77.292,106.027,77.481z"/>
				<path style="fill:#7E7E7E;" d="M82.375,53.355c0.024,0.924-0.782,1.73-1.754,1.777c-0.924,0.024-1.754-0.758-1.801-1.706
					c-0.024-0.995,0.782-1.801,1.777-1.801C81.57,51.602,82.352,52.384,82.375,53.355z"/>
				<path style="fill:#A3A3A3;" d="M80.645,107.698c0.924,0.024,1.706,0.853,1.706,1.777c0,0.877-0.995,1.801-1.872,1.754
					c-0.853-0.047-1.706-1.019-1.659-1.896C78.844,108.409,79.674,107.675,80.645,107.698z"/>
				<path style="fill:#4B4B4B;" d="M99.818,98.835c0.024,0.853-0.687,1.588-1.54,1.588c-0.829,0-1.635-0.758-1.635-1.54
					c0-0.758,0.853-1.612,1.588-1.612C99.06,97.247,99.794,98.005,99.818,98.835z"/>
				<path style="fill:#787878;" d="M73.535,54.73c0.924-0.024,1.564,0.616,1.588,1.517c0.024,0.853-0.616,1.564-1.446,1.612
					c-0.901,0.047-1.683-0.687-1.683-1.564C71.995,55.417,72.659,54.73,73.535,54.73z"/>
				<path style="fill:#6D6D6D;" d="M99.794,63.949c-0.024,0.853-0.735,1.54-1.612,1.517c-0.806-0.024-1.588-0.853-1.54-1.612
					c0.047-0.758,0.829-1.469,1.612-1.469C99.107,62.385,99.818,63.096,99.794,63.949z"/>
				<path style="fill:#A3A3A3;" d="M72.066,106.561c0-0.924,0.64-1.612,1.588-1.635c0.664-0.024,1.422,0.782,1.446,1.517
					c0.024,0.853-0.687,1.612-1.54,1.612C72.706,108.054,72.09,107.438,72.066,106.561z"/>
				<path style="fill:#616161;" d="M100.008,81.344c0.047-0.735,0.806-1.493,1.517-1.493c0.758,0.024,1.517,0.829,1.469,1.612
					c-0.047,0.782-0.735,1.422-1.54,1.375C100.648,82.79,99.96,82.103,100.008,81.344z"/>
				<path style="fill:#7C7C7C;" d="M93.325,102.342c-0.735-0.024-1.446-0.782-1.398-1.54c0.047-0.735,0.758-1.375,1.469-1.375
					c0.711,0.024,1.398,0.735,1.398,1.446C94.818,101.608,94.059,102.366,93.325,102.342z"/>
				<path style="fill:#838383;" d="M94.794,61.935c-0.024,0.758-0.664,1.375-1.469,1.375c-0.735,0-1.422-0.664-1.422-1.422
					c0-0.711,0.711-1.446,1.422-1.446C94.083,60.441,94.818,61.176,94.794,61.935z"/>
				<path style="fill:#4E4E4E;" d="M115.815,49.421c0.19,0.284,0.569,0.047,0.877,0.355c-0.735,0.664-1.303,1.446-1.043,2.654
					c-0.474-0.237-0.355-0.877-0.877-0.687c-0.427,0.142-0.569,0.474-0.711,0.829c-0.047,0.095-0.047,0.237-0.047,0.355
					c0,0.284,0,0.616-0.355,0.592c-0.284-0.024-0.261-0.403-0.332-0.64c-0.118-0.332,0.379-0.664,0-0.972
					C113.635,50.559,114.488,49.753,115.815,49.421z"/>
				<path style="fill:#A3A3A3;" d="M68.89,101.916c0,0.711-0.569,1.303-1.28,1.303c-0.806,0.024-1.398-0.545-1.398-1.375
					c0-0.782,0.64-1.398,1.398-1.375C68.345,100.517,68.867,101.134,68.89,101.916z"/>
				<path style="fill:#838383;" d="M88.111,59.873c0.782,0,1.351,0.569,1.375,1.303c0,0.735-0.592,1.351-1.327,1.375
					c-0.735,0.024-1.446-0.664-1.446-1.375C86.712,60.489,87.376,59.873,88.111,59.873z"/>
				<path style="fill:#787878;" d="M67.611,59.541c0.735,0.024,1.327,0.64,1.303,1.398c-0.024,0.758-0.64,1.375-1.375,1.327
					c-0.735-0.047-1.327-0.664-1.303-1.422C66.236,60.11,66.852,59.517,67.611,59.541z"/>
				<path style="fill:#7C7C7C;" d="M88.111,100.233c0.735,0,1.327,0.616,1.327,1.351c0,0.664-0.64,1.303-1.303,1.303
					c-0.758,0.024-1.398-0.664-1.375-1.422C86.783,100.778,87.423,100.233,88.111,100.233z"/>
				<path style="fill:#777777;" d="M101.027,83.525c0.664-0.024,1.327,0.592,1.351,1.256c0.024,0.664-0.64,1.375-1.327,1.398
					c-0.664,0.024-1.303-0.592-1.327-1.28C99.7,84.165,100.268,83.548,101.027,83.525z"/>
				<path style="fill:#323232;" d="M101.027,74.685c0.024,0.592-0.687,1.327-1.303,1.351c-0.592,0.024-1.327-0.664-1.327-1.303
					c-0.024-0.64,0.64-1.327,1.28-1.351C100.292,73.381,101.003,74.069,101.027,74.685z"/>
				<path style="fill:#A3A3A3;" d="M84.153,100.873c0.024,0.616-0.569,1.256-1.209,1.303c-0.664,0.047-1.256-0.569-1.28-1.303
					c0-0.687,0.498-1.256,1.161-1.303C83.489,99.546,84.129,100.162,84.153,100.873z"/>
				<path style="fill:#7E7E7E;" d="M84.129,61.958c-0.024,0.664-0.616,1.256-1.256,1.256c-0.735-0.024-1.256-0.616-1.232-1.351
					c0.024-0.687,0.569-1.232,1.232-1.232C83.56,60.607,84.153,61.247,84.129,61.958z"/>
				<path style="fill:#717171;" d="M99.7,86.843c0.64,0,1.256,0.616,1.256,1.232c0,0.664-0.592,1.209-1.256,1.209
					c-0.64,0-1.28-0.616-1.28-1.232S99.06,86.843,99.7,86.843z"/>
				<path style="fill:#4E4E4E;" d="M106.027,77.481c0.45-0.213,0.829-0.592,1.398-0.545c0.379,0.024,0.521-0.284,0.758-0.521
					c0.355-0.379,0.711-0.924,1.161-0.095c0.047,0.071,0.261,0.071,0.403,0.095c0.024,0.19,0.047,0.379-0.142,0.521
					c-0.071,0.024-0.166,0.071-0.071,0.166C108.729,78.572,107.141,78.738,106.027,77.481z"/>
				<path style="fill:#424242;" d="M100.292,78.951c-0.664-0.379-0.782-0.972-0.45-1.612c0.332-0.664,0.924-0.924,1.612-0.711
					c0.687,0.237,0.948,0.853,0.877,1.564c-0.379,0.024-0.237,0.213-0.142,0.379l0,0C101.548,78.785,100.837,78.429,100.292,78.951z
					"/>
				<path style="fill:#424242;" d="M97.567,70.774c0.64,0,1.161,0.545,1.161,1.209c0,0.687-0.498,1.138-1.209,1.114
					c-0.711-0.024-1.09-0.403-1.114-1.114C96.405,71.32,96.951,70.774,97.567,70.774z"/>
				<path style="fill:#787878;" d="M79.176,63.996c-0.024,0.64-0.569,1.138-1.232,1.114c-0.687-0.047-1.114-0.521-1.09-1.232
					c0.024-0.664,0.569-1.161,1.209-1.138C78.678,62.764,79.223,63.38,79.176,63.996z"/>
				<path style="fill:#4B4B4B;" d="M97.401,91.986c-0.498,0-0.995-0.474-0.972-1.161c0-0.64,0.569-1.209,1.161-1.185
					c0.592,0.024,1.185,0.616,1.138,1.232C98.657,91.535,98.278,91.914,97.401,91.986z"/>
				<path style="fill:#A3A3A3;" d="M64.103,95.967c-0.071,0.569-0.45,0.995-1.138,1.043c-0.592,0.047-1.209-0.616-1.185-1.209
					c0-0.545,0.711-1.256,1.256-1.138C63.653,94.782,64.127,95.138,64.103,95.967z"/>
				<path style="fill:#A3A3A3;" d="M78.086,97.673c0.616,0.024,1.161,0.616,1.066,1.256c-0.095,0.664-0.498,1.066-1.185,1.043
					c-0.664,0-1.138-0.521-1.09-1.209C76.901,98.124,77.422,97.65,78.086,97.673z"/>
				<path style="fill:#4E4E4E;" d="M109.345,58.427c-0.308,0.047-0.64,0.024-0.948,0.19c-0.237,0.142-0.498,0.142-0.332,0.592
					c0.095,0.261-0.095,0.758-0.45,0.995c-0.711,0.498-0.735,0.687-0.095,1.327c-0.379,0.284-0.806,0.332-1.232,0.166
					C105.767,59.494,107.331,57.835,109.345,58.427z"/>
				<path style="fill:#9B9B9B;" d="M62.918,65.798c0.521,0,1.161,0.616,1.161,1.138c0,0.569-0.592,1.185-1.161,1.138
					c-0.64-0.047-1.043-0.45-1.114-1.066C61.733,66.509,62.444,65.798,62.918,65.798z"/>
				<path style="fill:#A3A3A3;" d="M74.934,95.446c-0.118,0.664-0.379,1.185-1.043,1.209c-0.64,0-1.043-0.403-1.09-1.066
					c-0.024-0.687,0.427-1.019,1.043-1.066C74.46,94.498,74.744,94.972,74.934,95.446z"/>
				<path style="fill:#787878;" d="M72.801,67.054c0.071-0.592,0.45-0.901,1.043-0.948c0.545-0.024,1.114,0.545,1.043,1.043
					c-0.095,0.616-0.427,1.09-1.09,1.043C73.18,68.168,72.824,67.741,72.801,67.054z"/>
				<path style="fill:#4B4B4B;" d="M94.794,91.867c0.711-0.024,1.019,0.45,1.09,1.043c0.071,0.545-0.569,1.161-1.138,1.09
					c-0.664-0.071-0.972-0.545-0.972-1.161C93.775,92.246,94.154,91.891,94.794,91.867z"/>
				<path style="fill:#6D6D6D;" d="M93.751,69.803c0.095-0.545,0.379-0.995,1.019-0.995s1.09,0.379,1.114,1.019
					c0,0.64-0.379,1.066-1.043,1.066C94.154,70.917,93.846,70.466,93.751,69.803z"/>
				<path style="fill:#A3A3A3;" d="M71.545,91.393c0.071,0.687-0.379,0.901-0.924,0.948c-0.616,0.047-0.972-0.355-0.972-0.901
					c0-0.521,0.308-0.972,0.948-0.972C71.213,90.469,71.521,90.801,71.545,91.393z"/>
				<path style="fill:#838383;" d="M91.547,69.495c-0.569-0.024-0.853-0.427-0.877-0.972c0-0.545,0.332-0.924,0.853-0.924
					c0.545,0,0.948,0.332,0.948,0.924C92.471,69.092,92.187,69.447,91.547,69.495z"/>
				<path style="fill:#7C7C7C;" d="M91.547,95.114c-0.569,0-0.877-0.308-0.877-0.853c0.024-0.569,0.332-0.948,0.948-0.924
					c0.521,0.024,0.901,0.332,0.877,0.901C92.495,94.806,92.163,95.138,91.547,95.114z"/>
				<path style="fill:#9B9B9B;" d="M70.739,70.466c0.45,0.024,0.806,0.332,0.806,0.877c0,0.545-0.308,0.901-0.853,0.948
					c-0.616,0.047-0.972-0.403-0.972-0.924C69.72,70.893,70.052,70.466,70.739,70.466z"/>
				<path style="fill:#7C7C7C;" d="M88.134,93.834c0.498,0.095,0.829,0.379,0.806,0.901c-0.024,0.474-0.379,0.806-0.806,0.782
					c-0.45,0-0.853-0.284-0.853-0.853C87.305,94.142,87.66,93.905,88.134,93.834z"/>
				<path style="fill:#838383;" d="M88.988,68.073c-0.118,0.474-0.308,0.901-0.853,0.877c-0.498-0.024-0.924-0.308-0.901-0.877
					c0.024-0.521,0.427-0.829,0.877-0.829C88.608,67.22,88.893,67.575,88.988,68.073z"/>
				<path style="fill:#A3A3A3;" d="M84.698,95.019c-0.498-0.024-0.735-0.355-0.758-0.806c-0.024-0.45,0.308-0.687,0.735-0.711
					c0.427-0.024,0.758,0.19,0.735,0.664C85.385,94.616,85.172,94.948,84.698,95.019z"/>
				<path style="fill:#7E7E7E;" d="M85.433,68.476c-0.071,0.498-0.308,0.829-0.806,0.829c-0.45,0-0.711-0.308-0.711-0.735
					c-0.024-0.498,0.284-0.806,0.758-0.782C85.077,67.788,85.362,68.073,85.433,68.476z"/>
				<path style="fill:#787878;" d="M82.162,69.874c-0.095,0.379-0.261,0.664-0.687,0.687c-0.427,0-0.64-0.237-0.664-0.664
					c-0.024-0.427,0.261-0.664,0.64-0.687C81.878,69.187,82.044,69.518,82.162,69.874z"/>
				<path style="fill:#A3A3A3;" d="M82.067,92.886c-0.024,0.308-0.118,0.64-0.569,0.664c-0.403,0-0.664-0.213-0.664-0.64
					c0-0.403,0.19-0.64,0.64-0.664C81.854,92.223,82.044,92.436,82.067,92.886z"/>
				<path style="fill:#A3A3A3;" d="M78.702,91.322c-0.379-0.047-0.545-0.261-0.545-0.592c0.024-0.355,0.284-0.521,0.592-0.521
					c0.332,0,0.45,0.237,0.45,0.545C79.176,91.085,79.034,91.298,78.702,91.322z"/>
				<path style="fill:#7E7E7E;" d="M78.749,72.552c-0.308-0.095-0.616-0.166-0.592-0.545c0.024-0.355,0.284-0.521,0.616-0.521
					c0.308,0,0.45,0.261,0.45,0.545C79.223,72.362,79.01,72.481,78.749,72.552z"/>
				<path style="fill:#4E4E4E;" d="M100.292,78.951c0.545-0.498,1.256-0.166,1.872-0.355
					C101.525,79.425,101.051,79.52,100.292,78.951z"/>
				<path style="fill:#4E4E4E;" d="M102.164,78.595c-0.118-0.19-0.237-0.379,0.142-0.379
					C102.33,78.358,102.307,78.501,102.164,78.595z"/>
				<path style="fill:#4E4E4E;" d="M116.123,49.374l-0.071,0.024h-0.071C116.029,49.398,116.076,49.398,116.123,49.374z"/>
				<path style="fill:#424242;" d="M109.535,77.126c-0.071-0.118,0-0.142,0.071-0.166C109.582,77.007,109.559,77.055,109.535,77.126
					z"/>
				<path style="fill:#4E4E4E;" d="M113.351,74.282c0.071,0.071,0.118,0.142,0.047,0.237c-0.024-0.047-0.047-0.095-0.071-0.142
					C113.327,74.353,113.327,74.329,113.351,74.282z"/>
				<path style="fill:#FDFDFD;" d="M58.083,81.961c0-0.355,0-0.711,0-1.066c0-1.659,0.45-2.441,1.706-2.939
					c1.28-0.498,2.749-0.142,3.721,0.901c1.73,1.896,1.185,5.119-1.114,6.162c-1.351,0.616-2.702,0.332-4.005-0.284
					c-0.284-0.142-0.308-0.379-0.308-0.664C58.083,83.359,58.083,82.672,58.083,81.961L58.083,81.961z"/>
				<path style="fill:#FDFDFD;" d="M88.134,85.326c-2.038,0-3.602-1.683-3.579-3.816c0.024-2.086,1.612-3.721,3.602-3.745
					c2.038,0,3.626,1.635,3.626,3.792C91.784,83.667,90.173,85.326,88.134,85.326z"/>
			</g>
		</g>
	</g>
</g>
<g id="Layer_1">
</g>
</svg>
